<svg width="287" height="238" viewBox="0 0 287 238" fill="none" xmlns="http://www.w3.org/2000/svg">
<ellipse cx="167.5" cy="125.5" rx="119.5" ry="112.5" fill="#F3F3F3"/>
<g clip-path="url(#clip0_212_2)">
<path d="M86.267 85.9857C84.7419 84.018 82.5865 82.1974 82.45 79.7693C82.3248 77.5423 83.9925 75.3312 83.2892 73.2006C82.7484 71.5625 80.9643 70.574 79.2209 70.0506C75.8831 69.0628 72.3112 69.1997 69.0596 70.4401L69.236 70.3162C67.2515 69.6122 64.9316 70.3389 63.3702 71.6848C61.8087 73.0307 60.8807 74.8963 60.1607 76.7659C59.4405 78.6354 58.8826 80.5733 57.8821 82.326C56.8815 84.0787 55.3496 85.6726 53.3284 86.2783C54.005 87.6222 56.1202 88.0833 57.3608 87.1572C57.6778 86.9009 57.9626 86.6077 58.2093 86.2838C59.0367 85.282 59.8641 84.2802 60.6916 83.2785C61.5429 84.7861 60.2711 86.867 61.3176 88.2628C61.8572 88.9826 62.8427 89.256 63.7581 89.452C70.9121 90.9719 78.3334 90.6979 85.3547 88.6544C85.919 88.4888 86.5416 88.2608 86.7757 87.7522C87.046 87.1651 86.668 86.5031 86.267 85.9857Z" fill="#2F2E41"/>
<path d="M106.552 93.6647C106.507 93.8602 106.478 94.059 106.465 94.2591L90.8283 103.241L87.0276 101.063L82.9758 106.344L89.3278 110.852C89.841 111.216 90.4589 111.405 91.0889 111.389C91.7188 111.374 92.3268 111.156 92.8216 110.767L108.946 98.1014C109.673 98.3696 110.466 98.4109 111.217 98.2197C111.969 98.0285 112.645 97.614 113.154 97.0312C113.664 96.4484 113.983 95.725 114.069 94.9573C114.156 94.1895 114.005 93.4137 113.638 92.7331C113.271 92.0524 112.704 91.4993 112.014 91.1471C111.323 90.7949 110.541 90.6605 109.772 90.7616C109.003 90.8628 108.283 91.1947 107.707 91.7133C107.132 92.2318 106.729 92.9125 106.552 93.6647H106.552Z" fill="#FFB7B7"/>
<path d="M90.3055 103.667L85.2518 110.188C85.108 110.374 84.9257 110.526 84.7174 110.635C84.5091 110.745 84.2796 110.808 84.0446 110.82C83.8095 110.833 83.5745 110.795 83.3554 110.71C83.1364 110.624 82.9385 110.492 82.7752 110.323L77.054 104.408C76.1045 103.67 75.4876 102.587 75.3387 101.397C75.1897 100.207 75.5208 99.0069 76.2593 98.0595C76.9979 97.1122 78.0836 96.4951 79.2785 96.3437C80.4733 96.1923 81.6796 96.5188 82.633 97.2518L89.8085 101.247C90.0139 101.361 90.1922 101.519 90.3311 101.708C90.47 101.897 90.5663 102.114 90.6135 102.343C90.6606 102.573 90.6575 102.81 90.6044 103.038C90.5513 103.267 90.4493 103.481 90.3055 103.667H90.3055Z" fill="#B00000"/>
<path d="M83.3504 217.3L87.8128 217.3L89.9357 200.161L83.3494 200.161L83.3504 217.3Z" fill="#FFB7B7"/>
<path d="M82.2119 215.849L91.0004 215.849H91.0008C92.4861 215.849 93.9106 216.437 94.9609 217.483C96.0112 218.528 96.6014 219.947 96.6015 221.426V221.607L82.2122 221.607L82.2119 215.849Z" fill="#2F2E41"/>
<path d="M52.7739 217.3L57.2366 217.3L59.3595 200.161L52.7732 200.161L52.7739 217.3Z" fill="#FFB7B7"/>
<path d="M51.6357 215.849L60.4242 215.849H60.4246C61.9099 215.849 63.3344 216.437 64.3848 217.483C65.4351 218.528 66.0252 219.947 66.0253 221.426V221.607L51.636 221.607L51.6357 215.849Z" fill="#2F2E41"/>
<path d="M80.6704 83.5629C81.1352 79.347 78.0796 75.5542 73.8456 75.0914C69.6116 74.6286 65.8024 77.6711 65.3377 81.887C64.8729 86.1028 67.9284 89.8956 72.1625 90.3584C76.3965 90.8212 80.2056 87.7787 80.6704 83.5629Z" fill="#FFB7B7"/>
<path d="M77.5167 94.2371L82.0602 96.4783C82.0602 96.4783 87.1368 105.263 84.2248 113.599C82.811 117.646 86.7923 130.548 86.7923 130.548C86.7923 130.548 92.9608 188.987 92.9803 207.023C85.3168 208.196 78.0367 209.646 77.6727 206.021C77.3087 202.397 73.3242 159.543 73.3242 159.543C73.3242 159.543 67.8447 207.109 63.4766 207.833C59.1086 208.558 50.3726 207.471 50.3726 207.471C50.3726 207.471 57.3081 137.797 62.0401 133.447L62.7681 129.823L62.7486 97.2891L68.2005 94.6985L77.5167 94.2371Z" fill="#2F2E41"/>
<path d="M61.2629 143.627C61.7657 143.356 62.2027 142.979 62.5432 142.521C62.8836 142.064 63.1193 141.538 63.2335 140.98C63.3477 140.423 63.3377 139.847 63.2042 139.293C63.0708 138.74 62.817 138.222 62.4609 137.777L67.745 102.707L60.8414 102.377L56.7223 137.302C56.0107 137.947 55.5616 138.83 55.46 139.783C55.3584 140.736 55.6114 141.693 56.1711 142.473C56.7308 143.252 57.5582 143.8 58.4967 144.013C59.4351 144.226 60.4194 144.088 61.2629 143.627Z" fill="#FFB7B7"/>
<path d="M67.5949 111.494L59.3385 110.975C59.1036 110.96 58.8746 110.895 58.6672 110.784C58.4598 110.673 58.2788 110.519 58.1366 110.333C57.9943 110.146 57.8942 109.931 57.843 109.702C57.7917 109.473 57.7906 109.236 57.8397 109.007L59.5601 100.975C59.6426 99.7788 60.1983 98.6637 61.1053 97.8747C62.0123 97.0856 63.1966 96.6868 64.3984 96.7659C65.6002 96.845 66.7215 97.3954 67.5163 98.2964C68.3112 99.1975 68.7147 100.376 68.6384 101.573L69.3304 109.729C69.3501 109.963 69.3191 110.198 69.2393 110.418C69.1596 110.639 69.0331 110.84 68.8684 111.007C68.7037 111.175 68.5047 111.305 68.285 111.389C68.0652 111.473 67.8298 111.509 67.5949 111.494H67.5949Z" fill="#B00000"/>
<path d="M81.087 77.733C80.7864 76.3755 79.8103 75.2508 78.6858 74.4271C76.832 73.0693 74.5586 72.4018 72.2615 72.5409C69.9644 72.68 67.7891 73.6168 66.1142 75.1883C65.1783 76.0113 64.5036 77.0881 64.1726 78.2869C64.0147 78.8861 64.0063 79.5146 64.1481 80.1177C64.2898 80.7209 64.5775 81.2804 64.9861 81.7475L65.1402 81.8436C65.0005 81.2535 65.4608 80.6639 66.0107 80.4036C66.5827 80.1946 67.1797 80.0613 67.7865 80.0072C68.7046 79.8344 69.5747 79.4675 70.3381 78.9311C71.1015 78.3947 71.7404 77.7014 72.2116 76.8981C72.5607 77.8868 73.1184 78.7897 73.8472 79.5459C74.576 80.3021 75.4589 80.8942 76.4367 81.2823C77.456 81.6792 80.2557 82.225 81.2261 81.7211C82.4641 81.0784 81.3875 79.0905 81.087 77.733Z" fill="#2F2E41"/>
<path d="M24.3393 206.713C25.6737 207.18 27.1065 207.297 28.4996 207.053C29.8927 206.808 31.199 206.211 32.2929 205.318C35.0787 202.99 35.9522 199.155 36.6627 195.604L38.7648 185.099L34.364 188.116C31.199 190.286 27.963 192.525 25.7718 195.668C23.5806 198.811 22.6246 203.101 24.3847 206.502" fill="#E6E6E6"/>
<path d="M25.0187 220.163C24.4648 216.144 23.8949 212.074 24.2844 208.013C24.6295 204.406 25.7347 200.884 27.9846 197.995C29.1789 196.465 30.6321 195.153 32.2789 194.12C32.7082 193.85 33.1035 194.528 32.676 194.797C29.8265 196.59 27.6224 199.237 26.3817 202.358C25.0113 205.828 24.7913 209.611 25.0273 213.298C25.17 215.527 25.4732 217.742 25.7777 219.954C25.8017 220.054 25.7867 220.159 25.7357 220.249C25.6847 220.338 25.6014 220.405 25.5028 220.436C25.4022 220.463 25.295 220.449 25.2044 220.398C25.1138 220.347 25.0472 220.262 25.019 220.162L25.0187 220.163Z" fill="#F2F2F2"/>
<path d="M29.0056 213.715C29.5779 214.581 30.3645 215.286 31.2899 215.762C32.2152 216.238 33.2479 216.468 34.2886 216.431C36.9637 216.305 39.1929 214.446 41.1995 212.682L47.1358 207.463L43.2071 207.276C40.3818 207.141 37.4835 207.014 34.7924 207.883C32.1014 208.752 29.6196 210.839 29.1276 213.612" fill="#E6E6E6"/>
<path d="M23.4531 222.472C26.1198 217.774 29.2127 212.553 34.7396 210.884C36.2762 210.422 37.8874 210.256 39.4865 210.396C39.9906 210.439 39.8647 211.213 39.3617 211.17C36.6812 210.948 34.0058 211.653 31.786 213.165C29.6499 214.613 27.9866 216.626 26.579 218.76C25.7167 220.068 24.9443 221.431 24.172 222.792C23.9252 223.227 23.2034 222.912 23.4531 222.472Z" fill="#F2F2F2"/>
<path d="M203.652 135.616C198.648 128.948 189.489 127.339 184.938 130.725C180.387 134.111 179.341 143.313 184.346 149.981C188.977 156.153 197.369 157.836 201.991 155.524C201.976 155.596 201.975 155.67 201.989 155.743L202.249 157.026C202.269 157.123 202.314 157.214 202.379 157.29C202.444 157.366 202.528 157.424 202.622 157.458C202.716 157.493 202.817 157.503 202.916 157.488C203.015 157.472 203.108 157.432 203.187 157.371L205.394 155.654C205.473 155.593 205.535 155.512 205.574 155.42C205.613 155.328 205.627 155.228 205.616 155.129C205.605 155.03 205.569 154.935 205.511 154.854C205.453 154.772 205.375 154.707 205.285 154.664L204.098 154.102C204.056 154.083 204.012 154.07 203.967 154.061C207.53 150.311 208.294 141.801 203.652 135.616Z" fill="#B3E5FC"/>
<path d="M192.706 133.099C195.154 133.486 197.359 134.794 198.866 136.753C200.373 138.712 201.067 141.173 200.806 143.627C200.752 144.189 201.634 144.185 201.687 143.627C201.94 140.982 201.178 138.339 199.556 136.23C197.934 134.12 195.571 132.699 192.94 132.252C192.385 132.158 192.147 133.004 192.706 133.099Z" fill="white"/>
<path d="M211.808 20.357C216.183 13.264 214.302 4.1952 209.461 1.23472C204.62 -1.72577 195.646 0.705378 191.271 7.79837C187.222 14.3638 188.75 22.7505 192.615 26.1733C192.542 26.1862 192.473 26.2128 192.41 26.2518L191.309 26.9667C191.225 27.0212 191.156 27.0961 191.11 27.1844C191.063 27.2727 191.04 27.3714 191.042 27.4712C191.045 27.5709 191.073 27.6684 191.124 27.7543C191.174 27.8402 191.247 27.9118 191.333 27.9622L193.75 29.37C193.837 29.4204 193.935 29.4479 194.035 29.45C194.135 29.4521 194.234 29.4286 194.323 29.3819C194.411 29.3351 194.486 29.2666 194.541 29.1828C194.595 29.099 194.627 29.0028 194.634 28.9033L194.72 27.5973C194.722 27.5517 194.718 27.5061 194.71 27.4613C199.526 29.3728 207.75 26.9367 211.808 20.357Z" fill="#B3E5FC"/>
<path d="M210.115 9.29905C210.658 11.707 210.251 14.2306 208.98 16.3488C207.708 18.467 205.668 20.0182 203.281 20.6822C202.736 20.8401 203.065 21.655 203.606 21.4981C206.168 20.7547 208.353 19.0743 209.723 16.7941C211.092 14.5139 211.546 11.8023 210.992 9.20326C210.874 8.65499 209.997 8.74672 210.115 9.29905Z" fill="white"/>
<path d="M134.277 54.0115C133.911 45.6956 127.251 39.2318 121.575 39.4794C115.899 39.7269 109.833 46.7457 110.199 55.0616C110.537 62.759 116.521 68.8541 121.649 69.534C121.596 69.5853 121.553 69.6462 121.523 69.7135L121.013 70.9198C120.974 71.0118 120.959 71.1121 120.97 71.2113C120.981 71.3104 121.018 71.4051 121.076 71.4864C121.134 71.5677 121.212 71.6328 121.303 71.6756C121.393 71.7184 121.493 71.7374 121.593 71.7309L124.387 71.5492C124.487 71.5427 124.584 71.5109 124.668 71.4567C124.752 71.4025 124.821 71.3279 124.868 71.2398C124.915 71.1516 124.939 71.053 124.937 70.9533C124.935 70.8535 124.907 70.7559 124.857 70.6698L124.193 69.5398C124.169 69.501 124.141 69.4651 124.109 69.4329C129.174 68.3303 134.616 61.7256 134.277 54.0115Z" fill="#B00000"/>
<path d="M126.654 45.7953C128.458 47.4873 129.541 49.8046 129.679 52.2686C129.817 54.7326 128.999 57.1554 127.395 59.0368C127.033 59.4713 127.764 59.9627 128.124 59.5311C129.828 57.4864 130.693 54.8759 130.545 52.223C130.397 49.5701 129.247 47.071 127.326 45.227C126.92 44.8382 126.245 45.4036 126.654 45.7953Z" fill="white"/>
<path d="M160.302 109.178C158.114 109.041 155.99 108.389 154.104 107.277C152.218 106.164 150.623 104.623 149.451 102.778C149.122 102.255 148.694 101.681 148.921 101.037C149 100.79 149.161 100.578 149.378 100.434C149.594 100.29 149.853 100.223 150.112 100.245C150.783 100.326 151.215 100.979 151.298 101.605C151.392 102.315 150.889 102.872 150.268 103.136C148.75 103.78 147.219 102.784 145.983 101.99C143.167 100.178 140.069 98.5402 136.657 98.3338C133.499 98.1429 130.113 99.3756 128.357 102.102C128.05 102.579 128.813 103.02 129.118 102.545C130.86 99.8412 134.381 98.8701 137.443 99.288C139.267 99.5747 141.029 100.17 142.652 101.049C143.493 101.484 144.309 101.966 145.109 102.472C145.87 103.001 146.676 103.461 147.519 103.848C148.924 104.423 150.785 104.378 151.766 103.055C152.682 101.82 151.974 99.7644 150.443 99.4173C150.107 99.3513 149.759 99.3694 149.432 99.4699C149.105 99.5705 148.808 99.7503 148.568 99.9933C148.327 100.236 148.151 100.535 148.055 100.862C147.96 101.19 147.947 101.536 148.018 101.869C148.171 102.596 148.721 103.308 149.146 103.902C150.425 105.693 152.091 107.176 154.022 108.241C155.952 109.306 158.098 109.926 160.302 110.056C160.869 110.084 160.867 109.206 160.302 109.178L160.302 109.178Z" fill="#B3E5FC"/>
<path d="M235.233 55.7255C237.242 53.985 239.988 52.8151 242.637 53.1358C245.286 53.4565 247.636 55.5536 247.529 58.0375C247.481 59.1637 246.985 60.3998 247.592 61.3487C248.06 62.079 249.037 62.3693 249.955 62.5116C250.873 62.6538 251.85 62.7146 252.619 63.1785C253.387 63.6424 253.824 64.6953 253.235 65.3954C253.041 65.6261 252.762 65.7892 252.577 66.0264C252.425 66.2447 252.344 66.5049 252.348 66.7708C252.351 67.0367 252.437 67.295 252.595 67.5097C252.929 67.9366 253.373 68.2659 253.88 68.4627C254.917 68.9373 256.25 69.4383 256.286 70.5245C256.268 70.8224 256.179 71.1119 256.025 71.3682C255.872 71.6245 255.658 71.8401 255.403 71.9967C254.875 72.3276 254.3 72.5779 253.697 72.7391L229.418 80.5426C228.627 80.8354 227.801 81.0237 226.96 81.1027C226.552 81.1436 226.141 81.1003 225.75 80.9755C225.36 80.8507 225 80.6471 224.692 80.3774C223.973 79.6474 223.972 78.4937 224.318 77.5198C224.663 76.546 225.299 75.6735 225.762 74.7375C226.225 73.8014 226.511 72.7167 226.114 71.7926C225.796 71.053 225.096 70.5358 224.529 69.9435C223.963 69.3512 223.499 68.541 223.785 67.7641C224.189 66.6694 225.811 66.2922 226.324 65.2329C226.712 64.4334 226.336 63.5503 226.156 62.7146C225.722 60.7044 226.553 58.4495 228.254 57.025C229.123 56.3161 230.149 55.8232 231.247 55.587C232.345 55.3508 233.484 55.378 234.57 55.6664L235.233 55.7255Z" fill="#2F2E41"/>
<path d="M276.036 150.202V154.354L259.951 156.33L259.952 150.201L276.036 150.202Z" fill="#9E616A"/>
<path d="M280.079 149.143L280.078 162.531H279.908C278.52 162.531 277.189 161.982 276.208 161.005C275.226 160.028 274.675 158.702 274.675 157.32V157.32L274.675 149.143L280.079 149.143Z" fill="#2F2E41"/>
<path d="M256.152 157.265L255.128 161.29L239.048 159.273L240.56 153.333L256.152 157.265Z" fill="#9E616A"/>
<path d="M260.332 157.226L257.03 170.205L256.866 170.164C255.52 169.824 254.365 168.967 253.654 167.78C252.944 166.592 252.736 165.173 253.077 163.833L253.077 163.832L255.093 155.905L260.332 157.226Z" fill="#2F2E41"/>
<path d="M252.045 110.7L252.914 111.601C252.914 111.601 258.581 116.026 254.388 127.682L247.529 147.356L270.519 148.249L270.027 157.239C270.027 157.239 236.686 159.086 236.978 153.615C237.269 148.144 238.5 127.886 238.5 127.886L231.573 122.347L233.243 112.979L252.045 110.7Z" fill="#2F2E41"/>
<path d="M234.236 119.628L231.573 122.347L222.643 146.789C222.643 146.789 221.283 152.885 224.344 154.24C227.405 155.595 247.103 163.173 247.103 163.173L249.115 155.965L233.937 146.894L241.011 137.644L242.076 123.065L234.236 119.628Z" fill="#2F2E41"/>
<path d="M234.378 76.5106L257.044 71.9979L257.537 84.3801L251.666 96.8405L252.914 111.601L232.6 115.134L233.236 95.7262C233.236 95.7262 227.781 88.0633 230.995 80.3395L234.378 76.5106Z" fill="#FFC107"/>
<path d="M284.92 47.1375C285.034 47.6572 285.031 48.1955 284.913 48.7143C284.795 49.2331 284.565 49.7198 284.237 50.1402C283.91 50.5606 283.494 50.9045 283.019 51.1475C282.544 51.3906 282.021 51.5269 281.487 51.547L259.752 76.6431L254.698 70.5365L277.653 47.7881C277.678 46.8929 278.033 46.0381 278.649 45.3858C279.265 44.7335 280.1 44.3289 280.996 44.2487C281.892 44.1685 282.786 44.4183 283.509 44.9507C284.232 45.4831 284.734 46.2612 284.92 47.1375Z" fill="#9E616A"/>
<path d="M264.484 73.9046C264.489 74.139 264.444 74.3718 264.35 74.5869C264.257 74.8021 264.118 74.9947 263.943 75.1515L257.831 80.6298C257.064 81.5544 255.96 82.1383 254.761 82.2537C253.562 82.369 252.366 82.0063 251.435 81.2451C250.504 80.4839 249.914 79.3863 249.795 78.1928C249.676 76.9994 250.037 75.8075 250.798 74.8785L255.064 67.8474C255.186 67.6468 255.35 67.4746 255.545 67.3426C255.739 67.2107 255.96 67.122 256.192 67.0828C256.424 67.0435 256.662 67.0545 256.89 67.115C257.117 67.1755 257.329 67.2841 257.51 67.4334L263.89 72.6817C264.071 72.831 264.218 73.0175 264.321 73.2286C264.424 73.4396 264.479 73.6702 264.484 73.9046Z" fill="#FFC107"/>
<path d="M198.838 106.115C198.804 105.584 198.887 105.052 199.082 104.557C199.277 104.062 199.578 103.615 199.965 103.248C200.352 102.881 200.815 102.604 201.321 102.434C201.828 102.265 202.365 102.208 202.896 102.268L228.167 80.7036L232.243 87.4961L206.121 106.557C205.961 107.439 205.481 108.231 204.774 108.784C204.066 109.337 203.18 109.612 202.282 109.557C201.384 109.503 200.538 109.122 199.903 108.488C199.268 107.853 198.889 107.009 198.838 106.115V106.115Z" fill="#9E616A"/>
<path d="M223.076 82.704C223.106 82.4715 223.186 82.2483 223.311 82.0495C223.436 81.8507 223.602 81.6811 223.799 81.5522L230.667 77.049C231.565 76.2494 232.745 75.8368 233.947 75.9019C235.15 75.9669 236.278 76.5042 237.084 77.3959C237.889 78.2876 238.307 79.4611 238.245 80.6589C238.183 81.8568 237.647 82.9813 236.753 83.7859L231.476 90.1001C231.325 90.2802 231.138 90.426 230.925 90.5274C230.713 90.6287 230.481 90.6834 230.246 90.6875C230.01 90.6917 229.777 90.6453 229.561 90.5515C229.345 90.4577 229.152 90.3186 228.995 90.1439L223.479 84.0019C223.322 83.8272 223.205 83.6208 223.135 83.3968C223.066 83.1728 223.045 82.9365 223.076 82.704Z" fill="#FFC107"/>
<path d="M240.461 77.1671C244.895 75.8941 247.452 71.2837 246.174 66.8693C244.895 62.4549 240.265 59.9083 235.832 61.1813C231.398 62.4542 228.841 67.0647 230.119 71.4791C231.397 75.8934 236.028 78.44 240.461 77.1671Z" fill="#9E616A"/>
<path d="M246.029 65.6799C243.436 66.2051 240.601 64.2878 240.135 61.6934C240.465 62.723 240.404 63.8376 239.963 64.8252C239.521 65.8128 238.731 66.6044 237.742 67.0495C236.616 67.511 235.24 67.5267 234.397 68.4014C233.463 69.3703 233.559 71.0444 232.553 71.9385C231.581 72.8024 229.935 72.4776 229.054 71.5215C228.173 70.5655 227.922 69.1852 227.946 67.8881C227.981 66.0383 228.496 64.229 229.442 62.6361C230.387 61.0433 231.73 59.7212 233.341 58.7984C234.951 57.8755 236.774 57.3834 238.632 57.3699C240.49 57.3563 242.32 57.8218 243.944 58.7211C245.319 59.4826 246.56 60.6002 247.131 62.06C247.702 63.5197 247.475 65.347 246.318 66.4087L246.029 65.6799Z" fill="#2F2E41"/>
<path d="M129.937 222.148H0.34015C0.249937 222.148 0.163423 222.112 0.0996326 222.048C0.0358421 221.985 0 221.899 0 221.809C0 221.719 0.0358421 221.633 0.0996326 221.569C0.163423 221.506 0.249937 221.47 0.34015 221.47H129.937C130.028 221.47 130.114 221.506 130.178 221.569C130.242 221.633 130.278 221.719 130.278 221.809C130.278 221.899 130.242 221.985 130.178 222.048C130.114 222.112 130.028 222.148 129.937 222.148Z" fill="#CACACA"/>
</g>
<defs>
<clipPath id="clip0_212_2">
<rect width="285" height="223" fill="white"/>
</clipPath>
</defs>
</svg>
