<svg width="315" height="258" viewBox="0 0 315 258" fill="none" xmlns="http://www.w3.org/2000/svg">
<ellipse rx="121.371" ry="113.835" transform="matrix(-1 0 0 1 148.921 128.908)" fill="#F3F3F3"/>
<path fill-rule="evenodd" clip-rule="evenodd" d="M250.541 178.649C250.593 178.619 250.92 179.05 251.403 179.899C251.888 180.746 252.491 182.031 253.052 183.69C254.202 186.996 254.924 191.877 254.496 197.2C254.071 202.522 252.841 207.194 251.892 210.519C250.921 213.846 250.206 215.865 250.083 215.831C249.947 215.794 250.43 213.704 251.226 210.345C252.003 206.986 253.11 202.339 253.525 197.126C253.943 191.915 253.349 187.171 252.395 183.892C251.469 180.596 250.388 178.728 250.541 178.649Z" fill="white"/>
<path fill-rule="evenodd" clip-rule="evenodd" d="M253.82 152.013C253.881 151.986 254.276 152.709 254.935 154.043C255.594 155.376 256.52 157.32 257.615 159.745C259.787 164.595 262.711 171.385 264.831 179.268C265.874 183.211 266.584 187.044 266.944 190.564C267.307 194.084 267.344 197.282 267.162 199.95C266.987 202.621 266.649 204.763 266.325 206.22C266.004 207.68 265.75 208.466 265.693 208.453C265.513 208.419 266.307 205.205 266.475 199.918C266.685 194.642 265.992 187.312 263.891 179.518C261.794 171.722 258.99 164.928 256.983 160.018C255.972 157.561 255.155 155.572 254.589 154.197C254.036 152.817 253.758 152.04 253.82 152.013Z" fill="white"/>
<path fill-rule="evenodd" clip-rule="evenodd" d="M132.46 183.276C132.573 183.397 131.469 184.449 130.037 186.403C129.682 186.894 129.296 187.431 128.934 188.045C128.539 188.635 128.196 189.313 127.813 190.013C127.102 191.439 126.427 193.061 125.907 194.826C125.409 196.597 125.118 198.329 124.962 199.915C124.914 200.711 124.845 201.468 124.865 202.178C124.845 202.89 124.886 203.55 124.926 204.155C125.099 206.571 125.474 208.049 125.314 208.093C125.217 208.126 124.6 206.698 124.241 204.225C124.156 203.608 124.074 202.929 124.058 202.195C124.003 201.461 124.042 200.676 124.067 199.85C124.179 198.202 124.454 196.395 124.972 194.557C125.511 192.724 126.239 191.048 127.021 189.593C127.439 188.879 127.822 188.193 128.26 187.602C128.663 186.988 129.094 186.457 129.495 185.979C131.114 184.076 132.396 183.196 132.46 183.276Z" fill="white"/>
<path fill-rule="evenodd" clip-rule="evenodd" d="M135.05 191.803C135.132 191.934 134.517 192.404 133.714 193.304C133.307 193.748 132.879 194.324 132.457 194.991C132.054 195.669 131.667 196.448 131.363 197.306C131.073 198.169 130.898 199.02 130.798 199.804C130.718 200.589 130.7 201.306 130.747 201.907C130.825 203.11 131.019 203.86 130.874 203.912C130.77 203.956 130.332 203.27 130.065 201.999C129.925 201.365 129.868 200.588 129.904 199.728C129.961 198.871 130.125 197.932 130.443 196.989C130.774 196.05 131.224 195.21 131.708 194.499C132.209 193.799 132.733 193.224 133.233 192.811C134.227 191.974 134.995 191.704 135.05 191.803Z" fill="white"/>
<path fill-rule="evenodd" clip-rule="evenodd" d="M99.0959 112.33C99.1462 112.287 99.5818 112.715 100.329 113.532C100.709 113.937 101.157 114.446 101.632 115.074C102.111 115.697 102.688 116.388 103.229 117.219C103.508 117.629 103.801 118.058 104.106 118.506C104.407 118.956 104.681 119.449 104.985 119.947C105.609 120.936 106.167 122.052 106.775 123.217C107.922 125.579 109.02 128.26 109.894 131.166C110.739 134.081 111.276 136.928 111.597 139.534C111.72 140.842 111.857 142.083 111.871 143.251C111.886 143.834 111.924 144.397 111.916 144.939C111.904 145.48 111.891 146 111.88 146.495C111.877 147.488 111.768 148.381 111.705 149.165C111.647 149.95 111.548 150.621 111.449 151.166C111.266 152.259 111.134 152.855 111.067 152.846C110.896 152.823 111.219 150.402 111.192 146.488C111.183 145.999 111.174 145.488 111.165 144.954C111.154 144.42 111.097 143.866 111.065 143.293C111.017 142.145 110.851 140.928 110.707 139.645C110.343 137.09 109.79 134.303 108.96 131.442C108.102 128.59 107.051 125.949 105.968 123.606C105.393 122.452 104.869 121.34 104.286 120.35C104.001 119.851 103.747 119.356 103.467 118.902C103.185 118.449 102.914 118.014 102.656 117.599C100.551 114.3 98.9635 112.443 99.0959 112.33Z" fill="white"/>
<path fill-rule="evenodd" clip-rule="evenodd" d="M110.115 116.89C110.198 116.816 111.316 117.862 112.737 119.877C113.453 120.88 114.206 122.144 114.94 123.602C115.653 125.069 116.332 126.736 116.875 128.542C117.401 130.353 117.736 132.122 117.935 133.741C118.111 135.364 118.165 136.835 118.11 138.066C118.011 140.529 117.641 142.014 117.532 141.997C117.375 141.978 117.5 140.474 117.421 138.065C117.389 136.861 117.265 135.431 117.046 133.858C116.803 132.289 116.452 130.578 115.942 128.818C115.415 127.064 114.779 125.436 114.13 123.987C113.46 122.547 112.787 121.28 112.159 120.251C110.916 118.185 109.995 116.991 110.115 116.89Z" fill="white"/>
<path fill-rule="evenodd" clip-rule="evenodd" d="M71.5291 196.521L70.682 194.791L47.0993 212.81L57.3877 229.478L80.8628 209.684L71.5291 196.521Z" fill="#22343D"/>
<path fill-rule="evenodd" clip-rule="evenodd" d="M48.0875 213.195L57.1258 228.826L57.7038 228.568L49.655 213.953L48.0875 213.195Z" fill="#D7D4D4"/>
<path fill-rule="evenodd" clip-rule="evenodd" d="M71.0633 196.178L48.0875 213.195C48.0875 213.195 48.1839 213.561 48.754 213.786C49.3249 214.011 49.655 213.954 49.655 213.954L73.81 197.422C73.81 197.422 72.4175 197.098 71.9125 196.721C71.4068 196.343 71.0633 196.178 71.0633 196.178Z" fill="#F5F3F3"/>
<path fill-rule="evenodd" clip-rule="evenodd" d="M74.4004 196.754L49.2234 213.571L57.4004 229.069L58.7178 231.215L83.8956 212.58C83.8956 212.58 81.2438 208.622 79.6516 206.233C78.0594 203.843 74.9338 198.207 74.7638 197.846C74.5931 197.485 74.4004 196.754 74.4004 196.754Z" fill="#FAB005"/>
<path fill-rule="evenodd" clip-rule="evenodd" d="M282.029 80.6536L282.74 79.2009L302.543 94.3321L293.904 108.329L274.191 91.7072L282.029 80.6536Z" fill="#22343D"/>
<path fill-rule="evenodd" clip-rule="evenodd" d="M301.713 94.6555L294.124 107.781L293.638 107.565L300.397 95.2923L301.713 94.6555Z" fill="#D7D4D4"/>
<path fill-rule="evenodd" clip-rule="evenodd" d="M282.42 80.3657L301.713 94.6554C301.713 94.6554 301.632 94.9621 301.154 95.1512C300.674 95.3404 300.397 95.2922 300.397 95.2922L280.113 81.4097C280.113 81.4097 281.282 81.1385 281.707 80.8212C282.131 80.5038 282.42 80.3657 282.42 80.3657Z" fill="#F5F3F3"/>
<path fill-rule="evenodd" clip-rule="evenodd" d="M279.618 80.8503L300.76 94.9715L293.894 107.986L292.787 109.787L271.644 94.1392C271.644 94.1392 273.871 90.8152 275.208 88.8087C276.546 86.8021 279.17 82.0693 279.312 81.7662C279.455 81.4637 279.618 80.8503 279.618 80.8503Z" fill="#4DADF7"/>
<path fill-rule="evenodd" clip-rule="evenodd" d="M43.3743 53.4197C43.3743 53.4197 41.8791 54.4545 42.6264 56.1799C43.3743 57.9053 46.6522 63.0234 51.0803 62.8505C51.2617 62.8442 45.502 53.4197 45.502 53.4197H43.3743Z" fill="#22343D"/>
<path fill-rule="evenodd" clip-rule="evenodd" d="M36.6002 147.773C36.6002 147.773 31.063 142.827 29.2901 143.713C27.1242 144.796 14.7273 156.942 15.2117 162.664C15.4108 165.008 18.139 163 23.0006 157.957C27.8637 152.915 33.9867 155.076 33.9867 155.076L36.6002 147.773Z" fill="#22343D"/>
<path fill-rule="evenodd" clip-rule="evenodd" d="M50.0538 156.116L43.3691 152.105C43.3691 152.105 26.0419 168.35 28.7489 170.516C30.8022 172.159 32.0091 170.685 36.8714 165.642C41.733 160.601 47.8929 163.5 47.8929 163.5L50.0538 156.116Z" fill="#22343D"/>
<path fill-rule="evenodd" clip-rule="evenodd" d="M90.8877 102.672L92.1413 120.473L64.3146 113.223L90.8877 102.672Z" fill="#F3A683"/>
<path fill-rule="evenodd" clip-rule="evenodd" d="M64.3146 113.836C64.3146 113.836 88.6552 115.37 91.8962 114.288C91.8962 114.288 96.653 161.019 88.1891 166.061C79.7245 171.104 60.73 163.72 60.73 163.72L65.8586 153.635L76.9162 152.915V134.907L76.1229 135.086L64.3146 113.836Z" fill="#112129"/>
<path fill-rule="evenodd" clip-rule="evenodd" d="M33.803 145.712C33.803 145.712 27.6806 148.233 29.6617 154.356C29.6617 154.356 50.5608 170.744 60.7302 166.962C66.4276 164.843 72.5478 148.679 76.8293 134.868L91.8965 114.288C91.8965 114.288 84.7903 114.644 82.4197 114.635C77.8889 114.618 64.3148 113.836 64.3148 113.836C64.3148 113.836 57.2242 150.934 54.6978 151.835C52.1714 152.734 33.803 145.712 33.803 145.712Z" fill="#22343D"/>
<path fill-rule="evenodd" clip-rule="evenodd" d="M69.9866 67.3058C69.9866 67.3058 84.5742 53.6188 87.095 50.0165C89.6157 46.4148 95.0199 34.3491 101.681 29.3068L98.4402 22.4634C98.4402 22.4634 100.422 21.3832 101.681 24.2638C101.681 24.2638 106.363 14.9002 107.444 15.0794C108.525 15.2593 105.284 22.2834 105.284 22.2834C105.284 22.2834 109.787 15.7998 111.047 15.9804C112.306 16.1603 107.805 23.2687 107.805 23.2687C107.805 23.2687 112.846 17.421 113.568 18.1414C114.288 18.8617 109.605 23.2687 109.605 23.2687C109.605 23.2687 114.648 20.3739 115.188 21.328C115.728 22.2834 110.146 24.8042 110.146 24.8042C110.146 24.8042 109.605 28.9463 106.184 30.7468C106.184 30.7468 99.4098 49.0504 93.2867 54.9929L73.6172 75.4355L69.9866 67.3058Z" fill="#FFC6B2"/>
<path fill-rule="evenodd" clip-rule="evenodd" d="M52.5733 74.3994C52.5733 74.3994 38.7513 88.8584 35.1264 91.3452C31.5007 93.8313 19.3857 99.1229 14.2818 105.738L7.46894 102.433C7.46894 102.433 6.3704 104.403 9.23962 105.69C9.23962 105.69 -0.168399 110.285 0.00229496 111.368C0.171573 112.45 7.22529 109.274 7.22529 109.274C7.22529 109.274 0.699946 113.716 0.868516 114.978C1.03709 116.239 8.18642 111.804 8.18642 111.804C8.18642 111.804 2.29215 116.791 3.00609 117.518C3.71862 118.245 8.17013 113.605 8.17013 113.605C8.17013 113.605 5.22795 118.62 6.17846 119.169C7.12755 119.718 9.70071 114.159 9.70071 114.159C9.70071 114.159 13.847 113.659 15.6807 110.254C15.6807 110.254 33.0171 103.356 39.0177 97.2885L60.5917 82.0015L52.5733 74.3994Z" fill="#FFC6B2"/>
<path fill-rule="evenodd" clip-rule="evenodd" d="M57.755 68.6368L50.7643 75.4803L52.5372 83.1949C52.5372 83.1949 59.4244 99.7299 60.4656 103.764C62.084 110.036 59.4662 119.6 59.4662 119.6C59.4662 119.6 71.1421 118.631 81.7663 118.271C92.3897 117.91 95.8652 114.488 95.8652 114.488C95.8652 114.488 86.6541 83.809 80.2945 75.2331C73.9342 66.6585 71.6209 63.9741 71.6209 63.9741L62.2568 66.0211L57.755 68.6368Z" fill="#FAB005"/>
<path fill-rule="evenodd" clip-rule="evenodd" d="M78.2715 74.2218L85.5554 69.5677C85.5554 69.5677 86.6681 64.5813 77.8841 58.6997L67.5837 65.1543L78.2715 74.2218Z" fill="#22343D"/>
<path fill-rule="evenodd" clip-rule="evenodd" d="M52.2375 74.9392C48.2442 75.4994 40.9469 85.6202 40.1331 85.6011C40.1331 85.6011 45.2688 93.9822 49.3371 94.2542C49.3371 94.2542 67.2402 72.8349 52.2375 74.9392Z" fill="#22343D"/>
<path fill-rule="evenodd" clip-rule="evenodd" d="M66.3337 68.3536C66.3337 68.3536 60.5294 64.0167 60.7305 62.2878C60.7815 61.8522 61.5861 61.1453 61.7951 60.5178C62.9205 57.1414 57.4944 48.4415 54.1606 46.6077C51.5378 45.1656 52.6874 45.0382 47.1678 48.3182C41.6482 51.5983 44.7929 57.2703 47.2577 60.204C49.5879 62.977 52.2567 64.1648 54.6578 64.3652L58.0717 71.9482L66.3337 68.3536Z" fill="#FFC6B2"/>
<path fill-rule="evenodd" clip-rule="evenodd" d="M55.8602 74.374C54.7624 71.6811 56.8412 68.2891 60.5037 66.7953C64.1676 65.3008 68.0256 66.2726 69.1255 68.9641C70.2226 71.6563 66.5368 75.7034 64.4792 76.5428C62.4217 77.3821 56.9574 77.0655 55.8602 74.374Z" fill="#FFC6B2"/>
<path fill-rule="evenodd" clip-rule="evenodd" d="M47.2579 60.2043C47.2579 60.2043 45.3753 60.1001 45.1664 61.3545C44.9568 62.6096 48.6171 62.6096 49.977 61.6683L47.2579 60.2043Z" fill="#FFC6B2"/>
<path fill-rule="evenodd" clip-rule="evenodd" d="M48.1993 61.3546C47.8416 59.0874 45.4257 57.4016 45.5461 55.1925C46.7041 55.2017 47.4478 53.7674 46.9209 52.5414C46.7134 52.0597 46.362 51.6475 46.1375 51.1722C45.9137 50.6977 45.8542 50.0758 46.1977 49.8074C46.3606 49.6806 46.5809 49.6586 46.792 49.6374C48.5088 49.461 51.4503 49.9759 53.0305 49.3902C54.5348 48.8328 56.1469 47.7484 55.9903 45.9054C55.8536 44.3004 54.4364 42.9993 53.1346 42.0162C52.3888 41.4524 50.2576 39.9784 49.4537 40.1123C48.2262 40.3163 47.9288 41.9539 47.8402 43.3244C46.9818 42.507 45.7154 42.6381 44.9689 43.3031C44.2223 43.9682 43.8689 45.025 43.5438 46.0449C43.218 47.0656 42.8731 48.1252 42.1365 48.803C41.4502 49.4348 40.3644 49.9129 40.5067 50.9874C40.676 52.268 42.349 52.7234 43.1224 53.8156C42.9319 53.5478 42.7704 55.2576 42.8802 55.5473C43.2102 56.4206 44.0339 56.9986 44.6296 57.6665C45.8981 59.0902 46.5186 60.5238 48.1993 61.3546Z" fill="#22343D"/>
<path fill-rule="evenodd" clip-rule="evenodd" d="M58.7162 56.1704L54.4269 58.3888C54.4269 58.3888 59.5789 62.1285 58.7162 56.1704Z" fill="white"/>
<path fill-rule="evenodd" clip-rule="evenodd" d="M52.815 57.0498C53.0494 57.4946 52.7023 58.1377 52.0401 58.4862C51.3779 58.8347 50.6512 58.7568 50.4167 58.312C50.183 57.8672 50.5294 57.2247 51.1916 56.8756C51.8545 56.5271 52.5805 56.605 52.815 57.0498Z" fill="#FFB2A0"/>
<path fill-rule="evenodd" clip-rule="evenodd" d="M59.078 52.7715C59.3125 53.2163 58.9654 53.8594 58.3032 54.2079C57.6409 54.5564 56.9142 54.4785 56.6798 54.0336C56.4461 53.5888 56.7924 52.9457 57.4547 52.5972C58.1176 52.2488 58.8436 52.3267 59.078 52.7715Z" fill="#FFB2A0"/>
<path fill-rule="evenodd" clip-rule="evenodd" d="M55.7219 56.0132C55.7021 55.9884 55.7821 55.8829 55.9677 55.749C56.1448 55.6123 56.4529 55.465 56.6816 55.2185C56.9083 54.9798 56.9897 54.4819 56.6427 54.4118C56.2822 54.2892 55.8728 54.7029 55.4032 55.096C55.287 55.1923 55.1723 55.2879 55.0583 55.3821C54.952 55.4799 54.7282 55.6229 54.4959 55.5939C54.0532 55.5224 53.8648 55.227 53.6948 55.0294C53.3549 54.5931 53.1452 54.1362 53.0291 53.741C52.7989 52.9421 52.9023 52.4264 52.9575 52.4307C53.0347 52.4271 53.0602 52.923 53.3527 53.6256C53.5001 53.9748 53.7203 54.3714 54.0412 54.7461C54.1977 54.9359 54.3946 55.113 54.5349 55.1186C54.5936 55.1215 54.6397 55.1016 54.7502 55.0089C54.8628 54.9147 54.9761 54.819 55.0908 54.7227C55.3274 54.5315 55.5321 54.3381 55.8027 54.1582C56.0654 53.9811 56.4401 53.8692 56.7758 53.9833C57.1342 54.0775 57.3446 54.4954 57.2823 54.7857C57.2419 55.0818 57.0946 55.3 56.9274 55.4593C56.574 55.7547 56.2581 55.8262 56.0591 55.9155C55.8551 55.9927 55.7432 56.0408 55.7219 56.0132Z" fill="#22343D"/>
<path fill-rule="evenodd" clip-rule="evenodd" d="M54.6578 64.3654C54.6578 64.3654 57.3939 64.381 58.8784 63.4666C58.8784 63.4666 57.6226 65.0092 55.1097 65.4087L54.6578 64.3654Z" fill="#FFA192"/>
<path fill-rule="evenodd" clip-rule="evenodd" d="M55.8443 52.0953C55.8195 52.2306 55.437 52.2724 55.0326 52.4509C54.6225 52.6166 54.3264 52.8624 54.2124 52.7859C54.0955 52.7243 54.2889 52.2355 54.8428 52.0025C55.3959 51.7681 55.8804 51.9678 55.8443 52.0953Z" fill="#22343D"/>
<path fill-rule="evenodd" clip-rule="evenodd" d="M50.4822 55.6125C50.3788 55.536 50.541 55.0954 50.9348 54.6541C51.3335 54.2037 51.8428 54.0535 51.8966 54.1796C51.9533 54.3021 51.643 54.5876 51.2939 54.9835C50.939 55.378 50.5941 55.696 50.4822 55.6125Z" fill="#22343D"/>
<path fill-rule="evenodd" clip-rule="evenodd" d="M48.4041 54.9325C48.1825 54.7682 48.0096 54.0649 48.8582 53.1172C49.7145 52.1482 50.6713 52.3189 50.7861 52.5881C50.9093 52.8523 50.5906 53.2284 49.8391 54.0804C49.0763 54.9297 48.6443 55.1124 48.4041 54.9325Z" fill="#22343D"/>
<path fill-rule="evenodd" clip-rule="evenodd" d="M52.9084 51.1997C52.7859 50.9702 52.9211 50.3023 54.0246 49.8369C55.1437 49.356 55.8895 49.8865 55.8789 50.162C55.8768 50.4361 55.4553 50.6281 54.4723 51.0516C53.4821 51.4674 53.0408 51.4497 52.9084 51.1997Z" fill="#22343D"/>
<path fill-rule="evenodd" clip-rule="evenodd" d="M288.276 57.8435C288.349 57.9151 287.16 59.2523 284.694 60.7086C282.258 62.1634 278.426 63.6055 274.017 63.638C269.609 63.6706 265.755 62.2852 263.298 60.8665C260.812 59.4471 259.603 58.1268 259.674 58.0539C259.777 57.9243 261.128 59.0377 263.619 60.2567C266.085 61.4806 269.802 62.6953 274.01 62.6648C278.219 62.633 281.917 61.3637 284.365 60.1037C286.837 58.8479 288.172 57.7146 288.276 57.8435Z" fill="#22343D"/>
<path fill-rule="evenodd" clip-rule="evenodd" d="M261.383 55.8236C261.315 55.9717 259.999 55.4256 257.783 54.9312C256.678 54.6705 255.337 54.4694 253.844 54.2838C252.345 54.1181 250.688 53.9863 248.939 53.8617C247.189 53.7391 245.514 53.5982 243.992 53.4098C242.471 53.2079 241.104 52.9678 239.978 52.6633C237.717 52.0733 236.437 51.3749 236.481 51.2764C236.54 51.1277 237.886 51.5874 240.125 51.9904C241.242 52.2036 242.59 52.3686 244.091 52.5181C245.595 52.6555 247.257 52.7681 249.009 52.8913C250.763 53.016 252.441 53.1768 253.961 53.3949C255.48 53.6336 256.843 53.9113 257.958 54.2654C260.196 54.9489 261.433 55.7309 261.383 55.8236Z" fill="#22343D"/>
<mask id="mask0_13_544" style="mask-type:alpha" maskUnits="userSpaceOnUse" x="225" y="18" width="90" height="44">
<path fill-rule="evenodd" clip-rule="evenodd" d="M225.833 18.2996H314.138V61.5646H225.833V18.2996Z" fill="white"/>
</mask>
<g mask="url(#mask0_13_544)">
<path fill-rule="evenodd" clip-rule="evenodd" d="M234.715 27.0629C238.918 26.1711 243.273 26.9389 247.51 27.6451C251.749 28.3512 256.148 28.988 260.292 27.8505C267.773 25.7972 273.451 18.239 281.209 18.2999C284.404 18.3247 287.414 19.6889 290.527 20.4106C294.391 21.3073 298.417 21.211 302.331 21.8506C306.247 22.4902 310.291 24.0647 312.504 27.3575C315.129 31.2651 314.409 36.777 311.654 40.5947C308.9 44.4131 304.489 46.7377 299.969 48.0551C296.817 48.9738 293.458 49.505 290.73 51.3331C287.97 53.1824 286.169 56.1586 283.598 58.2616C277.146 63.5376 267.105 62.0254 260.441 57.0206C258.767 55.7634 257.215 54.3043 255.334 53.3843C247.682 49.6389 236.678 54.5969 230.088 47.7824C223.396 40.8617 224.35 29.2614 234.715 27.0629Z" fill="#22343D"/>
</g>
<path fill-rule="evenodd" clip-rule="evenodd" d="M232.615 161.092C232.615 161.092 239.626 176.118 240.446 173.336C241.264 170.552 240.994 163.87 240.554 162.916C240.113 161.962 237.247 157.747 237.247 157.747L232.615 161.092Z" fill="#FFB2A0"/>
<path fill-rule="evenodd" clip-rule="evenodd" d="M283.308 39.5827C283.957 40.4135 283.523 39.521 284.258 40.7195C287.31 40.6132 289.359 38.0301 289.359 38.0301C289.359 38.0301 294.205 38.1583 294.149 37.2928C294.093 36.4258 289.504 36.7495 289.504 36.7495C289.504 36.7495 294.359 35.2246 294.093 34.4631C293.828 33.7024 288.222 36.129 288.222 36.129C288.222 36.129 293.879 32.6181 293.043 32.055C292.208 31.4933 286.766 34.5581 286.766 34.5581C286.766 34.5581 291.495 30.6731 290.786 30.1723C290.079 29.6716 283.518 34.728 283.518 34.728C283.614 32.2405 281.83 32.3277 281.83 32.3277L281.903 38.4012C281.903 38.4012 283.009 39.2002 283.308 39.5827Z" fill="#FFC6B2"/>
<path fill-rule="evenodd" clip-rule="evenodd" d="M211.486 12.094C210.449 12.2852 211.253 11.9247 209.907 12.3355C207.697 10.2276 207.99 6.91497 207.99 6.91497C207.99 6.91497 204.283 3.79425 204.898 3.18442C205.516 2.57316 208.732 5.86245 208.732 5.86245C208.732 5.86245 206.115 1.49798 206.819 1.10559C207.522 0.713199 210.104 6.24918 210.104 6.24918C210.104 6.24918 208.205 -0.131789 209.203 0.00207721C210.2 0.135944 212.236 6.04024 212.236 6.04024C212.236 6.04024 211.278 -0.00429738 212.139 0.0913216C213.001 0.186232 214.551 8.32376 214.551 8.32376C216.131 6.40005 217.406 7.65017 217.406 7.65017L213.403 12.0536C213.403 12.0536 211.963 12.0069 211.486 12.094Z" fill="#FFC6B2"/>
<path fill-rule="evenodd" clip-rule="evenodd" d="M236.635 37.4642C235.294 37.2439 232.052 39.3985 230.43 42.9102C229.522 44.8757 228.898 46.8724 229.94 50.0689C230.43 51.5726 231.457 51.761 231.687 52.4345C231.977 53.2873 231.017 55.9753 231.017 55.9753L234.844 57.5208C235.092 55.6743 235.374 53.8164 237.256 53.0146C237.96 52.7143 238.714 52.5245 239.378 52.1434C241.171 51.1157 242.128 48.8676 242.865 47.0268C243.415 45.652 239.996 38.0152 236.635 37.4642Z" fill="#FFC6B2"/>
<path fill-rule="evenodd" clip-rule="evenodd" d="M232.08 89.6528L225.668 87.0803C225.668 87.0803 206.641 122.365 206.721 132.155C206.799 141.944 232.853 161.545 232.853 161.545L237.247 157.747C237.247 157.747 229.203 143.721 224.903 138.775C220.603 133.829 232.08 89.6528 232.08 89.6528Z" fill="#FFB2A0"/>
<path fill-rule="evenodd" clip-rule="evenodd" d="M263.913 129.847C263.913 129.847 278.044 123.143 275.204 122.551C272.365 121.961 265.724 122.774 264.809 123.289C263.894 123.806 259.926 127.004 259.926 127.004L263.913 129.847Z" fill="#FFC6B2"/>
<path fill-rule="evenodd" clip-rule="evenodd" d="M238.378 89.3469L228.651 92.8855C228.651 92.8855 218.923 135.677 222.637 142.396C226.35 149.117 236.78 144.669 251.636 136.561L264.079 129.769L259.925 127.004C259.925 127.004 245.446 129.842 241.38 132.671C241.38 132.671 243.502 126.658 246.331 118.171C249.16 109.683 251.112 101.018 238.378 89.3469Z" fill="#FFC6B2"/>
<path fill-rule="evenodd" clip-rule="evenodd" d="M226.406 60.1939C226.406 57.3508 227.321 55.2947 230.164 55.2947C233.007 55.2947 236.937 56.2912 236.937 59.135C236.937 61.9795 234.697 66.5968 231.853 66.5968C229.01 66.5968 226.406 63.0384 226.406 60.1939Z" fill="#FFC6B2"/>
<path fill-rule="evenodd" clip-rule="evenodd" d="M228.651 54.8873C228.651 54.8873 219.81 45.3197 218.042 35.9469C216.273 26.5756 213.268 11.3679 213.268 11.3679L209.908 12.3354C209.908 12.3354 208.316 33.1187 209.908 36.3011C211.499 39.4841 219.275 60.6747 221.643 66.2397L228.651 54.8873Z" fill="#FFC6B2"/>
<path fill-rule="evenodd" clip-rule="evenodd" d="M238.149 62.344C238.149 62.344 238.829 59.3678 250.008 55.3227C261.188 51.2784 282.279 38.1687 282.279 38.1687L284.383 40.5762C284.383 40.5762 272.923 53.8134 266.256 56.1351C259.589 58.4576 245.429 67.6122 243.972 68.3446C241.768 69.4531 241.795 70.8477 238.149 62.344Z" fill="#FFC6B2"/>
<path fill-rule="evenodd" clip-rule="evenodd" d="M228.651 54.8875C228.651 54.8875 219.669 57.7985 219.669 71.4664C219.669 71.4664 219.674 90.1857 221.791 93.5912C221.791 93.5912 225.233 94.473 229.524 93.5912C234.023 92.6661 238.377 89.3471 238.377 89.3471L245.443 68.1346L244.598 58.1959L234.991 56.3409C234.991 56.3409 237.747 69.2197 227.776 63.683C225.838 62.6071 230.626 55.3004 230.626 55.3004L228.651 54.8875Z" fill="#4DADF7"/>
<path fill-rule="evenodd" clip-rule="evenodd" d="M221.051 66.0036L216.625 56.7824C216.625 56.7824 217.26 51.1883 225.385 49.1838C225.385 49.1838 226.207 52.0035 227.108 53.0808C228.008 54.1574 230.63 55.3034 230.63 55.3034L221.051 66.0036Z" fill="#22343D"/>
<path fill-rule="evenodd" clip-rule="evenodd" d="M237.784 69.71L251.858 66.8251C251.858 66.8251 254.305 61.7552 248.503 55.7241C248.503 55.7241 237.525 56.3871 236.104 56.5054C234.705 56.6215 235.665 57.6988 235.665 57.6988L237.784 69.71Z" fill="#22343D"/>
<path fill-rule="evenodd" clip-rule="evenodd" d="M221.769 89.0314C221.769 89.0314 208.457 113.644 206.258 118.041C206.258 118.041 245.531 136.082 261.473 114.367C261.473 114.367 252.405 95.1722 238.385 87.8648L232.337 86.0537L222.005 88.9131" fill="#4DADF7"/>
<path fill-rule="evenodd" clip-rule="evenodd" d="M242.35 46.7939C242.35 46.7939 243.866 45.2775 244.799 46.3272C245.732 47.3768 241.417 48.8933 241.417 48.8933L242.35 46.7939Z" fill="#FFC6B2"/>
<path fill-rule="evenodd" clip-rule="evenodd" d="M270.087 26.1121C270.102 26.1645 269.516 26.4181 268.398 26.6837C267.282 26.9522 265.627 27.1958 263.571 27.2376C261.516 27.2787 259.072 27.0959 256.398 26.7333C253.721 26.3784 250.814 25.8571 247.755 25.5235C244.701 25.197 241.764 25.1375 239.164 25.5575C236.562 25.9705 234.31 26.8225 232.589 27.8177C230.868 28.8206 229.671 29.9333 228.935 30.7755C228.196 31.6184 227.863 32.1567 227.788 32.1113C227.747 32.0901 227.969 31.4838 228.639 30.5389C229.305 29.5969 230.48 28.3539 232.232 27.2298C233.983 26.1128 236.311 25.1531 239.015 24.6729C241.723 24.1856 244.751 24.2231 247.858 24.556C250.968 24.8953 253.879 25.4463 256.525 25.8458C259.169 26.2531 261.56 26.5024 263.573 26.5491C267.608 26.6618 270.05 25.9457 270.087 26.1121Z" fill="#22343D"/>
<path fill-rule="evenodd" clip-rule="evenodd" d="M234.628 45.9331C234.623 45.9926 234.191 46.0344 233.532 45.8155C233.369 45.7581 233.176 45.683 232.997 45.5187C232.909 45.4366 232.826 45.3275 232.776 45.1965C232.704 45.013 232.71 44.8048 232.781 44.6461C232.802 44.6142 232.801 44.5385 232.843 44.537L232.971 44.5328C233.053 44.5215 233.15 44.5484 233.245 44.5661C233.419 44.5994 233.475 44.5944 233.599 44.6029C233.817 44.6079 234.042 44.5852 234.267 44.5356C235.188 44.3416 235.804 43.6715 236.08 43.1205C236.37 42.5659 236.395 42.1487 236.473 42.1536C236.527 42.1466 236.635 42.59 236.395 43.2593C236.274 43.5872 236.062 43.9633 235.72 44.2934C235.38 44.6227 234.909 44.8933 234.374 45.0102C234.107 45.0697 233.839 45.0923 233.58 45.0789C233.467 45.0732 233.29 45.0505 233.239 45.0392C233.191 45.0314 233.197 45.0208 233.188 45.0265C233.182 45.0321 233.179 45.0413 233.18 45.0548C233.199 45.1185 233.234 45.1795 233.283 45.234C233.381 45.3452 233.524 45.4281 233.664 45.4975C234.234 45.7773 234.638 45.8601 234.628 45.9331Z" fill="#22343D"/>
<path fill-rule="evenodd" clip-rule="evenodd" d="M231.47 46.0969L236.655 48.1396C236.655 48.1396 232.099 51.2816 231.47 46.0969Z" fill="white"/>
<path fill-rule="evenodd" clip-rule="evenodd" d="M238.869 47.08C238.685 47.4299 238.114 47.4908 237.593 47.2167C237.073 46.9433 236.8 46.4376 236.984 46.0884C237.168 45.7385 237.739 45.6769 238.26 45.951C238.781 46.2251 239.053 46.7301 238.869 47.08Z" fill="#FFB2A0"/>
<path fill-rule="evenodd" clip-rule="evenodd" d="M233.083 44.0119C232.925 44.3745 232.361 44.4793 231.821 44.2456C231.281 44.0119 230.97 43.5288 231.128 43.1662C231.284 42.8035 231.849 42.6987 232.389 42.9324C232.929 43.1662 233.24 43.6492 233.083 44.0119Z" fill="#FFB2A0"/>
<path fill-rule="evenodd" clip-rule="evenodd" d="M231.162 51.783C231.162 51.783 232.979 53.3051 234.875 52.8149C234.875 52.8149 234.222 53.7952 231.705 53.4354C231.705 53.4354 231.914 52.3553 231.162 51.783Z" fill="#FFA192"/>
<path fill-rule="evenodd" clip-rule="evenodd" d="M238.371 43.8236C238.371 44.0503 238.187 44.2345 237.96 44.2345C237.734 44.2345 237.55 44.0503 237.55 43.8236C237.55 43.597 237.734 43.4128 237.96 43.4128C238.187 43.4128 238.371 43.597 238.371 43.8236Z" fill="#22343D"/>
<path fill-rule="evenodd" clip-rule="evenodd" d="M235.01 42.613C235.01 42.8396 234.826 43.0238 234.599 43.0238C234.373 43.0238 234.189 42.8396 234.189 42.613C234.189 42.3863 234.373 42.2021 234.599 42.2021C234.826 42.2021 235.01 42.3863 235.01 42.613Z" fill="#22343D"/>
<path fill-rule="evenodd" clip-rule="evenodd" d="M239.691 42.7294C239.565 42.7832 239.32 42.4864 238.948 42.2463C238.585 41.9956 238.217 41.883 238.218 41.7455C238.206 41.6138 238.72 41.5069 239.219 41.8419C239.719 42.1748 239.818 42.6897 239.691 42.7294Z" fill="#22343D"/>
<path fill-rule="evenodd" clip-rule="evenodd" d="M233.767 40.7364C233.759 40.6082 234.2 40.4467 234.791 40.4623C235.392 40.475 235.836 40.7668 235.774 40.8887C235.718 41.0119 235.299 40.9588 234.771 40.9489C234.241 40.9333 233.776 40.8759 233.767 40.7364Z" fill="#22343D"/>
<path fill-rule="evenodd" clip-rule="evenodd" d="M235.618 167.197C235.618 167.197 237.775 174.853 240.002 174.226C242.228 173.6 240.554 162.916 240.554 162.916L238.332 159.404C238.332 159.404 240.42 177.288 235.618 167.197Z" fill="#22343D"/>
<path fill-rule="evenodd" clip-rule="evenodd" d="M262.814 124.758C262.814 124.758 264.382 123.047 266.283 122.762C268.184 122.476 274.98 121.668 275.978 122.571C276.977 123.474 270.47 126.502 270.47 126.502C270.47 126.502 272.737 125.057 271.796 124.52C270.132 123.569 262.814 124.758 262.814 124.758Z" fill="#22343D"/>
<path fill-rule="evenodd" clip-rule="evenodd" d="M260.117 126.807L262.244 131.127L263.405 130.482L260.568 126.227L260.117 126.807Z" fill="#22343D"/>
<path fill-rule="evenodd" clip-rule="evenodd" d="M236.325 156.015L231.102 160.722L232.65 162.012L237.034 157.24L236.325 156.015Z" fill="#22343D"/>
<path fill-rule="evenodd" clip-rule="evenodd" d="M127.134 109.153C125.649 105.467 125.078 101.363 122.862 98.0643C119.672 93.3181 113.547 90.963 110.958 85.8633C109.859 83.6974 109.514 81.2198 109.503 78.7911C109.482 73.9861 110.92 68.8779 114.632 65.8245C118.896 62.3156 125.295 62.3645 130.289 64.7217C135.283 67.0788 139.098 71.3576 142.342 75.8269C145.587 80.2955 148.427 85.0913 152.205 89.1186C155.006 92.1048 158.329 94.6801 160.439 98.1883C166.223 107.806 160.271 119.975 150.06 123.447C141.086 126.496 130.238 116.859 127.134 109.153Z" fill="#22343D"/>
<path fill-rule="evenodd" clip-rule="evenodd" d="M114.351 176.985C115.239 177.716 114.27 177.21 115.562 178.051C115.274 181.279 112.289 183.312 112.289 183.312C112.289 183.312 112.162 188.451 111.203 188.346C110.242 188.241 110.858 183.397 110.858 183.397C110.858 183.397 108.892 188.459 108.061 188.137C107.23 187.816 110.239 182.008 110.239 182.008C110.239 182.008 106.022 187.812 105.442 186.897C104.864 185.983 108.574 180.382 108.574 180.382C108.574 180.382 103.993 185.185 103.475 184.407C102.958 183.632 108.943 176.951 108.943 176.951C106.173 176.921 106.369 175.035 106.369 175.035L113.116 175.436C113.116 175.436 113.942 176.648 114.351 176.985Z" fill="#FFC6B2"/>
<path fill-rule="evenodd" clip-rule="evenodd" d="M178.807 80.0714C179.962 80.274 179.066 79.8915 180.564 80.3271C183.024 78.0917 182.698 74.5793 182.698 74.5793C182.698 74.5793 186.824 71.2702 186.14 70.6235C185.452 69.9754 181.872 73.4623 181.872 73.4623C181.872 73.4623 184.784 68.8351 184.001 68.4186C183.219 68.0029 180.346 73.8732 180.346 73.8732C180.346 73.8732 182.46 67.1069 181.348 67.2485C180.239 67.3909 177.973 73.6515 177.973 73.6515C177.973 73.6515 179.038 67.2422 178.08 67.3434C177.121 67.444 175.57 75.8408 175.57 75.8408C173.31 74.0021 171.729 75.1792 171.729 75.1792L176.674 80.0282C176.674 80.0282 178.277 79.9793 178.807 80.0714Z" fill="#FFC6B2"/>
<path fill-rule="evenodd" clip-rule="evenodd" d="M150.561 108.135C152.648 107.81 159.014 111.935 157.394 120.312C157.259 121.015 156.34 122.563 156.111 123.203C155.822 124.014 158.074 126.983 158.074 126.983L152.261 128.84C152.013 127.084 152.43 124.518 150.552 123.755C149.849 123.47 149.097 123.289 148.434 122.927C146.644 121.95 145.689 119.811 144.954 118.061C144.405 116.753 143.987 115.346 144.003 113.927C144.041 110.353 147.206 108.659 150.561 108.135Z" fill="#FFC6B2"/>
<path fill-rule="evenodd" clip-rule="evenodd" d="M162.201 131.078C162.201 128.062 161.245 126.911 158.081 126.911C154.916 126.911 150.739 128.062 150.739 131.078C150.739 134.093 152.973 137.867 156.139 137.867C159.303 137.867 162.201 134.093 162.201 131.078Z" fill="#FFC6B2"/>
<path fill-rule="evenodd" clip-rule="evenodd" d="M159.702 125.45C159.702 125.45 169.542 115.304 171.511 105.366C173.48 95.4276 176.824 79.3013 176.824 79.3013L180.564 80.3269C180.564 80.3269 182.336 102.366 180.564 105.741C178.793 109.117 168.755 132.556 168.952 138.556L159.702 125.45Z" fill="#FFC6B2"/>
<path fill-rule="evenodd" clip-rule="evenodd" d="M142.162 130.362C142.162 130.362 138.816 130.925 133.699 142.551C128.581 154.177 112.836 175.821 112.836 175.821L115.395 178.177C115.395 178.177 130.747 166.74 133.699 159.802C136.65 152.865 140.39 144.239 142.162 144.613C143.933 144.989 151.412 134.674 142.162 130.362Z" fill="#FFC6B2"/>
<path fill-rule="evenodd" clip-rule="evenodd" d="M168.506 140.106L173.088 127.46C173.088 127.46 172.381 121.528 163.338 119.402L158.215 126.783L168.506 140.106Z" fill="#22343D"/>
<path fill-rule="evenodd" clip-rule="evenodd" d="M143.689 129.392C143.689 129.392 138.284 129.847 133.902 139.471C133.902 139.471 138.721 146.123 142.246 146.348C142.246 146.348 155.338 135.157 143.689 129.392Z" fill="#22343D"/>
<path fill-rule="evenodd" clip-rule="evenodd" d="M158.542 243.516C158.542 243.516 150.739 259.45 149.827 256.5C148.916 253.549 149.217 246.462 149.705 245.45C150.196 244.438 153.386 239.969 153.386 239.969L158.542 243.516Z" fill="#FFC6B2"/>
<path fill-rule="evenodd" clip-rule="evenodd" d="M159.138 167.761L166.274 165.033C166.274 165.033 187.452 202.45 187.364 212.832C187.276 223.212 158.278 243.997 158.278 243.997L153.386 239.969C153.386 239.969 167.131 219.76 171.917 214.516C174.31 211.893 157.177 199.04 154.582 186.674C151.987 174.307 159.138 167.761 159.138 167.761Z" fill="#22343D"/>
<path fill-rule="evenodd" clip-rule="evenodd" d="M116.234 235.169C116.234 235.169 101.637 245.928 102.244 242.908C102.854 239.886 106.528 233.718 107.45 233.032C108.372 232.347 113.356 229.766 113.356 229.766L116.234 235.169Z" fill="#FFC6B2"/>
<path fill-rule="evenodd" clip-rule="evenodd" d="M139.723 181.011L160.836 168.775C160.836 168.775 161.674 211.278 156.605 220.468C151.538 229.658 115.767 235.481 115.767 235.481L113.356 229.766C113.356 229.766 135.424 216.617 142.2 214.044C148.976 211.47 139.723 181.011 139.723 181.011Z" fill="#22343D"/>
<path fill-rule="evenodd" clip-rule="evenodd" d="M152.297 160.406C152.297 160.406 136.752 165.91 139.724 181.011C142.695 196.112 147.648 198.943 147.648 198.943L156.563 184.315L165.513 165.158L156.563 164.022L152.297 160.406Z" fill="#22343D"/>
<path fill-rule="evenodd" clip-rule="evenodd" d="M159.703 125.45C159.703 125.45 171.148 131.864 171.148 146.358C171.148 146.358 169.694 162.881 167.337 166.491C167.337 166.491 163.507 167.427 158.731 166.491C153.723 165.511 148.877 161.992 148.877 161.992L144.966 141.762L141.923 129.949L143.573 129.405L152.181 128.46C152.181 128.46 150.944 141.318 160.555 134.933C162.58 133.588 158.035 126.883 158.035 126.883L159.703 125.45Z" fill="#F03E3D"/>
<path fill-rule="evenodd" clip-rule="evenodd" d="M166.708 70.6804L190.704 84.679L204.202 59.182L181.705 46.6836L166.708 70.6804Z" fill="#F03E3D"/>
<path fill-rule="evenodd" clip-rule="evenodd" d="M200.091 192.732L217.253 182.107L203.074 157.358L187.386 167.531L200.091 192.732Z" fill="#02897A"/>
<path fill-rule="evenodd" clip-rule="evenodd" d="M125.445 52.4989L134.106 47.1909L126.95 34.8259L119.032 39.9084L125.445 52.4989Z" fill="#740A76"/>
<path fill-rule="evenodd" clip-rule="evenodd" d="M115.589 87.268C115.634 87.2276 116.164 87.7085 117.002 88.6895C117.836 89.6719 118.974 91.1657 120.117 93.1815C121.264 95.1888 122.398 97.7358 123.208 100.692C124.047 103.627 124.609 106.925 125.898 110.102C126.568 111.672 127.379 113.133 128.344 114.425C129.318 115.709 130.398 116.835 131.51 117.817C133.782 119.73 136.163 121.045 138.284 121.805C140.403 122.575 142.219 122.921 143.481 123.045C144.741 123.185 145.454 123.205 145.455 123.288C145.458 123.34 144.748 123.448 143.453 123.423C142.159 123.413 140.276 123.166 138.057 122.455C135.838 121.754 133.33 120.456 130.931 118.502C129.755 117.498 128.612 116.335 127.582 114.998C126.561 113.654 125.698 112.117 124.998 110.471C123.655 107.15 123.124 103.823 122.343 100.927C121.597 98.0219 120.56 95.5217 119.512 93.5101C118.47 91.4929 117.436 89.9637 116.703 88.9211C115.966 87.8806 115.534 87.3168 115.589 87.268Z" fill="#22343D"/>
<path fill-rule="evenodd" clip-rule="evenodd" d="M145.071 70.8906C145.248 70.8637 145.419 73.2258 146.741 76.7198C147.401 78.4601 148.382 80.4624 149.793 82.4697C150.497 83.4748 151.308 84.465 152.226 85.4516C153.138 86.4425 154.131 87.449 155.069 88.578C156.951 90.8565 158.246 93.3193 159.465 95.493C160.675 97.688 161.639 99.776 162.129 101.644C162.641 103.506 162.67 105.109 162.508 106.172C162.339 107.24 162.073 107.781 162.029 107.766C161.945 107.744 162.083 107.173 162.131 106.138C162.172 105.104 162.041 103.599 161.469 101.839C160.917 100.071 159.923 98.0797 158.683 95.9314C157.423 93.7839 156.117 91.3708 154.32 89.1992C153.417 88.1126 152.439 87.1097 151.521 86.094C150.599 85.0833 149.761 84.0308 149.053 82.9775C147.634 80.869 146.686 78.7675 146.092 76.9507C145.485 75.1347 145.227 73.6019 145.104 72.5459C144.983 71.4877 145.016 70.8956 145.071 70.8906Z" fill="#22343D"/>
<path fill-rule="evenodd" clip-rule="evenodd" d="M152.428 117.24C152.419 117.172 152.809 117.11 153.179 116.677C153.264 116.577 153.349 116.431 153.348 116.346C153.346 116.255 153.282 116.096 153.172 116.005C153.058 115.903 152.931 115.853 152.764 115.87C152.591 115.883 152.381 115.968 152.106 116.009C151.504 116.09 151.035 115.75 150.726 115.474C150.408 115.184 150.166 114.89 149.986 114.627C149.626 114.096 149.514 113.713 149.569 113.685C149.633 113.651 149.85 113.968 150.255 114.413C150.458 114.634 150.714 114.888 151.015 115.132C151.313 115.369 151.677 115.585 152.04 115.528C152.233 115.503 152.457 115.413 152.731 115.395C153.009 115.367 153.319 115.495 153.489 115.686C153.669 115.882 153.771 116.112 153.749 116.385C153.696 116.664 153.548 116.794 153.425 116.916C152.896 117.379 152.411 117.304 152.428 117.24Z" fill="#22343D"/>
<path fill-rule="evenodd" clip-rule="evenodd" d="M155.264 117.64L150.655 119.315C150.655 119.315 154.565 122.736 155.264 117.64Z" fill="white"/>
<path fill-rule="evenodd" clip-rule="evenodd" d="M150.195 117.354C150.379 117.704 150.107 118.21 149.586 118.483C149.065 118.757 148.494 118.697 148.31 118.347C148.126 117.997 148.399 117.492 148.919 117.218C149.44 116.944 150.011 117.004 150.195 117.354Z" fill="#FFB2A0"/>
<path fill-rule="evenodd" clip-rule="evenodd" d="M155.659 114.553C155.81 114.918 155.491 115.396 154.948 115.62C154.404 115.845 153.841 115.731 153.69 115.366C153.539 115 153.858 114.523 154.401 114.298C154.945 114.074 155.508 114.187 155.659 114.553Z" fill="#FFB2A0"/>
<path fill-rule="evenodd" clip-rule="evenodd" d="M150.791 123.878C150.791 123.878 152.333 124.192 154.299 123.701C154.299 123.701 153.33 124.642 151.747 124.861C151.747 124.861 151.392 124.205 150.791 123.878Z" fill="#FFA192"/>
<path fill-rule="evenodd" clip-rule="evenodd" d="M152.367 113.518C152.54 113.664 152.561 113.924 152.414 114.097C152.268 114.269 152.009 114.291 151.836 114.144C151.663 113.998 151.642 113.739 151.788 113.565C151.935 113.392 152.194 113.371 152.367 113.518Z" fill="#22343D"/>
<path fill-rule="evenodd" clip-rule="evenodd" d="M149.269 115.3C149.442 115.446 149.464 115.705 149.317 115.878C149.171 116.051 148.912 116.072 148.738 115.926C148.565 115.779 148.544 115.521 148.691 115.347C148.837 115.174 149.097 115.153 149.269 115.3Z" fill="#22343D"/>
<path fill-rule="evenodd" clip-rule="evenodd" d="M152.385 111.803C152.344 111.935 151.959 111.93 151.537 112.058C151.11 112.173 150.786 112.381 150.682 112.291C150.573 112.216 150.824 111.755 151.403 111.59C151.98 111.424 152.437 111.682 152.385 111.803Z" fill="#22343D"/>
<path fill-rule="evenodd" clip-rule="evenodd" d="M147.035 115.035C146.931 114.958 147.094 114.518 147.487 114.077C147.886 113.627 148.396 113.476 148.449 113.602C148.506 113.724 148.195 114.01 147.846 114.406C147.492 114.8 147.147 115.119 147.035 115.035Z" fill="#22343D"/>
<path fill-rule="evenodd" clip-rule="evenodd" d="M145.297 118.457C145.297 118.457 143.818 117.215 143.109 118.339C142.4 119.462 146.302 120.053 146.302 120.053L145.297 118.457Z" fill="#FFC6B2"/>
<path fill-rule="evenodd" clip-rule="evenodd" d="M109.754 231.672C109.754 231.672 107.635 232.594 107.082 233.147C106.529 233.699 101.462 242.453 102.107 243.558C102.752 244.664 107.834 240.911 107.834 240.911C107.834 240.911 103.581 241.716 109.754 231.672Z" fill="#22343D"/>
<path fill-rule="evenodd" clip-rule="evenodd" d="M151.106 243.247C151.106 243.247 149.601 244.874 149.369 245.621C149.137 246.367 148.721 256.473 149.807 257.151C150.892 257.831 153.858 252.254 153.858 252.254C153.858 252.254 150.312 255.032 151.106 243.27" fill="#22343D"/>
</svg>
