<svg width="64" height="64" viewBox="0 0 64 64" fill="none" xmlns="http://www.w3.org/2000/svg">
<path d="M31.9943 19.3556C34.4913 19.3556 36.5223 17.3243 36.5223 14.8273C36.5223 12.3306 34.4913 10.2993 31.9943 10.2993C29.4973 10.2993 27.4663 12.3306 27.4663 14.8273C27.4663 17.3243 29.4973 19.3556 31.9943 19.3556ZM31.9943 11.6049C33.7709 11.6049 35.2167 13.0503 35.2167 14.8273C35.2167 16.6043 33.7709 18.0501 31.9943 18.0501C30.2176 18.0501 28.7718 16.6043 28.7718 14.8273C28.7718 13.0503 30.2176 11.6049 31.9943 11.6049Z" fill="#B00000"/>
<path d="M21.776 23.894H20.4707V25.61H21.776V23.894Z" fill="#B00000"/>
<path d="M21.776 27.612H20.4707V33.5687H21.776V27.612Z" fill="#B00000"/>
<path d="M25.4722 39.0987C25.8645 39.0987 26.2295 38.9946 26.5565 38.8263V51.2551C26.5565 52.6037 27.6537 53.7007 29.0089 53.7007C30.3579 53.7007 31.4549 52.6037 31.4549 51.2551V41.2291H32.5361V51.2551C32.5361 52.6037 33.6331 53.7007 34.9821 53.7007C36.331 53.7007 37.4281 52.6037 37.4281 51.2551V38.8233C37.7587 38.9933 38.1286 39.0987 38.5277 39.0987C39.8461 39.0987 40.9183 38.0264 40.9183 36.7085V23.8939C40.9183 22.6673 39.9206 21.6697 38.6941 21.6697H25.3059C24.0793 21.6697 23.0817 22.6674 23.0817 23.8939V36.7085C23.0817 38.0264 24.1539 39.0987 25.4722 39.0987ZM24.3873 23.8939C24.3873 23.3874 24.7991 22.9753 25.3059 22.9753H38.6942C39.201 22.9753 39.6128 23.3874 39.6128 23.8939V36.7085C39.6128 37.3064 39.1258 37.7931 38.5131 37.7931C37.9152 37.7931 37.4281 37.3064 37.4281 36.7085V30.9689H36.1226V36.7085V51.2551C36.1226 51.8836 35.6107 52.3952 34.9821 52.3952C34.3536 52.3952 33.8417 51.8836 33.8417 51.2551V39.9235H30.1494V51.255C30.1494 51.8835 29.6375 52.3951 29.0026 52.3951C28.3741 52.3951 27.8621 51.8835 27.8621 51.255V36.7085V30.9689H26.5566V36.7085C26.5566 37.3064 26.0702 37.7931 25.4723 37.7931C24.8743 37.7931 24.3873 37.3064 24.3873 36.7085V23.8939Z" fill="#B00000"/>
<path d="M32 63.3333C49.2776 63.3333 63.3333 49.2773 63.3333 32C63.3333 14.7227 49.2776 0.666656 32 0.666656C14.7227 0.666656 0.666672 14.7228 0.666672 32C0.666672 49.2772 14.7227 63.3333 32 63.3333ZM32 7.19446C45.6777 7.19446 56.8055 18.3223 56.8055 32C56.8055 45.6777 45.6777 56.8056 32 56.8056C18.3223 56.8056 7.19447 45.6777 7.19447 32C7.19447 18.3223 18.3223 7.19446 32 7.19446ZM5.88887 32C5.88887 36.5189 7.0438 40.7726 9.07234 44.4834L5.68207 46.4408C3.32 42.1531 1.97221 37.2316 1.97221 32C1.97221 26.7684 3.32 21.8469 5.68214 17.5592L9.0724 19.5166C7.0438 23.2275 5.88887 27.4812 5.88887 32ZM6.33427 47.572L9.728 45.6127C14.2163 52.9289 22.2067 57.8684 31.3473 58.0945V62.0112C20.7598 61.7835 11.5019 56.0578 6.33427 47.572ZM32.6528 62.0112V58.0945C41.7933 57.8684 49.7839 52.9288 54.2721 45.6125L57.6658 47.572C52.4981 56.0578 43.2402 61.7835 32.6528 62.0112ZM58.3179 46.4408L54.9277 44.4833C56.9563 40.7725 58.1111 36.5188 58.1111 32C58.1111 27.4812 56.9563 23.2275 54.9277 19.5167L58.3179 17.5592C60.68 21.8469 62.0278 26.7685 62.0278 32C62.0278 37.2315 60.68 42.1531 58.3179 46.4408ZM57.6658 16.428L54.2721 18.3875C49.7839 11.0712 41.7933 6.13159 32.6528 5.90546V1.98879C43.2402 2.21652 52.4981 7.94219 57.6658 16.428ZM31.3472 1.98879V5.90546C22.2067 6.13159 14.2162 11.0711 9.728 18.3873L6.33427 16.428C11.5019 7.94219 20.7598 2.21652 31.3472 1.98879Z" fill="#B00000"/>
<path d="M11.1111 32H9.8056C9.8056 33.3961 9.93694 34.7941 10.1957 36.1551L11.4783 35.9109C11.2348 34.6303 11.1111 33.3145 11.1111 32ZM12.0791 38.2926L10.8348 38.6865C12.6401 44.3891 16.7554 49.1957 22.1255 51.8747L22.7081 50.7062C17.6529 48.1843 13.7787 43.6598 12.0791 38.2926ZM40.5167 52.4953C41.5985 52.0443 42.6549 51.5015 43.6551 50.8815L42.9679 49.7716C42.0263 50.3549 41.0325 50.8658 40.0144 51.2904L40.5167 52.4953ZM54.1945 32C54.1945 27.8618 53.0425 23.8218 50.8643 20.3163L49.7551 21.0054C51.8052 24.3037 52.8889 28.1057 52.8889 32C52.8889 37.9238 50.3491 43.5954 45.9206 47.5611L46.7914 48.5339C51.496 44.3209 54.1945 38.2945 54.1945 32Z" fill="#B00000"/>
<path d="M42.836 16.0073H41.5307V17.3127H42.836V16.0073Z" fill="#B00000"/>
<path d="M45.4473 16.0073H44.142V17.3127H45.4473V16.0073Z" fill="#B00000"/>
<path d="M21.4207 41.3553H20.1153V42.6607H21.4207V41.3553Z" fill="#B00000"/>
<path d="M18.81 41.3553H17.5047V42.6607H18.81V41.3553Z" fill="#B00000"/>
<path d="M21.4207 16.0073H20.1153V17.3127H21.4207V16.0073Z" fill="#B00000"/>
<path d="M18.81 16.0073H17.5047V17.3127H18.81V16.0073Z" fill="#B00000"/>
<path d="M45.4113 34.238H44.106V35.5433H45.4113V34.238Z" fill="#B00000"/>
<path d="M50.634 34.238H49.3287V35.5433H50.634V34.238Z" fill="#B00000"/>
<path d="M48.0227 34.238H46.7173V35.5433H48.0227V34.238Z" fill="#B00000"/>
<circle cx="32" cy="32" r="30.5" stroke="#B00000" stroke-width="3"/>
</svg>
