<svg width="58" height="39" viewBox="0 0 58 39" fill="none" xmlns="http://www.w3.org/2000/svg">
<path d="M54.4928 31.5393V33.0078C54.4928 33.9947 54.1008 34.9411 53.403 35.6389C52.7052 36.3367 51.7587 36.7288 50.7719 36.7288H6.1206C5.1337 36.7288 4.1873 36.3367 3.4895 35.6389C2.7917 34.9411 2.3997 33.9947 2.3997 33.0078V5.7209C2.3997 4.7341 2.7917 3.7876 3.4895 3.0898C4.1873 2.392 5.1337 2 6.1206 2H50.7719C51.7587 2 52.7052 2.392 53.403 3.0898C54.1008 3.7876 54.4928 4.7341 54.4928 5.7209V11.7489" stroke="#B00000" stroke-width="3" stroke-linecap="round" stroke-linejoin="round"/>
<path d="M48.4424 12.2324V16.3862" stroke="#B00000" stroke-width="3" stroke-miterlimit="10" stroke-linecap="round" stroke-linejoin="round"/>
<path d="M48.4424 26.0786V30.2324" stroke="#B00000" stroke-width="3" stroke-miterlimit="10" stroke-linecap="round" stroke-linejoin="round"/>
<path d="M55.8606 16.8906L52.4138 18.8386" stroke="#B00000" stroke-width="3" stroke-miterlimit="10" stroke-linecap="round" stroke-linejoin="round"/>
<path d="M44.4709 23.624L41.0242 25.572" stroke="#B00000" stroke-width="3" stroke-miterlimit="10" stroke-linecap="round" stroke-linejoin="round"/>
<path d="M41.0242 16.892L44.4707 18.8405" stroke="#B00000" stroke-width="3" stroke-miterlimit="10" stroke-linecap="round" stroke-linejoin="round"/>
<path d="M52.4146 23.6264L55.861 25.5749" stroke="#B00000" stroke-width="3" stroke-miterlimit="10" stroke-linecap="round" stroke-linejoin="round"/>
<path d="M9.7975 26.7303L17.6032 18.9247L23.3359 24.6574L35.3113 12.682" stroke="#B00000" stroke-width="3" stroke-miterlimit="10" stroke-linecap="round" stroke-linejoin="round"/>
</svg>
