<svg width="467" height="389" viewBox="0 0 467 389" fill="none" xmlns="http://www.w3.org/2000/svg">
<path d="M87.2169 346.445C174.078 403.038 314.963 403.038 401.825 346.445C488.686 289.853 488.686 198.11 401.825 141.53C314.963 84.9489 174.078 84.9372 87.2169 141.53C0.355387 198.122 0.323608 289.864 87.2169 346.445Z" fill="#FAFAFA"/>
<path d="M426.888 137.382C427.364 130.815 431.951 119.62 438.741 111.674C445.531 103.728 456.399 99.8483 463.105 103.062C469.354 106.065 467.977 115.296 459.736 120.753C451.495 126.211 439.228 132.918 435.023 143.26L426.888 155.67V137.382Z" fill="#02897A"/>
<path opacity="0.2" d="M426.888 137.382C427.364 130.815 431.951 119.62 438.741 111.674C445.531 103.728 456.399 99.8483 463.105 103.062C469.354 106.065 467.977 115.296 459.736 120.753C451.495 126.211 439.228 132.918 435.023 143.26L426.888 155.67V137.382Z" fill="black"/>
<path d="M460.509 106.1C452.724 107.736 429.907 123.944 426.919 148.413" stroke="white" stroke-miterlimit="10" stroke-linecap="round"/>
<path d="M427.809 166.865C429.006 163.359 434.218 156.85 441.718 153.66C449.217 150.47 454.874 147.619 457.607 142.477C460.34 137.335 455.584 132.287 448.01 132.65C440.436 133.012 427.82 141.764 426.93 155.67L427.809 166.865Z" fill="#02897A"/>
<path d="M451.866 136.809C445.319 137.522 429.409 148.167 427.269 160.087" stroke="white" stroke-miterlimit="10" stroke-linecap="round"/>
<path d="M36.5407 200.238C36.217 190.954 34.3462 181.816 31.0219 173.279C25.4394 158.684 14.1474 150.96 8.13068 149.909C2.11393 148.857 -4.10408 156.92 3.55456 166.502C11.2132 176.084 25.8949 188.915 30.1109 208.324L37.0068 221.575L36.5407 200.238Z" fill="#02897A"/>
<path opacity="0.2" d="M36.5407 200.238C36.217 190.954 34.3462 181.816 31.0219 173.279C25.4394 158.684 14.1474 150.96 8.13068 149.909C2.11393 148.857 -4.10408 156.92 3.55456 166.502C11.2132 176.084 25.8949 188.915 30.1109 208.324L37.0068 221.575L36.5407 200.238Z" fill="black"/>
<path d="M8.13062 154.361C20.4819 162.47 34.7929 183.749 36.7949 212.028" stroke="white" stroke-linecap="round" stroke-linejoin="round"/>
<path d="M35.5979 235.165C33.8925 227.628 29.4329 220.278 20.5243 212.893C11.6157 205.507 -0.290668 199.162 0.683876 191.625C1.65842 184.088 10.6835 184.614 17.2935 187.944C23.9034 191.275 35.3649 204.982 37.0068 221.552L35.5979 235.165Z" fill="#02897A"/>
<path d="M6.93359 189.265C15.5138 191.602 33.9242 210.182 36.5936 226.004" stroke="white" stroke-linecap="round" stroke-linejoin="round"/>
<path d="M38.0345 239.816C37.3228 239.304 36.731 238.614 36.3075 237.802C35.884 236.989 35.641 236.078 35.5981 235.142V66.4627C35.6426 65.5272 35.8864 64.6164 36.3097 63.8043C36.733 62.9922 37.324 62.3016 38.0345 61.7886L92.6619 27.0011C93.3682 26.5147 94.1812 26.2496 95.0138 26.2342C95.8463 26.2188 96.6669 26.4537 97.3876 26.9137C98.1083 27.3736 98.7019 28.0413 99.1048 28.8452C99.5076 29.649 99.7045 30.5587 99.6744 31.4766V42.7413C99.6744 44.4591 100.734 45.1602 102.121 44.2955L170.477 0.767335C171.183 0.281594 171.995 0.0166172 172.826 0.000756372C173.658 -0.0151045 174.478 0.218747 175.198 0.677291C175.918 1.13583 176.512 1.80181 176.916 2.60396C177.319 3.40611 177.518 4.31423 177.49 5.23116V264.507L127.11 296.572L38.0345 239.816Z" fill="#263238"/>
<path d="M175.201 0.6856C174.463 0.288591 173.65 0.090082 172.829 0.106331C172.008 0.122579 171.202 0.353125 170.477 0.779085L102.121 44.3072C100.765 45.172 99.6741 44.4708 99.6741 42.7531V31.4883C99.7043 30.5704 99.5074 29.6608 99.1045 28.8569C98.7017 28.0531 98.1081 27.3854 97.3874 26.9254C96.6666 26.4654 95.846 26.2305 95.0135 26.2459C94.181 26.2614 93.368 26.5265 92.6617 27.0128L38.0343 61.8003C37.3164 62.3017 36.7229 62.9925 36.3076 63.8102L67.6413 83.7689L177.489 13.7849V5.24291C177.459 4.33841 177.236 3.45443 176.839 2.66265C176.441 1.87086 175.88 1.19355 175.201 0.6856Z" fill="#455A64"/>
<path d="M175.053 3.68873L102.121 50.1382C100.765 51.003 99.6742 50.3018 99.6742 48.5841V31.4883C99.6742 29.7706 98.6149 29.0694 97.2378 29.9342L42.6104 64.7216C41.8993 65.234 41.3079 65.9244 40.8846 66.7367C40.4612 67.5489 40.2177 68.4601 40.1741 69.3958V232.302C40.2172 233.239 40.4616 234.152 40.887 234.964C41.3124 235.777 41.9067 236.467 42.621 236.976L131.718 293.721L177.489 264.577V5.24289C177.489 3.52513 176.398 2.83569 175.053 3.68873Z" fill="#37474F"/>
<path d="M40.8943 234.896C41.3032 235.719 41.898 236.412 42.6209 236.906L131.718 293.651L177.489 264.507V147.899L40.8943 234.896Z" fill="#263238"/>
<path d="M51.9534 272.032L51.2861 271.612C50.7171 271.204 50.2432 270.654 49.9027 270.006C49.5622 269.358 49.3648 268.632 49.3264 267.884V109.605C49.3623 108.857 49.5587 108.129 49.8994 107.481C50.24 106.833 50.7153 106.283 51.2861 105.878L198.421 12.1605C199.026 11.8209 199.696 11.6438 200.375 11.6438C201.055 11.6438 201.724 11.8209 202.33 12.1605L202.997 12.5929C203.568 12.9988 204.043 13.5484 204.384 14.1964C204.725 14.8444 204.921 15.5724 204.957 16.3205V174.564C204.918 175.312 204.721 176.039 204.38 176.686C204.04 177.334 203.566 177.884 202.997 178.292L55.8622 272.032C55.2567 272.372 54.5871 272.549 53.9078 272.549C53.2286 272.549 52.5589 272.372 51.9534 272.032Z" fill="#F5F5F5"/>
<path d="M58.4787 112.913L49.8984 107.444C49.5486 108.088 49.3518 108.82 49.3264 109.57V267.849C49.3648 268.597 49.5622 269.324 49.9027 269.971C50.2432 270.619 50.7171 271.169 51.2861 271.577L51.9534 271.998C52.5589 272.337 53.2286 272.514 53.9078 272.514C54.5871 272.514 55.2567 272.337 55.8622 271.998L58.4787 270.327V112.913Z" fill="#E0E0E0"/>
<path d="M53.9128 270.759V112.48C53.9492 111.733 54.1447 111.007 54.4833 110.359C54.822 109.711 55.2943 109.161 55.8619 108.752L202.997 15.0353C204.056 14.3575 204.956 14.9067 204.956 16.2856V174.564C204.918 175.312 204.721 176.039 204.38 176.686C204.04 177.334 203.566 177.884 202.997 178.292L55.8619 272.033C54.7815 272.687 53.9128 272.138 53.9128 270.759Z" fill="#EBEBEB"/>
<path d="M65.5015 114.279L193.357 32.8554C194.703 31.9907 195.794 32.6919 195.794 34.4096V156.452C195.751 157.388 195.508 158.299 195.084 159.112C194.661 159.924 194.069 160.615 193.357 161.126L65.5015 242.538C64.1562 243.403 63.0652 242.702 63.0652 240.984V118.954C63.1097 118.018 63.3535 117.107 63.7768 116.295C64.2001 115.483 64.791 114.792 65.5015 114.279Z" fill="white"/>
<path d="M86.6342 108.191C94.6 103.12 101.051 107.233 101.051 117.376C101.051 127.519 94.6 139.847 86.6342 144.919C78.6683 149.99 72.2173 145.889 72.2173 135.746C72.2173 125.603 78.6683 113.263 86.6342 108.191Z" fill="#FFB900"/>
<path d="M99.9919 144.977C100.481 143.972 101.179 143.108 102.028 142.457C102.877 141.806 103.854 141.386 104.879 141.231C105.904 141.076 106.947 141.19 107.924 141.565C108.901 141.94 109.784 142.565 110.5 143.388L127.11 162.47L158.676 77.038C159.14 75.7854 159.912 74.7011 160.906 73.9085C161.9 73.1159 163.076 72.6468 164.299 72.5543C165.523 72.4618 166.745 72.7497 167.828 73.3853C168.911 74.0209 169.81 74.9787 170.424 76.1499L195.773 124.574V156.452C195.73 157.388 195.487 158.299 195.063 159.112C194.64 159.924 194.048 160.615 193.336 161.126L65.5015 242.538C64.1562 243.403 63.0652 242.702 63.0652 240.984V220.769L99.9919 144.977Z" fill="#FFB900"/>
<path d="M79.4417 289.561L78.7638 289.128C78.1962 288.72 77.7239 288.169 77.3852 287.522C77.0466 286.874 76.8511 286.147 76.8147 285.401V127.064C76.8511 126.317 77.0466 125.59 77.3852 124.943C77.7239 124.295 78.1962 123.744 78.7638 123.336L225.909 29.6305C226.512 29.2863 227.18 29.1067 227.858 29.1067C228.537 29.1067 229.205 29.2863 229.807 29.6305L230.485 30.0512C231.053 30.4598 231.525 31.0103 231.864 31.6579C232.203 32.3056 232.398 33.0322 232.434 33.7789V192.058C232.404 192.806 232.211 193.535 231.872 194.184C231.533 194.832 231.057 195.382 230.485 195.785L83.3187 289.561C82.7191 289.901 82.0545 290.079 81.3802 290.079C80.7059 290.079 80.0413 289.901 79.4417 289.561Z" fill="#F5F5F5"/>
<path d="M85.9459 130.417L77.3657 124.948C77.0171 125.589 76.8204 126.317 76.7937 127.064V285.342C76.8301 286.089 77.0255 286.816 77.3642 287.463C77.7028 288.111 78.1752 288.661 78.7428 289.07L79.4207 289.502C80.023 289.847 80.6915 290.026 81.3698 290.026C82.0482 290.026 82.7166 289.847 83.3189 289.502L85.9459 287.831V130.417Z" fill="#E0E0E0"/>
<path d="M81.3696 288.264V129.985C81.4069 129.238 81.6027 128.512 81.9412 127.865C82.2798 127.217 82.7517 126.666 83.3187 126.257L230.464 32.5401C231.523 31.8507 232.413 32.4116 232.413 33.7788V192.058C232.383 192.806 232.19 193.535 231.851 194.184C231.512 194.832 231.036 195.382 230.464 195.785L83.3187 289.561C82.2488 290.192 81.3696 289.631 81.3696 288.264Z" fill="#EBEBEB"/>
<path d="M92.9689 131.808L220.825 50.3724C222.17 49.5193 223.261 50.2205 223.261 51.9265V173.946C223.218 174.881 222.974 175.792 222.551 176.605C222.127 177.417 221.536 178.107 220.825 178.62L92.9689 260.055C91.613 260.908 90.522 260.219 90.522 258.501V136.482C90.566 135.545 90.8107 134.633 91.236 133.821C91.6614 133.008 92.2552 132.318 92.9689 131.808Z" fill="white"/>
<path d="M114.102 125.696C122.057 120.624 128.519 124.738 128.519 134.881C128.519 145.024 122.057 157.352 114.102 162.423C106.147 167.495 99.6851 163.381 99.6851 153.238C99.6851 143.096 106.136 130.767 114.102 125.696Z" fill="#11B5E4"/>
<path d="M127.459 162.482C127.947 161.477 128.644 160.613 129.492 159.962C130.341 159.311 131.317 158.891 132.341 158.736C133.365 158.58 134.408 158.695 135.384 159.07C136.36 159.445 137.242 160.07 137.957 160.893L154.651 179.975L186.207 94.5431C186.669 93.2874 187.442 92.2002 188.437 91.4053C189.432 90.6105 190.609 90.14 191.835 90.0474C193.061 89.9548 194.285 90.2439 195.369 90.8818C196.453 91.5196 197.353 92.4805 197.965 93.655L223.304 142.079V173.945C223.26 174.881 223.017 175.792 222.593 176.605C222.17 177.417 221.578 178.107 220.867 178.62L93.0114 260.055C91.6555 260.908 90.5645 260.219 90.5645 258.501V238.285L127.459 162.482Z" fill="#11B5E4"/>
<path d="M106.877 306.983L106.21 306.562C105.642 306.154 105.17 305.603 104.831 304.956C104.493 304.308 104.297 303.581 104.261 302.835V144.556C104.297 143.808 104.493 143.08 104.834 142.432C105.174 141.784 105.65 141.234 106.22 140.828L253.355 47.1111C253.961 46.7715 254.63 46.5944 255.31 46.5944C255.989 46.5944 256.659 46.7715 257.264 47.1111L257.931 47.5435C258.502 47.9494 258.977 48.4989 259.318 49.147C259.659 49.795 259.855 50.5231 259.891 51.2711V209.55C259.853 210.297 259.655 211.024 259.315 211.672C258.974 212.32 258.5 212.87 257.931 213.278L110.797 306.983C110.19 307.325 109.518 307.503 108.837 307.503C108.156 307.503 107.484 307.325 106.877 306.983Z" fill="#F5F5F5"/>
<path d="M113.413 147.899L104.865 142.43C104.515 143.075 104.318 143.806 104.293 144.557V302.836C104.329 303.582 104.525 304.309 104.863 304.957C105.202 305.604 105.674 306.155 106.242 306.563L106.909 306.984C107.515 307.324 108.185 307.501 108.864 307.501C109.543 307.501 110.213 307.324 110.818 306.984L113.445 305.313L113.413 147.899Z" fill="#E0E0E0"/>
<path d="M108.837 305.745V147.466C108.874 146.72 109.069 145.993 109.408 145.345C109.746 144.698 110.219 144.147 110.786 143.739L257.921 50.01C258.98 49.3322 259.881 49.8815 259.881 51.2603V209.551C259.842 210.298 259.645 211.025 259.305 211.673C258.964 212.321 258.49 212.871 257.921 213.279L110.786 306.984C109.706 307.673 108.837 307.089 108.837 305.745Z" fill="#EBEBEB"/>
<path d="M120.425 149.254L248.281 67.8302C249.627 66.9655 250.718 67.6666 250.718 69.3844V191.403C250.674 192.339 250.43 193.25 250.007 194.063C249.584 194.875 248.992 195.565 248.281 196.078L120.425 277.525C119.08 278.39 117.989 277.689 117.989 275.971V153.917C118.035 152.983 118.28 152.075 118.703 151.265C119.126 150.455 119.716 149.766 120.425 149.254Z" fill="white"/>
<path d="M141.558 143.178C149.524 138.106 155.975 142.219 155.975 152.362C155.975 162.505 149.524 174.833 141.558 179.905C133.592 184.976 127.11 180.886 127.11 170.732C127.11 160.577 133.592 148.249 141.558 143.178Z" fill="#F03E3D"/>
<path d="M154.916 179.963C155.405 178.958 156.102 178.094 156.952 177.443C157.801 176.792 158.778 176.372 159.803 176.217C160.828 176.062 161.871 176.176 162.848 176.551C163.825 176.926 164.708 177.551 165.424 178.374L182.065 197.456L213.632 112.024C214.095 110.771 214.868 109.687 215.862 108.895C216.856 108.102 218.031 107.633 219.255 107.54C220.478 107.448 221.701 107.736 222.784 108.371C223.866 109.007 224.766 109.965 225.379 111.136L250.728 159.56V191.403C250.681 192.339 250.435 193.25 250.01 194.062C249.585 194.874 248.993 195.564 248.281 196.077L120.425 277.525C119.08 278.389 117.989 277.688 117.989 275.97V255.755L154.916 179.963Z" fill="#F03E3D"/>
<path d="M131.718 293.65L145.446 284.91V302.403L131.718 293.65Z" fill="#263238"/>
<path d="M145.446 171.41V299.295C145.446 301.012 144.387 301.702 143.01 300.849L131.718 293.651L127.11 296.572L147.554 309.59C148.31 310.016 149.146 310.239 149.995 310.239C150.844 310.239 151.681 310.016 152.437 309.59L294.053 219.448C294.766 218.937 295.359 218.247 295.784 217.434C296.209 216.622 296.454 215.711 296.5 214.774V81.0463C296.528 80.1281 296.329 79.2188 295.925 78.4156C295.521 77.6123 294.926 76.9453 294.205 76.4857C293.484 76.0261 292.663 75.7913 291.83 75.8063C290.998 75.8213 290.184 76.0855 289.477 76.5708L147.893 166.747C147.181 167.256 146.588 167.944 146.162 168.755C145.737 169.565 145.491 170.475 145.446 171.41Z" fill="#263238"/>
<path d="M154.651 174.132L296.595 83.769V81.0463C296.623 80.1281 296.424 79.2188 296.02 78.4156C295.616 77.6123 295.022 76.9453 294.3 76.4857C293.579 76.0261 292.758 75.7913 291.926 75.8063C291.093 75.8213 290.28 76.0855 289.572 76.5708L147.893 166.747C147.17 167.242 146.575 167.934 146.166 168.757L154.651 174.132Z" fill="#455A64"/>
<path d="M294.053 79.4917L152.469 169.668C151.756 170.18 151.163 170.87 150.738 171.682C150.313 172.494 150.068 173.406 150.022 174.342V308.035C150.022 309.753 151.081 310.454 152.469 309.589L294.053 219.448C294.766 218.936 295.359 218.246 295.784 217.434C296.209 216.622 296.454 215.71 296.5 214.774V81.0459C296.5 79.3281 295.398 78.627 294.053 79.4917Z" fill="#37474F"/>
<path d="M187.722 252.483C187.451 252.487 187.184 252.411 186.949 252.261C186.667 252.056 186.44 251.771 186.293 251.436C186.146 251.1 186.083 250.728 186.112 250.356V185.362C186.15 184.514 186.37 183.687 186.755 182.951C187.14 182.216 187.679 181.592 188.326 181.132L257.667 136.973C257.935 136.739 258.261 136.6 258.601 136.573C258.942 136.546 259.283 136.633 259.578 136.822C259.874 137.01 260.111 137.293 260.26 137.632C260.408 137.972 260.461 138.353 260.41 138.726V203.72C260.373 204.568 260.153 205.395 259.768 206.131C259.383 206.866 258.844 207.49 258.197 207.95L188.856 252.168C188.509 252.379 188.118 252.488 187.722 252.483ZM258.8 137.767C258.584 137.778 258.375 137.855 258.197 137.989L188.856 182.137C188.369 182.496 187.965 182.974 187.673 183.533C187.381 184.092 187.209 184.718 187.171 185.362V250.356C187.152 250.521 187.17 250.688 187.224 250.843C187.277 250.998 187.365 251.136 187.479 251.244C187.62 251.301 187.772 251.317 187.92 251.29C188.069 251.264 188.208 251.196 188.326 251.093L257.667 206.933C258.153 206.577 258.559 206.102 258.851 205.545C259.143 204.987 259.314 204.363 259.351 203.72V138.726C259.371 138.561 259.354 138.394 259.3 138.238C259.246 138.083 259.158 137.945 259.044 137.838C258.97 137.79 258.886 137.766 258.8 137.767Z" fill="#FAFAFA"/>
<path d="M198.898 196.51C198.293 196.517 197.697 196.347 197.171 196.019C196.517 195.524 195.995 194.844 195.659 194.051C195.324 193.257 195.188 192.38 195.264 191.508C195.377 189.264 195.968 187.08 196.987 185.133C198.006 183.187 199.427 181.532 201.133 180.302C201.752 179.746 202.51 179.412 203.306 179.343C204.102 179.275 204.898 179.475 205.588 179.918C206.278 180.361 206.83 181.025 207.169 181.822C207.509 182.619 207.62 183.512 207.488 184.38C207.378 186.626 206.788 188.81 205.769 190.757C204.749 192.705 203.328 194.359 201.62 195.587C200.798 196.145 199.861 196.463 198.898 196.51ZM203.897 180.547C203.104 180.586 202.334 180.852 201.662 181.319C200.117 182.44 198.832 183.946 197.912 185.716C196.992 187.486 196.462 189.471 196.366 191.508C196.226 192.177 196.284 192.877 196.532 193.506C196.78 194.136 197.204 194.661 197.743 195.003C198.281 195.346 198.906 195.489 199.524 195.411C200.142 195.333 200.721 195.038 201.175 194.57C202.72 193.448 204.004 191.942 204.924 190.172C205.844 188.402 206.374 186.418 206.471 184.38C206.544 183.714 206.455 183.038 206.213 182.422C205.971 181.806 205.585 181.272 205.094 180.875C204.73 180.646 204.316 180.532 203.897 180.547Z" fill="#FAFAFA"/>
<path d="M186.642 247.598C186.565 247.58 186.493 247.544 186.43 247.493C186.368 247.459 186.313 247.411 186.268 247.352C186.223 247.294 186.19 247.226 186.169 247.154C186.148 247.081 186.141 247.004 186.147 246.928C186.154 246.851 186.174 246.778 186.207 246.71L206.736 202.247C207.045 201.575 207.493 200.991 208.043 200.544C208.594 200.098 209.232 199.8 209.906 199.675C210.58 199.55 211.271 199.601 211.924 199.824C212.577 200.048 213.173 200.438 213.664 200.962L233.96 222.51C234.009 222.563 234.048 222.627 234.075 222.697C234.102 222.767 234.116 222.843 234.116 222.919C234.116 222.995 234.102 223.07 234.075 223.141C234.048 223.211 234.009 223.274 233.96 223.328C233.911 223.383 233.852 223.426 233.788 223.456C233.723 223.485 233.654 223.501 233.584 223.501C233.514 223.501 233.445 223.485 233.38 223.456C233.316 223.426 233.257 223.383 233.208 223.328L212.912 201.838C212.539 201.444 212.088 201.152 211.595 200.984C211.101 200.816 210.579 200.778 210.07 200.872C209.56 200.966 209.078 201.19 208.661 201.526C208.244 201.862 207.904 202.301 207.668 202.808L187.139 247.283C187.092 247.382 187.02 247.464 186.932 247.52C186.844 247.575 186.743 247.603 186.642 247.598Z" fill="#FAFAFA"/>
<path d="M223.261 212.612C223.191 212.629 223.119 212.629 223.049 212.612C222.922 212.551 222.823 212.436 222.771 212.294C222.72 212.152 222.721 211.994 222.774 211.853L238.663 171.328C238.947 170.591 239.398 169.948 239.972 169.458C240.546 168.969 241.224 168.65 241.941 168.533C242.659 168.416 243.392 168.504 244.07 168.788C244.748 169.073 245.348 169.545 245.813 170.159L260.262 189.428C260.308 189.486 260.342 189.553 260.363 189.626C260.385 189.699 260.393 189.776 260.387 189.852C260.381 189.928 260.361 190.003 260.329 190.07C260.297 190.138 260.252 190.198 260.199 190.246C260.101 190.33 259.981 190.375 259.858 190.372C259.734 190.37 259.615 190.322 259.521 190.235L245.072 170.965C244.726 170.502 244.277 170.144 243.769 169.927C243.262 169.709 242.712 169.639 242.173 169.724C241.633 169.808 241.123 170.044 240.69 170.409C240.257 170.774 239.917 171.255 239.701 171.807L223.812 212.32C223.759 212.426 223.677 212.51 223.579 212.563C223.48 212.615 223.369 212.632 223.261 212.612Z" fill="#FAFAFA"/>
<path d="M275.262 109.138C271.988 109.138 269.796 106.976 269.796 103.762L270.082 83.5C270.082 77.9728 270.082 69.5827 275.675 65.9719C276.83 65.1622 278.162 64.7106 279.531 64.6645C280.899 64.6183 282.253 64.9793 283.452 65.7096C284.65 66.4399 285.648 67.5125 286.341 68.8149C287.034 70.1173 287.397 71.6015 287.39 73.1117C287.39 74.7359 287.337 76.7224 287.253 79.0245C287.247 79.2557 287.2 79.4834 287.113 79.6941C287.027 79.9048 286.903 80.0942 286.749 80.2511C286.595 80.408 286.414 80.5292 286.216 80.6075C286.019 80.6859 285.81 80.7198 285.6 80.7072C285.391 80.6967 285.187 80.6409 284.997 80.5429C284.808 80.445 284.639 80.3069 284.498 80.1365C284.357 79.9661 284.248 79.7667 284.178 79.5498C284.107 79.333 284.075 79.1028 284.085 78.8726C284.16 76.664 284.213 74.6658 284.213 73.1117C284.219 72.2162 284.004 71.3357 283.59 70.5655C283.176 69.7953 282.578 69.1649 281.863 68.7424C281.147 68.3199 280.34 68.1215 279.529 68.1687C278.719 68.2159 277.935 68.5068 277.264 69.0101C273.567 71.3471 273.26 77.1899 273.26 83.4766L272.974 103.762C272.974 105.282 274.213 105.609 275.262 105.609C276.99 105.563 278.635 104.779 279.848 103.42C281.062 102.062 281.75 100.236 281.766 98.3288L281.649 90.3243C281.649 89.8594 281.816 89.4136 282.114 89.0848C282.412 88.7561 282.817 88.5715 283.238 88.5715C283.659 88.5715 284.064 88.7561 284.362 89.0848C284.66 89.4136 284.827 89.8594 284.827 90.3243L284.943 98.3405C284.952 101.187 283.938 103.921 282.123 105.944C280.309 107.968 277.842 109.116 275.262 109.138Z" fill="#BA68C8"/>
<path d="M299.117 233.681L188.601 304.074C188.032 304.482 187.558 305.032 187.218 305.679C186.877 306.327 186.68 307.054 186.642 307.801V308.654C186.679 309.404 186.876 310.133 187.217 310.782C187.557 311.432 188.031 311.984 188.601 312.394L280.812 371.125C281.418 371.464 282.087 371.641 282.767 371.641C283.446 371.641 284.115 371.464 284.721 371.125L395.236 300.732C395.805 300.324 396.279 299.774 396.62 299.126C396.96 298.478 397.158 297.751 397.196 297.004V296.139C397.158 295.392 396.96 294.665 396.62 294.017C396.279 293.37 395.805 292.82 395.236 292.412L303.025 233.681C302.42 233.341 301.75 233.164 301.071 233.164C300.392 233.164 299.722 233.341 299.117 233.681Z" fill="#455A64"/>
<path d="M186.642 307.801V308.654C186.679 309.403 186.876 310.132 187.217 310.782C187.557 311.432 188.031 311.984 188.601 312.393L280.812 371.124C281.413 371.473 282.083 371.65 282.761 371.638V360.701L191.218 302.414L188.601 304.085C188.034 304.492 187.561 305.04 187.22 305.686C186.88 306.331 186.682 307.056 186.642 307.801Z" fill="#263238"/>
<path d="M188.601 304.073L299.117 233.68C299.722 233.341 300.392 233.164 301.071 233.164C301.75 233.164 302.42 233.341 303.026 233.68L395.236 292.411C395.475 292.497 395.682 292.663 395.829 292.887C395.976 293.11 396.056 293.379 396.056 293.656C396.056 293.932 395.976 294.201 395.829 294.425C395.682 294.648 395.475 294.815 395.236 294.9L284.721 365.293C284.116 365.633 283.446 365.81 282.767 365.81C282.087 365.81 281.418 365.633 280.812 365.293L188.601 306.562C188.363 306.477 188.156 306.31 188.009 306.087C187.861 305.863 187.782 305.594 187.782 305.318C187.782 305.041 187.861 304.772 188.009 304.549C188.156 304.325 188.363 304.159 188.601 304.073Z" fill="#37474F"/>
<path d="M202.319 306.562L273.938 352.135C274.54 352.48 275.208 352.659 275.887 352.659C276.565 352.659 277.233 352.48 277.836 352.135L374.633 290.495C374.871 290.409 375.079 290.243 375.226 290.019C375.373 289.796 375.452 289.527 375.452 289.25C375.452 288.974 375.373 288.705 375.226 288.481C375.079 288.258 374.871 288.091 374.633 288.006L303.015 242.433C302.408 242.098 301.739 241.924 301.061 241.924C300.382 241.924 299.713 242.098 299.106 242.433L202.319 304.073C202.081 304.159 201.874 304.325 201.726 304.549C201.579 304.772 201.5 305.041 201.5 305.318C201.5 305.594 201.579 305.863 201.726 306.087C201.874 306.31 202.081 306.477 202.319 306.562Z" fill="white"/>
<path d="M224.405 296.922C229.458 293.708 237.657 293.708 242.71 296.922C247.763 300.135 247.773 305.359 242.71 308.607C237.646 311.856 229.458 311.821 224.405 308.607C219.353 305.394 219.353 300.147 224.405 296.922Z" fill="#02897A"/>
<path d="M374.644 288.041L353.712 274.708L290.155 268.176C289.382 268.097 288.603 268.238 287.894 268.586C287.185 268.933 286.568 269.476 286.104 270.163C285.639 270.849 285.342 271.655 285.241 272.504C285.14 273.353 285.238 274.216 285.526 275.012L296.5 305.312L261.544 303.115C260.862 303.07 260.18 303.196 259.549 303.484C258.918 303.771 258.353 304.212 257.899 304.775C257.444 305.337 257.111 306.005 256.924 306.73C256.737 307.454 256.701 308.216 256.819 308.958L262.2 344.704L273.98 352.206C274.582 352.55 275.25 352.729 275.929 352.729C276.607 352.729 277.275 352.55 277.878 352.206L374.675 290.565C374.925 290.485 375.144 290.317 375.299 290.087C375.454 289.856 375.536 289.576 375.532 289.29C375.528 289.003 375.44 288.725 375.279 288.5C375.119 288.274 374.895 288.113 374.644 288.041Z" fill="#02897A"/>
<path d="M374.305 203.288V156.639L429.229 121.665V168.301L374.305 203.288Z" fill="#EBEBEB"/>
<path d="M374.305 156.639L305.642 112.912V159.56L374.305 203.287V156.639Z" fill="#E6E6E6"/>
<path d="M374.305 156.639L430.86 120.613L360.566 75.8345L304.021 111.872L374.305 156.639Z" fill="#F0F0F0"/>
<path d="M374.305 156.639V168.301L430.86 132.286V120.613L374.305 156.639Z" fill="#EBEBEB"/>
<path d="M374.305 168.301L429.229 133.326V135.886L374.305 170.872V168.301Z" fill="#E6E6E6"/>
<path d="M304.021 111.872L374.305 156.639V168.301L304.021 123.534V111.872Z" fill="#EBEBEB"/>
<g style="mix-blend-mode:multiply" opacity="0.5">
<path d="M374.305 168.301L305.642 124.575V127.145L374.305 170.872V168.301Z" fill="#E0E0E0"/>
</g>
<path d="M392.387 163.732L411.147 151.778C411.952 151.264 412.609 151.684 412.609 152.713V164.947C412.582 165.508 412.436 166.055 412.182 166.542C411.928 167.029 411.573 167.444 411.147 167.752L392.387 179.718C391.571 180.232 390.925 179.823 390.925 178.794V166.525C390.948 165.964 391.093 165.418 391.348 164.932C391.602 164.446 391.958 164.034 392.387 163.732Z" fill="#E0E0E0"/>
<path d="M393.584 165.123L409.939 154.7C410.479 154.361 410.924 154.641 410.924 155.319V164.527C410.909 164.903 410.811 165.27 410.639 165.595C410.468 165.921 410.228 166.196 409.939 166.397L393.584 176.82C393.043 177.159 392.609 176.82 392.609 176.189V166.981C392.625 166.608 392.722 166.244 392.892 165.921C393.061 165.598 393.298 165.324 393.584 165.123Z" fill="white"/>
<path d="M374.305 150.785V104.136L429.229 69.1503V115.799L374.305 150.785Z" fill="#EBEBEB"/>
<path d="M374.305 104.137L305.642 60.41V107.058L374.305 150.785V104.137Z" fill="#E6E6E6"/>
<path d="M374.305 104.136L430.86 68.0986L360.566 23.3318L304.021 59.3579L374.305 104.136Z" fill="#F5F5F5"/>
<path d="M374.305 104.137V115.799L430.86 79.7845V68.0991L374.305 104.137Z" fill="#EBEBEB"/>
<path d="M374.305 115.799L429.229 80.8127V83.3835L374.305 118.358V115.799Z" fill="#E6E6E6"/>
<path d="M304.021 59.3581L374.305 104.137V115.799L304.021 71.0318V59.3581Z" fill="#EBEBEB"/>
<g style="mix-blend-mode:multiply" opacity="0.5">
<path d="M374.305 115.798L305.642 72.0715V74.6306L374.305 118.357V115.798Z" fill="#E0E0E0"/>
</g>
<path d="M392.387 111.23L411.147 99.2754C411.952 98.7613 412.609 99.182 412.609 100.21V112.445C412.579 113.006 412.432 113.551 412.178 114.038C411.925 114.525 411.571 114.94 411.147 115.249L392.387 127.192C391.571 127.706 390.925 127.285 390.925 126.257V114.022C390.948 113.462 391.093 112.916 391.348 112.43C391.602 111.944 391.958 111.532 392.387 111.23Z" fill="#E0E0E0"/>
<path d="M393.584 112.608L409.939 102.197C410.479 101.858 410.924 102.127 410.924 102.816V111.942C410.904 112.317 410.804 112.681 410.633 113.006C410.462 113.331 410.224 113.607 409.939 113.812L393.584 124.224C393.043 124.574 392.609 124.294 392.609 123.604V114.431C392.63 114.064 392.729 113.708 392.899 113.391C393.068 113.074 393.303 112.806 393.584 112.608Z" fill="white"/>
<path d="M426.263 117.68L374.305 150.785L308.608 108.916L306.998 109.968L374.305 152.689L427.884 118.708L426.263 117.68Z" fill="#E0E0E0"/>
</svg>
