<svg width="200" height="200" viewBox="0 0 200 200" fill="none" xmlns="http://www.w3.org/2000/svg">
<path d="M157.009 117.575C156.466 115.183 155.141 112.927 153.055 111.102C150.952 109.289 148.39 108.195 145.732 107.795L102.992 99.5244L115.356 107.729L95.835 168.924L84.842 123.467L73.846 168.924L54.33 107.73L66.692 99.5254L23.949 107.796C21.293 108.195 18.728 109.29 16.628 111.103C14.54 112.927 13.215 115.184 12.672 117.576L0 173.235L23.901 181.533C31.843 189.78 54.055 195.849 80.698 196.426H84.841H88.981C115.627 195.85 137.839 189.78 145.777 181.533L169.682 173.235L157.009 117.575Z" fill="white"/>
<path d="M84.841 105.735L74.987 109.265L84.841 123.469L94.693 109.265L84.841 105.735Z" fill="white"/>
<path d="M121.418 50.9252C121.418 25.6632 111.024 5.86523 84.841 5.86523C58.655 5.86523 48.262 25.6632 48.262 50.9252C45.524 52.3552 43.727 55.7072 46.414 62.8922C47.772 66.5012 50.164 69.5242 52.191 71.1062C59.652 89.6842 74.328 104.027 84.841 104.027C95.349 104.027 110.027 89.6832 117.487 71.1062C119.518 69.5242 121.907 66.5022 123.263 62.8922C125.956 55.7072 124.158 52.3542 121.418 50.9252ZM147.349 40.9852H127.925C128.05 42.0892 128.156 43.2072 128.24 44.3502H147.348V40.9852H147.349ZM186.626 29.3852H125.613C125.941 30.4802 126.227 31.6092 126.499 32.7522H186.626V29.3852Z" fill="white"/>
<path d="M197.701 5.87522C196.167 4.34322 194.156 3.57422 192.145 3.57422H105.691C109.526 5.58922 112.926 8.22022 115.85 11.4302H192.145V66.4202H171.12L155.205 82.3372V66.4202H129.446C128.209 69.3212 126.442 72.0652 124.405 74.2782H147.348V95.8842C147.348 96.7622 147.869 97.5982 148.732 97.9572C149.597 98.3162 150.556 98.0952 151.179 97.4702L174.374 74.2772H192.145C194.156 74.2772 196.166 73.5082 197.701 71.9742C199.235 70.4402 200 68.4302 200 66.4192V11.4302C200 9.41922 199.235 7.41122 197.701 5.87522Z" fill="white"/>
<path d="M186.626 17.79H120.563C121.215 18.871 121.832 19.991 122.407 21.157H186.626V17.79V17.79Z" fill="white"/>
</svg>
