<svg width="130" height="130" viewBox="0 0 130 130" fill="none" xmlns="http://www.w3.org/2000/svg">
<path d="M115.798 14.2148H14.2026V91.4023H115.798V14.2148Z" stroke="#b00000" stroke-width="6"/>
<path d="M103.708 26.4023H26.3252V75.1524H103.708V26.4023Z" fill="#f2f2f2" stroke="#b00000" stroke-width="2"/>
<path d="M65 87.2139C67.2437 87.2139 69.0625 85.395 69.0625 83.1514C69.0625 80.9077 67.2437 79.0889 65 79.0889C62.7563 79.0889 60.9375 80.9077 60.9375 83.1514C60.9375 85.395 62.7563 87.2139 65 87.2139Z" fill="#b00000"/>
<path d="M83.2818 50.7783H91.4068M65.0171 91.3698V115.476V91.3698ZM48.7671 115.778H81.2671H48.7671ZM46.7193 42.6533H38.5943V58.9033H46.7193V42.6533ZM52.813 42.6533V58.9033H60.938V42.6533H52.813ZM69.063 42.6533V58.9033H77.188V42.6533H69.063ZM93.438 42.6533H85.313V58.9033H93.438V42.6533Z" stroke="#b00000" stroke-width="8"/>
</svg>
