<svg width="500" height="500" viewBox="0 0 500 500" fill="none" xmlns="http://www.w3.org/2000/svg">
<path d="M500 382.4H0V382.65H500V382.4Z" fill="#EBEBEB"/>
<path d="M449.9 398.49H416.78V398.74H449.9V398.49Z" fill="#EBEBEB"/>
<path d="M331.22 401.21H322.53V401.46H331.22V401.21Z" fill="#EBEBEB"/>
<path d="M415.78 389.21H396.59V389.46H415.78V389.21Z" fill="#EBEBEB"/>
<path d="M95.65 390.89H52.46V391.14H95.65V390.89Z" fill="#EBEBEB"/>
<path d="M110.89 390.89H104.56V391.14H110.89V390.89Z" fill="#EBEBEB"/>
<path d="M225.15 395.11H131.47V395.36H225.15V395.11Z" fill="#EBEBEB"/>
<path d="M237 337.8H43.91C42.3973 337.797 40.9475 337.195 39.8788 336.124C38.8102 335.054 38.21 333.603 38.21 332.09V60.66C38.2231 59.156 38.8292 57.718 39.8964 56.6582C40.9637 55.5985 42.4059 55.0026 43.91 55H237C238.514 55 239.967 55.6016 241.038 56.6724C242.108 57.7433 242.71 59.1956 242.71 60.71V332.09C242.71 333.604 242.108 335.057 241.038 336.128C239.967 337.198 238.514 337.8 237 337.8V337.8ZM43.91 55.2C42.4636 55.2026 41.0774 55.7791 40.0556 56.8027C39.0338 57.8264 38.46 59.2136 38.46 60.66V332.09C38.46 333.536 39.0338 334.924 40.0556 335.947C41.0774 336.971 42.4636 337.547 43.91 337.55H237C238.447 337.547 239.834 336.971 240.858 335.948C241.881 334.924 242.457 333.537 242.46 332.09V60.66C242.457 59.2127 241.881 57.8255 240.858 56.8021C239.834 55.7787 238.447 55.2026 237 55.2H43.91Z" fill="#EBEBEB"/>
<path d="M453.31 337.8H260.21C258.696 337.797 257.246 337.195 256.175 336.125C255.105 335.054 254.503 333.604 254.5 332.09V60.66C254.516 59.1551 255.124 57.7171 256.193 56.6576C257.262 55.5981 258.705 55.0025 260.21 55H453.31C454.812 55.0052 456.252 55.6022 457.317 56.6617C458.382 57.7212 458.987 59.1578 459 60.66V332.09C459 333.601 458.401 335.05 457.335 336.121C456.268 337.191 454.821 337.795 453.31 337.8V337.8ZM260.21 55.2C258.763 55.2026 257.375 55.7787 256.352 56.8021C255.329 57.8255 254.753 59.2127 254.75 60.66V332.09C254.753 333.537 255.329 334.924 256.352 335.948C257.375 336.971 258.763 337.547 260.21 337.55H453.31C454.757 337.547 456.145 336.971 457.168 335.948C458.191 334.924 458.767 333.537 458.77 332.09V60.66C458.767 59.2127 458.191 57.8255 457.168 56.8021C456.145 55.7787 454.757 55.2026 453.31 55.2H260.21Z" fill="#EBEBEB"/>
<path d="M327.67 203.82C320.01 193.16 307.05 189.37 298.72 195.35C290.39 201.33 289.85 214.83 297.51 225.49C305.17 236.15 318.13 240 326.46 234C334.79 228 335.33 214.49 327.67 203.82Z" fill="#EBEBEB"/>
<path d="M395.43 155.7L369 117.92C369 117.92 357.44 152.46 336.84 167.26L350.27 185.94L352.38 188.89L365.82 207.6C386.42 192.8 422.82 192.86 422.82 192.86L395.43 155.7Z" fill="#EBEBEB"/>
<path d="M328.86 227.57C328.86 227.57 347.29 248.71 363 255.4C363.538 255.607 364.132 255.62 364.679 255.437C365.226 255.255 365.693 254.888 366 254.4L376.82 237.33C377.027 237.008 377.156 236.642 377.199 236.262C377.241 235.881 377.195 235.496 377.065 235.136C376.934 234.776 376.722 234.452 376.446 234.187C376.169 233.922 375.835 233.725 375.47 233.61C368.92 231.61 353.6 226.14 344.09 217.19C331.82 205.56 328.86 227.57 328.86 227.57Z" fill="#EBEBEB"/>
<path d="M422.72 194C418 197.39 401.88 183 386.72 161.94C371.56 140.88 363.1 120.94 367.82 117.59C372.54 114.24 388.66 128.59 403.82 149.66C418.98 170.73 427.44 190.65 422.72 194Z" fill="#F0F0F0"/>
<path d="M419.91 187.63C416.38 190.17 403.8 178.86 391.22 161.98C390.5 161.03 389.78 160.03 389.06 159.03C388.19 157.82 387.35 156.65 386.55 155.48C374.82 138.35 368.28 123.15 371.78 120.64C375.55 117.93 389.39 130.74 402.68 149.24C415.97 167.74 423.67 184.92 419.91 187.63Z" fill="#E6E6E6"/>
<path d="M324.89 238.38C324.89 238.38 319.04 235.15 307.24 218.72C294.47 201 294.16 195.6 294.16 195.6L340.16 162.6C340.16 162.6 341.53 169.43 353.51 186.1C365.49 202.77 370.89 205.39 370.89 205.39L324.89 238.38Z" fill="#E0E0E0"/>
<path d="M391.22 162C390.5 161.05 389.78 160.05 389.06 159.05C388.19 157.84 387.35 156.67 386.55 155.5L391.45 153.32C391.977 153.11 392.563 153.095 393.1 153.278C393.637 153.462 394.091 153.831 394.38 154.32L394.87 155C395.239 155.428 395.442 155.975 395.442 156.54C395.442 157.105 395.239 157.652 394.87 158.08L391.22 162Z" fill="white"/>
<path d="M391.22 162C390.5 161.05 389.78 160.05 389.06 159.05C388.19 157.84 387.35 156.67 386.55 155.5L391.45 153.32C391.977 153.11 392.563 153.095 393.1 153.278C393.637 153.462 394.091 153.831 394.38 154.32L394.87 155C395.239 155.428 395.442 155.975 395.442 156.54C395.442 157.105 395.239 157.652 394.87 158.08L391.22 162Z" fill="#FAFAFA"/>
<path d="M191.68 284.31H208.97V231.64H191.68V284.31Z" fill="#EBEBEB"/>
<path d="M159.64 284.32H176.93V216.52H159.64V284.32Z" fill="#EBEBEB"/>
<path d="M127.59 284.31H144.88V190H127.59L127.59 284.31Z" fill="#EBEBEB"/>
<path d="M95.5498 284.31H112.84L112.84 158.46H95.5498L95.5498 284.31Z" fill="#EBEBEB"/>
<path d="M172.73 203.68C138.238 180.449 109.394 149.78 88.3198 113.93L96.9998 108.87C117.233 143.312 144.907 172.797 178 195.17C202.85 211.91 222 218.54 222.36 218.67L219.16 228.14C218.34 227.86 198.74 221.14 172.73 203.68ZM222.36 218.68L220.76 223.41L222.36 218.68Z" fill="#EBEBEB"/>
<path d="M88.2901 102.77L108.31 112.49L85.8101 124.9L88.2901 102.77Z" fill="#EBEBEB"/>
<path d="M175.62 121.823C177.68 113.094 172.274 104.347 163.545 102.287C154.815 100.227 146.069 105.633 144.008 114.362C141.948 123.091 147.354 131.838 156.084 133.898C164.813 135.959 173.559 130.552 175.62 121.823Z" fill="#EBEBEB"/>
<path d="M159.82 130.68C166.768 130.68 172.4 125.048 172.4 118.1C172.4 111.152 166.768 105.52 159.82 105.52C152.872 105.52 147.24 111.152 147.24 118.1C147.24 125.048 152.872 130.68 159.82 130.68Z" fill="#E0E0E0"/>
<path d="M160.69 123.48V125.16H159.19V123.52C157.855 123.482 156.558 123.066 155.45 122.32L156.27 120.49C157.137 121.088 158.142 121.453 159.19 121.55V119C157.52 118.6 155.66 118 155.66 115.89C155.66 114.3 156.81 112.89 159.19 112.66V111H160.69V112.64C161.769 112.699 162.818 113.014 163.75 113.56L162.99 115.41C162.286 114.992 161.503 114.724 160.69 114.62V117.18C162.36 117.57 164.2 118.18 164.2 120.25C164.2 121.84 163.05 123.19 160.69 123.48ZM159.19 116.83V114.7C158.39 114.88 158.08 115.32 158.08 115.81C158.08 116.3 158.53 116.62 159.19 116.83ZM161.78 120.46C161.78 119.93 161.34 119.65 160.69 119.46V121.53C161.45 121.33 161.78 120.94 161.78 120.46Z" fill="#F0F0F0"/>
<path d="M61.4301 261.95C65.9146 261.95 69.5501 258.315 69.5501 253.83C69.5501 249.345 65.9146 245.71 61.4301 245.71C56.9455 245.71 53.3101 249.345 53.3101 253.83C53.3101 258.315 56.9455 261.95 61.4301 261.95Z" fill="#EBEBEB"/>
<path d="M67.7201 253.83C67.7221 255.074 67.3549 256.291 66.6649 257.327C65.975 258.363 64.9933 259.171 63.8441 259.648C62.695 260.126 61.43 260.252 60.2092 260.01C58.9884 259.769 57.8667 259.17 56.986 258.291C56.1053 257.412 55.5052 256.291 55.2617 255.071C55.0182 253.85 55.1422 252.585 55.618 251.435C56.0938 250.285 56.9 249.302 57.9346 248.611C58.9692 247.919 60.1857 247.55 61.4301 247.55C63.0966 247.55 64.695 248.211 65.8743 249.389C67.0536 250.566 67.7175 252.163 67.7201 253.83V253.83Z" fill="#E0E0E0"/>
<path d="M61.8602 256.53V257.37H61.1102V256.55C60.4436 256.525 59.7966 256.318 59.2402 255.95L59.6502 255.03C60.0819 255.332 60.5855 255.514 61.1102 255.56V254.31C60.2802 254.11 59.3502 253.83 59.3502 252.75C59.3502 251.96 59.9302 251.27 61.1102 251.14V250.3H61.8602V251.12C62.399 251.152 62.9228 251.31 63.3902 251.58L63.0102 252.5C62.6546 252.299 62.2646 252.167 61.8602 252.11V253.39C62.7002 253.59 63.6202 253.86 63.6202 254.92C63.6202 255.71 63.0502 256.38 61.8602 256.53ZM61.1102 253.2V252.14C60.7102 252.23 60.5602 252.44 60.5602 252.69C60.5602 252.94 60.7802 253.1 61.1102 253.2V253.2ZM62.4102 255.01C62.4102 254.75 62.1902 254.61 61.8602 254.5V255.5C62.2402 255.45 62.4102 255.26 62.4102 255V255.01Z" fill="#F0F0F0"/>
<path d="M236.23 155.51C240.714 155.51 244.35 151.875 244.35 147.39C244.35 142.905 240.714 139.27 236.23 139.27C231.745 139.27 228.11 142.905 228.11 147.39C228.11 151.875 231.745 155.51 236.23 155.51Z" fill="#EBEBEB"/>
<path d="M242.52 147.39C242.52 148.634 242.151 149.85 241.46 150.885C240.769 151.919 239.786 152.725 238.637 153.201C237.488 153.677 236.223 153.802 235.003 153.559C233.783 153.317 232.662 152.717 231.782 151.838C230.903 150.958 230.304 149.837 230.061 148.617C229.818 147.397 229.943 146.132 230.419 144.983C230.895 143.834 231.701 142.851 232.735 142.16C233.77 141.469 234.986 141.1 236.23 141.1C237.898 141.1 239.498 141.763 240.678 142.942C241.857 144.122 242.52 145.722 242.52 147.39V147.39Z" fill="#E0E0E0"/>
<path d="M236.67 150.08V150.92H235.92V150.1C235.253 150.077 234.606 149.87 234.05 149.5L234.46 148.58C234.892 148.882 235.395 149.065 235.92 149.11V147.86C235.08 147.66 234.15 147.38 234.15 146.3C234.15 145.51 234.73 144.82 235.92 144.69V143.85H236.67V144.67C237.205 144.704 237.726 144.862 238.19 145.13L237.82 146.06C237.466 145.854 237.076 145.718 236.67 145.66V146.94C237.5 147.14 238.42 147.42 238.42 148.48C238.42 149.26 237.85 149.93 236.67 150.08ZM235.92 146.75V145.69C235.52 145.78 235.36 145.99 235.36 146.24C235.36 146.49 235.59 146.65 235.92 146.75ZM237.21 148.57C237.21 148.3 236.99 148.16 236.67 148.05V149.05C237 149 237.21 148.81 237.21 148.57V148.57Z" fill="#F0F0F0"/>
<path d="M145.302 330.322C150.324 325.3 150.324 317.157 145.302 312.135C140.28 307.113 132.138 307.113 127.115 312.135C122.093 317.157 122.093 325.3 127.115 330.322C132.138 335.344 140.28 335.344 145.302 330.322Z" fill="#EBEBEB"/>
<path d="M146.046 322.845C146.927 317.415 143.24 312.299 137.81 311.418C132.38 310.536 127.264 314.223 126.383 319.653C125.502 325.083 129.189 330.199 134.618 331.08C140.048 331.962 145.164 328.274 146.046 322.845Z" fill="#E0E0E0"/>
<path d="M136.9 325.49V326.83H135.71V325.53C134.64 325.502 133.601 325.173 132.71 324.58L133.37 323.12C134.052 323.601 134.849 323.894 135.68 323.97V321.97C134.36 321.65 132.88 321.21 132.88 319.51C132.88 318.25 133.8 317.16 135.68 316.95V315.63H136.87V316.92C137.719 316.971 138.545 317.221 139.28 317.65L138.69 319.12C138.131 318.793 137.512 318.582 136.87 318.5V320.5C138.19 320.81 139.64 321.25 139.64 322.93C139.67 324.2 138.77 325.27 136.9 325.49ZM135.71 320.23V318.54C135.08 318.68 134.83 319.03 134.83 319.42C134.83 319.81 135.18 320.07 135.71 320.23ZM137.71 323.1C137.71 322.68 137.36 322.46 136.85 322.28V323.92C137.49 323.79 137.76 323.48 137.76 323.1H137.71Z" fill="#F0F0F0"/>
<path d="M394 315.33V308.14L390.3 307.8C389.808 305.432 388.872 303.179 387.54 301.16L389.92 298.29L384.84 293.21L382 295.59C379.981 294.258 377.728 293.322 375.36 292.83L375.01 289.13H367.83L367.48 292.83C365.115 293.32 362.865 294.257 360.85 295.59L357.98 293.21L352.89 298.29L355.27 301.16C353.943 303.181 353.006 305.433 352.51 307.8L348.81 308.14V315.33L352.51 315.68C353.008 318.043 353.944 320.291 355.27 322.31L352.89 325.18L357.98 330.26L360.85 327.89C362.867 329.216 365.117 330.149 367.48 330.64L367.83 334.34H375L375.35 330.64C377.716 330.147 379.968 329.214 381.99 327.89L384.86 330.26L389.94 325.18L387.56 322.31C388.89 320.294 389.826 318.044 390.32 315.68L394 315.33ZM371.39 321.46C369.465 321.46 367.584 320.889 365.983 319.819C364.383 318.75 363.136 317.23 362.4 315.451C361.664 313.673 361.472 311.716 361.848 309.828C362.224 307.94 363.152 306.207 364.513 304.846C365.875 303.486 367.61 302.56 369.498 302.186C371.386 301.811 373.343 302.005 375.121 302.743C376.898 303.481 378.417 304.73 379.485 306.331C380.553 307.933 381.122 309.815 381.12 311.74C381.12 313.018 380.868 314.284 380.378 315.464C379.889 316.645 379.171 317.717 378.266 318.62C377.361 319.523 376.287 320.238 375.106 320.726C373.924 321.213 372.658 321.462 371.38 321.46H371.39Z" fill="#E0E0E0"/>
<path d="M389.35 262.91C387.496 263.296 385.732 264.029 384.15 265.07L381.9 263.21L377.9 267.21L379.76 269.46C378.719 271.042 377.986 272.806 377.6 274.66L374.7 274.93V280.56L377.6 280.84C377.986 282.691 378.719 284.452 379.76 286.03L377.9 288.28L381.9 292.28L384.15 290.42C385.73 291.465 387.495 292.198 389.35 292.58L389.62 295.48H395.25L395.52 292.58C397.375 292.198 399.14 291.465 400.72 290.42L402.97 292.28L406.97 288.28L405.09 286C406.131 284.422 406.863 282.661 407.25 280.81L410.15 280.53V274.9L407.25 274.63C406.863 272.776 406.131 271.012 405.09 269.43L406.95 267.18L402.95 263.18L400.7 265.04C399.118 263.999 397.354 263.266 395.5 262.88L395.23 259.98H389.6L389.35 262.91ZM400.06 277.73C400.062 279.24 399.616 280.716 398.778 281.973C397.941 283.229 396.749 284.209 395.354 284.787C393.96 285.366 392.425 285.518 390.944 285.224C389.463 284.93 388.102 284.203 387.035 283.135C385.967 282.068 385.24 280.707 384.946 279.226C384.652 277.745 384.804 276.21 385.383 274.815C385.961 273.421 386.941 272.229 388.197 271.392C389.453 270.554 390.93 270.108 392.44 270.11C394.461 270.11 396.399 270.913 397.828 272.342C399.257 273.771 400.06 275.709 400.06 277.73V277.73Z" fill="#E0E0E0"/>
<path d="M401.91 293.38L400 291.81L396.65 295.16L398.22 297.05C397.345 298.376 396.728 299.855 396.4 301.41L393.97 301.64V306.37L396.4 306.6C396.726 308.159 397.343 309.641 398.22 310.97L396.65 312.86L400 316.2L401.89 314.64C403.217 315.512 404.696 316.126 406.25 316.45L406.48 318.89H411.21L411.44 316.45C412.998 316.128 414.481 315.514 415.81 314.64L417.7 316.2L421.04 312.86L419.5 311C420.374 309.671 420.988 308.188 421.31 306.63L423.75 306.4V301.67L421.31 301.44C420.986 299.886 420.372 298.407 419.5 297.08L421.06 295.19L417.72 291.84L415.83 293.41C414.501 292.533 413.018 291.916 411.46 291.59L411.23 289.16H406.5L406.27 291.59C404.717 291.909 403.238 292.516 401.91 293.38ZM415.27 304C415.27 305.266 414.895 306.503 414.191 307.556C413.488 308.608 412.489 309.429 411.319 309.913C410.15 310.397 408.863 310.524 407.621 310.277C406.38 310.03 405.24 309.421 404.344 308.526C403.449 307.631 402.84 306.49 402.593 305.249C402.346 304.007 402.473 302.72 402.957 301.551C403.442 300.382 404.262 299.382 405.314 298.679C406.367 297.976 407.604 297.6 408.87 297.6C410.567 297.603 412.193 298.278 413.393 299.478C414.592 300.677 415.267 302.304 415.27 304V304Z" fill="#E0E0E0"/>
<path d="M303 91.23L301.11 89.66L297.75 93L299.31 94.88C298.438 96.2104 297.824 97.6928 297.5 99.25L295.06 99.48V104.21L297.5 104.44C297.824 105.997 298.438 107.48 299.31 108.81L297.75 110.7L301.09 114.04L302.98 112.48C304.312 113.35 305.794 113.963 307.35 114.29L307.58 116.73H312.31L312.54 114.29C314.093 113.963 315.572 113.349 316.9 112.48L318.79 114.04L322.14 110.7L320.57 108.81C321.445 107.48 322.062 105.998 322.39 104.44L324.82 104.21V99.49L322.39 99.26C322.062 97.7022 321.445 96.2198 320.57 94.89L322.14 93L318.79 89.65L316.9 91.22C315.575 90.3434 314.095 89.7259 312.54 89.4L312.31 87H307.58L307.35 89.43C305.8 89.7518 304.324 90.3625 303 91.23V91.23ZM316.36 101.86C316.358 103.125 315.981 104.362 315.277 105.413C314.572 106.464 313.572 107.283 312.402 107.766C311.233 108.249 309.946 108.374 308.705 108.126C307.465 107.878 306.325 107.267 305.431 106.372C304.537 105.476 303.928 104.336 303.682 103.095C303.436 101.854 303.563 100.567 304.048 99.3985C304.533 98.2297 305.353 97.2307 306.405 96.5279C307.458 95.8251 308.695 95.45 309.96 95.45C311.656 95.4553 313.28 96.1333 314.476 97.3351C315.672 98.5369 316.343 100.164 316.34 101.86H316.36Z" fill="#E0E0E0"/>
<path d="M413.79 110L412.79 109.15L411 111L411.85 112C411.369 112.719 411.03 113.524 410.85 114.37L409.53 114.49V117.06L410.85 117.18C411.028 118.03 411.368 118.838 411.85 119.56L411 120.56L412.82 122.38L413.82 121.53C414.539 122.011 415.344 122.35 416.19 122.53L416.32 123.85H418.89L419.01 122.53C419.856 122.35 420.661 122.011 421.38 121.53L422.38 122.38L424.19 120.56L423.34 119.56C423.822 118.838 424.162 118.03 424.34 117.18L425.66 117.06V114.49L424.34 114.37C424.16 113.524 423.821 112.719 423.34 112L424.19 111L422.38 109.18L421.38 110.03C420.659 109.553 419.855 109.214 419.01 109.03L418.89 107.71H416.32L416.19 109.03C415.337 109.201 414.523 109.53 413.79 110V110ZM421.05 115.78C421.05 116.468 420.846 117.141 420.464 117.713C420.081 118.286 419.538 118.732 418.902 118.995C418.266 119.258 417.566 119.327 416.891 119.193C416.216 119.059 415.596 118.727 415.109 118.241C414.623 117.754 414.291 117.134 414.157 116.459C414.023 115.784 414.092 115.084 414.355 114.448C414.618 113.812 415.064 113.269 415.637 112.886C416.209 112.504 416.882 112.3 417.57 112.3C418.027 112.299 418.479 112.387 418.901 112.561C419.323 112.735 419.707 112.99 420.03 113.313C420.353 113.635 420.61 114.018 420.785 114.44C420.96 114.861 421.05 115.313 421.05 115.77V115.78Z" fill="#E0E0E0"/>
<path d="M268.71 249.24L267.71 248.39L265.89 250.21L266.74 251.21C266.262 251.935 265.923 252.742 265.74 253.59L264.42 253.71V256.28L265.74 256.4C265.923 257.249 266.262 258.056 266.74 258.78L265.89 259.78L267.71 261.6L268.71 260.75C269.432 261.233 270.24 261.573 271.09 261.75L271.21 263.08H273.78L273.9 261.75C274.746 261.571 275.551 261.231 276.27 260.75L277.27 261.6L279.09 259.78L278.24 258.78C278.715 258.054 279.054 257.248 279.24 256.4L280.56 256.28V253.71L279.24 253.59C279.054 252.743 278.715 251.936 278.24 251.21L279.09 250.21L277.27 248.39L276.27 249.24C275.551 248.759 274.746 248.42 273.9 248.24L273.78 246.91H271.21L271.09 248.24C270.24 248.418 269.432 248.757 268.71 249.24ZM276 255C276.002 255.689 275.799 256.363 275.418 256.936C275.037 257.51 274.494 257.957 273.859 258.222C273.223 258.487 272.523 258.558 271.847 258.424C271.171 258.291 270.55 257.961 270.063 257.474C269.575 256.988 269.243 256.368 269.108 255.693C268.972 255.017 269.041 254.317 269.304 253.681C269.567 253.044 270.013 252.5 270.585 252.117C271.158 251.735 271.831 251.53 272.52 251.53C273.441 251.53 274.325 251.895 274.977 252.546C275.629 253.196 275.997 254.079 276 255V255Z" fill="#E0E0E0"/>
<path d="M250 427.56C357.082 427.56 443.89 422.492 443.89 416.24C443.89 409.988 357.082 404.92 250 404.92C142.917 404.92 56.1099 409.988 56.1099 416.24C56.1099 422.492 142.917 427.56 250 427.56Z" fill="#F5F5F5"/>
<path d="M404.73 386.11H403.73C403.73 384.76 404.85 353.06 410.37 347.69C416.07 342.15 422.76 347.61 422.83 347.69L422.19 348.46C421.94 348.25 416.12 343.52 411.07 348.46C405.83 353.47 404.74 385.79 404.73 386.11Z" fill="#F03E3D"/>
<path d="M404.27 392.48L403.27 392.38C403.27 392 406.83 353.93 393.04 338.11L393.8 337.46C407.88 353.6 404.43 390.9 404.27 392.48Z" fill="#F03E3D"/>
<path d="M404.62 388.41C404.5 386.61 401.84 344.26 412.46 334.49L413.14 335.22C402.87 344.67 405.59 387.9 405.62 388.34L404.62 388.41Z" fill="#F03E3D"/>
<path d="M403.28 388.38C403.28 388.09 402.95 359.67 395.43 355.38C394.796 354.959 394.069 354.697 393.311 354.617C392.554 354.537 391.789 354.641 391.08 354.92C386.68 356.74 384.33 365.16 384.31 365.25L383.31 364.98C383.41 364.62 385.81 355.98 390.67 353.98C391.519 353.642 392.437 353.512 393.347 353.6C394.257 353.689 395.132 353.994 395.9 354.49C403.9 359.08 404.24 387.17 404.25 388.36L403.28 388.38Z" fill="#F03E3D"/>
<path d="M406.38 388.4C406.33 387.49 405.16 365.91 411.28 357.91C412.92 355.78 414.74 354.75 416.71 354.91C421.08 355.22 424.46 361.13 424.6 361.38L423.73 361.87C423.73 361.81 420.47 356.18 416.64 355.87C415.02 355.77 413.49 356.64 412.08 358.49C406.18 366.19 407.36 388.09 407.38 388.31L406.38 388.4Z" fill="#F03E3D"/>
<path d="M405.26 391.39L404.26 391.31C404.26 390.79 408.11 339.43 401.78 330.88L402.58 330.29C409.13 339.14 405.42 389.26 405.26 391.39Z" fill="#F03E3D"/>
<path d="M389 359.15C389 359.15 392.91 360.59 391.75 364C390.59 367.41 378.2 373 378.2 373C378.2 373 373.02 368.25 377.78 360.52C382.54 352.79 388.85 356.71 389 359.15Z" fill="#F03E3D"/>
<path opacity="0.5" d="M389 359.15C389 359.15 392.91 360.59 391.75 364C390.59 367.41 378.2 373 378.2 373C378.2 373 373.02 368.25 377.78 360.52C382.54 352.79 388.85 356.71 389 359.15Z" fill="white"/>
<path d="M406 352.66C406 352.66 401.83 352.49 401.59 356.08C401.35 359.67 410.59 369.61 410.59 369.61C410.59 369.61 417.21 367.22 415.78 358.26C414.35 349.3 407 350.45 406 352.66Z" fill="#F03E3D"/>
<path opacity="0.5" d="M406 352.66C406 352.66 401.83 352.49 401.59 356.08C401.35 359.67 410.59 369.61 410.59 369.61C410.59 369.61 417.21 367.22 415.78 358.26C414.35 349.3 407 350.45 406 352.66Z" fill="white"/>
<path d="M409.5 335.46C409.5 335.46 406.73 335.16 406.95 333.46C407.17 331.76 417.75 327.41 424 334.46C424 334.46 420 341.32 414.22 341.41C408.44 341.5 409.5 335.46 409.5 335.46Z" fill="#F03E3D"/>
<path opacity="0.5" d="M409.5 335.46C409.5 335.46 406.73 335.16 406.95 333.46C407.17 331.76 417.75 327.41 424 334.46C424 334.46 420 341.32 414.22 341.41C408.44 341.5 409.5 335.46 409.5 335.46Z" fill="white"/>
<path d="M404.33 331.35C404.33 331.35 406.84 332.57 407.55 331.01C408.26 329.45 401.55 320.16 392.55 322.84C392.55 322.84 392.31 330.78 397.17 333.92C402.03 337.06 404.33 331.35 404.33 331.35Z" fill="#F03E3D"/>
<path opacity="0.5" d="M404.33 331.35C404.33 331.35 406.84 332.57 407.55 331.01C408.26 329.45 401.55 320.16 392.55 322.84C392.55 322.84 392.31 330.78 397.17 333.92C402.03 337.06 404.33 331.35 404.33 331.35Z" fill="white"/>
<path d="M417.49 357.78C417.49 357.78 415.57 356.23 417.64 355.47C419.71 354.71 429.86 354.93 429.97 364.99C429.97 364.99 418.14 366.99 416.68 363.13C415.22 359.27 417.49 357.78 417.49 357.78Z" fill="#F03E3D"/>
<path opacity="0.5" d="M417.49 357.78C417.49 357.78 415.57 356.23 417.64 355.47C419.71 354.71 429.86 354.93 429.97 364.99C429.97 364.99 418.14 366.99 416.68 363.13C415.22 359.27 417.49 357.78 417.49 357.78Z" fill="white"/>
<path d="M393.36 335.21C393.36 335.21 395.28 333.66 393.21 332.91C391.14 332.16 380.98 332.36 380.88 342.43C380.88 342.43 392.71 344.43 394.17 340.56C395.63 336.69 393.36 335.21 393.36 335.21Z" fill="#F03E3D"/>
<path opacity="0.5" d="M393.36 335.21C393.36 335.21 395.28 333.66 393.21 332.91C391.14 332.16 380.98 332.36 380.88 342.43C380.88 342.43 392.71 344.43 394.17 340.56C395.63 336.69 393.36 335.21 393.36 335.21Z" fill="white"/>
<path d="M399.62 343.32C399.62 343.32 399.78 341.43 398.26 342.17C396.74 342.91 391.45 348.62 396.94 354.04C396.94 354.04 404.33 348.57 402.99 345.72C401.65 342.87 399.62 343.32 399.62 343.32Z" fill="#F03E3D"/>
<path opacity="0.5" d="M399.62 343.32C399.62 343.32 399.78 341.43 398.26 342.17C396.74 342.91 391.45 348.62 396.94 354.04C396.94 354.04 404.33 348.57 402.99 345.72C401.65 342.87 399.62 343.32 399.62 343.32Z" fill="white"/>
<path d="M419.2 346C419.2 346 418.05 344.5 419.73 344.31C421.41 344.12 428.94 346.13 427.19 353.65C427.19 353.65 418.02 352.96 417.62 349.84C417.22 346.72 419.2 346 419.2 346Z" fill="#F03E3D"/>
<path opacity="0.5" d="M419.2 346C419.2 346 418.05 344.5 419.73 344.31C421.41 344.12 428.94 346.13 427.19 353.65C427.19 353.65 418.02 352.96 417.62 349.84C417.22 346.72 419.2 346 419.2 346Z" fill="white"/>
<path d="M388.22 416.26H419.68L423.08 381.82H384.83L388.22 416.26Z" fill="#263238"/>
<path opacity="0.2" d="M388.22 416.26H419.68L423.08 381.82H384.83L388.22 416.26Z" fill="white"/>
<path d="M383.15 385.62H424.76V378.02H383.15V385.62Z" fill="#263238"/>
<path opacity="0.4" d="M383.15 385.62H424.76V378.02H383.15V385.62Z" fill="white"/>
<path d="M104.44 342C104.23 343.47 108.21 344.43 111.44 345C111.18 347.67 109.44 350.36 106.95 352.88C103.87 351.14 99.46 348.88 98.65 349.41C97.84 349.94 102.27 352.94 105.09 354.65C103.076 356.411 100.941 358.028 98.7 359.49C97.32 358.2 95.7 357.07 94.7 357.68C93.7 358.29 93.97 360.31 94.46 362.1C91.11 364.1 88.59 365.25 88.59 365.25C87.6137 362.132 86.865 358.946 86.35 355.72C86.52 355.38 86.69 355.04 86.84 354.72C87.38 353.47 86.84 352.93 85.96 352.72C85.7204 350.436 85.7204 348.134 85.96 345.85C89.76 345.06 94.38 343.58 92.65 341.3C91.65 339.93 89.65 339.77 87.65 340.12C87.9233 339.665 88.2379 339.237 88.59 338.84C95.51 331.22 100.33 338.84 100.33 338.84C104.33 335.49 109.99 336.4 111.21 341.63C109 341 104.7 340.16 104.44 342Z" fill="#02897A"/>
<path opacity="0.3" d="M104.44 342C104.23 343.47 108.21 344.43 111.44 345C111.18 347.67 109.44 350.36 106.95 352.88C103.87 351.14 99.46 348.88 98.65 349.41C97.84 349.94 102.27 352.94 105.09 354.65C103.076 356.411 100.941 358.028 98.7 359.49C97.32 358.2 95.7 357.07 94.7 357.68C93.7 358.29 93.97 360.31 94.46 362.1C91.11 364.1 88.59 365.25 88.59 365.25C87.6137 362.132 86.865 358.946 86.35 355.72C86.52 355.38 86.69 355.04 86.84 354.72C87.38 353.47 86.84 352.93 85.96 352.72C85.7204 350.436 85.7204 348.134 85.96 345.85C89.76 345.06 94.38 343.58 92.65 341.3C91.65 339.93 89.65 339.77 87.65 340.12C87.9233 339.665 88.2379 339.237 88.59 338.84C95.51 331.22 100.33 338.84 100.33 338.84C104.33 335.49 109.99 336.4 111.21 341.63C109 341 104.7 340.16 104.44 342Z" fill="white"/>
<path d="M95.8098 398L96.8098 397.92C96.8098 397.41 92.7099 346.4 104.16 341.59C104.705 341.333 105.302 341.206 105.904 341.22C106.507 341.234 107.097 341.388 107.63 341.67C111.77 343.83 113.75 352.76 113.77 352.85L114.77 352.63C114.68 352.25 112.67 343.16 108.11 340.79C107.447 340.439 106.713 340.246 105.964 340.226C105.215 340.205 104.471 340.357 103.79 340.67C91.6599 345.71 95.6398 395.83 95.8098 398Z" fill="#02897A"/>
<path d="M94.3698 396.86C94.5698 394.56 99.2398 340.59 90.5098 334.86C88.4098 333.49 86.5098 333.19 84.9598 334C80.8298 336.08 80.2898 344.91 80.2598 345.28L81.2598 345.34C81.2598 345.25 81.7898 336.71 85.4098 334.89C86.6498 334.26 88.1798 334.53 89.9598 335.7C98.1998 341.1 93.4198 396.21 93.3698 396.77L94.3698 396.86Z" fill="#02897A"/>
<path d="M93.0501 401.22C93.1201 399.46 94.5601 358.15 86.6001 354.53C85.8596 354.184 85.0523 354.005 84.2351 354.005C83.4179 354.005 82.6106 354.184 81.8701 354.53C76.4101 356.93 73.0401 367.1 72.8701 367.53L73.8201 367.84C73.8201 367.74 77.1901 357.66 82.2401 355.44C82.8524 355.148 83.522 354.997 84.2001 354.997C84.8782 354.997 85.5478 355.148 86.1601 355.44C92.2601 358.22 92.4601 389.44 92.0201 401.18L93.0501 401.22Z" fill="#02897A"/>
<path d="M95.0798 399.329L96.0798 399.22C94.6798 386.92 91.9998 354.16 96.3798 350.22C96.5912 349.962 96.8732 349.772 97.1912 349.672C97.5092 349.573 97.8494 349.568 98.1698 349.66C101.1 350.79 102.89 361.449 103.33 365.459L104.33 365.35C104.16 363.81 102.56 350.28 98.5298 348.73C98.0385 348.568 97.5108 348.551 97.0104 348.682C96.51 348.814 96.0583 349.087 95.7098 349.47C89.9998 354.55 94.8698 397.509 95.0798 399.329Z" fill="#02897A"/>
<path d="M111.77 376.02H75.8398L78.8398 416.26H108.77L111.77 376.02Z" fill="#02897A"/>
<path opacity="0.2" d="M100.85 376.02L99.8498 416.26H78.8398L75.8398 376.02H100.85Z" fill="white"/>
<path d="M106.87 361.25C107.25 362.25 110.04 361.46 112.23 360.68C112.98 362.42 112.81 364.68 112.16 367.09C109.66 367.09 106.16 367.16 105.85 367.79C105.54 368.42 109.29 368.72 111.62 368.79C110.983 370.568 110.221 372.299 109.34 373.97C108.04 373.65 106.66 373.5 106.27 374.21C105.88 374.92 106.73 376.09 107.64 377.02C106.24 379.37 105.1 380.97 105.1 380.97C103.43 379.38 101.876 377.672 100.45 375.86C100.45 375.6 100.45 375.33 100.45 375.06C100.36 374.06 99.8502 373.95 99.2402 374.15C98.2877 372.853 97.4701 371.462 96.8002 370C98.8702 368.2 101.21 365.71 99.3602 364.9C98.2502 364.41 97.0202 364.97 95.9102 365.9C95.926 365.526 95.9728 365.155 96.0502 364.79C97.7002 357.72 103.29 360.79 103.29 360.79C104.62 357.34 108.41 355.97 110.96 358.79C109.37 359.09 106.41 360 106.87 361.25Z" fill="#02897A"/>
<path opacity="0.3" d="M106.87 361.25C107.25 362.25 110.04 361.46 112.23 360.68C112.98 362.42 112.81 364.68 112.16 367.09C109.66 367.09 106.16 367.16 105.85 367.79C105.54 368.42 109.29 368.72 111.62 368.79C110.983 370.568 110.221 372.299 109.34 373.97C108.04 373.65 106.66 373.5 106.27 374.21C105.88 374.92 106.73 376.09 107.64 377.02C106.24 379.37 105.1 380.97 105.1 380.97C103.43 379.38 101.876 377.672 100.45 375.86C100.45 375.6 100.45 375.33 100.45 375.06C100.36 374.06 99.8502 373.95 99.2402 374.15C98.2877 372.853 97.4701 371.462 96.8002 370C98.8702 368.2 101.21 365.71 99.3602 364.9C98.2502 364.41 97.0202 364.97 95.9102 365.9C95.926 365.526 95.9728 365.155 96.0502 364.79C97.7002 357.72 103.29 360.79 103.29 360.79C104.62 357.34 108.41 355.97 110.96 358.79C109.37 359.09 106.41 360 106.87 361.25Z" fill="white"/>
<path d="M80.1999 366C81.3177 366.093 82.4195 366.324 83.4799 366.69C83.7695 365.932 83.9317 365.131 83.9599 364.32C84.1899 357.07 78.9599 360.12 76.2599 358C75.6415 357.45 74.9136 357.038 74.1242 356.789C73.3348 356.541 72.5017 356.463 71.6799 356.56C71.9125 356.96 72.1195 357.374 72.2999 357.8C72.3636 357.959 72.3907 358.13 72.3791 358.301C72.3675 358.472 72.3176 358.638 72.2331 358.787C72.1485 358.936 72.0315 359.064 71.8908 359.161C71.75 359.259 71.5891 359.323 71.4199 359.35C70.7446 359.481 70.0451 359.397 69.4199 359.11C69.2317 359.004 69.0542 358.88 68.8899 358.74C68.4512 359.502 68.1149 360.319 67.8899 361.17C67.6128 362.181 67.455 363.222 67.4199 364.27C67.8298 364.359 68.2338 364.472 68.6299 364.61C68.7884 364.677 68.9294 364.779 69.042 364.909C69.1546 365.038 69.2358 365.193 69.2793 365.359C69.3228 365.525 69.3275 365.699 69.2929 365.868C69.2583 366.036 69.1855 366.194 69.0799 366.33C68.6502 366.766 68.1455 367.122 67.5899 367.38C67.7748 368.542 68.0798 369.681 68.4999 370.78L68.8699 370.83C69.1333 370.882 69.3937 370.949 69.6499 371.03C69.8 371.069 69.947 371.119 70.0899 371.18C70.2671 371.258 70.4216 371.379 70.5388 371.533C70.656 371.687 70.7321 371.868 70.7599 372.06C70.7904 372.256 70.7676 372.458 70.6937 372.642C70.6198 372.827 70.4976 372.989 70.3399 373.11C70.1682 373.233 69.9877 373.343 69.7999 373.44C70.4899 374.638 71.4787 375.638 72.6699 376.34C73.6997 375.857 74.7014 375.316 75.6699 374.72C75.4499 374.43 75.2399 374.14 75.0399 373.84C74.801 373.514 74.6906 373.112 74.7299 372.71C74.7886 372.312 75.0003 371.953 75.3199 371.71C75.6454 371.466 76.0534 371.358 76.4569 371.411C76.8604 371.463 77.2275 371.671 77.4799 371.99C77.7199 372.35 77.9799 372.69 78.2399 372.99C79.6492 371.991 80.9144 370.803 81.9999 369.46H81.8899C81.2353 369.284 80.5657 369.171 79.8899 369.12C79.4841 369.067 79.1161 368.855 78.8666 368.53C78.6172 368.206 78.5069 367.796 78.5599 367.39C78.613 366.984 78.825 366.616 79.1495 366.367C79.4739 366.117 79.8841 366.007 80.2899 366.06L80.1999 366Z" fill="#02897A"/>
<path opacity="0.5" d="M80.1999 366C81.3177 366.093 82.4195 366.324 83.4799 366.69C83.7695 365.932 83.9317 365.131 83.9599 364.32C84.1899 357.07 78.9599 360.12 76.2599 358C75.6415 357.45 74.9136 357.038 74.1242 356.789C73.3348 356.541 72.5017 356.463 71.6799 356.56C71.9125 356.96 72.1195 357.374 72.2999 357.8C72.3636 357.959 72.3907 358.13 72.3791 358.301C72.3675 358.472 72.3176 358.638 72.2331 358.787C72.1485 358.936 72.0315 359.064 71.8908 359.161C71.75 359.259 71.5891 359.323 71.4199 359.35C70.7446 359.481 70.0451 359.397 69.4199 359.11C69.2317 359.004 69.0542 358.88 68.8899 358.74C68.4512 359.502 68.1149 360.319 67.8899 361.17C67.6128 362.181 67.455 363.222 67.4199 364.27C67.8298 364.359 68.2338 364.472 68.6299 364.61C68.7884 364.677 68.9294 364.779 69.042 364.909C69.1546 365.038 69.2358 365.193 69.2793 365.359C69.3228 365.525 69.3275 365.699 69.2929 365.868C69.2583 366.036 69.1855 366.194 69.0799 366.33C68.6502 366.766 68.1455 367.122 67.5899 367.38C67.7748 368.542 68.0798 369.681 68.4999 370.78L68.8699 370.83C69.1333 370.882 69.3937 370.949 69.6499 371.03C69.8 371.069 69.947 371.119 70.0899 371.18C70.2671 371.258 70.4216 371.379 70.5388 371.533C70.656 371.687 70.7321 371.868 70.7599 372.06C70.7904 372.256 70.7676 372.458 70.6937 372.642C70.6198 372.827 70.4976 372.989 70.3399 373.11C70.1682 373.233 69.9877 373.343 69.7999 373.44C70.4899 374.638 71.4787 375.638 72.6699 376.34C73.6997 375.857 74.7014 375.316 75.6699 374.72C75.4499 374.43 75.2399 374.14 75.0399 373.84C74.801 373.514 74.6906 373.112 74.7299 372.71C74.7886 372.312 75.0003 371.953 75.3199 371.71C75.6454 371.466 76.0534 371.358 76.4569 371.411C76.8604 371.463 77.2275 371.671 77.4799 371.99C77.7199 372.35 77.9799 372.69 78.2399 372.99C79.6492 371.991 80.9144 370.803 81.9999 369.46H81.8899C81.2353 369.284 80.5657 369.171 79.8899 369.12C79.4841 369.067 79.1161 368.855 78.8666 368.53C78.6172 368.206 78.5069 367.796 78.5599 367.39C78.613 366.984 78.825 366.616 79.1495 366.367C79.4739 366.117 79.8841 366.007 80.2899 366.06L80.1999 366Z" fill="white"/>
<path d="M78.1201 341.05C77.4984 340.612 76.827 340.25 76.1201 339.97C76.3053 339.445 76.5719 338.952 76.9101 338.51C79.9701 334.6 81.3601 338.51 83.7301 338.57C84.2905 338.558 84.8472 338.664 85.364 338.881C85.8808 339.098 86.3463 339.421 86.7301 339.83C86.4323 339.938 86.1417 340.065 85.8601 340.21C85.7568 340.265 85.6672 340.343 85.5981 340.438C85.529 340.533 85.4822 340.642 85.461 340.757C85.4399 340.872 85.445 340.991 85.476 341.104C85.507 341.217 85.5631 341.322 85.6401 341.41C85.946 341.779 86.358 342.044 86.8201 342.17C86.9631 342.185 87.1072 342.185 87.2501 342.17C87.1483 342.762 86.9666 343.337 86.7101 343.88C86.4102 344.53 86.0379 345.144 85.6001 345.71C85.3434 345.579 85.0796 345.462 84.8101 345.36C84.6968 345.324 84.5768 345.316 84.4595 345.334C84.3422 345.353 84.2308 345.398 84.1339 345.467C84.0371 345.536 83.9575 345.626 83.9013 345.73C83.8451 345.835 83.8139 345.951 83.8101 346.07C83.8408 346.49 83.9493 346.9 84.1301 347.28C83.5107 347.805 82.8407 348.267 82.1301 348.66L81.9101 348.53C81.7501 348.44 81.5801 348.36 81.4201 348.29C81.3254 348.24 81.2245 348.203 81.1201 348.18C80.9903 348.136 80.851 348.127 80.7166 348.154C80.5822 348.182 80.4576 348.244 80.3557 348.336C80.2537 348.428 80.1781 348.545 80.1367 348.676C80.0953 348.807 80.0896 348.946 80.1201 349.08C80.1562 349.22 80.203 349.357 80.2601 349.49C79.3712 349.814 78.4137 349.904 77.4801 349.75C77.1399 349.038 76.8427 348.307 76.5901 347.56L77.3101 347.38C77.5777 347.338 77.822 347.204 78.0001 347C78.1452 346.76 78.1952 346.475 78.1401 346.2C78.078 345.927 77.9108 345.69 77.6748 345.541C77.4388 345.391 77.1532 345.34 76.8801 345.4C76.6001 345.48 76.3101 345.55 76.0201 345.61C75.7388 344.469 75.6177 343.294 75.6601 342.12H75.7301C76.1586 342.321 76.567 342.562 76.9501 342.84C77.189 342.984 77.4744 343.03 77.7466 342.969C78.0187 342.907 78.2565 342.743 78.4101 342.51C78.5608 342.277 78.6147 341.994 78.5606 341.721C78.5065 341.449 78.3485 341.208 78.1201 341.05V341.05Z" fill="#02897A"/>
<path opacity="0.3" d="M78.1201 341.05C77.4984 340.612 76.827 340.25 76.1201 339.97C76.3053 339.445 76.5719 338.952 76.9101 338.51C79.9701 334.6 81.3601 338.51 83.7301 338.57C84.2905 338.558 84.8472 338.664 85.364 338.881C85.8808 339.098 86.3463 339.421 86.7301 339.83C86.4323 339.938 86.1417 340.065 85.8601 340.21C85.7568 340.265 85.6672 340.343 85.5981 340.438C85.529 340.533 85.4822 340.642 85.461 340.757C85.4399 340.872 85.445 340.991 85.476 341.104C85.507 341.217 85.5631 341.322 85.6401 341.41C85.946 341.779 86.358 342.044 86.8201 342.17C86.9631 342.185 87.1072 342.185 87.2501 342.17C87.1483 342.762 86.9666 343.337 86.7101 343.88C86.4102 344.53 86.0379 345.144 85.6001 345.71C85.3434 345.579 85.0796 345.462 84.8101 345.36C84.6968 345.324 84.5768 345.316 84.4595 345.334C84.3422 345.353 84.2308 345.398 84.1339 345.467C84.0371 345.536 83.9575 345.626 83.9013 345.73C83.8451 345.835 83.8139 345.951 83.8101 346.07C83.8408 346.49 83.9493 346.9 84.1301 347.28C83.5107 347.805 82.8407 348.267 82.1301 348.66L81.9101 348.53C81.7501 348.44 81.5801 348.36 81.4201 348.29C81.3254 348.24 81.2245 348.203 81.1201 348.18C80.9903 348.136 80.851 348.127 80.7166 348.154C80.5822 348.182 80.4576 348.244 80.3557 348.336C80.2537 348.428 80.1781 348.545 80.1367 348.676C80.0953 348.807 80.0896 348.946 80.1201 349.08C80.1562 349.22 80.203 349.357 80.2601 349.49C79.3712 349.814 78.4137 349.904 77.4801 349.75C77.1399 349.038 76.8427 348.307 76.5901 347.56L77.3101 347.38C77.5777 347.338 77.822 347.204 78.0001 347C78.1452 346.76 78.1952 346.475 78.1401 346.2C78.078 345.927 77.9108 345.69 77.6748 345.541C77.4388 345.391 77.1532 345.34 76.8801 345.4C76.6001 345.48 76.3101 345.55 76.0201 345.61C75.7388 344.469 75.6177 343.294 75.6601 342.12H75.7301C76.1586 342.321 76.567 342.562 76.9501 342.84C77.189 342.984 77.4744 343.03 77.7466 342.969C78.0187 342.907 78.2565 342.743 78.4101 342.51C78.5608 342.277 78.6147 341.994 78.5606 341.721C78.5065 341.449 78.3485 341.208 78.1201 341.05V341.05Z" fill="white"/>
<path d="M107.4 348.3C107.61 349.77 103.62 350.74 100.4 351.3C100.66 353.97 102.4 356.67 104.89 359.19C107.98 357.45 112.38 355.19 113.19 355.71C114 356.23 109.57 359.24 106.75 360.96C108.766 362.719 110.901 364.336 113.14 365.8C114.52 364.5 116.14 363.37 117.14 363.98C118.14 364.59 117.87 366.62 117.38 368.4C120.74 370.4 123.25 371.55 123.25 371.55C124.226 368.432 124.975 365.247 125.49 362.02C125.32 361.69 125.15 361.35 125 361.02C124.46 359.77 125 359.24 125.88 359.02C126.12 356.74 126.12 354.44 125.88 352.16C122.09 351.36 117.47 349.89 119.2 347.61C120.2 346.23 122.15 346.08 124.14 346.42C123.867 345.965 123.552 345.537 123.2 345.14C116.29 337.53 111.46 345.14 111.46 345.14C107.46 341.8 101.8 342.7 100.58 347.93C102.82 347.35 107.14 346.49 107.4 348.3Z" fill="#02897A"/>
<path opacity="0.5" d="M107.4 348.3C107.61 349.77 103.62 350.74 100.4 351.3C100.66 353.97 102.4 356.67 104.89 359.19C107.98 357.45 112.38 355.19 113.19 355.71C114 356.23 109.57 359.24 106.75 360.96C108.766 362.719 110.901 364.336 113.14 365.8C114.52 364.5 116.14 363.37 117.14 363.98C118.14 364.59 117.87 366.62 117.38 368.4C120.74 370.4 123.25 371.55 123.25 371.55C124.226 368.432 124.975 365.247 125.49 362.02C125.32 361.69 125.15 361.35 125 361.02C124.46 359.77 125 359.24 125.88 359.02C126.12 356.74 126.12 354.44 125.88 352.16C122.09 351.36 117.47 349.89 119.2 347.61C120.2 346.23 122.15 346.08 124.14 346.42C123.867 345.965 123.552 345.537 123.2 345.14C116.29 337.53 111.46 345.14 111.46 345.14C107.46 341.8 101.8 342.7 100.58 347.93C102.82 347.35 107.14 346.49 107.4 348.3Z" fill="white"/>
<path d="M290.46 187.4C290.2 188.9 289.93 190.15 289.6 191.5C289.27 192.85 288.92 194.13 288.53 195.43C287.769 198.058 286.854 200.639 285.79 203.16C283.61 208.22 280.92 213.3 276.42 217.65C275.259 218.766 273.982 219.755 272.61 220.6C272.26 220.8 271.87 221.04 271.55 221.21L270.63 221.68C270.01 221.99 269.41 222.28 268.79 222.55C266.34 223.66 263.92 224.66 261.46 225.55C256.585 227.384 251.614 228.953 246.57 230.25L244.69 225.47C249.14 222.97 253.69 220.56 258.09 218.15C260.29 216.93 262.5 215.74 264.6 214.48C265.12 214.17 265.6 213.87 266.15 213.55L266.91 213.08C267.14 212.93 267.29 212.81 267.48 212.68C268.256 212.121 268.97 211.481 269.61 210.77C272.36 207.82 274.51 203.62 276.21 199.24C277.09 197.05 277.82 194.76 278.52 192.46C278.86 191.3 279.18 190.14 279.52 188.97C279.86 187.8 280.1 186.58 280.31 185.57L290.46 187.4Z" fill="#CE7A63"/>
<path d="M269.58 201.09L280.38 209.15C280.38 209.15 280.8 208.69 281.48 207.9C281.98 207.32 282.63 206.55 283.37 205.65C287.57 200.53 293.71 191.2 293.76 186.65C293.83 179.83 286.76 178.83 278.82 185.8C275.39 188.8 273.6 193.8 271.82 196.89C271.24 197.89 270.76 198.81 270.38 199.5C269.88 200.49 269.58 201.09 269.58 201.09Z" fill="#B00000"/>
<path opacity="0.3" d="M293.83 187.41C291.39 185.8 289.61 189.98 284.78 193.51C282.63 195.08 277.92 205.34 278.3 207.6L280.39 209.15C280.39 209.15 293.88 194.21 293.83 187.41Z" fill="black"/>
<path d="M246.61 224.93L237.68 222.57L238.31 231.42C238.31 231.42 247.03 232.3 247.84 229.68L246.61 224.93Z" fill="#CE7A63"/>
<path d="M230.81 227.15L232.84 233.19L238.31 231.42L237.68 222.57L230.81 227.15Z" fill="#CE7A63"/>
<path d="M283.07 240.66H319.64C319.89 237.4 319.14 226.77 319.7 213.25C320.051 203.221 321.265 193.24 323.33 183.42L323.84 181.22C323.84 181.22 321.99 180.84 319.33 180.45C317.13 180.13 314.33 179.8 311.65 179.67C306.474 179.374 301.286 179.374 296.11 179.67C293.72 179.89 291.39 180.29 289.53 180.67C287.15 181.15 285.74 181.56 285.74 181.56C285.74 181.56 276.74 202.22 283.07 240.66Z" fill="#B00000"/>
<path opacity="0.3" d="M319.7 213.25C320.051 203.224 321.265 193.247 323.33 183.43C320.89 183.21 316.71 183.43 316.02 187.43C315.27 191.64 316.21 201.62 319.7 213.25Z" fill="black"/>
<path d="M311.32 164L307.16 167.45L301.5 172.15C301.662 172.906 301.782 173.671 301.86 174.44C302.16 177.51 301.37 178.57 296.86 179.64C296.86 179.64 291.5 183.19 299.45 183.84C299.48 184.703 299.614 185.559 299.85 186.39C300.549 185.42 301.416 184.584 302.41 183.92C311.11 183.77 312.26 179.74 312.26 179.74C308.86 176.37 310.17 169 311.32 164Z" fill="#CE7A63"/>
<path opacity="0.2" d="M301.5 172.12C301.662 172.876 301.782 173.641 301.86 174.41C303.97 173.99 306.79 171.74 307.09 169.58C307.19 168.864 307.213 168.14 307.16 167.42L301.5 172.12Z" fill="black"/>
<path d="M286.32 409.2L278.63 410.01L278.24 405.55L277.19 393.42L284.88 392.6L286.05 406.01L286.32 409.2Z" fill="#9F5B53"/>
<path d="M324.71 408.229H317.26L317.19 406.539L317.18 406.329L316.8 395.519L316.79 395.299L316.64 391.149H324.11L324.71 408.229Z" fill="#9F5B53"/>
<path opacity="0.2" d="M284.88 392.6L286.05 406.01L278.24 405.55L277.19 393.42L284.88 392.6Z" fill="black"/>
<path opacity="0.2" d="M324.67 407.279H324.66L317.19 406.329H317.18L316.79 395.899H316.8L324.28 396.489L324.66 406.949L324.67 407.279Z" fill="black"/>
<path d="M316.23 407.78H325.23C325.379 407.778 325.524 407.828 325.64 407.921C325.757 408.014 325.838 408.144 325.87 408.29L327.34 414.93C327.399 415.215 327.343 415.511 327.184 415.755C327.024 415.999 326.775 416.169 326.49 416.23H326.25C323.32 416.18 321.18 416 317.5 416C315.24 416 308.4 416.23 305.27 416.23C302.14 416.23 301.73 413.14 303.01 412.86C308.76 411.61 313.08 409.86 314.92 408.22C315.281 407.905 315.752 407.747 316.23 407.78V407.78Z" fill="#263238"/>
<path d="M277.81 407.539H286.87C287.019 407.538 287.164 407.588 287.28 407.681C287.397 407.774 287.478 407.904 287.51 408.049L288.98 414.689C289.039 414.974 288.983 415.271 288.824 415.515C288.664 415.759 288.415 415.929 288.13 415.989H287.89C284.96 415.989 282.82 415.759 279.14 415.759C276.87 415.759 270.04 415.999 266.91 415.999C263.78 415.999 263.37 412.909 264.65 412.619C270.4 411.369 274.72 409.619 276.56 407.979C276.906 407.679 277.353 407.522 277.81 407.539V407.539Z" fill="#263238"/>
<path d="M325.66 405.38H314.87C314.87 405.38 306.17 358.85 302.73 335.14C302.2 331.46 301.62 326.63 301.04 321.01C300.13 311.91 299.19 301.01 298.35 290.51C295.77 297.45 293.8 307.36 292.28 318.61C286.87 358.91 287.42 404.43 287.42 404.43H276.48C268.04 339.94 279.31 260.58 283.07 240.66H319.63C319.69 245.4 321.7 312.66 323.11 337.99C324.38 361.29 325.66 405.38 325.66 405.38Z" fill="#263238"/>
<path d="M275.25 401.35L275.79 404.43H288.71V401.59L275.25 401.35Z" fill="#B00000"/>
<path d="M313.62 402.529L314.86 405.379H325.7L326.41 402.529H313.62Z" fill="#B00000"/>
<path d="M311.53 164.6C311.53 164.6 313.75 165.7 314.42 164.43C315.09 163.16 314.42 161.2 315.51 160.83C316.6 160.46 318.96 160.41 318.81 159.08C318.66 157.75 317.16 156.68 318.19 155.82C319.22 154.96 321.33 153.74 320.39 152.7C319.45 151.66 318.58 149.95 319.39 149.33C320.2 148.71 319.14 145.16 317.04 145.4C314.94 145.64 315.29 143.92 315.34 142.4C315.39 140.88 312.26 139.61 311.52 141.12C310.78 142.63 309.17 140.71 308.73 139.37C308.29 138.03 307.39 137.57 305.5 138.51C303.61 139.45 303.33 142.62 302.36 140.79C301.39 138.96 299.24 137.79 298.19 138.79C297.14 139.79 297.77 141.11 296.12 141.04C294.47 140.97 292.18 143.96 292.99 144.42C293.8 144.88 293.68 145.7 292.57 146.6C291.46 147.5 290.17 148.96 291.62 149.6C293.07 150.24 292.98 151.3 292.55 151.73C292.12 152.16 293.42 154.25 295.37 154.13C297.32 154.01 311.53 164.6 311.53 164.6Z" fill="#263238"/>
<path d="M294.38 145.72C294.38 145.72 290.66 154.55 294.64 159.32C298.62 164.09 302.94 146.99 302.94 146.99L294.38 145.72Z" fill="#263238"/>
<path d="M307 170.19C305.598 171.444 303.823 172.203 301.947 172.349C300.072 172.496 298.2 172.021 296.62 171C294.546 169.724 293.039 167.702 292.41 165.35C292.32 165.03 292.25 164.7 292.19 164.35C291.19 158.13 292.92 148.12 299.79 145.94C301.303 145.453 302.916 145.361 304.475 145.672C306.034 145.984 307.487 146.688 308.697 147.719C309.907 148.75 310.834 150.073 311.389 151.562C311.945 153.052 312.11 154.658 311.87 156.23C310.89 163 310.66 167 307 170.19Z" fill="#CE7A63"/>
<path d="M301.37 157.33C301.37 157.88 301 158.33 300.63 158.28C300.26 158.23 300.02 157.78 300.06 157.22C300.1 156.66 300.43 156.22 300.79 156.28C301.15 156.34 301.41 156.77 301.37 157.33Z" fill="#263238"/>
<path d="M295.12 156.84C295.12 157.39 294.74 157.84 294.39 157.79C294.04 157.74 293.77 157.29 293.81 156.73C293.85 156.17 294.19 155.73 294.54 155.79C294.89 155.85 295.16 156.32 295.12 156.84Z" fill="#263238"/>
<path d="M297.08 157.27C296.295 158.909 295.285 160.43 294.08 161.79C294.439 162.091 294.86 162.31 295.312 162.431C295.765 162.552 296.239 162.572 296.7 162.49L297.08 157.27Z" fill="#BA4D3C"/>
<path d="M293 154.1C293.051 154.132 293.11 154.149 293.17 154.149C293.23 154.149 293.289 154.132 293.34 154.1C293.684 153.881 294.075 153.744 294.481 153.701C294.887 153.658 295.297 153.709 295.68 153.85C295.718 153.869 295.76 153.88 295.803 153.883C295.845 153.886 295.888 153.88 295.928 153.866C295.969 153.852 296.006 153.83 296.038 153.801C296.069 153.772 296.095 153.737 296.113 153.699C296.131 153.66 296.141 153.618 296.143 153.575C296.144 153.532 296.137 153.49 296.122 153.45C296.107 153.41 296.084 153.373 296.054 153.343C296.025 153.312 295.989 153.287 295.95 153.27V153.27C295.47 153.081 294.953 153.009 294.44 153.059C293.927 153.109 293.433 153.281 293 153.56C292.927 153.604 292.874 153.674 292.852 153.756C292.829 153.838 292.839 153.925 292.88 154C292.915 154.039 292.956 154.072 293 154.1V154.1Z" fill="#263238"/>
<path d="M302.79 154.94C302.852 154.96 302.918 154.96 302.98 154.94C303.04 154.878 303.073 154.796 303.073 154.71C303.073 154.624 303.04 154.542 302.98 154.48V154.48C302.626 154.103 302.188 153.815 301.701 153.641C301.214 153.467 300.693 153.412 300.18 153.48C300.095 153.499 300.022 153.551 299.975 153.624C299.928 153.697 299.912 153.785 299.93 153.87C299.949 153.952 299.999 154.024 300.07 154.071C300.141 154.117 300.227 154.135 300.31 154.12V154.12C300.717 154.075 301.128 154.126 301.512 154.269C301.896 154.411 302.241 154.641 302.52 154.94C302.562 154.96 302.608 154.97 302.655 154.97C302.702 154.97 302.748 154.96 302.79 154.94Z" fill="#263238"/>
<path d="M307.5 147.39L306.75 148.59C308.89 149.59 308.12 152.14 307.52 153.25C306.24 155.63 307.17 159.7 308.9 161.49C308.9 161.49 309.09 160.41 309.98 160.78C310.87 161.15 309.98 165.78 309.98 165.78C309.98 165.78 310.75 167.11 313.03 161.37C315.13 156.06 315.89 151.52 315.03 149.25L307.5 147.39Z" fill="#263238"/>
<path d="M314.34 162C313.914 162.737 313.345 163.382 312.667 163.897C311.989 164.412 311.215 164.787 310.39 165C308.18 165.56 307.14 163.57 307.8 161.52C308.4 159.7 310.27 157.16 312.46 157.52C312.936 157.604 313.383 157.806 313.761 158.108C314.138 158.41 314.434 158.802 314.621 159.247C314.808 159.693 314.881 160.179 314.831 160.659C314.782 161.14 314.613 161.601 314.34 162V162Z" fill="#CE7A63"/>
<path d="M297 163.85C297.526 164.685 297.991 165.557 298.39 166.46L298.89 166.32C301.16 165.7 302.01 164.66 302.26 163.7C302.377 163.227 302.377 162.733 302.26 162.26C302.198 161.991 302.1 161.733 301.97 161.49C300.741 162.498 299.308 163.228 297.77 163.63C297.29 163.78 297 163.85 297 163.85Z" fill="#263238"/>
<path d="M297.76 163.63L298.19 164.39C300.33 163.8 301.75 163.09 302.25 162.26C302.188 161.991 302.09 161.733 301.96 161.49C300.731 162.498 299.298 163.228 297.76 163.63V163.63Z" fill="white"/>
<path d="M298.88 166.32C301.15 165.7 302 164.66 302.25 163.7C301.393 163.953 300.587 164.356 299.87 164.89C299.397 165.25 299.051 165.75 298.88 166.32V166.32Z" fill="#DE5753"/>
<path d="M302.58 143.36C302.58 143.36 298.91 143.36 297.04 144.89C295.17 146.42 293.91 148.79 294.58 149.01C295.25 149.23 297.17 148.13 297.67 148.37C298.17 148.61 298.17 151.52 300.02 150.53C301.87 149.54 300.83 149.53 302.33 149.17C303.83 148.81 304.68 150.67 305.33 150.54C305.802 150.418 306.247 150.208 306.64 149.92C306.64 149.92 304.64 149.26 304.53 148.62C304.42 147.98 302.53 147.62 302.53 147.62C302.53 147.62 304.92 146.81 305.66 147.48C306.4 148.15 305.97 149.63 307.92 149.59C309.87 149.55 312.92 151.26 313.2 148.78C313.48 146.3 307 141.72 302.58 143.36Z" fill="#263238"/>
<path d="M312.25 176.32L302.94 180.32L299.84 186.36L302.94 184.32L306.75 187.98L314.81 179.9L312.25 176.32Z" fill="#B00000"/>
<path d="M299.84 186.36L298.84 181.01C298.84 181.01 298.93 179.44 301.04 177.91L297.72 176.32C297.72 176.32 292.58 182.5 292.27 186.32L296.77 183.32L299.84 186.36Z" fill="#B00000"/>
<path opacity="0.2" d="M312.25 176.32L302.94 180.32L299.84 186.36L302.94 184.32L306.75 187.98L314.81 179.9L312.25 176.32Z" fill="white"/>
<path opacity="0.2" d="M299.84 186.36L298.84 181.01C298.84 181.01 298.93 179.44 301.04 177.91L297.72 176.32C297.72 176.32 292.58 182.5 292.27 186.32L296.77 183.32L299.84 186.36Z" fill="white"/>
<path d="M272.93 408.11C272.862 407.97 272.834 407.814 272.848 407.659C272.862 407.504 272.918 407.356 273.01 407.23C273.055 407.138 273.124 407.059 273.211 407.002C273.297 406.946 273.397 406.914 273.5 406.91C274.39 406.86 275.83 408.71 275.99 408.91C276.007 408.937 276.016 408.968 276.016 409C276.016 409.032 276.007 409.063 275.99 409.09C275.973 409.115 275.951 409.135 275.925 409.149C275.899 409.163 275.87 409.17 275.84 409.17C275.227 409.125 274.62 409.015 274.03 408.84C273.585 408.742 273.193 408.482 272.93 408.11ZM273.52 407.23C273.469 407.23 273.418 407.245 273.376 407.274C273.333 407.302 273.3 407.343 273.28 407.39C273.22 407.471 273.182 407.566 273.169 407.666C273.157 407.766 273.171 407.867 273.21 407.96C273.42 408.36 274.26 408.68 275.5 408.82C274.9 408.1 274 407.2 273.52 407.23Z" fill="#B00000"/>
<path d="M275.74 409.13C275.22 408.53 274.69 406.86 275.07 406.2C275.136 406.079 275.242 405.985 275.369 405.934C275.497 405.883 275.639 405.878 275.77 405.92C275.891 405.94 276.006 405.989 276.105 406.062C276.204 406.135 276.285 406.23 276.34 406.34C276.79 407.18 276.04 409 276.01 409.08C275.999 409.105 275.983 409.127 275.962 409.145C275.941 409.162 275.917 409.174 275.89 409.18H275.81L275.74 409.13ZM275.74 406.23C275.51 406.18 275.42 406.23 275.38 406.36C275.233 407.168 275.401 408.002 275.85 408.69C276.165 408.002 276.249 407.23 276.09 406.49C276.062 406.433 276.023 406.383 275.975 406.342C275.926 406.3 275.87 406.269 275.81 406.25L275.74 406.23Z" fill="#B00000"/>
<path d="M311.34 408.11C311.273 407.97 311.244 407.814 311.258 407.659C311.273 407.504 311.328 407.356 311.42 407.23C311.465 407.138 311.535 407.059 311.621 407.002C311.707 406.946 311.807 406.914 311.91 406.91C312.81 406.86 314.24 408.71 314.4 408.91C314.417 408.937 314.426 408.968 314.426 409C314.426 409.032 314.417 409.063 314.4 409.09C314.384 409.115 314.361 409.135 314.335 409.149C314.309 409.163 314.28 409.17 314.25 409.17C313.637 409.124 313.03 409.014 312.44 408.84C311.996 408.74 311.605 408.48 311.34 408.11ZM311.93 407.23C311.879 407.23 311.829 407.245 311.786 407.274C311.743 407.302 311.71 407.343 311.69 407.39C311.63 407.471 311.592 407.566 311.58 407.666C311.567 407.766 311.581 407.867 311.62 407.96C311.83 408.36 312.67 408.68 313.91 408.82C313.31 408.1 312.41 407.2 311.93 407.23V407.23Z" fill="#B00000"/>
<path d="M314.15 409.13C313.63 408.53 313.15 406.86 313.48 406.2C313.546 406.079 313.652 405.985 313.78 405.934C313.907 405.883 314.049 405.878 314.18 405.92C314.301 405.94 314.416 405.989 314.516 406.062C314.615 406.135 314.695 406.23 314.75 406.34C315.2 407.18 314.45 409 314.42 409.08C314.41 409.105 314.393 409.127 314.372 409.145C314.351 409.162 314.327 409.174 314.3 409.18H314.22L314.15 409.13ZM314.15 406.23C313.92 406.18 313.83 406.23 313.79 406.36C313.643 407.168 313.811 408.002 314.26 408.69C314.575 408.002 314.659 407.23 314.5 406.49C314.473 406.433 314.434 406.382 314.386 406.34C314.338 406.299 314.281 406.268 314.22 406.25L314.15 406.23Z" fill="#B00000"/>
<path opacity="0.3" d="M298.35 290.51C295.77 297.45 293.8 307.36 292.28 318.61C288.61 303.61 297.4 275.74 297.4 275.74L298.35 290.51Z" fill="black"/>
<path d="M349.05 237.39C352.13 238.52 353.05 243.66 351.15 248.88C349.25 254.1 345.15 257.39 342.15 256.26C339.15 255.13 338.15 249.98 340.05 244.77C341.95 239.56 346 236.25 349.05 237.39Z" fill="#263238"/>
<path d="M340.33 229.55C340.039 228.855 339.491 228.3 338.8 228C335.8 226.89 330.96 232.42 328.04 240.35C325.12 248.28 325.21 255.61 328.23 256.72C328.942 256.945 329.713 256.884 330.38 256.55C330.623 256.815 330.924 257.02 331.26 257.15C331.61 257.26 331.978 257.299 332.344 257.267C332.709 257.234 333.065 257.13 333.39 256.96C333.638 257.233 333.946 257.445 334.29 257.58C334.641 257.684 335.009 257.718 335.373 257.679C335.737 257.639 336.09 257.527 336.41 257.35C336.649 257.641 336.959 257.865 337.31 258C337.663 258.109 338.035 258.143 338.401 258.1C338.768 258.057 339.122 257.937 339.44 257.75C339.673 258.053 339.984 258.288 340.34 258.43C342.85 259.36 346.86 254.76 349.34 248.17C351.82 241.58 351.69 235.48 349.18 234.55C348.817 234.421 348.425 234.4 348.05 234.49C347.929 234.142 347.738 233.823 347.489 233.553C347.239 233.283 346.937 233.067 346.6 232.92C346.244 232.794 345.862 232.763 345.49 232.83C345.357 232.488 345.156 232.176 344.9 231.914C344.644 231.651 344.338 231.442 344 231.3C343.652 231.172 343.277 231.134 342.91 231.19C342.774 230.849 342.573 230.539 342.317 230.276C342.062 230.014 341.757 229.804 341.42 229.66C341.07 229.538 340.697 229.5 340.33 229.55V229.55Z" fill="#263238"/>
<path opacity="0.2" d="M340.33 229.55C340.039 228.855 339.491 228.3 338.8 228C335.8 226.89 330.96 232.42 328.04 240.35C325.12 248.28 325.21 255.61 328.23 256.72C328.942 256.945 329.713 256.884 330.38 256.55C330.623 256.815 330.924 257.02 331.26 257.15C331.61 257.26 331.978 257.299 332.344 257.267C332.709 257.234 333.065 257.13 333.39 256.96C333.638 257.233 333.946 257.445 334.29 257.58C334.641 257.684 335.009 257.718 335.373 257.679C335.737 257.639 336.09 257.527 336.41 257.35C336.649 257.641 336.959 257.865 337.31 258C337.663 258.109 338.035 258.143 338.401 258.1C338.768 258.057 339.122 257.937 339.44 257.75C339.673 258.053 339.984 258.288 340.34 258.43C342.85 259.36 346.86 254.76 349.34 248.17C351.82 241.58 351.69 235.48 349.18 234.55C348.817 234.421 348.425 234.4 348.05 234.49C347.929 234.142 347.738 233.823 347.489 233.553C347.239 233.283 346.937 233.067 346.6 232.92C346.244 232.794 345.862 232.763 345.49 232.83C345.357 232.488 345.156 232.176 344.9 231.914C344.644 231.651 344.338 231.442 344 231.3C343.652 231.172 343.277 231.134 342.91 231.19C342.774 230.849 342.573 230.539 342.317 230.276C342.062 230.014 341.757 229.804 341.42 229.66C341.07 229.538 340.697 229.5 340.33 229.55V229.55Z" fill="white"/>
<path d="M317.88 207.77C313.595 206.191 308.981 205.721 304.466 206.404C299.951 207.087 295.682 208.9 292.056 211.676C288.43 214.452 285.564 218.099 283.726 222.28C281.888 226.46 281.137 231.037 281.543 235.585C281.949 240.134 283.498 244.506 286.047 248.295C288.596 252.084 292.062 255.166 296.122 257.256C300.182 259.346 304.705 260.376 309.269 260.249C313.834 260.122 318.293 258.842 322.23 256.53C322.856 256.154 323.564 255.937 324.293 255.899C325.022 255.861 325.749 256.002 326.41 256.31C326.474 256.346 326.541 256.376 326.61 256.4C329.68 257.53 334.61 251.92 337.54 243.86C340.47 235.8 340.42 228.36 337.35 227.23L337.14 227.17C336.431 226.971 335.782 226.602 335.249 226.095C334.715 225.588 334.314 224.958 334.08 224.26C332.769 220.483 330.636 217.045 327.834 214.193C325.033 211.342 321.633 209.148 317.88 207.77V207.77Z" fill="#B00000"/>
<path opacity="0.7" d="M317.88 207.77C313.595 206.191 308.981 205.721 304.466 206.404C299.951 207.087 295.682 208.9 292.056 211.676C288.43 214.452 285.564 218.099 283.726 222.28C281.888 226.46 281.137 231.037 281.543 235.585C281.949 240.134 283.498 244.506 286.047 248.295C288.596 252.084 292.062 255.166 296.122 257.256C300.182 259.346 304.705 260.376 309.269 260.249C313.834 260.122 318.293 258.842 322.23 256.53C322.856 256.154 323.564 255.937 324.293 255.899C325.022 255.861 325.749 256.002 326.41 256.31C326.474 256.346 326.541 256.376 326.61 256.4C329.68 257.53 334.61 251.92 337.54 243.86C340.47 235.8 340.42 228.36 337.35 227.23L337.14 227.17C336.431 226.971 335.782 226.602 335.249 226.095C334.715 225.588 334.314 224.958 334.08 224.26C332.769 220.483 330.636 217.045 327.834 214.193C325.033 211.342 321.633 209.148 317.88 207.77V207.77Z" fill="white"/>
<path d="M312.2 249.2C312.159 249.2 312.119 249.192 312.081 249.177C312.043 249.161 312.009 249.138 311.98 249.11C311.93 249.068 311.895 249.012 311.879 248.949C311.863 248.886 311.867 248.82 311.89 248.76L313.58 244.18L310.7 241.47C310.656 241.428 310.625 241.375 310.609 241.317C310.593 241.259 310.594 241.198 310.61 241.14C310.63 241.08 310.665 241.027 310.713 240.987C310.76 240.946 310.818 240.919 310.88 240.91L317.26 239.98L313 235.14C312.961 235.093 312.936 235.037 312.927 234.977C312.919 234.917 312.926 234.855 312.95 234.8C312.972 234.745 313.009 234.697 313.057 234.661C313.104 234.626 313.161 234.605 313.22 234.6L320.3 233.93L315.3 228.83C315.256 228.786 315.226 228.731 315.213 228.67C315.201 228.61 315.207 228.547 315.23 228.49C315.254 228.431 315.294 228.38 315.345 228.343C315.396 228.306 315.457 228.284 315.52 228.28L319.46 228.09L321.15 223.51C321.172 223.441 321.217 223.382 321.277 223.342C321.337 223.302 321.408 223.284 321.48 223.29C321.551 223.297 321.618 223.328 321.67 223.376C321.722 223.425 321.758 223.489 321.77 223.56C323.12 231.13 334.7 237.45 334.82 237.51C334.896 237.551 334.952 237.62 334.976 237.703C335.001 237.785 334.991 237.874 334.95 237.95C334.909 238.025 334.84 238.081 334.757 238.106C334.675 238.13 334.586 238.121 334.51 238.08C334.05 237.83 323.56 232.08 321.38 224.74L320 228.51C319.979 228.571 319.94 228.624 319.888 228.663C319.837 228.702 319.775 228.725 319.71 228.73L316.27 228.9L321.2 233.97C321.242 234.012 321.272 234.066 321.284 234.124C321.296 234.183 321.292 234.244 321.27 234.3C321.249 234.357 321.213 234.408 321.165 234.447C321.118 234.486 321.061 234.511 321 234.52L313.87 235.18L318.1 240C318.141 240.043 318.168 240.097 318.179 240.156C318.189 240.214 318.183 240.275 318.16 240.33C318.14 240.383 318.107 240.431 318.063 240.468C318.019 240.505 317.966 240.529 317.91 240.54L311.6 241.46L314.14 243.85C314.186 243.894 314.218 243.951 314.232 244.013C314.246 244.075 314.242 244.14 314.22 244.2L312.73 248.26C315.16 247.26 323.37 244.26 331.23 247.14C331.309 247.173 331.372 247.235 331.407 247.312C331.442 247.39 331.447 247.479 331.42 247.56C331.406 247.6 331.383 247.637 331.354 247.669C331.325 247.701 331.29 247.726 331.251 247.744C331.211 247.762 331.169 247.771 331.126 247.772C331.083 247.773 331.04 247.766 331 247.75C322 244.42 312.4 249.11 312.3 249.16C312.269 249.178 312.235 249.191 312.2 249.2V249.2Z" fill="#263238"/>
<path d="M324.7 184.22C325.86 185.09 326.79 185.84 327.78 186.7C328.77 187.56 329.71 188.39 330.64 189.26C332.52 191.025 334.299 192.895 335.97 194.86C337.695 196.872 339.266 199.011 340.67 201.26C342.176 203.63 343.379 206.18 344.25 208.85C344.45 209.56 344.67 210.26 344.82 211.01C345.017 211.857 345.135 212.721 345.17 213.59C345.215 215.099 345.091 216.608 344.8 218.09C344.313 220.662 343.617 223.19 342.72 225.65C341.038 230.342 338.957 234.882 336.5 239.22L331.77 237.22C332.95 232.67 334.14 228.01 335.04 223.51C335.491 221.361 335.812 219.187 336 217C336.072 216.1 336.055 215.196 335.95 214.3C335.904 213.958 335.82 213.623 335.7 213.3C335.572 212.859 335.422 212.425 335.25 212C333.52 208.184 331.153 204.691 328.25 201.67C326.77 200.02 325.16 198.45 323.52 196.9C322.7 196.12 321.86 195.37 321.01 194.63C320.16 193.89 319.25 193.13 318.5 192.53L324.7 184.22Z" fill="#CE7A63"/>
<path d="M316.19 195.4C319.063 199.538 322.175 203.505 325.51 207.28C326.24 208.13 326.91 208.89 327.45 209.5C328.45 210.57 329 211.21 329 211.21L340.4 200.21C340.4 200.21 340.08 199.69 339.52 198.83C339.1 198.18 338.52 197.32 337.89 196.35C334 190.6 326.38 180.49 321.74 181C314.81 181.84 311.34 188.12 316.19 195.4Z" fill="#B00000"/>
<path d="M336.56 239L333.07 245.73L328.52 237.44C328.52 237.44 332.68 232.05 335.29 234.44L336.56 239Z" fill="#CE7A63"/>
<path d="M326.24 247.51L322.81 240.49L328.52 237.44L333.07 245.72L326.24 247.51Z" fill="#CE7A63"/>
<path d="M206.76 281.26L251.49 287.91L251.85 324.11L240.7 334.57L192.44 325.63L194.6 287.03L206.76 281.26Z" fill="#4DADF7"/>
<path opacity="0.4" d="M251.85 324.11L247.51 328.19L246.54 329.09L240.7 334.57L192.43 325.63L194.6 287.03L199.79 284.57L201.39 283.81L206.76 281.26L251.49 287.91L251.85 324.11Z" fill="black"/>
<path opacity="0.2" d="M194.6 287.03L238.69 294.14L251.49 287.91L206.76 281.26L194.6 287.03Z" fill="white"/>
<path opacity="0.1" d="M238.69 294.14L240.7 334.57L251.85 324.11L251.49 287.91L238.69 294.14Z" fill="white"/>
<path d="M247.51 328.19L246.54 329.09L244.81 291.26L199.79 284.57L201.39 283.81L245.8 290.76L247.51 328.19Z" fill="#263238"/>
<path d="M215.12 286.11L217.91 284.83L229.23 286.36L226.66 287.91L215.12 286.11Z" fill="#263238"/>
<path d="M210.74 285.57C210.74 285.57 213.88 274.2 214.44 273.57C215 272.94 230.81 275.35 232 275.5C233.19 275.65 234.62 288.16 234.62 288.16L233.34 289.16L230.34 288.62C230.34 288.62 229.8 278.03 229.5 277.69C229.2 277.35 216.99 275.56 216.59 275.69C216.19 275.82 214.66 284.79 214.66 284.79L213.23 285.88L210.74 285.57Z" fill="#263238"/>
<path d="M250.59 318.21L246.18 321.29V320.38L245.85 313.23V312.37L245.78 310.84C245.78 310.84 246.36 312.16 247.22 313.72C248.031 315.427 249.177 316.954 250.59 318.21V318.21Z" fill="#4DADF7"/>
<path opacity="0.2" d="M249.47 318.18L246.14 320.38L245.81 313.23V312.37C246.44 314.09 247.74 316.93 249.47 318.18Z" fill="white"/>
<path opacity="0.2" d="M247.14 313.72C246.69 313.53 246.23 313.37 245.81 313.23L245.7 310.84C245.7 310.84 246.28 312.16 247.14 313.72Z" fill="black"/>
<path d="M254.35 310.59L253.07 316.53C251.046 314.681 248.52 313.473 245.81 313.06V312.17L245.56 306.63V306.05C245.56 306.05 250.89 307.13 254.35 310.59Z" fill="#4DADF7"/>
<path d="M251.49 298.89C249.676 300.696 247.574 302.186 245.27 303.3V302.63L245.21 300.87L245.11 297.94L245.06 296.52V296.11C246.197 295.202 247.255 294.199 248.22 293.11L251.49 298.89Z" fill="#4DADF7"/>
<path d="M244.16 288.34C243.292 289.058 242.528 289.892 241.89 290.82L241.18 290.72L240.18 290.57L238.63 290.35L237.14 290.13L236.61 290.05C237.355 287.853 238.868 286 240.87 284.83L244.16 288.34Z" fill="#4DADF7"/>
<path opacity="0.2" d="M240.7 285.57C238.88 286.57 237.7 288.94 237.17 290.13L238.66 290.35C238.547 290.181 238.487 289.983 238.49 289.78C238.49 289.501 238.601 289.234 238.797 289.037C238.994 288.84 239.261 288.73 239.54 288.73C239.818 288.73 240.085 288.84 240.282 289.037C240.479 289.234 240.59 289.501 240.59 289.78C240.591 289.932 240.557 290.082 240.491 290.219C240.425 290.356 240.329 290.476 240.21 290.57L241.21 290.72C241.787 289.813 242.458 288.968 243.21 288.2L240.7 285.57Z" fill="white"/>
<path opacity="0.2" d="M245.52 306.63L245.77 312.17C249.14 312.75 252.77 315.47 252.77 315.47L253.92 310.69C251.522 308.626 248.626 307.226 245.52 306.63V306.63ZM250.01 310.54C249.958 310.905 249.794 311.244 249.54 311.511C249.286 311.778 248.955 311.959 248.594 312.029C248.232 312.099 247.857 312.054 247.522 311.901C247.187 311.748 246.908 311.495 246.724 311.176C246.54 310.856 246.46 310.488 246.496 310.121C246.531 309.754 246.68 309.408 246.922 309.13C247.163 308.852 247.486 308.656 247.844 308.57C248.202 308.484 248.578 308.512 248.92 308.65C249.311 308.762 249.642 309.022 249.844 309.375C250.046 309.728 250.102 310.146 250 310.54H250.01Z" fill="white"/>
<path opacity="0.2" d="M248 294.14C247.159 295.082 246.173 295.886 245.08 296.52L245.13 297.94H245.2C245.56 297.982 245.892 298.155 246.134 298.426C246.375 298.697 246.508 299.047 246.508 299.41C246.508 299.772 246.375 300.123 246.134 300.394C245.892 300.665 245.56 300.838 245.2 300.88L245.26 302.64C247.179 301.604 248.971 300.349 250.6 298.9L248 294.14Z" fill="white"/>
<path d="M208.69 202.25C214.43 206.05 214.96 231.37 215.48 238.49C216 245.61 220.48 265.39 220.48 265.39L215.73 267.11C215.73 267.11 210.49 248.21 208.67 237.44C208 233.28 208.69 202.25 208.69 202.25Z" fill="#263238"/>
<path opacity="0.2" d="M220.49 265.4L215.75 267.11C215.75 267.11 210.51 248.22 208.69 237.44C208.628 237.032 208.588 236.622 208.57 236.21C208.36 233.21 208.35 226.53 208.41 219.9C208.49 211.05 208.69 202.25 208.69 202.25C212.03 204.46 213.61 213.96 214.44 222.91C214.75 226.25 214.96 229.52 215.12 232.3C215.27 234.89 215.38 237.06 215.48 238.49C216 245.62 220.49 265.4 220.49 265.4Z" fill="white"/>
<path opacity="0.2" d="M215.12 232.3C213.058 233.797 210.866 235.106 208.57 236.21C208.36 233.21 208.35 226.53 208.41 219.9L209.97 223.46L214.44 222.91C214.75 226.25 215 229.52 215.12 232.3Z" fill="black"/>
<path d="M223.76 225.63L230.66 221.83L231.97 229.28C231.97 229.28 224.97 231.81 223.72 229.81L223.76 225.63Z" fill="#FFB573"/>
<path d="M237.3 224.2L236.86 229.62L231.97 229.28L230.66 221.83L237.3 224.2Z" fill="#FFB573"/>
<path d="M177 165.9C177 165.9 179.13 158.85 190.26 159.83C201.39 160.81 204.26 170.83 201.26 178.77C199.443 183.403 199.54 188.568 201.53 193.13C200.914 192.849 200.369 192.434 199.935 191.915C199.5 191.395 199.188 190.786 199.02 190.13C198.857 191.499 199.086 192.886 199.68 194.13C199.68 194.13 185.06 197.03 177.68 194.86C178.819 193.198 179.32 191.181 179.09 189.18C179.09 189.18 178.72 192.45 177.4 193.55C177.4 193.55 178.79 189.71 178.06 187.01C177.33 184.31 172.92 184.01 172.13 176.86C171.34 169.71 174 165.17 177 165.9Z" fill="#263238"/>
<path d="M207.64 247.39C207.64 247.39 212.85 287.89 212.4 313.61C214.2 337.72 215.71 388.35 218.46 393.82C218.36 395.05 214.84 395.6 213.68 394.82C213.68 394.82 194.87 352.73 197.3 313.57C180.73 272.72 181.72 247.35 181.72 247.35L207.64 247.39Z" fill="#FFB573"/>
<path d="M200.59 247.39C200.59 247.39 188.75 293.1 184.06 315.55C179.13 339.12 174.06 367.55 174.01 394.4C172.69 395.18 172.24 396.56 169.57 395.74C169.57 395.74 157.02 341.82 167.65 316.59C162.98 260.75 177.75 247.39 177.75 247.39H200.59Z" fill="#FFB573"/>
<path d="M165.62 307.61C166.406 308.477 167.336 309.201 168.37 309.75C168.51 304.57 170 302.16 170 302.16C169.747 305.111 170.018 308.083 170.8 310.94C178.7 314.28 193.93 316.49 212.97 311.82C212.97 289.48 208.55 251.88 208.25 248.21C208.25 248.21 185.66 248.81 176.49 248.81C166.45 260.78 163.76 299.19 165.62 307.61Z" fill="#263238"/>
<path d="M169.57 395.74C169.57 395.74 166.76 396.5 166.45 400.66C166.14 404.82 167.32 416.26 167.32 416.26H168.37C168.37 416.26 168.07 405.89 168.48 404.02C168.81 409.44 172.69 416.26 177.82 416.26C179.65 416.26 175.68 407.98 175.03 402.94C174.38 397.9 174.19 396.14 174.19 396.14L169.57 395.74Z" fill="#263238"/>
<path d="M174.08 392.47L169.57 395.74C169.81 401.35 171.8 408.53 174.43 410.86C174.603 410.989 174.811 411.062 175.026 411.071C175.242 411.079 175.455 411.023 175.638 410.908C175.82 410.793 175.964 410.626 176.05 410.429C176.136 410.231 176.161 410.012 176.12 409.8C174.847 404.108 174.164 398.301 174.08 392.47V392.47Z" fill="#FFB573"/>
<path d="M214.57 395.74C214.57 395.74 211.76 396.5 211.46 400.66C211.16 404.82 212.33 416.26 212.33 416.26H213.33C213.33 416.26 213.02 405.89 213.44 404.02C213.76 409.44 217.64 416.26 222.78 416.26C224.6 416.26 220.63 407.98 219.99 402.94C219.727 400.517 219.313 398.112 218.75 395.74H214.57Z" fill="#263238"/>
<path d="M217.88 392C217.39 390.69 213.44 394.53 213.44 394.53C213.68 400.15 216.8 408.53 219.44 410.9C219.613 411.029 219.821 411.102 220.036 411.111C220.252 411.12 220.465 411.063 220.648 410.948C220.83 410.834 220.974 410.667 221.06 410.469C221.146 410.271 221.171 410.052 221.13 409.84C219.1 401.53 219.31 395.74 217.88 392Z" fill="#FFB573"/>
<path opacity="0.2" d="M165.62 307.61C166.406 308.477 167.336 309.201 168.37 309.75C168.51 304.57 170 302.16 170 302.16C169.747 305.111 170.018 308.083 170.8 310.94C178.7 314.28 193.93 316.49 212.97 311.82C212.97 289.48 208.55 251.88 208.25 248.21C208.25 248.21 185.66 248.81 176.49 248.81C166.45 260.78 163.76 299.19 165.62 307.61Z" fill="white"/>
<path d="M175.59 222.8H210.26C210.525 218.639 210.578 214.467 210.42 210.3C210.25 205.18 205.94 200.71 200.49 200C198.98 199.8 197.4 199.62 195.87 199.49C191.208 199.177 186.531 199.177 181.87 199.49C180.54 199.55 179.24 199.65 178.02 199.76C173.43 200.2 170.27 204.4 171.85 208.58C173.598 213.174 174.852 217.941 175.59 222.8V222.8Z" fill="#4DADF7"/>
<path opacity="0.7" d="M175.59 222.8H210.26C210.525 218.639 210.578 214.467 210.42 210.3C210.25 205.18 205.94 200.71 200.49 200C198.98 199.8 197.4 199.62 195.87 199.49C191.208 199.177 186.531 199.177 181.87 199.49C180.54 199.55 179.24 199.65 178.02 199.76C173.43 200.2 170.27 204.4 171.85 208.58C173.598 213.174 174.852 217.941 175.59 222.8V222.8Z" fill="white"/>
<path d="M181.71 198.93L196.52 217C196.52 217 199.4 207.69 197.88 199.69C197.88 199.69 204.4 199.62 208.69 202.25C208.69 202.25 214.95 212.52 208.69 241.53L210.51 255.37L200 258.54L196.55 248.49L192.38 259.06L172.19 253.38L177.86 242.71C177.86 242.71 176.02 218.19 170.48 206.98C170.52 207 171.4 198.82 181.71 198.93Z" fill="#263238"/>
<path d="M204.8 213.75L197.37 218.75L198.68 223.46C193.47 215.29 183.41 213.75 183.41 213.75L186.56 209.48H178.77C178.6 204.05 182.46 198.34 182.46 198.34L183.83 198.1C184.7 199.91 189.03 207.02 196.42 215.95C196.42 215.95 199.42 203.88 194.92 198.82C197.221 199.574 199.343 200.793 201.156 202.399C202.969 204.005 204.433 205.966 205.46 208.16L200.73 209.62L204.8 213.75Z" fill="#263238"/>
<path opacity="0.2" d="M204.8 213.75L197.37 218.75L198.68 223.46C193.47 215.29 183.41 213.75 183.41 213.75L186.56 209.48H178.77C178.6 204.05 182.46 198.34 182.46 198.34L183.83 198.1C184.7 199.91 189.03 207.02 196.42 215.95C196.42 215.95 199.42 203.88 194.92 198.82C197.221 199.574 199.343 200.793 201.156 202.399C202.969 204.005 204.433 205.966 205.46 208.16L200.73 209.62L204.8 213.75Z" fill="white"/>
<path d="M182.82 183.7C184.04 188.22 185.54 196.49 182.6 199.5C182.6 199.5 180.5 203.5 192.42 203.11C193.42 205.59 195.47 210.11 195.47 210.11C195.47 210.11 195.62 204.76 194.79 202.95C202.46 202.29 196.64 199.47 196.64 199.47C191.52 198.27 191.37 194.53 191.98 191.03L182.82 183.7Z" fill="#FFB573"/>
<path opacity="0.2" d="M186.55 186.7L191.98 191.05C191.823 191.871 191.739 192.704 191.73 193.54C189.79 193.27 186.99 191.15 186.63 189.14C186.459 188.338 186.431 187.511 186.55 186.7V186.7Z" fill="black"/>
<path d="M179 174.63C180.37 181.93 180.8 185.03 185 188.53C191.26 193.79 199.86 191.01 200.68 183.53C201.42 176.84 199.05 166.04 191.54 163.63C189.937 163.046 188.208 162.903 186.531 163.217C184.855 163.532 183.294 164.291 182.012 165.415C180.73 166.54 179.773 167.989 179.244 169.61C178.714 171.231 178.63 172.965 179 174.63Z" fill="#FFB573"/>
<path d="M185.23 169.37C181.23 174.56 189.47 180.53 181.23 180.18C172.99 179.83 176.32 168.18 181.23 165.51C186.14 162.84 185.23 169.37 185.23 169.37Z" fill="#263238"/>
<path d="M181.23 165.6C182.23 170.6 183.07 171.87 187.49 170.52C186.83 169.519 186.537 168.321 186.66 167.13C187.106 168.326 187.994 169.306 189.14 169.87C190.324 169.357 191.562 168.978 192.83 168.74C192.593 168.049 192.517 167.314 192.61 166.59C192.966 167.401 193.545 168.094 194.28 168.59C195.643 168.604 196.994 168.84 198.28 169.29C198.25 164.08 189.37 158.43 181.23 165.6Z" fill="#263238"/>
<path d="M190.51 175.85C190.6 176.47 190.99 176.94 191.39 176.91C191.79 176.88 192.03 176.36 191.94 175.74C191.85 175.12 191.46 174.65 191.07 174.68C190.68 174.71 190.42 175.23 190.51 175.85Z" fill="#263238"/>
<path d="M198 175.41C198.09 176.03 198.48 176.5 198.88 176.47C199.28 176.44 199.52 175.92 199.43 175.3C199.34 174.68 198.95 174.21 198.56 174.24C198.17 174.27 197.87 174.79 198 175.41Z" fill="#263238"/>
<path d="M198.35 174.29L199.74 173.75C199.74 173.75 199.16 175 198.35 174.29Z" fill="#263238"/>
<path d="M196 176.57C196.741 177.941 197.655 179.212 198.72 180.35C198.438 180.599 198.104 180.78 197.742 180.88C197.38 180.981 197 180.998 196.63 180.93L196 176.57Z" fill="#ED893E"/>
<path d="M193.51 183.46C193.842 183.489 194.177 183.489 194.51 183.46C194.556 183.452 194.597 183.427 194.625 183.39C194.653 183.353 194.665 183.306 194.66 183.26C194.65 183.211 194.624 183.168 194.586 183.137C194.547 183.106 194.499 183.089 194.45 183.09C193.677 183.152 192.901 183.039 192.179 182.758C191.457 182.478 190.807 182.037 190.28 181.47C190.244 181.437 190.198 181.418 190.15 181.418C190.101 181.418 190.055 181.437 190.02 181.47C190.002 181.486 189.989 181.505 189.979 181.527C189.97 181.548 189.965 181.571 189.965 181.595C189.965 181.618 189.97 181.642 189.979 181.663C189.989 181.685 190.002 181.704 190.02 181.72C190.928 182.711 192.171 183.331 193.51 183.46V183.46Z" fill="#263238"/>
<path d="M178.25 181.67C178.551 182.311 178.982 182.883 179.516 183.349C180.05 183.816 180.674 184.167 181.35 184.38C183.05 184.83 183.79 182.89 183.22 180.94C182.71 179.19 181.22 176.85 179.56 177.28C177.9 177.71 177.4 180 178.25 181.67Z" fill="#FFB573"/>
<path d="M188.43 172.53C188.479 172.532 188.527 172.523 188.572 172.504C188.617 172.485 188.657 172.456 188.69 172.42C188.977 172.085 189.344 171.828 189.756 171.671C190.168 171.513 190.613 171.462 191.05 171.52C191.095 171.528 191.142 171.528 191.187 171.517C191.232 171.507 191.275 171.488 191.312 171.461C191.35 171.434 191.381 171.399 191.405 171.36C191.429 171.32 191.444 171.276 191.45 171.23C191.458 171.133 191.431 171.037 191.374 170.958C191.317 170.879 191.234 170.823 191.14 170.8C190.587 170.721 190.023 170.781 189.499 170.975C188.976 171.169 188.508 171.49 188.14 171.91C188.074 171.98 188.037 172.073 188.037 172.17C188.037 172.266 188.074 172.359 188.14 172.43C188.178 172.467 188.223 172.496 188.273 172.513C188.324 172.531 188.377 172.536 188.43 172.53V172.53Z" fill="#263238"/>
<path d="M199.64 171.87C199.685 171.872 199.731 171.865 199.774 171.85C199.817 171.835 199.856 171.811 199.89 171.78C199.955 171.712 199.991 171.623 199.991 171.53C199.991 171.436 199.955 171.347 199.89 171.28C199.516 170.827 199.042 170.467 198.506 170.228C197.97 169.988 197.386 169.876 196.8 169.9C196.754 169.906 196.71 169.921 196.67 169.945C196.63 169.968 196.596 170 196.569 170.037C196.541 170.075 196.522 170.117 196.512 170.162C196.502 170.207 196.501 170.254 196.51 170.3C196.529 170.395 196.582 170.48 196.659 170.539C196.737 170.598 196.833 170.626 196.93 170.62C197.394 170.608 197.855 170.702 198.277 170.894C198.7 171.086 199.073 171.372 199.37 171.73C199.438 171.81 199.535 171.86 199.64 171.87Z" fill="#263238"/>
<path d="M190.9 174.73L192.29 174.19C192.29 174.19 191.71 175.4 190.9 174.73Z" fill="#263238"/>
<path d="M222.34 277.77L223.57 275.82C223.797 275.458 223.935 275.046 223.971 274.62C224.008 274.194 223.942 273.766 223.78 273.37L222.24 269.62C221.94 268.876 221.465 268.215 220.856 267.693C220.247 267.17 219.521 266.802 218.74 266.62L217.74 266.4C215.48 269.5 215.33 274.51 215.33 274.51L215.13 275.93C215.08 276.221 215.087 276.519 215.153 276.807C215.218 277.095 215.34 277.367 215.511 277.608C215.682 277.848 215.899 278.053 216.149 278.209C216.4 278.366 216.678 278.471 216.97 278.52L219.79 278.95C220.283 279.022 220.787 278.949 221.24 278.739C221.693 278.53 222.075 278.193 222.34 277.77Z" fill="#FFB573"/>
<path d="M208.08 249.6C197.509 250.74 186.846 250.72 176.28 249.54C176.17 249.525 176.065 249.485 175.973 249.422C175.882 249.359 175.806 249.276 175.753 249.178C175.699 249.081 175.67 248.973 175.666 248.862C175.661 248.751 175.684 248.641 175.73 248.54C175.99 247.95 176.24 247.35 176.5 246.76C176.553 246.626 176.648 246.513 176.77 246.437C176.893 246.362 177.036 246.328 177.18 246.34C187.344 247.44 197.596 247.44 207.76 246.34C207.941 246.326 208.121 246.384 208.26 246.502C208.398 246.62 208.485 246.788 208.5 246.97C208.56 247.58 208.62 248.2 208.69 248.82C208.701 248.911 208.694 249.004 208.67 249.092C208.645 249.181 208.603 249.264 208.546 249.336C208.49 249.409 208.419 249.469 208.339 249.514C208.259 249.56 208.171 249.589 208.08 249.6Z" fill="#263238"/>
<path d="M193 197.68C193 197.68 195.26 200.1 194.79 202.98L200 204.08C199.733 202.377 198.895 200.815 197.623 199.652C196.351 198.488 194.72 197.793 193 197.68V197.68Z" fill="#4DADF7"/>
<path d="M192.42 203.11C192.42 203.11 185.42 199.11 183.9 196.92L180.8 199.25C180.8 199.25 179.8 202.89 184.03 206.15L192.42 203.11Z" fill="#4DADF7"/>
<path opacity="0.6" d="M193 197.68C193 197.68 195.26 200.1 194.79 202.98L200 204.08C199.733 202.377 198.895 200.815 197.623 199.652C196.351 198.488 194.72 197.793 193 197.68V197.68Z" fill="white"/>
<path opacity="0.6" d="M192.42 203.11C192.42 203.11 185.42 199.11 183.9 196.92L180.8 199.25C180.8 199.25 179.8 202.89 184.03 206.15L192.42 203.11Z" fill="white"/>
<path d="M224.21 231.43C219.427 232.543 214.582 233.372 209.7 233.91C207.12 234.2 204.52 234.38 201.86 234.44C199.075 234.534 196.287 234.346 193.54 233.88C191.858 233.593 190.234 233.036 188.73 232.23L188.08 231.82L187.65 231.53L186.79 230.95C186.21 230.56 185.63 230.17 185.09 229.74C182.883 228.076 180.825 226.222 178.94 224.2C177.067 222.179 175.346 220.024 173.79 217.75C173.03 216.6 172.3 215.43 171.63 214.21C171.28 213.61 170.97 212.98 170.63 212.36L170.18 211.36C170.02 211.01 169.89 210.73 169.71 210.25C168.71 207.86 169.46 203.91 171.85 202.95C174.24 201.99 177.18 204.29 178.24 206.48L178.38 206.77L178.67 207.4L179.05 208.13C179.3 208.62 179.56 209.13 179.84 209.61C180.38 210.61 181 211.61 181.62 212.54C182.853 214.478 184.227 216.323 185.73 218.06C187.217 219.807 188.831 221.441 190.56 222.95C190.97 223.34 191.41 223.69 191.86 224.05L193 225C193.71 225.418 194.479 225.728 195.28 225.92C197.494 226.446 199.749 226.78 202.02 226.92C204.4 227.09 206.86 227.13 209.31 227.16C214.1 227.16 223.87 225.74 223.87 225.74L224.21 231.43Z" fill="#263238"/>
<path opacity="0.2" d="M224.21 231.43C219.427 232.543 214.582 233.372 209.7 233.91C207.12 234.2 204.52 234.38 201.86 234.44C199.075 234.534 196.287 234.346 193.54 233.88C191.858 233.593 190.234 233.036 188.73 232.23L188.08 231.82L187.65 231.53L186.79 230.95C186.21 230.56 185.63 230.17 185.09 229.74C182.883 228.076 180.825 226.222 178.94 224.2C177.067 222.179 175.346 220.024 173.79 217.75C173.03 216.6 172.3 215.43 171.63 214.21C171.28 213.61 170.97 212.98 170.63 212.36L170.18 211.36C170.02 211.01 169.89 210.73 169.71 210.25C168.71 207.86 169.46 203.91 171.85 202.95C174.24 201.99 177.18 204.29 178.24 206.48L178.38 206.77L178.67 207.4L179.05 208.13C179.3 208.62 179.56 209.13 179.84 209.61C180.38 210.61 181 211.61 181.62 212.54C182.853 214.478 184.227 216.323 185.73 218.06C187.217 219.807 188.831 221.441 190.56 222.95C190.97 223.34 191.41 223.69 191.86 224.05L193 225C193.71 225.418 194.479 225.728 195.28 225.92C197.494 226.446 199.749 226.78 202.02 226.92C204.4 227.09 206.86 227.13 209.31 227.16C214.1 227.16 223.87 225.74 223.87 225.74L224.21 231.43Z" fill="white"/>
<path d="M221.19 224.96L221.74 232.24L224.76 231.67L224.31 224.86L221.19 224.96Z" fill="#4DADF7"/>
<path opacity="0.7" d="M221.19 224.96L221.74 232.24L224.76 231.67L224.31 224.86L221.19 224.96Z" fill="white"/>
<path d="M221.57 264.87L214.44 266.44L215.43 269.35L222.11 267.94L221.57 264.87Z" fill="#4DADF7"/>
<path opacity="0.7" d="M221.57 264.87L214.44 266.44L215.43 269.35L222.11 267.94L221.57 264.87Z" fill="white"/>
</svg>
