<svg width="384" height="353" viewBox="0 0 384 353" fill="none" xmlns="http://www.w3.org/2000/svg">
<path d="M86.1485 324.626C152.12 362.288 259.083 362.288 325.054 324.626C391.026 286.963 391.035 225.881 325.054 188.218C259.073 150.555 152.12 150.545 86.1485 188.218C20.1769 225.891 20.1769 286.953 86.1485 324.626Z" fill="#EBEBEB"/>
<path d="M344.459 231.177L334.836 225.193C334.836 225.193 332.477 203.14 334.043 186.064C336.253 162.056 350.744 133.2 368.022 139.963C385.301 146.725 360.087 171.232 354.492 191.58C348.897 211.927 344.459 231.177 344.459 231.177Z" fill="#02897A"/>
<path opacity="0.1" d="M344.459 231.177L334.836 225.193C334.836 225.193 332.477 203.14 334.043 186.064C336.253 162.056 350.744 133.2 368.022 139.963C385.301 146.725 360.087 171.232 354.492 191.58C348.897 211.927 344.459 231.177 344.459 231.177Z" fill="black"/>
<path d="M339.451 228.474C339.361 228.475 339.274 228.442 339.206 228.379C339.137 228.317 339.092 228.23 339.078 228.135C335.805 201.205 344.766 160.5 362.856 145.06C362.893 145.028 362.936 145.003 362.982 144.989C363.028 144.975 363.076 144.97 363.124 144.976C363.172 144.981 363.218 144.997 363.26 145.021C363.302 145.046 363.339 145.08 363.369 145.12C363.43 145.202 363.459 145.307 363.448 145.411C363.438 145.516 363.389 145.612 363.313 145.678C345.419 160.959 336.57 201.344 339.815 228.026C339.828 228.13 339.802 228.236 339.743 228.32C339.684 228.404 339.596 228.46 339.498 228.474H339.451Z" fill="white"/>
<path d="M349.597 235.436L342.752 231.197C342.752 231.197 341.587 216.066 348.524 197.684C354.557 181.725 369.542 168.399 377.076 171.192C384.61 173.985 384.424 179.7 380.75 185.695C377.076 191.689 354.725 205.982 349.597 235.436Z" fill="#02897A"/>
<path d="M345.354 235.826C345.305 235.823 345.258 235.81 345.214 235.788C345.17 235.765 345.131 235.733 345.098 235.694C345.066 235.655 345.042 235.61 345.026 235.56C345.011 235.511 345.005 235.459 345.009 235.407C347.265 197.744 365.075 179.222 375.78 176.399C375.876 176.375 375.978 176.391 376.063 176.445C376.148 176.499 376.211 176.586 376.237 176.688C376.26 176.79 376.244 176.897 376.193 176.987C376.143 177.076 376.061 177.141 375.967 177.167C364.693 180.159 347.871 200.208 345.764 235.457C345.761 235.51 345.747 235.562 345.724 235.61C345.702 235.657 345.67 235.7 345.632 235.734C345.594 235.769 345.549 235.794 345.502 235.81C345.454 235.826 345.404 235.831 345.354 235.826Z" fill="white"/>
<path d="M67.2941 234.11C67.2941 234.11 68.5715 211.997 56.5614 196.836C44.5513 181.675 28.914 181.735 23.7388 184.558C18.5637 187.381 15.0856 195.45 23.9906 201.225C32.8956 207 51.8339 218.56 54.9856 228.873L67.2941 234.11Z" fill="#02897A"/>
<path opacity="0.1" d="M67.2941 234.11C67.2941 234.11 68.5715 211.997 56.5614 196.836C44.5513 181.675 28.914 181.735 23.7388 184.558C18.5637 187.381 15.0856 195.45 23.9906 201.225C32.8956 207 51.8339 218.56 54.9856 228.873L67.2941 234.11Z" fill="black"/>
<path d="M61.6433 228.574C61.5279 228.573 61.4169 228.526 61.3312 228.444C61.2454 228.361 61.1906 228.248 61.177 228.126C58.706 203.659 35.8421 190.104 26.7319 188.568C26.6707 188.558 26.6119 188.535 26.5588 188.501C26.5058 188.467 26.4595 188.422 26.4227 188.369C26.3859 188.315 26.3593 188.255 26.3444 188.191C26.3294 188.126 26.3264 188.06 26.3356 187.994C26.3448 187.929 26.366 187.866 26.3979 187.809C26.4298 187.752 26.4719 187.703 26.5216 187.663C26.5714 187.624 26.628 187.596 26.6881 187.58C26.7481 187.564 26.8106 187.56 26.8718 187.57C36.1964 189.136 59.5732 203 62.1095 228.016C62.1159 228.081 62.1102 228.148 62.0925 228.211C62.0749 228.274 62.0457 228.333 62.0067 228.384C61.9676 228.435 61.9196 228.477 61.8652 228.508C61.8108 228.539 61.7512 228.558 61.6899 228.564L61.6433 228.574Z" fill="white"/>
<path d="M57.1955 222.959C54.1836 215.618 50.7802 212.326 40.9893 214.082C31.1985 215.837 32.5972 215.568 20.6151 212.286C15.5611 210.91 9.88243 210.69 5.03363 213.024C0.940128 215.019 -2.11834 219.009 1.84462 223.258C6.30178 228.006 12.9502 229.632 17.8736 233.811C18.9905 234.655 19.8785 235.801 20.4472 237.132C21.7433 240.663 19.1511 244.643 19.9064 248.343C20.6617 252.044 24.2983 254.019 27.7111 254.258C31.1239 254.497 34.4901 253.4 37.8936 252.981C41.297 252.562 45.1201 252.981 47.4699 255.684C49.9876 258.547 50.0528 263.125 52.3933 266.167C55.8994 270.725 64.5153 271.992 69.1776 269.159L81.3835 261.629C89.4493 249.999 76.7212 240.783 70.0541 231.756C66.8185 227.357 59.0045 227.377 57.1955 222.959Z" fill="#02897A"/>
<path d="M73.8212 254.607C73.7418 254.609 73.6634 254.588 73.5944 254.546C73.5254 254.503 73.4685 254.442 73.4296 254.368C59.508 230.24 21.6034 218.032 8.19463 217.034C8.07256 217.024 7.95915 216.963 7.8789 216.864C7.79864 216.765 7.75798 216.636 7.7657 216.506C7.77525 216.374 7.83211 216.252 7.9243 216.164C8.01648 216.077 8.1368 216.031 8.2599 216.037C21.8459 217.034 60.1141 229.422 74.2222 253.869C74.2846 253.983 74.303 254.119 74.2734 254.248C74.2438 254.376 74.1686 254.487 74.0637 254.557C73.9874 254.593 73.9045 254.61 73.8212 254.607Z" fill="white"/>
<path d="M29.7252 243.236C29.6525 243.238 29.5806 243.221 29.5156 243.186C29.4506 243.151 29.3946 243.1 29.3522 243.037C29.278 242.931 29.2461 242.798 29.2636 242.667C29.2811 242.536 29.3465 242.418 29.4454 242.339C29.9303 241.95 41.4928 232.873 52.757 232.694C52.8177 232.692 52.8782 232.704 52.9347 232.728C52.9912 232.752 53.0427 232.788 53.0861 232.833C53.1295 232.879 53.164 232.933 53.1875 232.993C53.2111 233.053 53.2232 233.117 53.2232 233.182C53.2244 233.248 53.2136 233.313 53.1913 233.374C53.169 233.435 53.1357 233.491 53.0933 233.538C53.0508 233.585 53.0001 233.623 52.944 233.649C52.8879 233.676 52.8275 233.69 52.7663 233.691C41.8285 233.861 30.1448 243.047 30.0236 243.137C29.9394 243.209 29.8328 243.244 29.7252 243.236Z" fill="white"/>
<path d="M72.9541 263.085C73.0537 264.536 73.4712 265.94 74.1726 267.186C74.874 268.432 75.8397 269.484 76.9917 270.257L190.127 340.126C191.378 340.805 192.762 341.159 194.165 341.159C195.568 341.159 196.951 340.805 198.202 340.126L352.991 244.523C354.211 243.834 355.232 242.802 355.944 241.539C356.657 240.275 357.033 238.827 357.033 237.352C357.033 235.876 356.657 234.428 355.944 233.164C355.232 231.901 354.211 230.869 352.991 230.18L239.865 160.36C238.613 159.681 237.23 159.327 235.827 159.327C234.424 159.327 233.041 159.681 231.79 160.36L76.9917 255.934C75.8422 256.704 74.8779 257.753 74.1766 258.995C73.4753 260.237 73.0566 261.638 72.9541 263.085Z" fill="#37474F"/>
<path d="M119.633 229.581L76.9917 255.933C75.7717 256.622 74.7504 257.654 74.0381 258.918C73.3258 260.181 72.9493 261.629 72.9493 263.105C72.9493 264.58 73.3258 266.028 74.0381 267.292C74.7504 268.556 75.7717 269.587 76.9917 270.276L190.127 340.146C191.372 340.841 192.761 341.184 194.165 341.143V229.581H119.633Z" fill="#263238"/>
<path d="M69.1589 256.073C68.0351 255.254 67.1071 254.163 66.4495 252.89C65.7919 251.617 65.4232 250.196 65.3731 248.742V104.325C65.4482 102.826 65.853 101.367 66.5546 100.067C67.2562 98.7676 68.2347 97.6632 69.4107 96.8442L224.199 1.24106C225.368 0.45713 226.714 0.0285526 228.093 0.00137783C229.472 -0.0257969 230.831 0.349454 232.026 1.08682C233.221 1.82418 234.205 2.89579 234.873 4.18649C235.541 5.47719 235.868 6.93819 235.818 8.41254V152.84C235.741 154.338 235.336 155.796 234.634 157.096C233.933 158.396 232.955 159.5 231.78 160.32L76.9916 255.933C75.7878 256.612 74.4515 256.979 73.0908 257.003C71.7301 257.027 70.3831 256.709 69.1589 256.073Z" fill="#455A64"/>
<path d="M84.3208 111.038L66.5574 100.066C65.85 101.36 65.4617 102.826 65.4291 104.325V248.742C65.4792 250.196 65.8479 251.617 66.5055 252.89C67.1631 254.163 68.0911 255.254 69.2149 256.073C70.4394 256.704 71.7854 257.019 73.1444 256.991C74.5033 256.963 75.8371 256.594 77.0382 255.914L94.6991 245.012L84.3208 111.038Z" fill="#263238"/>
<path d="M72.9541 109.013V253.42C72.9541 256.173 74.7631 257.29 76.9917 255.913L231.78 160.32C232.955 159.5 233.933 158.395 234.634 157.096C235.336 155.796 235.741 154.338 235.818 152.839V8.42234C235.818 5.66945 234.009 4.55234 231.78 5.92878L76.9917 101.532C75.8157 102.351 74.8372 103.455 74.1356 104.755C73.434 106.055 73.0292 107.514 72.9541 109.013Z" fill="#37474F"/>
<path d="M76.9916 260.92L190.127 330.74C191.378 331.419 192.762 331.773 194.165 331.773C195.568 331.773 196.951 331.419 198.202 330.74L352.991 235.137C355.229 233.76 355.229 231.526 352.991 230.15L239.865 160.33C238.613 159.651 237.23 159.297 235.827 159.297C234.424 159.297 233.041 159.651 231.789 160.33L76.9916 255.933C74.7537 257.29 74.7537 259.524 76.9916 260.92Z" fill="#455A64"/>
<path d="M79.1644 109.542L229.617 16.6314C230.95 15.8036 232.041 16.4718 232.041 18.1276V143.135C231.994 144.034 231.75 144.908 231.329 145.688C230.908 146.468 230.322 147.131 229.617 147.623L79.1644 240.533C77.8216 241.361 76.74 240.693 76.74 239.037V114.03C76.7848 113.13 77.0278 112.255 77.4491 111.475C77.8704 110.695 78.4582 110.032 79.1644 109.542Z" fill="white"/>
<path d="M90.1207 257.16L233.804 168.389C234.429 168.05 235.121 167.874 235.822 167.874C236.524 167.874 237.215 168.05 237.841 168.389L245.198 172.928C245.442 173.016 245.653 173.184 245.803 173.408C245.953 173.631 246.034 173.899 246.034 174.174C246.034 174.45 245.953 174.718 245.803 174.941C245.653 175.165 245.442 175.333 245.198 175.421L101.487 264.182C100.862 264.521 100.17 264.698 99.4686 264.698C98.7671 264.698 98.0755 264.521 97.4498 264.182L90.1207 259.654C89.8771 259.565 89.6656 259.398 89.5157 259.174C89.3659 258.95 89.2853 258.682 89.2853 258.407C89.2853 258.132 89.3659 257.864 89.5157 257.64C89.6656 257.416 89.8771 257.249 90.1207 257.16Z" fill="#263238"/>
<path d="M109.068 268.9L252.742 180.129C253.369 179.79 254.062 179.613 254.765 179.613C255.468 179.613 256.161 179.79 256.789 180.129L301.985 208.057C302.229 208.145 302.44 208.313 302.59 208.537C302.74 208.76 302.82 209.029 302.82 209.304C302.82 209.579 302.74 209.847 302.59 210.071C302.44 210.294 302.229 210.462 301.985 210.55L158.47 299.142C157.843 299.481 157.15 299.658 156.447 299.658C155.744 299.658 155.051 299.481 154.423 299.142L109.068 271.344C108.836 271.25 108.637 271.082 108.496 270.864C108.355 270.646 108.28 270.387 108.28 270.122C108.28 269.856 108.355 269.597 108.496 269.379C108.637 269.161 108.836 268.994 109.068 268.9Z" fill="#263238"/>
<path d="M237.86 220.026L242.364 217.243C242.55 217.124 242.541 216.934 242.364 216.804L237.16 213.593C237.049 213.532 236.926 213.5 236.801 213.5C236.677 213.5 236.553 213.532 236.442 213.593L231.948 216.376C231.752 216.495 231.761 216.685 231.948 216.814L237.151 220.026C237.261 220.086 237.382 220.117 237.505 220.117C237.629 220.117 237.75 220.086 237.86 220.026ZM228.983 209.054L224.488 211.837C224.292 211.947 224.302 212.147 224.488 212.276L229.691 215.488C229.802 215.549 229.926 215.581 230.05 215.581C230.175 215.581 230.298 215.549 230.409 215.488L234.913 212.705C235.1 212.585 235.09 212.386 234.913 212.266L229.701 209.054C229.59 208.993 229.467 208.961 229.342 208.961C229.217 208.961 229.094 208.993 228.983 209.054ZM214.455 218.031L206.837 222.729C206.65 222.849 206.66 223.048 206.837 223.178L212.04 226.39C212.151 226.451 212.274 226.483 212.399 226.483C212.524 226.483 212.647 226.451 212.758 226.39L220.367 221.692C220.563 221.572 220.544 221.373 220.367 221.253L215.164 218.031C215.054 217.97 214.933 217.938 214.809 217.938C214.686 217.938 214.564 217.97 214.455 218.031ZM222.409 213.114L217.914 215.897C217.719 216.017 217.728 216.216 217.914 216.336L223.118 219.547C223.229 219.609 223.352 219.641 223.477 219.641C223.601 219.641 223.725 219.609 223.836 219.547L228.339 216.765C228.526 216.645 228.517 216.455 228.339 216.326L223.127 213.044C223.016 212.983 222.893 212.951 222.768 212.951C222.643 212.951 222.52 212.983 222.409 213.044V213.114ZM204.757 224.016L200.263 226.789C200.067 226.908 200.086 227.108 200.263 227.238L205.466 230.449C205.576 230.508 205.697 230.539 205.82 230.539C205.943 230.539 206.065 230.508 206.175 230.449L210.679 227.666C210.865 227.547 210.856 227.347 210.679 227.228L205.475 224.016C205.364 223.955 205.241 223.923 205.116 223.923C204.992 223.923 204.868 223.955 204.757 224.016ZM198.23 228.075L193.736 230.858C193.54 230.968 193.559 231.167 193.736 231.297L198.939 234.509C199.05 234.57 199.173 234.602 199.298 234.602C199.423 234.602 199.546 234.57 199.657 234.509L204.161 231.726C204.347 231.606 204.338 231.407 204.161 231.287L198.902 228.006C198.791 227.944 198.667 227.912 198.543 227.912C198.418 227.912 198.295 227.944 198.184 228.006L198.23 228.075ZM218.698 241.142L223.192 238.359C223.388 238.239 223.369 238.05 223.192 237.92L217.989 234.708C217.88 234.647 217.758 234.615 217.635 234.615C217.511 234.615 217.39 234.647 217.28 234.708L212.777 237.491C212.59 237.611 212.599 237.8 212.777 237.93L217.98 241.142C218.088 241.187 218.205 241.206 218.321 241.198C218.437 241.189 218.55 241.153 218.651 241.092L218.698 241.142ZM212.115 245.201L216.618 242.418C216.805 242.309 216.796 242.109 216.618 241.979L211.415 238.768C211.304 238.707 211.181 238.675 211.056 238.675C210.931 238.675 210.808 238.707 210.697 238.768L206.203 241.551C206.007 241.67 206.026 241.87 206.203 241.989L211.406 245.201C211.513 245.247 211.628 245.266 211.742 245.257C211.857 245.248 211.968 245.212 212.068 245.151L212.115 245.201ZM205.541 249.261L210.044 246.488C210.231 246.368 210.222 246.169 210.044 246.039L204.841 242.827C204.73 242.768 204.607 242.738 204.482 242.738C204.358 242.738 204.235 242.768 204.123 242.827L199.629 245.61C199.433 245.73 199.452 245.929 199.629 246.049L204.823 249.261C204.931 249.306 205.048 249.325 205.164 249.317C205.28 249.308 205.393 249.272 205.494 249.211L205.541 249.261ZM199.013 253.32L203.517 250.547C203.704 250.428 203.694 250.228 203.517 250.099L198.314 246.887C198.203 246.826 198.08 246.794 197.955 246.794C197.83 246.794 197.707 246.826 197.596 246.887L193.102 249.66C192.906 249.779 192.915 249.979 193.102 250.108L198.305 253.32C198.508 253.391 198.729 253.373 198.92 253.27L199.013 253.32ZM231.379 224.156L235.883 221.373C236.069 221.263 236.06 221.063 235.883 220.934L230.68 217.722C230.568 217.663 230.445 217.633 230.321 217.633C230.196 217.633 230.074 217.663 229.962 217.722L225.467 220.505C225.272 220.625 225.281 220.824 225.467 220.944L230.671 224.156C230.771 224.192 230.877 224.207 230.983 224.198C231.089 224.19 231.192 224.158 231.286 224.106L231.379 224.156ZM225.318 237.122L235.351 230.918C235.538 230.808 235.529 230.609 235.351 230.479L222.717 222.679C222.606 222.618 222.483 222.586 222.358 222.586C222.233 222.586 222.11 222.618 221.999 222.679L216.814 225.891C216.618 226.001 216.637 226.2 216.814 226.33L223.509 230.459C223.714 230.589 223.724 230.788 223.509 230.908L219.285 233.362C219.099 233.471 219.108 233.671 219.285 233.801L224.507 236.982C224.614 237.051 224.735 237.092 224.86 237.101C224.985 237.109 225.11 237.086 225.225 237.032L225.318 237.122ZM191.703 232.135L187.209 234.918C187.013 235.037 187.022 235.227 187.209 235.357L192.412 238.568C192.523 238.63 192.646 238.661 192.771 238.661C192.896 238.661 193.019 238.63 193.13 238.568L197.633 235.785C197.82 235.666 197.811 235.476 197.633 235.347L192.43 232.135C192.311 232.046 192.172 231.994 192.027 231.986C191.882 231.977 191.737 232.011 191.61 232.085L191.703 232.135ZM185.176 236.194L180.532 238.977C180.346 239.097 180.355 239.296 180.532 239.416L185.735 242.628C185.846 242.689 185.969 242.721 186.094 242.721C186.219 242.721 186.342 242.689 186.453 242.628L190.957 239.845C191.143 239.735 191.134 239.536 190.957 239.406L185.717 236.164C185.612 236.107 185.496 236.075 185.378 236.071C185.26 236.068 185.143 236.093 185.036 236.145L185.176 236.194ZM152.148 281.677C152.259 281.738 152.382 281.77 152.507 281.77C152.632 281.77 152.755 281.738 152.866 281.677L157.37 278.894C157.556 278.784 157.547 278.585 157.37 278.455L152.148 275.264C152.037 275.202 151.914 275.17 151.789 275.17C151.664 275.17 151.541 275.202 151.43 275.264L146.936 278.046C146.74 278.166 146.749 278.366 146.936 278.485L152.148 281.677ZM132.408 268.631L127.904 271.413C127.718 271.533 127.727 271.723 127.904 271.852L133.107 275.064C133.218 275.125 133.341 275.157 133.466 275.157C133.591 275.157 133.714 275.125 133.825 275.064L138.329 272.281C138.515 272.162 138.506 271.972 138.329 271.842L133.126 268.631C133.018 268.574 132.9 268.545 132.781 268.545C132.661 268.545 132.543 268.574 132.436 268.631H132.408ZM142.991 278.156C143.102 278.217 143.225 278.249 143.35 278.249C143.475 278.249 143.598 278.217 143.709 278.156L148.204 275.373C148.399 275.264 148.381 275.064 148.204 274.934L143.01 271.723C142.899 271.661 142.776 271.629 142.651 271.629C142.526 271.629 142.403 271.661 142.292 271.723L137.788 274.505C137.602 274.625 137.611 274.825 137.788 274.944L142.991 278.156ZM163.757 284.141L168.261 281.358C168.447 281.238 168.438 281.049 168.261 280.919L163.058 277.707C162.947 277.646 162.824 277.614 162.699 277.614C162.574 277.614 162.451 277.646 162.34 277.707L157.845 280.49C157.65 280.6 157.668 280.799 157.845 280.929L163.039 284.141C163.153 284.208 163.281 284.245 163.411 284.247C163.541 284.248 163.67 284.215 163.785 284.151L163.757 284.141ZM156.465 288.13C156.576 288.192 156.699 288.223 156.824 288.223C156.949 288.223 157.072 288.192 157.183 288.13L161.687 285.347C161.874 285.238 161.864 285.038 161.687 284.909L156.484 281.697C156.373 281.636 156.25 281.604 156.125 281.604C156 281.604 155.877 281.636 155.766 281.697L151.271 284.48C151.076 284.599 151.085 284.799 151.271 284.919L156.465 288.13ZM138.982 264.511L134.487 267.294C134.291 267.404 134.301 267.603 134.487 267.733L139.69 270.945C139.801 271.006 139.924 271.038 140.049 271.038C140.174 271.038 140.297 271.006 140.408 270.945L144.912 268.162C145.099 268.042 145.089 267.843 144.912 267.723L139.709 264.511C139.596 264.462 139.474 264.442 139.353 264.453C139.231 264.463 139.114 264.504 139.01 264.571L138.982 264.511ZM171.86 244.214L167.356 246.987C167.17 247.106 167.179 247.306 167.356 247.425L172.56 250.647C172.671 250.706 172.794 250.737 172.919 250.737C173.043 250.737 173.166 250.706 173.278 250.647L177.772 247.874C177.968 247.755 177.958 247.555 177.772 247.425L172.569 244.214C172.459 244.168 172.34 244.15 172.222 244.16C172.104 244.17 171.99 244.209 171.888 244.274L171.86 244.214ZM145.621 260.512L141.126 263.284C140.93 263.404 140.94 263.604 141.126 263.733L146.329 266.945C146.441 267.004 146.564 267.035 146.688 267.035C146.813 267.035 146.936 267.004 147.047 266.945L151.551 264.162C151.738 264.043 151.728 263.843 151.551 263.723L146.348 260.502C146.234 260.443 146.11 260.413 145.983 260.415C145.857 260.416 145.733 260.45 145.621 260.512ZM178.499 240.204L173.958 242.967C173.772 243.087 173.781 243.286 173.958 243.406L179.161 246.618C179.272 246.679 179.395 246.711 179.52 246.711C179.645 246.711 179.768 246.679 179.879 246.618L184.374 243.845C184.57 243.725 184.56 243.525 184.374 243.396L179.189 240.224C179.078 240.16 178.954 240.125 178.828 240.122C178.702 240.118 178.576 240.147 178.462 240.204H178.499ZM165.352 248.333L160.848 251.106C160.661 251.226 160.671 251.425 160.848 251.555L166.051 254.766C166.163 254.825 166.285 254.856 166.41 254.856C166.534 254.856 166.657 254.825 166.769 254.766L171.263 251.994C171.459 251.874 171.441 251.674 171.263 251.545L166.07 248.333C165.953 248.268 165.824 248.233 165.692 248.233C165.56 248.233 165.431 248.268 165.314 248.333H165.352ZM158.768 252.393L154.274 255.165C154.078 255.285 154.097 255.485 154.274 255.614L159.477 258.826C159.589 258.885 159.712 258.916 159.836 258.916C159.961 258.916 160.083 258.885 160.195 258.826L164.69 256.053C164.876 255.933 164.867 255.734 164.69 255.604L159.486 252.393C159.37 252.327 159.24 252.293 159.109 252.293C158.977 252.293 158.848 252.327 158.731 252.393H158.768ZM152.148 256.452L147.654 259.225C147.458 259.345 147.476 259.544 147.654 259.674L152.847 262.885C152.958 262.947 153.081 262.979 153.206 262.979C153.331 262.979 153.454 262.947 153.565 262.885L158.069 260.113C158.256 259.993 158.246 259.793 158.069 259.664L152.866 256.452C152.754 256.393 152.631 256.363 152.507 256.363C152.382 256.363 152.26 256.393 152.148 256.452ZM185.763 261.439L190.258 258.666C190.453 258.547 190.444 258.347 190.258 258.218L185.045 254.936C184.934 254.877 184.811 254.846 184.686 254.846C184.562 254.846 184.439 254.877 184.327 254.936L179.823 257.709C179.637 257.829 179.646 258.028 179.823 258.158L185.027 261.369C185.14 261.439 185.267 261.477 185.397 261.481C185.527 261.484 185.656 261.453 185.773 261.389L185.763 261.439ZM243.529 200.078L239.025 202.86C238.839 202.98 238.848 203.17 239.025 203.299L244.228 206.511C244.339 206.572 244.463 206.604 244.587 206.604C244.712 206.604 244.835 206.572 244.946 206.511L249.441 203.728C249.637 203.609 249.627 203.419 249.441 203.289L244.238 200.078C244.128 200.018 244.007 199.987 243.883 199.987C243.76 199.987 243.639 200.018 243.529 200.078ZM235.566 204.995L231.071 207.778C230.876 207.888 230.894 208.087 231.071 208.217L236.265 211.428C236.377 211.487 236.5 211.518 236.624 211.518C236.749 211.518 236.872 211.487 236.983 211.428L241.487 208.646C241.674 208.526 241.664 208.326 241.487 208.207L236.284 204.995C236.176 204.924 236.053 204.883 235.926 204.874C235.799 204.865 235.673 204.89 235.557 204.945L235.566 204.995ZM250.103 196.018L245.609 198.801C245.413 198.911 245.422 199.11 245.609 199.24L250.812 202.452C250.923 202.513 251.046 202.545 251.171 202.545C251.296 202.545 251.419 202.513 251.53 202.452L256.033 199.669C256.22 199.549 256.211 199.35 256.033 199.23L250.83 196.018C250.716 195.939 250.585 195.892 250.45 195.884C250.314 195.875 250.178 195.904 250.056 195.968L250.103 196.018ZM216.068 233.561L220.572 230.778C220.758 230.659 220.749 230.459 220.572 230.34L215.369 227.128C215.258 227.067 215.135 227.035 215.01 227.035C214.885 227.035 214.762 227.067 214.651 227.128L210.156 229.911C209.961 230.02 209.97 230.22 210.156 230.35L215.36 233.561C215.472 233.612 215.593 233.633 215.715 233.625C215.836 233.616 215.954 233.577 216.059 233.511L216.068 233.561ZM257.395 191.979C257.284 191.917 257.161 191.885 257.036 191.885C256.911 191.885 256.788 191.917 256.677 191.979L252.182 194.761C251.987 194.871 251.996 195.071 252.182 195.2L257.385 198.412C257.497 198.471 257.62 198.502 257.745 198.502C257.869 198.502 257.992 198.471 258.104 198.412L262.607 195.629C262.794 195.509 262.784 195.31 262.607 195.19L257.395 191.979ZM192.346 257.33L196.85 254.557C197.037 254.437 197.027 254.238 196.85 254.108L191.619 250.946C191.508 250.885 191.385 250.853 191.26 250.853C191.135 250.853 191.012 250.885 190.901 250.946L186.407 253.719C186.211 253.839 186.22 254.038 186.407 254.168L191.61 257.38C191.727 257.434 191.856 257.458 191.984 257.45C192.112 257.441 192.236 257.4 192.346 257.33ZM272.976 207.538L277.48 204.756C277.667 204.646 277.657 204.446 277.48 204.317L272.249 201.075C272.138 201.014 272.015 200.982 271.89 200.982C271.765 200.982 271.642 201.014 271.531 201.075L267.036 203.858C266.841 203.978 266.85 204.177 267.036 204.297L272.24 207.508C272.351 207.578 272.476 207.617 272.604 207.622C272.733 207.627 272.861 207.598 272.976 207.538ZM258.989 207.01L263.493 204.227C263.68 204.107 263.67 203.918 263.493 203.788L258.29 200.576C258.179 200.515 258.056 200.483 257.931 200.483C257.806 200.483 257.683 200.515 257.572 200.576L253.078 203.359C252.882 203.479 252.891 203.668 253.078 203.798L258.281 207.01C258.384 207.074 258.501 207.112 258.62 207.121C258.74 207.129 258.86 207.108 258.971 207.06L258.989 207.01ZM264.836 196.517C264.725 196.456 264.602 196.424 264.477 196.424C264.352 196.424 264.229 196.456 264.118 196.517L259.623 199.3C259.428 199.409 259.437 199.609 259.623 199.739L264.827 202.95C264.938 203.011 265.061 203.043 265.186 203.043C265.31 203.043 265.434 203.011 265.545 202.95L270.048 200.167C270.235 200.048 270.225 199.848 270.048 199.729L264.836 196.517ZM266.225 195.659L278.851 203.459C278.962 203.52 279.085 203.552 279.21 203.552C279.335 203.552 279.458 203.52 279.569 203.459L284.073 200.676C284.259 200.556 284.25 200.367 284.073 200.237L271.438 192.437C271.327 192.376 271.204 192.344 271.079 192.344C270.954 192.344 270.831 192.376 270.72 192.437L266.225 195.22C265.983 195.33 266.001 195.529 266.207 195.659H266.225ZM250.97 204.636L246.466 207.419C246.28 207.538 246.289 207.738 246.466 207.858L251.67 211.069C251.781 211.131 251.904 211.162 252.029 211.162C252.153 211.162 252.277 211.131 252.388 211.069L256.882 208.286C257.078 208.177 257.068 207.977 256.882 207.848L251.679 204.636C251.573 204.576 251.456 204.544 251.336 204.54C251.216 204.537 251.098 204.563 250.989 204.616L250.97 204.636ZM201.484 235.197L196.962 237.98C196.776 238.099 196.785 238.299 196.962 238.419L202.165 241.63C202.276 241.692 202.399 241.724 202.524 241.724C202.649 241.724 202.772 241.692 202.883 241.63L207.378 238.848C207.573 238.738 207.564 238.538 207.378 238.409L202.174 235.197C202.066 235.134 201.946 235.1 201.822 235.096C201.699 235.093 201.577 235.121 201.466 235.177L201.484 235.197ZM265.703 211.598C265.814 211.659 265.937 211.691 266.062 211.691C266.187 211.691 266.31 211.659 266.421 211.598L270.925 208.815C271.111 208.705 271.102 208.506 270.925 208.376L265.722 205.165C265.61 205.106 265.487 205.075 265.363 205.075C265.238 205.075 265.115 205.106 265.004 205.165L260.509 207.947C260.313 208.067 260.323 208.267 260.509 208.386L265.703 211.598ZM208.058 231.137L203.564 233.92C203.368 234.04 203.377 234.229 203.564 234.359L208.767 237.571C208.878 237.632 209.001 237.664 209.126 237.664C209.251 237.664 209.374 237.632 209.485 237.571L213.989 234.788C214.175 234.668 214.166 234.479 213.989 234.349L208.786 231.137C208.673 231.068 208.545 231.03 208.415 231.026C208.285 231.023 208.156 231.054 208.04 231.118L208.058 231.137ZM158.768 277.637C158.879 277.699 159.003 277.731 159.127 277.731C159.252 277.731 159.375 277.699 159.486 277.637L163.99 274.855C164.177 274.735 164.167 274.545 163.99 274.416L158.787 271.204C158.676 271.143 158.553 271.111 158.428 271.111C158.303 271.111 158.18 271.143 158.069 271.204L153.575 273.987C153.379 274.107 153.397 274.296 153.575 274.426L158.768 277.637ZM148.884 267.663L144.381 270.446C144.194 270.566 144.203 270.755 144.381 270.885L149.584 274.097C149.695 274.158 149.818 274.19 149.943 274.19C150.068 274.19 150.191 274.158 150.302 274.097L154.796 271.314C154.992 271.194 154.983 271.005 154.796 270.875L149.593 267.663C149.481 267.6 149.356 267.567 149.229 267.567C149.103 267.567 148.978 267.6 148.866 267.663H148.884ZM166.07 273.578L170.564 270.795C170.751 270.675 170.741 270.476 170.564 270.356L165.361 267.144C165.25 267.083 165.127 267.051 165.002 267.051C164.877 267.051 164.754 267.083 164.643 267.144L160.102 269.897C159.915 270.007 159.925 270.207 160.102 270.336L165.305 273.548C165.417 273.619 165.544 273.659 165.674 273.664C165.805 273.669 165.934 273.64 166.051 273.578H166.07ZM172.643 269.518L177.138 266.736C177.334 266.616 177.315 266.416 177.138 266.297L171.944 263.085C171.833 263.024 171.71 262.992 171.585 262.992C171.46 262.992 171.337 263.024 171.226 263.085L166.722 265.858C166.536 265.978 166.545 266.177 166.722 266.307L171.925 269.518C172.04 269.581 172.166 269.613 172.294 269.613C172.422 269.613 172.548 269.581 172.662 269.518H172.643ZM179.171 265.449L183.665 262.676C183.861 262.556 183.852 262.357 183.665 262.237L178.462 259.015C178.35 258.957 178.228 258.926 178.103 258.926C177.979 258.926 177.856 258.957 177.744 259.015L173.24 261.788C173.054 261.908 173.063 262.108 173.24 262.237L178.443 265.449C178.558 265.515 178.686 265.55 178.816 265.55C178.947 265.55 179.075 265.515 179.189 265.449H179.171ZM155.412 263.604L150.908 266.386C150.721 266.496 150.731 266.696 150.908 266.825L156.111 270.037C156.222 270.098 156.345 270.13 156.47 270.13C156.595 270.13 156.718 270.098 156.829 270.037L161.333 267.254C161.519 267.135 161.51 266.935 161.333 266.815L156.13 263.604C156.022 263.547 155.904 263.518 155.785 263.518C155.665 263.518 155.547 263.547 155.44 263.604H155.412ZM161.985 259.544L157.491 262.317C157.295 262.437 157.304 262.636 157.491 262.766L162.694 265.978C162.806 266.036 162.929 266.067 163.053 266.067C163.178 266.067 163.3 266.036 163.412 265.978L168 263.215C168.186 263.095 168.177 262.895 168 262.776L162.797 259.564C162.679 259.487 162.545 259.445 162.408 259.442C162.27 259.438 162.134 259.474 162.013 259.544H161.985ZM188.29 243.306L183.852 246.079C183.665 246.199 183.674 246.398 183.852 246.528L189.055 249.739C189.166 249.798 189.289 249.829 189.414 249.829C189.538 249.829 189.661 249.798 189.773 249.739L194.267 246.967C194.463 246.847 194.444 246.647 194.267 246.518L189.073 243.306C188.958 243.238 188.828 243.202 188.696 243.202C188.564 243.202 188.434 243.238 188.318 243.306H188.29ZM181.707 247.366L177.213 250.138C177.026 250.258 177.035 250.458 177.213 250.587L182.416 253.799C182.527 253.858 182.65 253.889 182.775 253.889C182.899 253.889 183.022 253.858 183.134 253.799L187.628 251.026C187.824 250.906 187.805 250.707 187.628 250.577L182.425 247.366C182.317 247.311 182.199 247.283 182.08 247.283C181.961 247.283 181.843 247.311 181.735 247.366H181.707ZM194.864 239.237L190.379 242.019C190.192 242.139 190.202 242.339 190.379 242.458L195.582 245.68C195.694 245.739 195.816 245.77 195.941 245.77C196.066 245.77 196.188 245.739 196.3 245.68L200.794 242.897C200.99 242.787 200.981 242.588 200.794 242.458L195.591 239.247C195.483 239.189 195.364 239.159 195.243 239.157C195.122 239.155 195.002 239.182 194.892 239.237H194.864ZM168.559 255.485L164.065 258.257C163.869 258.377 163.878 258.577 164.065 258.706L169.268 261.918C169.38 261.977 169.502 262.008 169.627 262.008C169.751 262.008 169.874 261.977 169.986 261.918L174.49 259.135C174.676 259.015 174.667 258.816 174.49 258.696L169.287 255.475C169.177 255.42 169.057 255.393 168.936 255.395C168.815 255.397 168.696 255.427 168.587 255.485H168.559ZM175.133 251.425L170.639 254.198C170.443 254.318 170.462 254.517 170.639 254.647L175.842 257.858C175.951 257.92 176.073 257.952 176.196 257.952C176.32 257.952 176.441 257.92 176.55 257.858L181.054 255.086C181.241 254.966 181.231 254.766 181.054 254.637L175.851 251.425C175.743 251.371 175.625 251.343 175.506 251.343C175.387 251.343 175.269 251.371 175.161 251.425H175.133ZM170.34 280.091L174.835 277.308C175.021 277.189 175.012 276.989 174.835 276.869L169.632 273.658C169.521 273.596 169.398 273.564 169.273 273.564C169.148 273.564 169.025 273.596 168.914 273.658L164.419 276.44C164.223 276.55 164.242 276.75 164.419 276.879L169.622 280.091C169.737 280.157 169.865 280.192 169.995 280.192C170.126 280.192 170.254 280.157 170.368 280.091H170.34ZM131.783 275.882L126.58 272.67C126.469 272.609 126.346 272.577 126.221 272.577C126.096 272.577 125.973 272.609 125.862 272.67L121.377 275.473C121.19 275.593 121.2 275.782 121.377 275.912L126.58 279.124C126.691 279.185 126.814 279.217 126.939 279.217C127.064 279.217 127.187 279.185 127.298 279.124L131.792 276.341C131.998 276.251 131.988 276.051 131.783 275.882ZM141.63 278.974L136.427 275.762C136.317 275.703 136.195 275.673 136.072 275.673C135.949 275.673 135.828 275.703 135.718 275.762L128.836 280.061C128.65 280.181 128.659 280.38 128.836 280.5L134.04 283.712C134.151 283.773 134.274 283.805 134.399 283.805C134.523 283.805 134.647 283.773 134.758 283.712L141.676 279.443C141.891 279.343 141.835 279.144 141.63 279.014V278.974ZM123.801 269.668L118.579 266.496C118.468 266.435 118.345 266.403 118.22 266.403C118.096 266.403 117.972 266.435 117.861 266.496L112.341 269.897C112.155 270.017 112.164 270.217 112.341 270.346L117.544 273.558C117.655 273.619 117.778 273.651 117.903 273.651C118.028 273.651 118.151 273.619 118.262 273.558L123.792 270.147C124.016 270.037 124.006 269.838 123.801 269.708V269.668ZM128.044 267.045C128.155 267.106 128.278 267.138 128.403 267.138C128.528 267.138 128.651 267.106 128.762 267.045L133.256 264.262C133.452 264.152 133.443 263.953 133.256 263.823L128.053 260.611C127.942 260.55 127.819 260.518 127.694 260.518C127.569 260.518 127.446 260.55 127.335 260.611L122.831 263.394C122.645 263.514 122.654 263.713 122.831 263.833L128.044 267.045ZM150.796 282.495L145.621 279.323C145.509 279.264 145.386 279.233 145.262 279.233C145.137 279.233 145.014 279.264 144.903 279.323L136.25 284.669C136.063 284.789 136.072 284.988 136.25 285.108L141.453 288.33C141.564 288.389 141.687 288.419 141.812 288.419C141.936 288.419 142.059 288.389 142.171 288.33L150.824 282.984C151.01 282.864 151.001 282.664 150.796 282.535V282.495ZM155.113 289.008L149.91 285.856C149.799 285.795 149.676 285.763 149.551 285.763C149.426 285.763 149.303 285.795 149.192 285.856L143.653 289.277C143.467 289.397 143.476 289.597 143.653 289.726L148.856 292.938C148.968 292.997 149.091 293.027 149.215 293.027C149.34 293.027 149.463 292.997 149.574 292.938L155.113 289.517C155.328 289.377 155.318 289.178 155.113 289.048V289.008ZM176.933 236.853C177.044 236.914 177.167 236.946 177.292 236.946C177.417 236.946 177.54 236.914 177.651 236.853L182.145 234.08C182.341 233.96 182.322 233.761 182.145 233.631L176.942 230.419C176.83 230.36 176.708 230.33 176.583 230.33C176.459 230.33 176.336 230.36 176.224 230.419L171.73 233.242C171.543 233.362 171.552 233.561 171.73 233.681L176.933 236.853ZM163.776 244.982C163.887 245.041 164.01 245.071 164.135 245.071C164.259 245.071 164.382 245.041 164.494 244.982L168.998 242.209C169.184 242.089 169.175 241.89 168.998 241.76L163.794 238.548C163.683 238.489 163.56 238.459 163.435 238.459C163.311 238.459 163.188 238.489 163.076 238.548L158.582 241.321C158.386 241.441 158.405 241.64 158.582 241.77L163.776 244.982ZM134.618 263.025C134.729 263.086 134.852 263.118 134.977 263.118C135.102 263.118 135.225 263.086 135.336 263.025L139.83 260.242C140.026 260.123 140.017 259.933 139.83 259.803L134.627 256.592C134.516 256.531 134.393 256.499 134.268 256.499C134.143 256.499 134.02 256.531 133.909 256.592L129.405 259.375C129.219 259.494 129.228 259.684 129.405 259.813L134.618 263.025ZM170.359 240.972C170.469 241.031 170.59 241.062 170.713 241.062C170.836 241.062 170.958 241.031 171.068 240.972L175.571 238.199C175.758 238.08 175.749 237.88 175.571 237.75L170.368 234.539C170.257 234.477 170.134 234.446 170.009 234.446C169.884 234.446 169.761 234.477 169.65 234.539L165.156 237.312C164.96 237.431 164.979 237.631 165.156 237.76L170.359 240.972ZM157.202 249.091C157.313 249.152 157.436 249.184 157.561 249.184C157.686 249.184 157.809 249.152 157.92 249.091L162.424 246.318C162.61 246.199 162.601 245.999 162.424 245.869L157.221 242.658C157.109 242.599 156.986 242.568 156.862 242.568C156.737 242.568 156.614 242.599 156.503 242.658L152.008 245.431C151.812 245.55 151.822 245.75 152.008 245.879L157.202 249.091ZM158.722 289.577C158.61 289.518 158.487 289.487 158.363 289.487C158.238 289.487 158.115 289.518 158.004 289.577L151.085 293.836C150.898 293.955 150.908 294.155 151.085 294.284L156.288 297.496C156.399 297.557 156.522 297.589 156.647 297.589C156.772 297.589 156.895 297.557 157.006 297.496L163.925 293.227C164.121 293.107 164.102 292.908 163.925 292.778L158.722 289.577ZM147.765 254.936C147.877 254.995 148 255.026 148.124 255.026C148.249 255.026 148.372 254.995 148.483 254.936L152.987 252.153C153.174 252.034 153.164 251.834 152.987 251.714L147.784 248.503C147.673 248.441 147.55 248.409 147.425 248.409C147.3 248.409 147.177 248.441 147.066 248.503L142.572 251.285C142.376 251.395 142.385 251.595 142.572 251.724L147.765 254.936ZM141.192 258.926C141.303 258.987 141.426 259.019 141.551 259.019C141.675 259.019 141.799 258.987 141.91 258.926L146.413 256.143C146.6 256.023 146.591 255.824 146.413 255.704L141.21 252.492C141.099 252.431 140.976 252.399 140.851 252.399C140.726 252.399 140.603 252.431 140.492 252.492L135.998 255.275C135.802 255.385 135.811 255.584 135.998 255.714L141.192 258.926ZM280.539 214.341C280.428 214.28 280.304 214.248 280.18 214.248C280.055 214.248 279.932 214.28 279.821 214.341L268.706 221.163C268.519 221.283 268.528 221.482 268.706 221.612L273.909 224.824C274.02 224.883 274.143 224.913 274.268 224.913C274.392 224.913 274.515 224.883 274.627 224.824L285.76 218.031C285.956 217.912 285.947 217.712 285.76 217.582L280.539 214.341ZM266.001 223.318C265.89 223.256 265.767 223.224 265.642 223.224C265.518 223.224 265.394 223.256 265.283 223.318L260.789 226.09C260.593 226.21 260.603 226.41 260.789 226.539L265.992 229.751C266.104 229.81 266.227 229.841 266.351 229.841C266.476 229.841 266.598 229.81 266.71 229.751L271.214 226.978C271.4 226.859 271.391 226.659 271.214 226.529L266.001 223.318ZM176.942 276.032L181.437 273.249C181.632 273.129 181.614 272.93 181.437 272.81L176.243 269.588C176.131 269.529 176.008 269.499 175.884 269.499C175.759 269.499 175.636 269.529 175.525 269.588L171.021 272.361C170.835 272.481 170.844 272.68 171.021 272.81L176.224 276.022C176.335 276.082 176.458 276.114 176.582 276.116C176.707 276.118 176.83 276.089 176.942 276.032ZM252.854 231.437C252.742 231.378 252.619 231.347 252.495 231.347C252.37 231.347 252.247 231.378 252.136 231.437L247.632 234.21C247.445 234.329 247.455 234.529 247.632 234.658L252.835 237.87C252.946 237.931 253.069 237.963 253.194 237.963C253.319 237.963 253.442 237.931 253.553 237.87L258.048 235.097C258.243 234.978 258.234 234.778 258.048 234.648L252.854 231.437ZM287.112 210.281C287.001 210.222 286.878 210.192 286.753 210.192C286.629 210.192 286.506 210.222 286.394 210.281L281.9 213.044C281.704 213.164 281.713 213.363 281.9 213.483L287.103 216.705C287.215 216.764 287.338 216.794 287.462 216.794C287.587 216.794 287.709 216.764 287.821 216.705L292.325 213.932C292.511 213.812 292.502 213.613 292.325 213.483L287.112 210.281ZM298.889 209.434L286.255 201.634C286.143 201.572 286.02 201.54 285.896 201.54C285.771 201.54 285.648 201.572 285.536 201.634L281.042 204.416C280.846 204.536 280.856 204.736 281.042 204.855L293.677 212.655C293.788 212.716 293.911 212.748 294.036 212.748C294.161 212.748 294.284 212.716 294.395 212.655L298.899 209.872C299.104 209.763 299.094 209.563 298.889 209.434ZM228.283 246.618C228.172 246.556 228.049 246.524 227.924 246.524C227.8 246.524 227.676 246.556 227.565 246.618L222.027 250.039C221.84 250.158 221.849 250.358 222.027 250.478L227.23 253.689C227.341 253.75 227.464 253.782 227.589 253.782C227.714 253.782 227.837 253.75 227.948 253.689L233.487 250.268C233.673 250.148 233.664 249.949 233.487 249.829L228.283 246.618ZM244.891 236.354C244.78 236.293 244.656 236.261 244.532 236.261C244.407 236.261 244.284 236.293 244.173 236.354L237.254 240.623C237.067 240.743 237.077 240.942 237.254 241.062L242.457 244.284C242.568 244.342 242.691 244.373 242.816 244.373C242.94 244.373 243.063 244.342 243.175 244.284L250.094 240.015C250.28 239.895 250.271 239.695 250.094 239.566L244.891 236.354ZM213.056 256.013C212.945 255.954 212.822 255.924 212.697 255.924C212.573 255.924 212.45 255.954 212.338 256.013L175.31 278.874C175.124 278.994 175.133 279.193 175.31 279.323L180.513 282.535C180.625 282.594 180.748 282.624 180.872 282.624C180.997 282.624 181.12 282.594 181.231 282.535L218.259 259.664C218.446 259.544 218.437 259.345 218.259 259.215L213.056 256.013ZM173.949 280.171C173.838 280.11 173.715 280.078 173.59 280.078C173.465 280.078 173.342 280.11 173.231 280.171L167.701 283.592C167.506 283.712 167.515 283.911 167.701 284.031L172.905 287.243C173.016 287.304 173.139 287.336 173.264 287.336C173.388 287.336 173.512 287.304 173.623 287.243L179.189 283.861C179.376 283.742 179.367 283.542 179.189 283.422L173.949 280.171ZM220.665 251.315C220.554 251.256 220.431 251.226 220.306 251.226C220.182 251.226 220.059 251.256 219.947 251.315L214.418 254.737C214.222 254.856 214.231 255.056 214.418 255.185L219.621 258.397C219.732 258.456 219.855 258.487 219.98 258.487C220.104 258.487 220.227 258.456 220.339 258.397L225.878 254.976C226.073 254.866 226.055 254.667 225.878 254.537L220.665 251.315ZM166.34 284.859C166.228 284.8 166.106 284.769 165.981 284.769C165.857 284.769 165.734 284.8 165.622 284.859L160.083 288.28C159.897 288.4 159.906 288.599 160.083 288.729L165.286 291.94C165.398 291.999 165.521 292.03 165.645 292.03C165.77 292.03 165.893 291.999 166.004 291.94L171.534 288.529C171.73 288.41 171.72 288.21 171.534 288.08L166.34 284.859ZM235.892 241.9C235.781 241.841 235.658 241.81 235.533 241.81C235.409 241.81 235.286 241.841 235.174 241.9L229.645 245.311C229.449 245.431 229.458 245.63 229.645 245.76L234.848 248.971C234.96 249.03 235.082 249.061 235.207 249.061C235.331 249.061 235.454 249.03 235.566 248.971L241.105 245.55C241.301 245.431 241.282 245.231 241.105 245.101L235.892 241.9ZM259.428 227.367C259.317 227.306 259.194 227.274 259.069 227.274C258.944 227.274 258.821 227.306 258.71 227.367L254.215 230.14C254.019 230.26 254.029 230.459 254.215 230.589L259.418 233.801C259.53 233.86 259.653 233.89 259.777 233.89C259.902 233.89 260.025 233.86 260.136 233.801L264.64 231.028C264.827 230.908 264.817 230.709 264.64 230.579L259.428 227.367ZM273.834 216.176L278.329 213.403C278.524 213.284 278.515 213.084 278.329 212.954L273.125 209.743C273.014 209.684 272.891 209.653 272.766 209.653C272.642 209.653 272.519 209.684 272.407 209.743L267.904 212.526C267.717 212.645 267.727 212.845 267.904 212.964L273.107 216.186C273.22 216.247 273.344 216.278 273.47 216.278C273.597 216.278 273.721 216.247 273.834 216.186V216.176ZM244.462 216.036L248.965 213.254C249.152 213.134 249.143 212.934 248.965 212.815L243.762 209.603C243.651 209.542 243.528 209.51 243.403 209.51C243.278 209.51 243.155 209.542 243.044 209.603L238.55 212.386C238.354 212.506 238.373 212.695 238.55 212.825L243.744 216.036C243.855 216.098 243.978 216.13 244.103 216.13C244.227 216.13 244.351 216.098 244.462 216.036ZM229.542 243.595L242.69 235.476C242.876 235.357 242.867 235.157 242.69 235.027L237.487 231.816C237.375 231.757 237.252 231.726 237.128 231.726C237.003 231.726 236.88 231.757 236.769 231.816L223.621 239.945C223.435 240.054 223.444 240.254 223.621 240.384L228.824 243.595C228.939 243.649 229.064 243.672 229.189 243.664C229.314 243.655 229.435 243.615 229.542 243.545V243.595ZM266.542 220.286C266.654 220.344 266.777 220.375 266.901 220.375C267.026 220.375 267.149 220.344 267.26 220.286L271.755 217.513C271.951 217.393 271.941 217.193 271.755 217.064L266.552 213.852C266.441 213.791 266.318 213.759 266.193 213.759C266.068 213.759 265.945 213.791 265.834 213.852L261.33 216.625C261.143 216.745 261.153 216.944 261.33 217.074L266.542 220.286ZM259.829 215.707L264.323 212.934C264.519 212.815 264.51 212.615 264.323 212.486L259.12 209.274C259.008 209.215 258.885 209.184 258.761 209.184C258.636 209.184 258.514 209.215 258.402 209.274L253.898 212.057C253.712 212.176 253.721 212.376 253.898 212.496L259.101 215.717C259.218 215.769 259.345 215.79 259.472 215.78C259.598 215.769 259.72 215.727 259.829 215.657V215.707ZM222.968 247.625L227.463 244.842C227.659 244.722 227.64 244.533 227.463 244.403L222.26 241.192C222.149 241.13 222.026 241.098 221.901 241.098C221.776 241.098 221.653 241.13 221.542 241.192L217.019 243.964C216.823 244.084 216.842 244.274 217.019 244.403L222.222 247.615C222.343 247.689 222.481 247.727 222.62 247.725C222.759 247.723 222.896 247.682 223.015 247.605L222.968 247.625ZM252.005 229.232C252.117 229.291 252.24 229.322 252.364 229.322C252.489 229.322 252.612 229.291 252.723 229.232L257.227 226.46C257.413 226.34 257.404 226.14 257.227 226.011L252.024 222.799C251.912 222.74 251.789 222.709 251.665 222.709C251.54 222.709 251.418 222.74 251.306 222.799L246.811 225.582C246.616 225.702 246.625 225.901 246.811 226.021L252.005 229.232ZM190.09 267.903L194.584 265.13C194.78 265.01 194.771 264.811 194.584 264.681L189.381 261.469C189.269 261.41 189.147 261.38 189.022 261.38C188.898 261.38 188.775 261.41 188.663 261.469L184.159 264.242C183.973 264.362 183.982 264.561 184.159 264.691L189.362 267.903C189.475 267.963 189.6 267.995 189.726 267.995C189.852 267.995 189.977 267.963 190.09 267.903ZM196.664 263.843L201.167 261.07C201.354 260.95 201.345 260.751 201.167 260.621L195.974 257.41C195.863 257.348 195.74 257.316 195.615 257.316C195.49 257.316 195.367 257.348 195.256 257.41L190.752 260.182C190.565 260.302 190.575 260.502 190.752 260.631L195.955 263.843C196.065 263.9 196.187 263.93 196.309 263.93C196.432 263.93 196.553 263.9 196.664 263.843ZM183.516 271.962L188.01 269.189C188.206 269.07 188.197 268.87 188.01 268.74L182.817 265.529C182.705 265.47 182.582 265.439 182.458 265.439C182.333 265.439 182.21 265.47 182.099 265.529L177.595 268.302C177.408 268.421 177.418 268.621 177.595 268.75L182.798 271.962C182.909 272.023 183.032 272.055 183.157 272.055C183.282 272.055 183.405 272.023 183.516 271.962ZM209.811 255.724L214.315 252.951C214.502 252.831 214.492 252.632 214.315 252.502L209.112 249.291C209 249.232 208.878 249.201 208.753 249.201C208.628 249.201 208.506 249.232 208.394 249.291L203.9 252.073C203.704 252.193 203.713 252.393 203.9 252.512L209.103 255.724C209.212 255.784 209.334 255.815 209.457 255.815C209.58 255.815 209.702 255.784 209.811 255.724ZM203.284 259.783L207.788 257.011C207.974 256.891 207.965 256.691 207.788 256.562L202.501 253.35C202.39 253.289 202.267 253.257 202.142 253.257C202.017 253.257 201.894 253.289 201.783 253.35L197.288 256.123C197.093 256.243 197.102 256.442 197.288 256.562L202.492 259.783C202.607 259.847 202.735 259.881 202.865 259.881C202.994 259.881 203.122 259.847 203.238 259.783H203.284ZM216.432 251.664L220.936 248.882C221.122 248.772 221.113 248.572 220.936 248.443L215.732 245.231C215.621 245.17 215.498 245.138 215.373 245.138C215.249 245.138 215.126 245.17 215.015 245.231L210.445 247.954C210.25 248.074 210.268 248.273 210.445 248.393L215.639 251.605C215.749 251.68 215.875 251.726 216.005 251.736C216.135 251.746 216.266 251.722 216.385 251.664H216.432ZM246.513 191.59C246.624 191.651 246.747 191.683 246.872 191.683C246.997 191.683 247.12 191.651 247.231 191.59L251.735 188.807C251.921 188.697 251.912 188.498 251.735 188.368L250.355 187.51C250.243 187.451 250.12 187.421 249.996 187.421C249.871 187.421 249.748 187.451 249.637 187.51L245.133 190.283C244.946 190.403 244.956 190.602 245.133 190.732L246.513 191.59ZM214.166 213.932C214.277 213.993 214.4 214.025 214.525 214.025C214.65 214.025 214.773 213.993 214.884 213.932L219.378 211.159C219.574 211.039 219.565 210.84 219.378 210.71L214.175 207.499C214.064 207.44 213.941 207.409 213.816 207.409C213.692 207.409 213.569 207.44 213.457 207.499L208.954 210.271C208.767 210.391 208.776 210.591 208.954 210.72L214.166 213.932ZM227.314 205.813C227.425 205.872 227.548 205.902 227.673 205.902C227.797 205.902 227.92 205.872 228.032 205.813L232.535 203.04C232.722 202.92 232.713 202.721 232.535 202.591L227.332 199.379C227.221 199.318 227.098 199.286 226.973 199.286C226.848 199.286 226.725 199.318 226.614 199.379L222.083 202.152C221.887 202.272 221.896 202.471 222.083 202.601L227.314 205.813ZM206.137 218.889C206.249 218.948 206.372 218.979 206.496 218.979C206.621 218.979 206.744 218.948 206.855 218.889L211.35 216.106C211.546 215.987 211.536 215.787 211.35 215.667L206.147 212.446C206.035 212.387 205.912 212.356 205.788 212.356C205.663 212.356 205.54 212.387 205.429 212.446L200.925 215.219C200.739 215.338 200.748 215.538 200.925 215.667L206.137 218.889ZM220.74 209.912C220.851 209.971 220.974 210.002 221.099 210.002C221.223 210.002 221.346 209.971 221.458 209.912L225.962 207.139C226.148 207.02 226.139 206.82 225.962 206.691L220.758 203.479C220.647 203.42 220.524 203.389 220.399 203.389C220.275 203.389 220.152 203.42 220.04 203.479L215.546 206.252C215.35 206.371 215.359 206.571 215.546 206.701L220.74 209.912ZM192.943 227.008C193.054 227.069 193.177 227.101 193.302 227.101C193.427 227.101 193.55 227.069 193.661 227.008L198.156 224.225C198.351 224.106 198.333 223.906 198.156 223.786L192.962 220.575C192.851 220.514 192.728 220.482 192.603 220.482C192.478 220.482 192.355 220.514 192.244 220.575L187.74 223.358C187.554 223.467 187.563 223.667 187.74 223.796L192.943 227.008ZM199.517 222.949C199.629 223.008 199.751 223.038 199.876 223.038C200 223.038 200.123 223.008 200.235 222.949L204.729 220.166C204.925 220.046 204.916 219.847 204.729 219.727L199.536 216.515C199.425 216.454 199.302 216.422 199.177 216.422C199.052 216.422 198.929 216.454 198.818 216.515L194.314 219.298C194.127 219.408 194.137 219.607 194.314 219.737L199.517 222.949ZM233.319 199.719C233.43 199.778 233.553 199.808 233.678 199.808C233.802 199.808 233.925 199.778 234.037 199.719L238.54 196.946C238.727 196.826 238.718 196.627 238.54 196.497L237.151 195.639C237.039 195.58 236.917 195.55 236.792 195.55C236.668 195.55 236.545 195.58 236.433 195.639L231.939 198.412C231.743 198.532 231.761 198.731 231.939 198.861L233.319 199.719ZM253.05 187.53C253.159 187.591 253.28 187.623 253.404 187.623C253.527 187.623 253.649 187.591 253.758 187.53L258.262 184.747C258.449 184.628 258.439 184.438 258.262 184.308L256.882 183.451C256.771 183.389 256.648 183.357 256.523 183.357C256.398 183.357 256.275 183.389 256.164 183.451L251.66 186.223C251.474 186.343 251.483 186.543 251.66 186.672L253.05 187.53ZM263.969 194.283C264.08 194.342 264.203 194.372 264.328 194.372C264.452 194.372 264.575 194.342 264.687 194.283L269.19 191.5C269.377 191.38 269.368 191.181 269.19 191.061L263.987 187.839C263.876 187.78 263.753 187.75 263.628 187.75C263.504 187.75 263.381 187.78 263.269 187.839L258.775 190.612C258.579 190.732 258.598 190.931 258.775 191.061L263.969 194.283ZM280.408 212.127L284.912 209.344C285.098 209.234 285.089 209.035 284.912 208.905L279.709 205.693C279.597 205.634 279.474 205.604 279.35 205.604C279.225 205.604 279.102 205.634 278.991 205.693L274.496 208.476C274.3 208.596 274.31 208.795 274.496 208.915L279.699 212.127C279.809 212.186 279.931 212.217 280.054 212.217C280.177 212.217 280.298 212.186 280.408 212.127ZM239.893 195.659C240.004 195.718 240.127 195.749 240.252 195.749C240.376 195.749 240.499 195.718 240.611 195.659L245.114 192.886C245.301 192.767 245.292 192.567 245.114 192.437L243.725 191.58C243.613 191.521 243.49 191.49 243.366 191.49C243.241 191.49 243.119 191.521 243.007 191.58L238.512 194.352C238.326 194.472 238.335 194.672 238.512 194.801L239.893 195.659ZM186.369 231.068C186.48 231.129 186.603 231.161 186.728 231.161C186.853 231.161 186.976 231.129 187.087 231.068L191.582 228.285C191.768 228.165 191.759 227.976 191.582 227.846L186.379 224.634C186.268 224.573 186.145 224.541 186.02 224.541C185.895 224.541 185.772 224.573 185.661 224.634L181.166 227.417C180.98 227.537 180.989 227.726 181.166 227.856L186.369 231.068Z" fill="#455A64"/>
<path d="M213.103 274.785L262.337 244.373L292.642 263.085L243.399 293.496L213.103 274.785Z" fill="#263238"/>
<path d="M103.66 121.541L250.392 30.9245C253.255 29.1491 255.604 30.6053 255.604 34.1462V155.702C255.557 156.601 255.314 157.476 254.892 158.256C254.471 159.035 253.885 159.698 253.18 160.191L102.728 253.111C101.394 253.929 100.303 253.26 100.303 251.615V127.754C100.37 126.51 100.709 125.3 101.292 124.221C101.874 123.142 102.686 122.224 103.66 121.541Z" fill="#F5F5F5"/>
<path d="M255.651 37.0593V34.1468C255.651 30.6059 253.301 29.1597 250.439 30.9251L103.66 121.541C102.686 122.225 101.875 123.143 101.292 124.222C100.709 125.301 100.37 126.511 100.303 127.755V132.972L255.651 37.0593Z" fill="#F03E3D"/>
<path d="M233.757 43.6915C233.233 44.0562 232.797 44.548 232.484 45.1268C232.172 45.7057 231.991 46.3553 231.957 47.0229C231.957 48.2497 232.759 48.7484 233.757 48.13C234.279 47.7664 234.713 47.276 235.024 46.6988C235.335 46.1216 235.514 45.474 235.547 44.8086C235.547 43.5818 234.745 43.0831 233.757 43.6915Z" fill="white"/>
<path d="M240.881 39.2924C240.359 39.6582 239.925 40.1504 239.614 40.7292C239.303 41.308 239.123 41.9571 239.091 42.6238C239.091 43.8506 239.893 44.3394 240.881 43.7309C241.405 43.3662 241.841 42.8745 242.154 42.2956C242.466 41.7167 242.647 41.0671 242.681 40.3995C242.681 39.1727 241.879 38.674 240.881 39.2924Z" fill="white"/>
<path d="M248.014 34.8839C247.492 35.2503 247.057 35.7425 246.745 36.321C246.432 36.8995 246.251 37.5483 246.215 38.2153C246.215 39.4421 247.026 39.9408 248.014 39.3224C248.537 38.9593 248.973 38.4693 249.286 37.8921C249.598 37.315 249.779 36.667 249.814 36.001C249.814 34.7742 249.003 34.2755 248.014 34.8839Z" fill="white"/>
<path d="M136.536 192.484L130.827 188.958L116.844 214.863L122.554 218.389L136.536 192.484Z" fill="#37474F"/>
<path d="M136.547 192.476L133.697 190.716L119.714 216.621L122.565 218.381L136.547 192.476Z" fill="#263238"/>
<path d="M101.515 265.449C98.9138 270.286 86.596 262.606 89.1882 257.838L121.312 204.247C121.398 204.102 121.534 203.998 121.69 203.957C121.846 203.916 122.011 203.941 122.151 204.027L128.603 208.017C128.742 208.101 128.845 208.24 128.891 208.404C128.936 208.567 128.92 208.743 128.846 208.895L101.515 265.449Z" fill="#4DADF7"/>
<path opacity="0.1" d="M101.515 265.449L128.836 208.895C128.91 208.743 128.926 208.567 128.881 208.403C128.836 208.24 128.733 208.101 128.594 208.017L125.657 206.202L94.3353 265.758C97.1887 267.264 100.34 267.633 101.515 265.449Z" fill="black"/>
<path d="M195.974 139.284C195.974 138.875 195.974 138.476 195.918 138.077C195.862 137.678 195.918 137.29 195.834 136.901C195.75 136.512 195.834 136.382 195.759 136.123C195.694 135.444 195.601 134.776 195.498 134.128C195.451 133.838 195.405 133.539 195.349 133.25C195.293 132.961 195.246 132.701 195.19 132.432C195.032 131.694 194.864 130.976 194.668 130.288C194.566 129.958 194.472 129.629 194.37 129.29C194.35 129.242 194.334 129.192 194.323 129.141C194.211 128.821 194.109 128.512 193.997 128.213C193.885 127.914 193.736 127.515 193.586 127.216C193.437 126.916 193.381 126.727 193.26 126.487C193.193 126.308 193.111 126.134 193.018 125.969C192.924 125.759 192.822 125.55 192.71 125.35C192.598 125.151 192.663 125.251 192.635 125.211C192.607 125.171 192.44 124.852 192.337 124.672C192.234 124.493 192.197 124.443 192.132 124.333C191.654 123.528 191.118 122.764 190.528 122.049L190.23 121.69L189.978 121.411C189.875 121.291 189.763 121.181 189.652 121.061C189.359 120.732 189.047 120.422 188.719 120.134C188.561 119.984 188.393 119.845 188.225 119.715L187.712 119.316C187.445 119.107 187.168 118.914 186.882 118.737L186.658 118.588H186.612L173.399 110.429L173.324 110.379C170.789 108.867 167.927 108.093 165.025 108.135C160.699 108.135 155.813 109.651 150.637 112.843C132.865 123.814 118.449 150.525 118.449 172.489C118.449 183.46 122.029 191.14 127.82 194.751H127.876L141.098 202.9H141.154L141.313 202.99C141.561 203.147 141.816 203.29 142.077 203.419C142.394 203.588 142.721 203.738 143.01 203.878C143.299 204.017 143.597 204.127 143.896 204.227L144.371 204.376C144.538 204.444 144.709 204.498 144.884 204.536C145.056 204.592 145.23 204.638 145.406 204.675C145.532 204.715 145.659 204.745 145.789 204.765C146.012 204.815 146.255 204.865 146.488 204.895C146.54 204.904 146.594 204.904 146.646 204.895C146.926 204.948 147.206 204.988 147.486 205.015C152.278 205.553 157.855 204.107 163.822 200.426C181.604 189.455 196.02 162.734 196.02 140.78C195.974 140.322 195.974 139.803 195.974 139.284ZM174.406 123.754C175.104 126.484 175.446 129.303 175.422 132.133C175.422 151.503 162.172 176.019 146.516 185.734C144.227 187.19 141.756 188.288 139.177 188.996C138.483 186.262 138.141 183.44 138.161 180.608C138.161 161.238 151.411 136.721 167.067 127.006C169.347 125.556 171.809 124.461 174.378 123.754H174.406Z" fill="#4DADF7"/>
<path opacity="0.1" d="M140.557 202.621L127.717 194.702C121.927 191.081 118.346 183.381 118.346 172.449C118.346 162.654 121.218 151.922 125.964 142.068L139.187 150.207C134.431 160.061 131.568 170.793 131.568 180.588C131.568 191.32 134.981 198.911 140.557 202.621Z" fill="black"/>
<path opacity="0.4" d="M195.974 139.285C195.974 138.876 195.974 138.477 195.918 138.078C195.862 137.679 195.918 137.29 195.834 136.901C195.75 136.512 195.834 136.382 195.759 136.123C195.694 135.445 195.601 134.776 195.498 134.128C195.452 133.839 195.405 133.54 195.349 133.25C195.293 132.961 195.246 132.702 195.19 132.432C195.032 131.694 194.864 130.976 194.668 130.288C194.566 129.959 194.472 129.63 194.37 129.291C194.35 129.242 194.335 129.192 194.323 129.141C194.211 128.822 194.109 128.513 193.997 128.213C193.885 127.914 193.736 127.515 193.587 127.216C193.437 126.917 193.381 126.727 193.26 126.488C193.193 126.308 193.112 126.135 193.018 125.969C192.925 125.76 192.822 125.55 192.71 125.351C192.598 125.151 192.663 125.251 192.635 125.211C192.608 125.171 192.44 124.852 192.337 124.672C192.235 124.493 192.197 124.443 192.132 124.333C191.654 123.528 191.118 122.764 190.528 122.049L190.23 121.69L189.978 121.411C189.875 121.291 189.764 121.181 189.652 121.062C189.359 120.733 189.047 120.423 188.719 120.134C188.561 119.985 188.393 119.845 188.225 119.715L187.712 119.316C187.446 119.107 187.169 118.914 186.882 118.738C181.036 114.938 172.895 115.386 163.841 120.962C146.059 131.934 131.643 158.645 131.643 180.608C131.643 191.729 135.373 199.499 141.294 203.03C141.542 203.187 141.797 203.33 142.059 203.459C142.376 203.629 142.702 203.778 142.991 203.918C143.28 204.057 143.579 204.167 143.877 204.267L144.353 204.417C144.519 204.485 144.691 204.538 144.866 204.576C145.037 204.632 145.212 204.679 145.388 204.716C145.513 204.755 145.641 204.785 145.77 204.806C145.994 204.855 146.236 204.905 146.469 204.935C146.522 204.945 146.575 204.945 146.628 204.935C146.908 204.988 147.187 205.028 147.467 205.055C152.26 205.594 157.836 204.147 163.804 200.467C181.586 189.495 196.002 162.774 196.002 140.821C195.974 140.322 195.974 139.803 195.974 139.285ZM160.54 194.452C156.549 196.916 152.708 198.213 149.425 198.213C143.262 198.213 140.427 193.714 139.168 188.996C138.474 186.263 138.132 183.441 138.152 180.608C138.152 161.238 151.402 136.721 167.058 127.006C169.347 125.554 171.818 124.459 174.397 123.755C175.617 123.431 176.869 123.261 178.126 123.246C188.318 123.246 189.409 135.554 189.409 140.851C189.446 160.181 176.196 184.767 160.54 194.452Z" fill="white"/>
<path opacity="0.1" d="M189.446 140.85C189.446 160.22 176.206 184.737 160.54 194.452C156.549 196.915 152.708 198.212 149.425 198.212C143.262 198.212 140.427 193.714 139.168 188.996C141.747 188.288 144.218 187.189 146.507 185.734C162.191 176.049 175.413 151.503 175.413 132.133C175.437 129.303 175.095 126.484 174.397 123.754C175.617 123.431 176.869 123.26 178.126 123.246C188.346 123.276 189.446 135.554 189.446 140.85Z" fill="black"/>
<path opacity="0.7" d="M183.852 137.469C183.852 156.839 170.611 181.356 154.945 191.071C150.954 193.534 147.113 194.831 143.83 194.831C143.177 194.833 142.526 194.776 141.881 194.661C140.621 192.996 139.703 191.066 139.187 188.996C138.492 186.262 138.15 183.44 138.17 180.608C138.17 161.238 151.421 136.721 167.077 127.006C169.365 125.553 171.837 124.459 174.415 123.754C175.636 123.431 176.887 123.26 178.145 123.246C178.801 123.244 179.456 123.301 180.103 123.415C183.329 127.475 183.852 133.988 183.852 137.469Z" fill="white"/>
<path d="M206.389 117.292V139.375C206.389 141.03 207.48 141.699 208.814 140.871L344.114 57.3164C344.818 56.8238 345.405 56.161 345.826 55.3813C346.247 54.6016 346.491 53.727 346.538 52.828V30.7151C346.538 29.0594 345.447 28.3911 344.114 29.2189L208.814 112.773C208.106 113.269 207.517 113.937 207.096 114.722C206.675 115.507 206.433 116.388 206.389 117.292Z" fill="#E6E6E6"/>
<path d="M208.814 112.773L232.908 97.9012V125.969L208.814 140.84C207.48 141.668 206.389 141 206.389 139.344V117.291C206.433 116.387 206.675 115.507 207.096 114.722C207.517 113.937 208.106 113.269 208.814 112.773Z" fill="#BA68C8"/>
<path d="M224.936 110.15C223.416 109.213 221.495 109.362 219.528 110.579C217.658 111.86 216.102 113.602 214.991 115.658C213.88 117.715 213.245 120.026 213.14 122.399C213.074 123.936 213.528 125.448 214.418 126.658L211.825 131.405C211.657 131.745 211.616 132.141 211.711 132.512C211.806 132.883 212.031 133.201 212.338 133.4C212.552 133.529 212.793 133.597 213.038 133.6C213.283 133.6 213.525 133.531 213.738 133.399C213.95 133.268 214.127 133.079 214.25 132.852L216.814 128.104C217.091 128.159 217.372 128.189 217.653 128.194C218.798 128.171 219.917 127.827 220.898 127.196C222.765 125.912 224.317 124.169 225.427 122.113C226.536 120.057 227.17 117.748 227.276 115.377C227.304 112.953 226.465 111.098 224.936 110.15ZM219.528 124.613C219.2 124.99 218.763 125.237 218.287 125.313C217.811 125.39 217.325 125.292 216.908 125.035C216.492 124.778 216.169 124.377 215.992 123.898C215.816 123.419 215.797 122.891 215.938 122.399C216.046 120.553 216.553 118.759 217.419 117.159C218.284 115.558 219.485 114.193 220.926 113.172C221.486 112.791 222.129 112.575 222.791 112.544C223.064 112.533 223.335 112.602 223.575 112.743C223.925 113.064 224.195 113.475 224.358 113.937C224.521 114.399 224.572 114.898 224.507 115.387C224.399 117.231 223.894 119.024 223.03 120.625C222.166 122.226 220.967 123.591 219.528 124.613Z" fill="white"/>
</svg>
