<svg xmlns="http://www.w3.org/2000/svg" width="32" height="32" viewBox="0 0 32 32"><path style="line-height:normal;text-indent:0;text-align:start;text-decoration-line:none;text-decoration-style:solid;text-decoration-color:#000;text-transform:none;block-progression:tb;white-space:normal;isolation:auto;mix-blend-mode:normal;solid-color:#000;solid-opacity:1" d="M 16.572266 3.9941406 L 16.550781 3.9980469 L 15.960938 4.015625 L 15.939453 4.015625 L 15.916016 4.015625 L 15.595703 4.0546875 L 15.099609 4.1171875 L 15.224609 5.109375 L 15.720703 5.046875 L 16.013672 5.0117188 L 16.558594 4.9921875 L 16.626953 4.9921875 L 17.126953 5.0195312 L 17.181641 4.0195312 L 16.683594 3.9941406 L 16.595703 3.9941406 L 16.572266 3.9941406 z M 18.298828 4.2226562 L 17.982422 5.171875 L 18.457031 5.3300781 L 18.634766 5.3886719 L 19.306641 5.7167969 L 19.755859 5.9355469 L 20.193359 5.0351562 L 19.744141 4.8164062 L 19.046875 4.4765625 L 19.017578 4.4628906 L 18.986328 4.4511719 L 18.773438 4.3808594 L 18.298828 4.2226562 z M 13.998047 4.4667969 L 13.544922 4.6777344 L 13.066406 4.8984375 L 13.027344 4.9140625 L 12.992188 4.9394531 L 12.601562 5.2109375 L 12.191406 5.4941406 L 12.759766 6.3164062 L 13.171875 6.0332031 L 13.523438 5.7871094 L 13.962891 5.5859375 L 14.417969 5.375 L 13.998047 4.4667969 z M 21.125 5.7480469 L 20.410156 6.4472656 L 20.759766 6.8046875 L 21.138672 7.1933594 L 21.347656 7.4980469 L 21.630859 7.9121094 L 22.455078 7.3457031 L 22.173828 6.9335938 L 21.939453 6.5917969 L 21.914062 6.5566406 L 21.884766 6.5253906 L 21.474609 6.1054688 L 21.125 5.7480469 z M 16.5 5.9960938 C 13.767368 5.9960938 11.548768 8.242622 11.537109 10.996094 L 4.5 10.996094 A 0.50005 0.50005 0 0 0 4 11.496094 L 4 25.996094 L 2.5 25.996094 A 0.50005 0.50005 0 0 0 2 26.496094 C 2 27.904694 3.2596669 28.996094 4.7402344 28.996094 L 28.259766 28.996094 C 29.740333 28.996094 31 27.904694 31 26.496094 A 0.50005 0.50005 0 0 0 30.5 25.996094 L 29 25.996094 L 29 11.496094 A 0.50005 0.50005 0 0 0 28.5 10.996094 L 21.462891 10.996094 C 21.451232 8.242622 19.232623 5.9960938 16.5 5.9960938 z M 11.306641 6.2675781 L 11.015625 6.6738281 L 10.498047 7.3964844 L 10.478516 7.421875 L 10.462891 7.4492188 L 10.410156 7.5488281 L 10.175781 7.9902344 L 11.056641 8.4609375 L 11.292969 8.0195312 L 11.330078 7.9511719 L 11.828125 7.2558594 L 12.119141 6.8496094 L 11.306641 6.2675781 z M 16.5 6.9960938 C 18.692773 6.9960938 20.464844 8.7881782 20.464844 11.017578 C 20.464844 12.209078 19.88819 12.988231 19.208984 14.019531 C 18.598973 14.945731 18.007337 16.1327 17.878906 17.75 L 17 17.75 L 17 15.052734 A 0.50004997 0.50004997 0 1 0 16 15.052734 L 16 17.75 L 15.121094 17.75 C 14.992663 16.1327 14.401024 14.945731 13.791016 14.019531 C 13.111812 12.988231 12.535156 12.209078 12.535156 11.017578 C 12.535156 8.7881782 14.307216 6.9960938 16.5 6.9960938 z M 23.009766 8.3574219 L 22.052734 8.6484375 L 22.197266 9.1269531 L 22.310547 9.5 L 22.3125 9.5117188 L 22.423828 10.052734 L 22.525391 10.542969 L 23.505859 10.341797 L 23.404297 9.8515625 L 23.291016 9.2988281 L 23.287109 9.2753906 L 23.279297 9.2539062 L 23.154297 8.8359375 L 23.009766 8.3574219 z M 9.7695312 9.0507812 L 9.6601562 9.5371094 L 9.6152344 9.7324219 L 9.5039062 10.220703 L 10.480469 10.441406 L 10.589844 9.9550781 L 10.634766 9.7597656 L 10.746094 9.2714844 L 9.7695312 9.0507812 z M 5 11.996094 L 11.650391 11.996094 C 11.885668 13.008918 12.449302 13.797411 12.957031 14.568359 C 13.617518 15.571159 14.212891 16.5654 14.212891 18.25 L 14.212891 20.425781 A 0.50004997 0.50004997 0 0 0 14.712891 20.925781 L 18.287109 20.925781 A 0.50004997 0.50004997 0 0 0 18.787109 20.425781 L 18.787109 18.25 C 18.787109 16.5654 19.38248 15.571159 20.042969 14.568359 C 20.550699 13.797411 21.114332 13.008918 21.349609 11.996094 L 28 11.996094 L 28 25.996094 L 5 25.996094 L 5 11.996094 z M 6.5 13 A 0.50005 0.50005 0 0 0 6 13.5 L 6 24.5 A 0.50005 0.50005 0 0 0 6.5 25 L 26.5 25 A 0.50005 0.50005 0 0 0 27 24.5 L 27 13.5 A 0.50005 0.50005 0 0 0 26.5 13 L 22.5 13 L 22 13 L 22 14 L 22.5 14 L 26 14 L 26 24 L 7 24 L 7 14 L 10.5 14 L 11 14 L 11 13 L 10.5 13 L 6.5 13 z M 15.212891 18.75 L 16.423828 18.75 A 0.50004997 0.50004997 0 0 0 16.576172 18.75 L 17.787109 18.75 L 17.787109 19.925781 L 15.212891 19.925781 L 15.212891 18.75 z M 15.136719 21.996094 A 0.50064426 0.50064426 0 0 0 15.1875 22.996094 L 17.8125 22.996094 A 0.50004997 0.50004997 0 1 0 17.8125 21.996094 L 15.1875 21.996094 A 0.50004997 0.50004997 0 0 0 15.136719 21.996094 z M 3.234375 26.996094 L 4.5 26.996094 L 28.5 26.996094 L 29.765625 26.996094 C 29.51862 27.545394 29.023394 27.996094 28.259766 27.996094 L 4.7402344 27.996094 C 3.9766063 27.996094 3.4813805 27.545394 3.234375 26.996094 z " color="#000" enable-background="accumulate" font-family="sans-serif" font-weight="400" overflow="visible"/></svg>