<svg width="32" height="29" viewBox="0 0 32 29" fill="none" xmlns="http://www.w3.org/2000/svg">
<path d="M16.5723 1.99414L16.5508 1.99805L15.9609 2.01562H15.9395H15.916L15.5957 2.05469L15.0996 2.11719L15.2246 3.10938L15.7207 3.04688L16.0137 3.01172L16.5586 2.99219H16.627L17.127 3.01953L17.1816 2.01953L16.6836 1.99414H16.5957H16.5723ZM18.2988 2.22266L17.9824 3.17188L18.457 3.33008L18.6348 3.38867L19.3066 3.7168L19.7559 3.93555L20.1934 3.03516L19.7441 2.81641L19.0469 2.47656L19.0176 2.46289L18.9863 2.45117L18.7734 2.38086L18.2988 2.22266ZM13.998 2.4668L13.5449 2.67773L13.0664 2.89844L13.0273 2.91406L12.9922 2.93945L12.6016 3.21094L12.1914 3.49414L12.7598 4.31641L13.1719 4.0332L13.5234 3.78711L13.9629 3.58594L14.418 3.375L13.998 2.4668ZM21.125 3.74805L20.4102 4.44727L20.7598 4.80469L21.1387 5.19336L21.3477 5.49805L21.6309 5.91211L22.4551 5.3457L22.1738 4.93359L21.9395 4.5918L21.9141 4.55664L21.8848 4.52539L21.4746 4.10547L21.125 3.74805ZM16.5 3.99609C13.7674 3.99609 11.5488 6.24262 11.5371 8.99609H4.5C4.3674 8.99611 4.24023 9.04879 4.14646 9.14256C4.0527 9.23632 4.00001 9.36349 4 9.49609V23.9961H2.5C2.3674 23.9961 2.24023 24.0488 2.14646 24.1426C2.0527 24.2363 2.00001 24.3635 2 24.4961C2 25.9047 3.25967 26.9961 4.74023 26.9961H28.2598C29.7403 26.9961 31 25.9047 31 24.4961C31 24.3635 30.9473 24.2363 30.8535 24.1426C30.7598 24.0488 30.6326 23.9961 30.5 23.9961H29V9.49609C29 9.36349 28.9473 9.23632 28.8535 9.14256C28.7598 9.04879 28.6326 8.99611 28.5 8.99609H21.4629C21.4512 6.24262 19.2326 3.99609 16.5 3.99609ZM11.3066 4.26758L11.0156 4.67383L10.498 5.39648L10.4785 5.42188L10.4629 5.44922L10.4102 5.54883L10.1758 5.99023L11.0566 6.46094L11.293 6.01953L11.3301 5.95117L11.8281 5.25586L12.1191 4.84961L11.3066 4.26758ZM16.5 4.99609C18.6928 4.99609 20.4648 6.78818 20.4648 9.01758C20.4648 10.2091 19.8882 10.9882 19.209 12.0195C18.599 12.9457 18.0073 14.1327 17.8789 15.75H17V13.0527C17.0009 12.9865 16.9887 12.9207 16.964 12.8592C16.9393 12.7977 16.9026 12.7418 16.8561 12.6946C16.8096 12.6474 16.7541 12.6099 16.693 12.5844C16.6319 12.5588 16.5663 12.5456 16.5 12.5456C16.4337 12.5456 16.3681 12.5588 16.307 12.5844C16.2459 12.6099 16.1904 12.6474 16.1439 12.6946C16.0974 12.7418 16.0607 12.7977 16.036 12.8592C16.0113 12.9207 15.9991 12.9865 16 13.0527V15.75H15.1211C14.9927 14.1327 14.401 12.9457 13.791 12.0195C13.1118 10.9882 12.5352 10.2091 12.5352 9.01758C12.5352 6.78818 14.3072 4.99609 16.5 4.99609ZM23.0098 6.35742L22.0527 6.64844L22.1973 7.12695L22.3105 7.5L22.3125 7.51172L22.4238 8.05273L22.5254 8.54297L23.5059 8.3418L23.4043 7.85156L23.291 7.29883L23.2871 7.27539L23.2793 7.25391L23.1543 6.83594L23.0098 6.35742ZM9.76953 7.05078L9.66016 7.53711L9.61523 7.73242L9.50391 8.2207L10.4805 8.44141L10.5898 7.95508L10.6348 7.75977L10.7461 7.27148L9.76953 7.05078ZM5 9.99609H11.6504C11.8857 11.0089 12.4493 11.7974 12.957 12.5684C13.6175 13.5712 14.2129 14.5654 14.2129 16.25V18.4258C14.2129 18.5584 14.2656 18.6856 14.3594 18.7793C14.4531 18.8731 14.5803 18.9258 14.7129 18.9258H18.2871C18.4197 18.9258 18.5469 18.8731 18.6406 18.7793C18.7344 18.6856 18.7871 18.5584 18.7871 18.4258V16.25C18.7871 14.5654 19.3825 13.5712 20.043 12.5684C20.5507 11.7974 21.1143 11.0089 21.3496 9.99609H28V23.9961H5V9.99609ZM6.5 11C6.3674 11 6.24023 11.0527 6.14646 11.1465C6.0527 11.2402 6.00001 11.3674 6 11.5V22.5C6.00001 22.6326 6.0527 22.7598 6.14646 22.8535C6.24023 22.9473 6.3674 23 6.5 23H26.5C26.6326 23 26.7598 22.9473 26.8535 22.8535C26.9473 22.7598 27 22.6326 27 22.5V11.5C27 11.3674 26.9473 11.2402 26.8535 11.1465C26.7598 11.0527 26.6326 11 26.5 11H22.5H22V12H22.5H26V22H7V12H10.5H11V11H10.5H6.5ZM15.2129 16.75H16.4238C16.4743 16.7578 16.5257 16.7578 16.5762 16.75H17.7871V17.9258H15.2129V16.75ZM15.1367 19.9961C15.0041 20.0028 14.8796 20.062 14.7906 20.1605C14.7016 20.259 14.6554 20.3889 14.6621 20.5215C14.6688 20.6541 14.728 20.7786 14.8265 20.8676C14.925 20.9566 15.0549 21.0028 15.1875 20.9961H17.8125C17.8788 20.997 17.9445 20.9848 18.006 20.9601C18.0675 20.9354 18.1235 20.8987 18.1707 20.8522C18.2178 20.8057 18.2553 20.7502 18.2809 20.6891C18.3064 20.628 18.3196 20.5624 18.3196 20.4961C18.3196 20.4298 18.3064 20.3642 18.2809 20.3031C18.2553 20.242 18.2178 20.1865 18.1707 20.14C18.1235 20.0935 18.0675 20.0568 18.006 20.0321C17.9445 20.0074 17.8788 19.9952 17.8125 19.9961H15.1875C15.1706 19.9952 15.1536 19.9952 15.1367 19.9961V19.9961ZM3.23438 24.9961H4.5H28.5H29.7656C29.5186 25.5454 29.0234 25.9961 28.2598 25.9961H4.74023C3.97661 25.9961 3.48138 25.5454 3.23438 24.9961Z" fill="#B00000"/>
</svg>
