<svg width="500" height="500" viewBox="0 0 500 500" fill="none" xmlns="http://www.w3.org/2000/svg">
<path d="M449.9 398.49H416.78V398.74H449.9V398.49Z" fill="#EBEBEB"/>
<path d="M331.22 401.21H322.53V401.46H331.22V401.21Z" fill="#EBEBEB"/>
<path d="M415.78 389.21H396.59V389.46H415.78V389.21Z" fill="#EBEBEB"/>
<path d="M95.65 390.89H52.46V391.14H95.65V390.89Z" fill="#EBEBEB"/>
<path d="M110.89 390.89H104.56V391.14H110.89V390.89Z" fill="#EBEBEB"/>
<path d="M225.15 395.11H131.47V395.36H225.15V395.11Z" fill="#EBEBEB"/>
<path d="M237 337.8H43.92C42.4056 337.8 40.9532 337.198 39.8824 336.128C38.8115 335.057 38.21 333.604 38.21 332.09V60.66C38.2231 59.1543 38.8305 57.7147 39.9 56.6547C40.9694 55.5947 42.4142 54.9999 43.92 55H237C238.514 55 239.967 55.6016 241.038 56.6724C242.108 57.7433 242.71 59.1956 242.71 60.71V332.09C242.71 333.604 242.108 335.057 241.038 336.128C239.967 337.198 238.514 337.8 237 337.8V337.8ZM43.92 55.2C42.4727 55.2026 41.0855 55.7787 40.0621 56.8021C39.0387 57.8255 38.4626 59.2127 38.46 60.66V332.09C38.4626 333.537 39.0387 334.924 40.0621 335.948C41.0855 336.971 42.4727 337.547 43.92 337.55H237C238.447 337.547 239.834 336.971 240.858 335.948C241.881 334.924 242.457 333.537 242.46 332.09V60.66C242.457 59.2127 241.881 57.8255 240.858 56.8021C239.834 55.7787 238.447 55.2026 237 55.2H43.92Z" fill="#EBEBEB"/>
<path d="M453.31 337.8H260.21C258.696 337.797 257.246 337.195 256.175 336.125C255.105 335.054 254.503 333.604 254.5 332.09V60.66C254.516 59.1551 255.124 57.7171 256.193 56.6576C257.262 55.5981 258.705 55.0025 260.21 55H453.31C454.812 55.0052 456.252 55.6022 457.317 56.6617C458.382 57.7212 458.987 59.1578 459 60.66V332.09C459 333.601 458.401 335.05 457.335 336.121C456.268 337.191 454.821 337.795 453.31 337.8V337.8ZM260.21 55.2C258.763 55.2026 257.375 55.7787 256.352 56.8021C255.329 57.8255 254.753 59.2127 254.75 60.66V332.09C254.753 333.537 255.329 334.924 256.352 335.948C257.375 336.971 258.763 337.547 260.21 337.55H453.31C454.757 337.547 456.145 336.971 457.168 335.948C458.191 334.924 458.767 333.537 458.77 332.09V60.66C458.767 59.2127 458.191 57.8255 457.168 56.8021C456.145 55.7787 454.757 55.2026 453.31 55.2H260.21Z" fill="#EBEBEB"/>
<path d="M500 382.4H0V382.65H500V382.4Z" fill="#EBEBEB"/>
<path d="M314.72 171.9H169.02L177.71 72.6001H323.41L314.72 171.9Z" fill="#F5F5F5"/>
<path d="M265.06 154.22H185.97V155H265.06V154.22Z" fill="#E0E0E0"/>
<path d="M266.76 139.82H187V139.39L191.81 84.4702H271.6V84.9002L266.76 139.82ZM187.83 139H266L270.7 85.2202H192.53L187.83 139Z" fill="#E0E0E0"/>
<path d="M190.23 166H188.08C187.645 166.008 187.214 165.924 186.815 165.752C186.415 165.581 186.057 165.326 185.764 165.005C185.47 164.685 185.249 164.305 185.114 163.892C184.979 163.479 184.933 163.042 184.98 162.61L185.17 160.46C185.26 159.558 185.679 158.72 186.346 158.106C187.014 157.492 187.883 157.145 188.79 157.13H190.94C191.374 157.122 191.806 157.206 192.205 157.378C192.604 157.549 192.963 157.804 193.256 158.124C193.549 158.445 193.771 158.825 193.906 159.238C194.041 159.651 194.087 160.088 194.04 160.52L193.85 162.67C193.759 163.572 193.341 164.41 192.673 165.024C192.006 165.637 191.136 165.985 190.23 166V166ZM188.79 157.91C188.079 157.921 187.397 158.193 186.873 158.674C186.349 159.156 186.021 159.812 185.95 160.52L185.76 162.67C185.726 162.996 185.761 163.326 185.862 163.638C185.964 163.949 186.13 164.236 186.35 164.48C186.57 164.718 186.838 164.907 187.136 165.035C187.434 165.162 187.756 165.226 188.08 165.22H190.23C190.942 165.209 191.625 164.937 192.151 164.456C192.676 163.975 193.006 163.318 193.08 162.61L193.26 160.46C193.294 160.134 193.259 159.804 193.157 159.492C193.056 159.18 192.89 158.893 192.67 158.65C192.45 158.411 192.183 158.222 191.884 158.094C191.586 157.966 191.264 157.904 190.94 157.91H188.79Z" fill="#E0E0E0"/>
<path d="M226.4 149.65H186.12L186.49 145.38H226.77L226.4 149.65ZM187 148.87H225.71L225.95 146.16H187.21L187 148.87Z" fill="#E0E0E0"/>
<path d="M264.61 163.71H248.61L248.98 159.44H265L264.61 163.71ZM249.42 162.93H263.9L264.14 160.22H249.66L249.42 162.93Z" fill="#E0E0E0"/>
<path d="M265.9 149.65H261.62L261.99 145.38H266.27L265.9 149.65ZM262.47 148.87H265.18L265.42 146.16H262.71L262.47 148.87Z" fill="#E0E0E0"/>
<path d="M260 149.65H255.73L256.1 145.38H260.38L260 149.65ZM256.58 148.87H259.29L259.52 146.16H256.82L256.58 148.87Z" fill="#E0E0E0"/>
<path d="M254.07 149.65H249.8L250.17 145.38H254.44L254.07 149.65ZM250.65 148.87H253.35L253.59 146.16H250.89L250.65 148.87Z" fill="#E0E0E0"/>
<path d="M272 80.3298H212L212.33 76.5498H272.33L272 80.3298ZM212.82 79.5498H271.28L271.48 77.3298H213L212.82 79.5498Z" fill="#E0E0E0"/>
<path d="M208 80.5801H192L192.37 76.3101H208.37L208 80.5801ZM192.81 79.7901H207.29L207.53 77.0901H193.08L192.81 79.7901Z" fill="#E0E0E0"/>
<path d="M309.65 102.43H281.46L282.88 86.2402H311.07L309.65 102.43ZM282.31 101.65H308.93L310.22 87.0002H283.59L282.31 101.65Z" fill="#E0E0E0"/>
<path d="M307 132.84H278.8L280.22 116.64H308.41L307 132.84ZM279.66 132.06H306.28L307.56 117.42H280.93L279.66 132.06Z" fill="#E0E0E0"/>
<path d="M304.33 163.25H276.14L277.56 147.05H305.75L304.33 163.25ZM277 162.47H303.62L304.91 147.83H278.27L277 162.47Z" fill="#E0E0E0"/>
<path d="M310.455 86.2624L281.707 101.697L282.075 102.384L310.824 86.9496L310.455 86.2624Z" fill="#E0E0E0"/>
<path d="M309.09 102.38L283.04 86.96L283.43 86.29L309.49 101.7L309.09 102.38Z" fill="#E0E0E0"/>
<path d="M307.807 116.717L279.037 132.111L279.405 132.799L308.175 117.404L307.807 116.717Z" fill="#E0E0E0"/>
<path d="M280.775 116.704L280.377 117.375L306.438 132.794L306.835 132.123L280.775 116.704Z" fill="#E0E0E0"/>
<path d="M276.11 163.54L277.58 146.79L291 154.7L305.19 147.1L305.56 147.79L291.79 155.16L304.22 162.52L303.82 163.19L290.98 155.6L276.11 163.54ZM278.25 148.09L277 162.17L290.13 155.17L278.25 148.09Z" fill="#E0E0E0"/>
<path d="M270.957 84.5394L187.182 139.089L187.608 139.743L271.383 85.1931L270.957 84.5394Z" fill="#E0E0E0"/>
<path d="M192.4 84.5405L191.938 85.1689L266.162 139.731L266.624 139.103L192.4 84.5405Z" fill="#E0E0E0"/>
<path d="M372.48 382.95H292.31L303.61 253.73H383.78L372.48 382.95Z" fill="#F5F5F5"/>
<path d="M318.52 377.18H299L300.2 363.45H319.73L318.52 377.18ZM299.86 376.39H317.79L318.86 364.24H300.92L299.86 376.39Z" fill="#E0E0E0"/>
<path d="M342.29 377.18H322.76L323.96 363.45H343.49L342.29 377.18ZM323.62 376.39H341.56L342.62 364.24H324.69L323.62 376.39Z" fill="#E0E0E0"/>
<path d="M366.05 377.18H346.53L347.72 363.45H367.26L366.05 377.18ZM347.39 376.39H365.33L366.39 364.24H348.45L347.39 376.39Z" fill="#E0E0E0"/>
<path d="M368.53 343.94H302.26V344.73H368.53V343.94Z" fill="#E0E0E0"/>
<path d="M347.44 325.43H303.6L304.04 320.37H347.88L347.44 325.43ZM304.44 324.64H346.69L346.99 321.17H304.77L304.44 324.64Z" fill="#E0E0E0"/>
<path d="M367.76 357.72H349.58L350.01 352.72H368.19L367.76 357.72ZM350.44 356.92H367L367.3 353.52H350.74L350.44 356.92Z" fill="#E0E0E0"/>
<path d="M369.47 338.19H362.56L363.16 331.28H370.07L369.47 338.19ZM363.42 337.4H368.74L369.2 332.08H363.89L363.42 337.4Z" fill="#E0E0E0"/>
<path d="M339.42 338.19H332.51L333.11 331.28H340L339.42 338.19ZM333.37 337.4H338.69L339.15 332.08H333.84L333.37 337.4Z" fill="#E0E0E0"/>
<path d="M309.37 338.19H302.46L303.06 331.28H310L309.37 338.19ZM303.32 337.4H308.64L309.1 332.08H303.79L303.32 337.4Z" fill="#E0E0E0"/>
<path d="M329.47 265.75H308.82L309.29 260.42H329.93L329.47 265.75ZM309.69 265H328.74L329.07 261.25H310L309.69 265Z" fill="#E0E0E0"/>
<path d="M307.22 359.1H305.48C304.862 359.111 304.248 358.99 303.681 358.745C303.113 358.5 302.604 358.137 302.187 357.68C301.771 357.223 301.457 356.683 301.266 356.095C301.075 355.507 301.012 354.885 301.08 354.27L301.23 352.54C301.362 351.251 301.962 350.054 302.916 349.177C303.871 348.3 305.114 347.803 306.41 347.78H308.14C308.756 347.772 309.368 347.893 309.935 348.136C310.501 348.378 311.011 348.738 311.43 349.19C311.843 349.652 312.156 350.194 312.349 350.783C312.542 351.371 312.61 351.994 312.55 352.61L312.4 354.34C312.266 355.629 311.665 356.824 310.711 357.701C309.757 358.578 308.515 359.075 307.22 359.1V359.1ZM306.41 348.57C305.317 348.59 304.269 349.007 303.461 349.743C302.653 350.479 302.141 351.484 302.02 352.57L301.87 354.3C301.81 354.807 301.859 355.321 302.014 355.807C302.169 356.293 302.426 356.74 302.767 357.119C303.109 357.498 303.528 357.799 303.996 358.003C304.464 358.207 304.97 358.308 305.48 358.3H307.22C308.312 358.278 309.359 357.86 310.166 357.125C310.974 356.389 311.487 355.385 311.61 354.3L311.76 352.57C311.82 352.063 311.771 351.548 311.615 351.061C311.46 350.574 311.202 350.126 310.859 349.747C310.516 349.368 310.096 349.067 309.627 348.864C309.158 348.661 308.651 348.561 308.14 348.57H306.41Z" fill="#E0E0E0"/>
<path d="M371.3 316.15H304.38V315.72L308.38 269.72H375.31V270.15L371.3 316.15ZM305.24 315.35H370.57L374.5 270.47H309.17L305.24 315.35Z" fill="#E0E0E0"/>
<path d="M309.035 269.747L308.567 270.384L370.705 316.062L371.173 315.425L309.035 269.747Z" fill="#E0E0E0"/>
<path d="M305.03 316.08L304.59 315.42L374.29 270.14L374.72 270.8L305.03 316.08Z" fill="#E0E0E0"/>
<path d="M317.92 377.1L300.32 364.17L300.79 363.53L318.39 376.46L317.92 377.1Z" fill="#E0E0E0"/>
<path d="M319.077 363.492L299.208 376.43L299.645 377.1L319.514 364.162L319.077 363.492Z" fill="#E0E0E0"/>
<path d="M341.69 377.1L324.09 364.17L324.56 363.53L342.16 376.46L341.69 377.1Z" fill="#E0E0E0"/>
<path d="M342.848 363.506L322.981 376.447L323.418 377.118L343.284 364.176L342.848 363.506Z" fill="#E0E0E0"/>
<path d="M365.45 377.1L347.85 364.17L348.32 363.53L365.93 376.46L365.45 377.1Z" fill="#E0E0E0"/>
<path d="M366.615 363.502L346.748 376.443L347.185 377.114L367.052 364.173L366.615 363.502Z" fill="#E0E0E0"/>
<path d="M396.77 102.43C396.762 100.206 396.425 97.9955 395.77 95.8702L401.52 90.8102L397.9 84.5402L390.67 87.0002C387.614 83.7404 383.661 81.4579 379.31 80.4402L377.8 72.9302H370.56L369.06 80.4402C364.708 81.4556 360.755 83.7385 357.7 87.0002L350.44 84.5502L346.82 90.8202L352.57 95.8802C351.277 100.158 351.277 104.722 352.57 109L346.82 114.06L350.44 120.33L357.7 117.88C360.755 121.142 364.708 123.425 369.06 124.44L370.56 131.95H377.8L379.31 124.44C383.661 123.422 387.614 121.14 390.67 117.88L397.93 120.33L401.55 114.06L395.8 109C396.445 106.87 396.772 104.656 396.77 102.43V102.43ZM374.18 114.62C371.858 114.62 369.588 113.932 367.657 112.642C365.727 111.352 364.222 109.518 363.333 107.373C362.445 105.228 362.212 102.867 362.665 100.59C363.118 98.3125 364.237 96.2206 365.878 94.5787C367.52 92.9369 369.612 91.8187 371.889 91.3658C374.167 90.9128 376.527 91.1453 378.673 92.0338C380.818 92.9224 382.651 94.4271 383.941 96.3578C385.231 98.2884 385.92 100.558 385.92 102.88C385.92 105.994 384.683 108.98 382.481 111.182C380.28 113.383 377.293 114.62 374.18 114.62V114.62Z" fill="#EBEBEB"/>
<path d="M148.73 292.48C150.618 288.901 151.966 285.063 152.73 281.09L166.31 277.82L165.8 264.63L152 262.41C149.859 254.555 145.432 247.513 139.28 242.18L143.23 228.79L131.56 222.63L122.75 233.46C114.869 231.391 106.551 231.708 98.8501 234.37L89.2401 224.24L78.0601 231.24L83.0601 244.29C77.3252 250.089 73.4411 257.461 71.9001 265.47L58.3301 268.73L58.8301 281.92L72.6201 284.14C74.7703 291.999 79.1999 299.045 85.3501 304.39L81.3501 317.77L93.0301 323.93L101.85 313.11C109.73 315.167 118.043 314.843 125.74 312.18L135.35 322.31L146.53 315.31L141.53 302.31C144.407 299.411 146.834 296.098 148.73 292.48V292.48ZM101.95 292.93C98.2065 290.954 95.1329 287.913 93.1181 284.19C91.1032 280.468 90.2376 276.231 90.6307 272.016C91.0238 267.802 92.6579 263.798 95.3265 260.513C97.995 257.227 101.578 254.806 105.622 253.557C109.667 252.308 113.991 252.286 118.048 253.494C122.104 254.703 125.712 257.087 128.413 260.346C131.115 263.605 132.789 267.591 133.225 271.802C133.66 276.012 132.837 280.257 130.86 284C128.212 289.006 123.686 292.757 118.276 294.431C112.866 296.105 107.013 295.565 102 292.93H101.95Z" fill="#EBEBEB"/>
<path d="M396 257.35L403.84 261.69C404.138 261.834 404.407 262.035 404.63 262.28C404.763 262.477 404.83 262.712 404.82 262.95C404.821 263.113 404.789 263.275 404.728 263.426C404.666 263.577 404.575 263.714 404.46 263.83C404.35 263.945 404.218 264.037 404.072 264.1C403.926 264.164 403.769 264.198 403.61 264.2C403.253 264.161 402.91 264.038 402.61 263.84L392.49 258.22C392.336 258.133 392.208 258.006 392.119 257.853C392.03 257.7 391.983 257.527 391.983 257.35C391.983 257.173 392.03 256.999 392.119 256.846C392.208 256.693 392.336 256.567 392.49 256.48L402.61 250.85C402.898 250.668 403.222 250.552 403.56 250.51C403.72 250.509 403.879 250.541 404.026 250.603C404.174 250.665 404.308 250.755 404.42 250.87C404.536 250.985 404.627 251.122 404.689 251.273C404.751 251.424 404.782 251.586 404.78 251.75C404.792 251.985 404.725 252.217 404.59 252.41C404.367 252.655 404.098 252.855 403.8 253L396 257.35Z" fill="#EBEBEB"/>
<path d="M416.16 249.24L408.4 266C408.283 266.305 408.102 266.581 407.87 266.81C407.661 266.98 407.399 267.068 407.13 267.06C406.971 267.062 406.812 267.033 406.665 266.972C406.517 266.912 406.383 266.823 406.27 266.71C406.159 266.608 406.07 266.485 406.008 266.347C405.946 266.21 405.913 266.061 405.91 265.91C405.939 265.581 406.034 265.261 406.19 264.97L414 248.23C414.118 247.925 414.295 247.647 414.52 247.41C414.733 247.25 414.994 247.165 415.26 247.17C415.417 247.167 415.574 247.196 415.719 247.254C415.865 247.313 415.998 247.4 416.11 247.51C416.22 247.612 416.309 247.736 416.369 247.874C416.429 248.011 416.46 248.16 416.46 248.31C416.423 248.637 416.321 248.953 416.16 249.24Z" fill="#EBEBEB"/>
<path d="M425.92 257.35L418.08 253C417.782 252.855 417.513 252.655 417.29 252.41C417.155 252.217 417.088 251.985 417.1 251.75C417.098 251.586 417.129 251.424 417.191 251.273C417.253 251.122 417.344 250.985 417.46 250.87C417.572 250.755 417.706 250.665 417.854 250.603C418.001 250.541 418.16 250.509 418.32 250.51C418.658 250.552 418.982 250.668 419.27 250.85L429.39 256.48C429.544 256.567 429.672 256.693 429.761 256.846C429.85 256.999 429.897 257.173 429.897 257.35C429.897 257.527 429.85 257.7 429.761 257.853C429.672 258.006 429.544 258.133 429.39 258.22L419.27 263.84C418.985 264.03 418.66 264.153 418.32 264.2C418.157 264.199 417.996 264.165 417.846 264.099C417.696 264.034 417.562 263.939 417.45 263.82C417.336 263.704 417.246 263.566 417.186 263.415C417.126 263.264 417.097 263.102 417.1 262.94C417.091 262.705 417.157 262.474 417.29 262.28C417.513 262.035 417.782 261.834 418.08 261.69L425.92 257.35Z" fill="#EBEBEB"/>
<path d="M245.18 423.71C352.263 423.71 439.07 418.642 439.07 412.39C439.07 406.138 352.263 401.07 245.18 401.07C138.098 401.07 51.29 406.138 51.29 412.39C51.29 418.642 138.098 423.71 245.18 423.71Z" fill="#F5F5F5"/>
<path d="M113.55 186.34H76.5502C75.7368 186.356 74.9294 186.198 74.1816 185.878C73.4337 185.558 72.7627 185.082 72.2131 184.482C71.6634 183.883 71.2478 183.173 70.9939 182.4C70.7399 181.627 70.6534 180.809 70.7402 180L78.4802 91.5399C78.6575 89.8449 79.4471 88.2728 80.7008 87.1185C81.9546 85.9642 83.5864 85.3069 85.2902 85.2699H94.9102C95.3358 85.2644 95.7466 85.4255 96.0549 85.7189C96.3632 86.0122 96.5446 86.4146 96.5602 86.8399V87.1399C96.5785 87.734 96.8302 88.297 97.2607 88.707C97.6912 89.1169 98.2659 89.3407 98.8602 89.3299H108C108.661 89.3177 109.298 89.08 109.806 88.6562C110.313 88.2325 110.66 87.6481 110.79 86.9999L110.86 86.6999C110.949 86.2815 111.178 85.906 111.508 85.6351C111.839 85.3642 112.253 85.2142 112.68 85.2099H122.31C123.12 85.2004 123.923 85.3611 124.668 85.6814C125.412 86.0018 126.08 86.4748 126.63 87.0699C127.176 87.6741 127.589 88.3856 127.844 89.1587C128.099 89.9319 128.189 90.7497 128.11 91.5599L120.36 180.03C120.192 181.732 119.406 183.314 118.152 184.476C116.897 185.639 115.26 186.302 113.55 186.34V186.34ZM85.2902 86.2499C83.8365 86.285 82.4451 86.8468 81.3746 87.8309C80.304 88.8149 79.6273 90.1543 79.4702 91.5999L71.7302 180.07C71.6546 180.74 71.7231 181.419 71.9311 182.061C72.139 182.703 72.4817 183.294 72.9361 183.793C73.3905 184.291 73.9462 184.688 74.566 184.954C75.1858 185.221 75.8555 185.353 76.5302 185.34H113.53C114.985 185.304 116.378 184.741 117.449 183.755C118.52 182.769 119.195 181.427 119.35 179.98L127.09 91.5199C127.159 90.8459 127.086 90.165 126.876 89.5209C126.665 88.8768 126.323 88.2838 125.87 87.7799C125.414 87.2884 124.859 86.8983 124.243 86.6347C123.626 86.3712 122.961 86.2401 122.29 86.2499H112.66C112.462 86.2565 112.272 86.3289 112.12 86.4557C111.968 86.5824 111.862 86.7564 111.82 86.9499L111.75 87.2499C111.559 88.1069 111.086 88.8748 110.406 89.4298C109.725 89.9849 108.878 90.2949 108 90.3099H98.8702C98.0159 90.326 97.1899 90.0041 96.5718 89.4141C95.9538 88.8242 95.5938 88.014 95.5702 87.1599V86.8599C95.5676 86.7771 95.5487 86.6957 95.5147 86.6202C95.4806 86.5448 95.432 86.4768 95.3716 86.4202C95.3113 86.3635 95.2403 86.3193 95.1629 86.2901C95.0854 86.2609 95.0029 86.2472 94.9202 86.2499H85.2902Z" fill="#FAB005"/>
<path d="M126.9 99.1396H78.27V100.14H126.9V99.1396Z" fill="#FAB005"/>
<path d="M122.3 85.25H112.68V86.25H122.3V85.25Z" fill="#FAB005"/>
<path d="M113.26 140.47H84.8804L87.3604 112.09H115.74L113.26 140.47ZM85.9704 139.47H112.34L114.65 113.09H88.2804L85.9704 139.47Z" fill="#FAB005"/>
<path d="M113.6 172.52H78.8203L79.7403 162H114.52L113.6 172.52ZM79.9103 171.52H112.68L113.43 162.99H80.6503L79.9103 171.52Z" fill="#FAB005"/>
<path d="M90.7202 155.06C90.3335 155.06 89.9512 154.978 89.5984 154.819C89.2457 154.661 88.9305 154.429 88.6735 154.14C88.4166 153.851 88.2238 153.511 88.1077 153.142C87.9917 152.773 87.955 152.384 88.0002 152C88.0832 151.202 88.4557 150.462 89.0472 149.921C89.6387 149.379 90.4082 149.073 91.2102 149.06C91.5969 149.054 91.9804 149.131 92.3355 149.284C92.6905 149.438 93.0091 149.665 93.2702 149.95C93.5297 150.238 93.726 150.577 93.8465 150.946C93.9671 151.314 94.0092 151.704 93.9702 152.09V152.09C93.8933 152.9 93.5181 153.652 92.9175 154.201C92.3169 154.75 91.5338 155.056 90.7202 155.06V155.06ZM91.1602 150.06C90.6125 150.07 90.0871 150.279 89.681 150.646C89.2748 151.014 89.0152 151.516 88.9502 152.06C88.9214 152.309 88.9468 152.561 89.0244 152.799C89.1021 153.037 89.2303 153.256 89.4002 153.44C89.569 153.62 89.7736 153.763 90.001 153.859C90.2283 153.956 90.4733 154.004 90.7202 154C91.2679 153.989 91.7933 153.781 92.1994 153.413C92.6056 153.046 92.8651 152.544 92.9302 152C92.9527 151.751 92.9244 151.501 92.847 151.264C92.7697 151.026 92.6449 150.807 92.4802 150.62C92.3088 150.445 92.103 150.308 91.8758 150.216C91.6486 150.125 91.4049 150.082 91.1602 150.09V150.06Z" fill="#FAB005"/>
<path d="M97.9103 155.06C97.5249 155.068 97.1423 154.993 96.7878 154.842C96.4333 154.691 96.115 154.466 95.854 154.182C95.593 153.898 95.3953 153.562 95.274 153.197C95.1527 152.831 95.1105 152.443 95.1502 152.06C95.231 151.263 95.6014 150.523 96.1913 149.981C96.7811 149.439 97.5493 149.133 98.3502 149.12C98.7351 149.115 99.1166 149.192 99.47 149.344C99.8235 149.496 100.141 149.721 100.402 150.004C100.663 150.287 100.862 150.621 100.986 150.986C101.109 151.35 101.155 151.737 101.12 152.12C101.035 152.917 100.662 153.655 100.071 154.197C99.4799 154.738 98.7116 155.045 97.9103 155.06V155.06ZM98.3502 150.06C97.8026 150.07 97.2772 150.279 96.871 150.646C96.4648 151.014 96.2053 151.516 96.1402 152.06C96.1116 152.307 96.1363 152.558 96.2127 152.795C96.2891 153.031 96.4155 153.249 96.5833 153.433C96.751 153.617 96.9563 153.763 97.1852 153.86C97.4142 153.958 97.6614 154.006 97.9103 154C98.4579 153.989 98.9833 153.781 99.3895 153.413C99.7956 153.046 100.055 152.544 100.12 152C100.149 151.753 100.124 151.502 100.048 151.265C99.9714 151.028 99.845 150.81 99.6772 150.627C99.5095 150.443 99.3042 150.297 99.0753 150.199C98.8463 150.101 98.5991 150.054 98.3502 150.06V150.06Z" fill="#FAB005"/>
<path d="M105.11 155.06C104.723 155.065 104.339 154.99 103.982 154.839C103.626 154.687 103.305 154.463 103.04 154.18C102.781 153.889 102.585 153.548 102.464 153.178C102.344 152.808 102.301 152.417 102.34 152.03C102.423 151.234 102.794 150.495 103.383 149.954C103.973 149.412 104.74 149.105 105.54 149.09C105.927 149.082 106.311 149.158 106.666 149.312C107.022 149.465 107.34 149.693 107.6 149.98C107.863 150.266 108.062 150.605 108.184 150.974C108.307 151.343 108.35 151.733 108.31 152.12V152.12C108.227 152.916 107.856 153.654 107.267 154.196C106.677 154.737 105.91 155.045 105.11 155.06V155.06ZM105.54 150.06C104.992 150.07 104.467 150.279 104.061 150.646C103.655 151.014 103.395 151.516 103.33 152.06C103.306 152.308 103.333 152.559 103.411 152.797C103.488 153.034 103.614 153.253 103.78 153.44C103.95 153.621 104.156 153.765 104.385 153.862C104.615 153.958 104.861 154.005 105.11 154C105.657 153.989 106.181 153.78 106.585 153.413C106.99 153.045 107.247 152.543 107.31 152C107.339 151.753 107.314 151.502 107.238 151.265C107.161 151.028 107.035 150.81 106.867 150.627C106.699 150.443 106.494 150.297 106.265 150.199C106.036 150.101 105.789 150.054 105.54 150.06V150.06Z" fill="#FAB005"/>
<path d="M402.88 286.54H354.25V287.54H402.88V286.54Z" fill="#FAB005"/>
<path d="M389.5 373.74H352.5C351.687 373.753 350.881 373.593 350.134 373.271C349.387 372.949 348.718 372.472 348.169 371.872C347.621 371.271 347.206 370.561 346.953 369.789C346.7 369.016 346.614 368.198 346.7 367.39L354.44 278.92C354.618 277.223 355.409 275.65 356.664 274.495C357.92 273.341 359.555 272.685 361.26 272.65H370.88C371.306 272.645 371.718 272.807 372.025 273.103C372.332 273.399 372.51 273.804 372.52 274.23V274.53C372.536 275.123 372.785 275.686 373.214 276.096C373.643 276.507 374.217 276.731 374.81 276.72H384C384.652 276.706 385.28 276.474 385.784 276.061C386.288 275.647 386.639 275.077 386.78 274.44L386.84 274.14C386.936 273.723 387.168 273.351 387.499 273.081C387.831 272.811 388.243 272.659 388.67 272.65H398.29C399.1 272.639 399.904 272.798 400.649 273.119C401.393 273.439 402.061 273.913 402.61 274.51C403.158 275.114 403.574 275.827 403.829 276.603C404.084 277.378 404.173 278.198 404.09 279.01L396.35 367.47C396.172 369.172 395.377 370.749 394.114 371.904C392.852 373.06 391.211 373.713 389.5 373.74V373.74ZM361.25 273.65C359.795 273.685 358.402 274.249 357.331 275.235C356.261 276.221 355.585 277.563 355.43 279.01L347.69 367.47C347.619 368.144 347.691 368.826 347.901 369.47C348.111 370.115 348.455 370.707 348.91 371.21C349.365 371.703 349.92 372.094 350.536 372.358C351.153 372.621 351.819 372.752 352.49 372.74H389.49C390.944 372.705 392.335 372.143 393.406 371.159C394.476 370.175 395.153 368.836 395.31 367.39L403.05 278.92C403.126 278.249 403.057 277.57 402.849 276.928C402.641 276.286 402.299 275.696 401.844 275.197C401.39 274.698 400.834 274.302 400.214 274.035C399.594 273.769 398.925 273.637 398.25 273.65H388.63C388.431 273.658 388.241 273.73 388.087 273.857C387.934 273.983 387.826 274.156 387.78 274.35L387.72 274.65C387.528 275.509 387.052 276.278 386.371 276.835C385.689 277.392 384.84 277.703 383.96 277.72H374.81C373.958 277.733 373.134 277.41 372.518 276.821C371.902 276.231 371.544 275.422 371.52 274.57V274.27C371.52 274.187 371.503 274.105 371.471 274.028C371.439 273.951 371.391 273.882 371.331 273.824C371.272 273.767 371.201 273.721 371.123 273.691C371.046 273.661 370.963 273.647 370.88 273.65H361.25Z" fill="#FAB005"/>
<path d="M395.71 300.44H359.17C358.796 300.445 358.424 300.37 358.081 300.221C357.737 300.072 357.429 299.852 357.177 299.575C356.924 299.298 356.734 298.971 356.617 298.615C356.5 298.259 356.461 297.882 356.5 297.51C356.578 296.742 356.935 296.029 357.502 295.506C358.069 294.983 358.809 294.685 359.58 294.67H396.13C396.505 294.663 396.878 294.737 397.223 294.885C397.567 295.033 397.877 295.253 398.13 295.53C398.383 295.808 398.575 296.136 398.694 296.492C398.812 296.848 398.856 297.226 398.82 297.6C398.739 298.372 398.378 299.087 397.805 299.611C397.232 300.134 396.486 300.429 395.71 300.44ZM359.58 295.67C359.057 295.682 358.555 295.884 358.17 296.24C357.786 296.595 357.544 297.079 357.49 297.6C357.466 297.835 357.492 298.072 357.566 298.296C357.64 298.52 357.761 298.726 357.92 298.9C358.077 299.075 358.27 299.213 358.486 299.307C358.702 299.4 358.935 299.445 359.17 299.44H395.71C396.234 299.428 396.735 299.225 397.12 298.87C397.505 298.515 397.747 298.031 397.8 297.51C397.823 297.276 397.798 297.04 397.726 296.816C397.653 296.592 397.536 296.386 397.38 296.21C397.222 296.037 397.029 295.899 396.813 295.806C396.598 295.713 396.365 295.666 396.13 295.67H359.58Z" fill="#FAB005"/>
<path d="M394.88 310H358.33C357.955 310.006 357.582 309.933 357.238 309.785C356.893 309.636 356.583 309.417 356.33 309.14C356.079 308.863 355.889 308.537 355.772 308.182C355.655 307.827 355.614 307.452 355.65 307.08C355.728 306.31 356.086 305.596 356.655 305.073C357.225 304.549 357.967 304.253 358.74 304.24H395.28C395.655 304.232 396.027 304.304 396.371 304.451C396.715 304.599 397.024 304.818 397.277 305.095C397.53 305.371 397.721 305.698 397.837 306.054C397.953 306.411 397.991 306.788 397.95 307.16C397.874 307.927 397.52 308.639 396.954 309.163C396.389 309.686 395.651 309.984 394.88 310V310ZM358.75 305.24C358.227 305.249 357.726 305.45 357.341 305.804C356.956 306.157 356.714 306.64 356.66 307.16C356.637 307.395 356.662 307.633 356.734 307.858C356.806 308.084 356.924 308.292 357.08 308.47C357.24 308.64 357.434 308.775 357.649 308.866C357.865 308.957 358.096 309.003 358.33 309H394.88C395.42 308.994 395.938 308.784 396.331 308.414C396.723 308.043 396.962 307.539 397 307C397.024 306.764 396.998 306.525 396.924 306.299C396.85 306.074 396.729 305.866 396.57 305.69C396.411 305.518 396.217 305.383 396.002 305.291C395.786 305.2 395.554 305.155 395.32 305.16L358.75 305.24Z" fill="#FAB005"/>
<path d="M394 319.48H357.5C357.126 319.488 356.754 319.416 356.409 319.268C356.065 319.121 355.756 318.902 355.503 318.625C355.25 318.349 355.059 318.022 354.943 317.665C354.827 317.309 354.789 316.932 354.83 316.56C354.91 315.791 355.269 315.078 355.838 314.555C356.407 314.032 357.147 313.735 357.92 313.72H394.46C394.835 313.715 395.206 313.79 395.55 313.939C395.893 314.088 396.201 314.308 396.454 314.585C396.706 314.862 396.897 315.189 397.013 315.545C397.13 315.901 397.17 316.277 397.13 316.65C397.049 317.424 396.684 318.142 396.107 318.664C395.529 319.186 394.779 319.477 394 319.48V319.48ZM357.88 314.72C357.356 314.732 356.855 314.935 356.47 315.29C356.085 315.645 355.844 316.129 355.79 316.65C355.763 316.883 355.786 317.12 355.858 317.343C355.93 317.567 356.049 317.772 356.208 317.946C356.366 318.119 356.56 318.257 356.776 318.349C356.992 318.441 357.225 318.486 357.46 318.48H394C394.523 318.471 395.024 318.27 395.409 317.916C395.794 317.563 396.036 317.08 396.09 316.56C396.119 316.326 396.097 316.088 396.026 315.863C395.954 315.639 395.835 315.432 395.677 315.257C395.518 315.083 395.324 314.944 395.107 314.851C394.89 314.759 394.656 314.714 394.42 314.72H357.88Z" fill="#FAB005"/>
<path d="M391.76 345.58H355.22C354.845 345.585 354.474 345.51 354.131 345.361C353.787 345.212 353.479 344.992 353.226 344.715C352.974 344.438 352.783 344.111 352.667 343.755C352.55 343.399 352.51 343.022 352.55 342.65C352.628 341.883 352.985 341.171 353.553 340.65C354.12 340.128 354.859 339.833 355.63 339.82H392.18C392.555 339.812 392.926 339.884 393.271 340.031C393.615 340.179 393.924 340.398 394.177 340.675C394.43 340.951 394.621 341.278 394.737 341.635C394.853 341.991 394.891 342.368 394.85 342.74C394.77 343.509 394.411 344.221 393.842 344.744C393.273 345.267 392.533 345.565 391.76 345.58V345.58ZM355.63 340.82C355.108 340.832 354.608 341.033 354.223 341.386C353.839 341.739 353.596 342.221 353.54 342.74C353.525 342.97 353.559 343.201 353.638 343.418C353.717 343.635 353.84 343.833 354 344C354.157 344.175 354.35 344.313 354.566 344.407C354.782 344.5 355.015 344.545 355.25 344.54H391.79C392.314 344.528 392.815 344.325 393.2 343.97C393.585 343.615 393.827 343.131 393.88 342.61C393.906 342.376 393.881 342.139 393.809 341.915C393.737 341.691 393.618 341.485 393.46 341.31C393.301 341.138 393.108 341.002 392.892 340.91C392.677 340.819 392.444 340.775 392.21 340.78L355.63 340.82Z" fill="#FAB005"/>
<path d="M390.93 355.1H354.38C354.006 355.108 353.634 355.037 353.289 354.89C352.944 354.744 352.634 354.526 352.38 354.25C352.128 353.972 351.937 353.644 351.818 353.288C351.699 352.931 351.656 352.554 351.69 352.18C351.771 351.411 352.129 350.698 352.698 350.175C353.267 349.652 354.008 349.355 354.78 349.34H391.32C391.694 349.335 392.064 349.41 392.407 349.558C392.75 349.707 393.058 349.926 393.31 350.202C393.562 350.477 393.753 350.803 393.87 351.158C393.987 351.513 394.028 351.888 393.99 352.26C393.915 353.025 393.562 353.737 392.998 354.26C392.435 354.783 391.699 355.082 390.93 355.1ZM354.8 350.34C354.278 350.35 353.776 350.55 353.391 350.904C353.006 351.258 352.764 351.74 352.71 352.26C352.687 352.496 352.712 352.733 352.784 352.959C352.857 353.184 352.974 353.392 353.13 353.57C353.291 353.74 353.485 353.875 353.7 353.966C353.915 354.057 354.147 354.103 354.38 354.1H390.93C391.453 354.091 391.954 353.89 392.339 353.536C392.724 353.183 392.967 352.7 393.02 352.18C393.044 351.944 393.018 351.705 392.944 351.48C392.87 351.254 392.75 351.046 392.59 350.87C392.431 350.699 392.237 350.563 392.022 350.471C391.807 350.38 391.574 350.335 391.34 350.34H354.8Z" fill="#FAB005"/>
<path d="M390.09 364.62H353.55C353.176 364.628 352.804 364.555 352.459 364.408C352.115 364.261 351.806 364.041 351.553 363.765C351.301 363.488 351.11 363.161 350.994 362.805C350.878 362.449 350.839 362.072 350.88 361.7C350.961 360.931 351.319 360.218 351.888 359.695C352.457 359.172 353.198 358.875 353.97 358.86H390.51C390.885 358.855 391.256 358.929 391.6 359.078C391.944 359.227 392.252 359.448 392.504 359.724C392.756 360.001 392.947 360.329 393.064 360.685C393.18 361.04 393.22 361.417 393.18 361.79C393.1 362.557 392.741 363.269 392.172 363.79C391.603 364.312 390.862 364.607 390.09 364.62ZM354 359.86C353.477 359.871 352.975 360.074 352.591 360.43C352.206 360.785 351.964 361.269 351.91 361.79C351.883 362.023 351.906 362.259 351.978 362.483C352.05 362.707 352.169 362.912 352.328 363.086C352.486 363.259 352.68 363.397 352.896 363.489C353.112 363.581 353.346 363.626 353.58 363.62H390.12C390.644 363.608 391.145 363.407 391.531 363.054C391.917 362.701 392.162 362.22 392.22 361.7C392.245 361.465 392.219 361.228 392.145 361.004C392.071 360.779 391.95 360.574 391.79 360.4C391.632 360.226 391.439 360.088 391.224 359.995C391.008 359.902 390.775 359.855 390.54 359.86H354Z" fill="#FAB005"/>
<path d="M413.56 193.9H376.56C375.751 193.913 374.947 193.754 374.203 193.436C373.459 193.117 372.79 192.645 372.24 192.05C371.694 191.444 371.28 190.731 371.025 189.956C370.77 189.181 370.68 188.362 370.76 187.55L378.5 99.08C378.68 97.3852 379.472 95.8142 380.728 94.6616C381.983 93.5091 383.616 92.8543 385.32 92.82H394.94C395.367 92.8119 395.779 92.9722 396.088 93.2661C396.397 93.56 396.577 93.9638 396.59 94.39V94.69C396.609 95.2842 396.86 95.8472 397.291 96.2571C397.721 96.667 398.296 96.8908 398.89 96.88H408C408.651 96.8668 409.278 96.6361 409.782 96.2246C410.286 95.8131 410.637 95.2447 410.78 94.61L410.85 94.3C410.939 93.8827 411.168 93.5084 411.499 93.2391C411.83 92.9699 412.244 92.822 412.67 92.82H422.29C423.104 92.8036 423.912 92.9612 424.66 93.2822C425.409 93.6032 426.08 94.0801 426.629 94.6812C427.178 95.2823 427.592 95.9937 427.844 96.7678C428.096 97.5419 428.18 98.3609 428.09 99.17L420.35 187.64C420.171 189.33 419.383 190.897 418.134 192.049C416.885 193.2 415.259 193.858 413.56 193.9ZM385.3 93.82C383.847 93.8551 382.455 94.4169 381.385 95.401C380.314 96.3851 379.637 97.7244 379.48 99.17L371.74 187.64C371.666 188.31 371.736 188.988 371.944 189.628C372.153 190.269 372.496 190.858 372.95 191.356C373.405 191.854 373.96 192.249 374.579 192.515C375.198 192.781 375.866 192.913 376.54 192.9H413.54C414.994 192.865 416.385 192.303 417.456 191.319C418.526 190.335 419.203 188.996 419.36 187.55L427.1 99.08C427.174 98.4093 427.105 97.7306 426.895 97.0891C426.686 96.4476 426.342 95.8582 425.887 95.3603C425.432 94.8623 424.875 94.4673 424.255 94.2017C423.635 93.9361 422.965 93.8059 422.29 93.82H412.67C412.472 93.8256 412.282 93.8962 412.128 94.0209C411.975 94.1456 411.866 94.3175 411.82 94.51L411.76 94.82C411.564 95.6762 411.088 96.4423 410.407 96.9967C409.725 97.5511 408.878 97.862 408 97.88H398.86C398.006 97.8961 397.18 97.5742 396.562 96.9843C395.944 96.3943 395.584 95.5841 395.56 94.73V94.43C395.558 94.3473 395.539 94.2658 395.505 94.1904C395.471 94.1149 395.422 94.0469 395.362 93.9903C395.301 93.9336 395.23 93.8894 395.153 93.8602C395.075 93.831 394.993 93.8173 394.91 93.82H385.3Z" fill="#FAB005"/>
<path d="M426.9 106.71H378.27V107.71H426.9V106.71Z" fill="#FAB005"/>
<path d="M415.92 183.57H376.56L379 155.19H418.4L415.92 183.57ZM377.65 182.57H415L417.31 156.19H380L377.65 182.57Z" fill="#FAB005"/>
<path d="M379.802 155.3L379.196 156.095L415.153 183.467L415.759 182.672L379.802 155.3Z" fill="#FAB005"/>
<path d="M417.579 155.295L376.829 182.667L377.386 183.498L418.136 156.125L417.579 155.295Z" fill="#FAB005"/>
<path d="M421.07 124.74H381.71L382.63 114.22H422L421.07 124.74ZM382.8 123.74H420.15L420.9 115.22H383.55L382.8 123.74Z" fill="#FAB005"/>
<path d="M421.324 114.226L382.137 123.757L382.373 124.729L421.561 115.198L421.324 114.226Z" fill="#FAB005"/>
<path d="M383.196 114.221L382.95 115.19L420.47 124.712L420.716 123.743L383.196 114.221Z" fill="#FAB005"/>
<path d="M419.87 138.43H380.51L381.43 127.9H420.79L419.87 138.43ZM381.6 137.43H419L419.75 128.9H382.35L381.6 137.43Z" fill="#FAB005"/>
<path d="M420.133 127.92L380.946 137.451L381.182 138.422L420.37 128.891L420.133 127.92Z" fill="#FAB005"/>
<path d="M382 127.911L381.754 128.88L419.275 138.402L419.52 137.433L382 127.911Z" fill="#FAB005"/>
<path d="M418.67 152.12H379.31L380.23 141.59H419.59L418.67 152.12ZM380.4 151.12H417.76L418.5 142.59H381.15L380.4 151.12Z" fill="#FAB005"/>
<path d="M418.93 141.596L379.743 151.127L379.979 152.099L419.167 142.567L418.93 141.596Z" fill="#FAB005"/>
<path d="M380.804 141.602L380.558 142.571L418.079 152.093L418.325 151.124L380.804 141.602Z" fill="#FAB005"/>
<path d="M407.88 239.39C404.716 239.39 401.622 238.451 398.991 236.693C396.36 234.935 394.309 232.436 393.098 229.513C391.887 226.589 391.57 223.372 392.188 220.268C392.805 217.165 394.329 214.314 396.567 212.076C398.804 209.838 401.655 208.314 404.759 207.697C407.863 207.08 411.08 207.397 414.003 208.608C416.927 209.819 419.426 211.869 421.184 214.501C422.942 217.132 423.88 220.225 423.88 223.39C423.88 227.633 422.195 231.703 419.194 234.703C416.193 237.704 412.124 239.39 407.88 239.39ZM407.88 208.39C404.914 208.39 402.014 209.269 399.547 210.918C397.08 212.566 395.158 214.909 394.022 217.649C392.887 220.39 392.59 223.406 393.169 226.316C393.747 229.226 395.176 231.898 397.274 233.996C399.372 236.094 402.044 237.523 404.954 238.101C407.864 238.68 410.88 238.383 413.621 237.248C416.362 236.113 418.704 234.19 420.352 231.723C422.001 229.256 422.88 226.356 422.88 223.39C422.875 219.415 421.292 215.605 418.48 212.796C415.667 209.987 411.855 208.41 407.88 208.41V208.39Z" fill="#FAB005"/>
<path d="M405.12 232.65L397.66 222.79L398.46 222.18L404.72 230.47C407.638 221.181 413.518 213.102 421.46 207.47L423.69 205.9L424.26 206.72L422 208.31C413.969 213.997 408.103 222.239 405.36 231.69L405.12 232.65Z" fill="#FAB005"/>
<path d="M297.17 107.79H271.17L245 407.1H271C276.931 406.994 282.618 404.718 286.985 400.703C291.352 396.688 294.097 391.212 294.7 385.31L317.08 129.58C317.383 126.804 317.091 123.995 316.224 121.341C315.356 118.686 313.934 116.247 312.05 114.185C310.166 112.124 307.865 110.487 305.299 109.384C302.733 108.281 299.962 107.738 297.17 107.79V107.79Z" fill="#263238"/>
<path d="M265.67 407.1H158.67C155.88 407.149 153.111 406.604 150.549 405.5C147.986 404.396 145.687 402.758 143.807 400.697C141.926 398.635 140.506 396.197 139.641 393.544C138.776 390.891 138.486 388.084 138.79 385.31L161.16 129.58C161.763 123.678 164.508 118.202 168.875 114.187C173.242 110.172 178.929 107.896 184.86 107.79H291.86C294.651 107.739 297.421 108.284 299.985 109.387C302.549 110.49 304.848 112.127 306.73 114.189C308.612 116.251 310.033 118.69 310.899 121.344C311.764 123.997 312.055 126.805 311.75 129.58L289.37 385.31C288.765 391.211 286.02 396.686 281.653 400.7C277.287 404.715 271.601 406.992 265.67 407.1V407.1Z" fill="#407BFF"/>
<path d="M291.41 112.79H263.6C262.693 112.801 261.818 113.12 261.117 113.694C260.415 114.269 259.93 115.064 259.74 115.95L259.55 116.82C259.07 118.979 257.878 120.914 256.166 122.314C254.454 123.714 252.321 124.498 250.11 124.54H223.67C221.576 124.58 219.55 123.792 218.035 122.346C216.52 120.9 215.637 118.914 215.58 116.82V115.95C215.554 115.092 215.19 114.28 214.569 113.688C213.947 113.096 213.118 112.774 212.26 112.79H184.42C179.85 112.874 175.469 114.628 172.105 117.721C168.741 120.815 166.626 125.033 166.16 129.58L143.79 385.31C143.555 387.447 143.778 389.611 144.445 391.655C145.111 393.7 146.206 395.579 147.655 397.167C149.105 398.756 150.876 400.017 152.851 400.868C154.826 401.718 156.96 402.138 159.11 402.1H266.11C270.68 402.016 275.062 400.263 278.428 397.169C281.794 394.076 283.911 389.857 284.38 385.31L306.75 129.58C306.985 127.441 306.761 125.276 306.093 123.23C305.425 121.184 304.329 119.304 302.878 117.715C301.426 116.126 299.652 114.865 297.675 114.016C295.697 113.167 293.561 112.749 291.41 112.79Z" fill="white"/>
<g opacity="0.2">
<path opacity="0.2" d="M231.2 115.62C231.144 116.196 230.877 116.732 230.451 117.125C230.025 117.518 229.469 117.74 228.89 117.75C228.618 117.754 228.347 117.701 228.097 117.593C227.847 117.484 227.623 117.324 227.439 117.123C227.255 116.921 227.117 116.683 227.033 116.424C226.948 116.165 226.92 115.891 226.95 115.62C227.009 115.045 227.276 114.511 227.702 114.121C228.128 113.73 228.682 113.509 229.26 113.5C229.532 113.495 229.801 113.549 230.05 113.656C230.3 113.764 230.524 113.923 230.707 114.123C230.89 114.324 231.029 114.561 231.114 114.819C231.199 115.077 231.228 115.35 231.2 115.62V115.62Z" fill="black"/>
<path opacity="0.2" d="M246.45 113.5H239.17C238.592 113.509 238.038 113.73 237.612 114.121C237.186 114.512 236.919 115.045 236.86 115.62C236.829 115.89 236.855 116.164 236.938 116.423C237.021 116.683 237.159 116.921 237.342 117.123C237.525 117.324 237.748 117.485 237.998 117.593C238.248 117.701 238.518 117.755 238.79 117.75H246.08C246.659 117.74 247.215 117.518 247.641 117.125C248.067 116.732 248.334 116.197 248.39 115.62C248.42 115.35 248.392 115.076 248.307 114.817C248.223 114.558 248.084 114.321 247.901 114.12C247.717 113.919 247.492 113.76 247.242 113.653C246.992 113.546 246.722 113.494 246.45 113.5V113.5Z" fill="black"/>
</g>
<path d="M178.25 124.5H180.5L180.7 122.25H178.45L178.25 124.5Z" fill="#263238"/>
<path d="M182.95 122.25L182.75 124.5H185L185.2 122.25L185.39 120H183.14L182.95 122.25Z" fill="#263238"/>
<path d="M187.84 117.75L187.64 120L187.45 122.25L187.25 124.5H189.5L189.7 122.25L189.89 120L190.09 117.75H187.84Z" fill="#263238"/>
<path d="M284.58 117.9L284.44 119.55H283.34L283.05 122.85H284.15L284 124.5H293.9L294.47 117.9H284.58ZM288.58 122.85H285.28L285.57 119.55H288.87L288.58 122.85Z" fill="#263238"/>
<path opacity="0.8" d="M280.1 296.25H135.38L147.56 157.09H292.27L280.1 296.25Z" fill="#263238"/>
<path d="M276.27 292.06H131.56L143.73 152.9H288.45L276.27 292.06Z" fill="#407BFF"/>
<g opacity="0.8">
<path opacity="0.8" d="M276.27 292.06H131.56L143.73 152.9H288.45L276.27 292.06Z" fill="white"/>
<path opacity="0.8" d="M276.73 292.56H131L131.05 292.01L143.28 152.4H289L276.73 292.56ZM132.1 291.56H275.81L287.9 153.4H144.19L132.1 291.56Z" fill="#407BFF"/>
</g>
<path opacity="0.8" d="M268.22 253.73H146.32L154.11 164.67H276.01L268.22 253.73Z" fill="white"/>
<path d="M268.68 254.23H145.77L153.65 164.17H276.56L268.68 254.23ZM146.86 253.23H267.76L275.46 165.17H154.57L146.86 253.23Z" fill="#407BFF"/>
<path d="M154.413 164.26L153.798 165.048L267.909 254.106L268.524 253.317L154.413 164.26Z" fill="#407BFF"/>
<path d="M275.715 164.213L146.056 253.326L146.622 254.15L276.282 165.038L275.715 164.213Z" fill="#407BFF"/>
<path d="M193.58 266.77C193.453 268.016 192.874 269.171 191.953 270.019C191.032 270.867 189.832 271.347 188.58 271.37C187.991 271.381 187.406 271.266 186.865 271.033C186.324 270.8 185.838 270.454 185.441 270.019C185.043 269.584 184.743 269.069 184.56 268.509C184.378 267.949 184.316 267.356 184.38 266.77C184.509 265.525 185.089 264.371 186.009 263.524C186.93 262.677 188.129 262.195 189.38 262.17C189.969 262.16 190.554 262.275 191.095 262.507C191.636 262.74 192.122 263.086 192.519 263.521C192.917 263.956 193.217 264.471 193.4 265.031C193.583 265.592 193.644 266.184 193.58 266.77V266.77Z" fill="#407BFF"/>
<path d="M210.72 266.77C210.593 268.016 210.014 269.171 209.093 270.019C208.171 270.867 206.972 271.347 205.72 271.37C205.132 271.379 204.548 271.263 204.008 271.03C203.468 270.796 202.984 270.45 202.587 270.015C202.191 269.58 201.892 269.066 201.71 268.506C201.527 267.947 201.466 267.355 201.53 266.77C201.657 265.525 202.236 264.369 203.157 263.521C204.078 262.674 205.278 262.193 206.53 262.17C207.119 262.159 207.703 262.274 208.244 262.507C208.785 262.74 209.27 263.086 209.666 263.522C210.063 263.957 210.362 264.472 210.544 265.032C210.725 265.592 210.785 266.185 210.72 266.77V266.77Z" fill="#407BFF"/>
<path d="M227.87 266.77C227.743 268.015 227.164 269.171 226.243 270.019C225.322 270.866 224.122 271.347 222.87 271.37C222.281 271.381 221.697 271.266 221.156 271.033C220.615 270.8 220.13 270.454 219.734 270.018C219.337 269.583 219.038 269.068 218.856 268.508C218.675 267.948 218.614 267.355 218.68 266.77C218.807 265.524 219.386 264.369 220.307 263.521C221.228 262.673 222.428 262.193 223.68 262.17C224.268 262.161 224.852 262.277 225.392 262.51C225.932 262.744 226.416 263.09 226.813 263.525C227.209 263.96 227.508 264.474 227.69 265.034C227.873 265.593 227.934 266.185 227.87 266.77V266.77Z" fill="#407BFF"/>
<path d="M192.46 370.45H124.7L130.4 305.29H198.16L192.46 370.45Z" fill="#407BFF"/>
<g opacity="0.8">
<path opacity="0.8" d="M192.46 370.45H124.7L130.4 305.29H198.16L192.46 370.45Z" fill="white"/>
<path opacity="0.8" d="M192.92 371H124.15L129.94 304.84H198.71L192.92 371ZM125.25 370H192L197.61 305.84H130.86L125.25 370Z" fill="#407BFF"/>
</g>
<path d="M188.69 352.5H131.61L135.26 310.8H192.34L188.69 352.5Z" fill="white"/>
<path d="M189.15 353H131.07L134.8 310.3H192.88L189.15 353ZM132.15 352H188.22L191.78 311.3H135.72L132.15 352Z" fill="#407BFF"/>
<path d="M135.563 310.396L134.948 311.185L188.381 352.886L188.997 352.098L135.563 310.396Z" fill="#407BFF"/>
<path d="M192.06 310.352L131.347 352.079L131.913 352.903L192.626 311.176L192.06 310.352Z" fill="#407BFF"/>
<path d="M153.74 358.61C153.681 359.193 153.41 359.734 152.979 360.13C152.548 360.527 151.986 360.751 151.4 360.76C151.121 360.772 150.843 360.724 150.585 360.618C150.326 360.512 150.094 360.351 149.904 360.146C149.714 359.942 149.57 359.699 149.483 359.434C149.396 359.168 149.368 358.887 149.4 358.61C149.459 358.026 149.729 357.484 150.16 357.086C150.591 356.688 151.153 356.462 151.74 356.45C152.017 356.449 152.29 356.506 152.544 356.616C152.798 356.727 153.026 356.888 153.214 357.091C153.402 357.294 153.546 357.534 153.636 357.796C153.727 358.057 153.762 358.334 153.74 358.61V358.61Z" fill="#407BFF"/>
<path d="M161.77 358.61C161.709 359.192 161.438 359.732 161.007 360.128C160.576 360.524 160.015 360.749 159.43 360.76C159.152 360.77 158.874 360.721 158.617 360.614C158.359 360.508 158.128 360.347 157.938 360.143C157.748 359.939 157.605 359.696 157.517 359.432C157.429 359.167 157.4 358.887 157.43 358.61C157.491 358.027 157.762 357.486 158.192 357.089C158.623 356.691 159.184 356.464 159.77 356.45C160.047 356.449 160.321 356.506 160.574 356.616C160.828 356.727 161.056 356.888 161.244 357.091C161.432 357.294 161.576 357.534 161.666 357.796C161.757 358.057 161.792 358.334 161.77 358.61V358.61Z" fill="#407BFF"/>
<path d="M169.8 358.61C169.739 359.192 169.468 359.732 169.037 360.128C168.606 360.524 168.045 360.749 167.46 360.76C167.181 360.77 166.904 360.721 166.647 360.614C166.389 360.508 166.158 360.347 165.968 360.143C165.778 359.939 165.634 359.696 165.547 359.432C165.459 359.167 165.429 358.887 165.46 358.61C165.518 358.026 165.789 357.484 166.22 357.086C166.651 356.688 167.213 356.462 167.8 356.45C168.076 356.449 168.35 356.506 168.604 356.616C168.858 356.727 169.086 356.888 169.274 357.091C169.462 357.294 169.605 357.534 169.696 357.796C169.787 358.057 169.822 358.334 169.8 358.61V358.61Z" fill="#407BFF"/>
<path d="M269.41 370.45H201.65L207.35 305.29H275.11L269.41 370.45Z" fill="#407BFF"/>
<g opacity="0.8">
<path opacity="0.8" d="M269.41 370.45H201.65L207.35 305.29H275.11L269.41 370.45Z" fill="white"/>
<path opacity="0.8" d="M269.87 371H201.11L206.9 304.84H275.66L269.87 371ZM202.2 370H269L274.62 305.84H207.81L202.2 370Z" fill="#407BFF"/>
</g>
<path d="M265.64 352.5H208.56L212.21 310.8H269.29L265.64 352.5Z" fill="white"/>
<path d="M266.1 353H208L211.73 310.3H269.82L266.1 353ZM209.1 352H265.17L268.73 311.3H212.67L209.1 352Z" fill="#407BFF"/>
<path d="M212.523 310.386L211.908 311.174L265.341 352.876L265.956 352.088L212.523 310.386Z" fill="#407BFF"/>
<path d="M269.006 310.357L208.293 352.084L208.859 352.909L269.573 311.181L269.006 310.357Z" fill="#407BFF"/>
<path d="M230.69 358.61C230.631 359.193 230.36 359.734 229.929 360.13C229.497 360.527 228.935 360.751 228.35 360.76C228.071 360.772 227.793 360.723 227.534 360.617C227.276 360.512 227.044 360.351 226.854 360.146C226.664 359.942 226.52 359.699 226.433 359.434C226.346 359.168 226.318 358.887 226.35 358.61C226.408 358.026 226.679 357.484 227.11 357.086C227.541 356.688 228.103 356.462 228.69 356.45C228.969 356.44 229.247 356.49 229.506 356.597C229.764 356.704 229.996 356.866 230.186 357.071C230.376 357.276 230.519 357.52 230.606 357.785C230.693 358.051 230.722 358.332 230.69 358.61V358.61Z" fill="#407BFF"/>
<path d="M238.72 358.61C238.661 359.193 238.39 359.734 237.959 360.13C237.528 360.527 236.966 360.751 236.38 360.76C236.101 360.772 235.823 360.723 235.565 360.617C235.306 360.512 235.074 360.351 234.884 360.146C234.694 359.942 234.55 359.699 234.463 359.434C234.376 359.168 234.348 358.887 234.38 358.61C234.439 358.026 234.709 357.484 235.14 357.086C235.571 356.688 236.133 356.462 236.72 356.45C236.999 356.44 237.278 356.49 237.536 356.597C237.794 356.704 238.026 356.866 238.216 357.071C238.406 357.276 238.549 357.52 238.636 357.785C238.723 358.051 238.752 358.332 238.72 358.61V358.61Z" fill="#407BFF"/>
<path d="M246.75 358.61C246.691 359.193 246.42 359.734 245.989 360.13C245.558 360.527 244.996 360.751 244.41 360.76C244.132 360.77 243.854 360.721 243.597 360.614C243.339 360.508 243.108 360.347 242.918 360.143C242.728 359.939 242.585 359.696 242.497 359.432C242.409 359.167 242.38 358.887 242.41 358.61C242.471 358.025 242.743 357.483 243.176 357.085C243.609 356.688 244.172 356.462 244.76 356.45C245.036 356.451 245.309 356.508 245.561 356.619C245.814 356.73 246.04 356.892 246.227 357.095C246.414 357.298 246.557 357.537 246.647 357.798C246.737 358.059 246.772 358.335 246.75 358.61Z" fill="#407BFF"/>
<path d="M268.2 147.13H196.58L197.42 137.53H269.04L268.2 147.13Z" fill="#407BFF"/>
<path d="M188.67 144.98H177.6V145.98H188.67V144.98Z" fill="#263238"/>
<path d="M188.99 141.24H177.92V142.24H188.99V141.24Z" fill="#263238"/>
<path d="M189.32 137.5H178.25V138.5H189.32V137.5Z" fill="#263238"/>
<g opacity="0.2">
<path opacity="0.2" d="M223.75 124.54L149.89 399.17C152.573 401.104 155.803 402.131 159.11 402.1H164.89L239.53 124.54H223.75Z" fill="white"/>
<path opacity="0.2" d="M291.41 112.79H263.6C262.694 112.801 261.819 113.12 261.117 113.694C260.416 114.269 259.931 115.064 259.74 115.95L259.55 116.82C259.081 118.921 257.938 120.811 256.295 122.203C254.652 123.595 252.6 124.412 250.45 124.53L175.8 402.1H232.74L306.74 126.93C306.501 123.051 304.773 119.415 301.916 116.78C299.06 114.145 295.296 112.715 291.41 112.79Z" fill="white"/>
</g>
<path d="M306.43 131.85H165.9V133.35H306.43V131.85Z" fill="#407BFF"/>
<path d="M318.68 167.92C318.804 167.598 319.007 167.313 319.27 167.09C319.501 166.957 319.756 166.872 320.02 166.84C322.018 166.305 324.112 166.237 326.14 166.64C326.292 166.666 326.432 166.74 326.54 166.85C326.611 166.96 326.649 167.088 326.65 167.22C326.81 168.35 326.96 169.48 327.11 170.6C327.187 170.844 327.18 171.108 327.092 171.348C327.003 171.589 326.837 171.793 326.62 171.93C324.84 173.301 322.931 174.496 320.92 175.5C319.92 175.7 316.84 174.7 315.92 174.31C315 173.92 317.78 169.79 318.68 167.92Z" fill="#CB7A63"/>
<path d="M296.19 202.21C297.09 195.08 313.02 175.85 315.12 173.07C316.28 171.52 321.12 172.67 322.12 175.61C317.77 181.61 315.37 186.74 312.4 193.56C310.927 196.708 309.295 199.778 307.51 202.76C299.43 214 295.8 205.31 296.19 202.21Z" fill="#B00000"/>
<g opacity="0.1">
<path opacity="0.1" d="M296.19 202.21C297.09 195.08 313.02 175.85 315.12 173.07C316.28 171.52 321.12 172.67 322.12 175.61C317.77 181.61 315.37 186.74 312.4 193.56C310.927 196.708 309.295 199.778 307.51 202.76C299.43 214 295.8 205.31 296.19 202.21Z" fill="black"/>
</g>
<path d="M353.65 219.21C353.65 219.21 348.59 219.28 347.01 220.67L344.82 222.61C344.714 222.699 344.627 222.808 344.566 222.932C344.504 223.056 344.469 223.191 344.463 223.33C344.456 223.468 344.478 223.606 344.528 223.735C344.577 223.864 344.653 223.982 344.75 224.08C345.93 225.41 348.51 228 351.4 229.02C351.719 229.138 352.064 229.17 352.399 229.112C352.735 229.054 353.049 228.909 353.31 228.69C353.31 228.69 356.81 224.31 356.25 223.41L353.65 219.21Z" fill="#CB7A63"/>
<path d="M367 219.69C366.55 219.94 366.09 220.18 365.61 220.43L358.46 223.08C353.59 225.46 353.22 219.45 353.22 219.45L355.17 217.76L368.45 206.76C368.45 206.76 356.09 197.6 348.09 189.88C342.09 182.93 342.85 178.4 349.94 179.16C355.03 179.7 378.39 201.52 380.42 203.85C382.45 206.18 377.84 213.75 367 219.69Z" fill="#B00000"/>
<path opacity="0.1" d="M367 219.69C366.55 219.94 366.09 220.18 365.61 220.43L358.46 223.08C353.59 225.46 353.22 219.45 353.22 219.45L355.17 217.76L368.45 206.76C368.45 206.76 356.09 197.6 348.09 189.88C342.09 182.93 342.85 178.4 349.94 179.16C355.03 179.7 378.39 201.52 380.42 203.85C382.45 206.18 377.84 213.75 367 219.69Z" fill="black"/>
<path d="M370.83 195.63L370.72 195.51L370.83 195.63Z" fill="#263238"/>
<path d="M324.61 151C324.2 150.93 323.78 151.36 323.66 152C323.54 152.64 323.76 153.2 324.17 153.27C324.58 153.34 325.01 152.91 325.17 152.27C325.33 151.63 325 151 324.61 151Z" fill="#263238"/>
<path d="M323.51 159.19C322.977 159.226 322.444 159.143 321.947 158.948C321.451 158.752 321.004 158.449 320.64 158.06C322.184 156.663 323.53 155.062 324.64 153.3L323.51 159.19Z" fill="#B74D3C"/>
<path d="M327.82 149.14C327.509 148.789 327.12 148.515 326.684 148.341C326.248 148.168 325.777 148.099 325.31 148.14H325.19C325.14 148.141 325.091 148.133 325.045 148.115C324.999 148.097 324.957 148.07 324.922 148.035C324.886 148.001 324.858 147.959 324.839 147.914C324.82 147.868 324.81 147.819 324.81 147.77C324.808 147.72 324.817 147.67 324.835 147.624C324.853 147.577 324.88 147.534 324.914 147.498C324.948 147.462 324.989 147.433 325.035 147.413C325.081 147.392 325.13 147.381 325.18 147.38C325.765 147.314 326.359 147.388 326.91 147.597C327.461 147.805 327.955 148.142 328.35 148.58C328.407 148.651 328.442 148.738 328.45 148.83C328.448 148.903 328.427 148.973 328.389 149.035C328.35 149.097 328.296 149.146 328.231 149.179C328.166 149.212 328.094 149.227 328.021 149.222C327.949 149.216 327.879 149.192 327.82 149.15V149.14Z" fill="#263238"/>
<path d="M332.71 186.9C343.4 186.79 344.92 180.9 344.92 180.9C341.68 177.9 341.4 172.16 341.97 167.06C341.138 168.282 340.083 169.337 338.86 170.17C337.742 170.962 336.47 171.511 335.126 171.779C333.782 172.048 332.397 172.031 331.06 171.73C331.017 171.738 330.973 171.738 330.93 171.73C330.956 171.832 330.976 171.935 330.99 172.04C331.71 176.1 331.24 180.47 326.99 181.83C327 181.83 320.94 187 332.71 186.9Z" fill="#CB7A63"/>
<path d="M330.6 170.23C330.72 170.72 330.85 171.23 330.93 171.73C330.973 171.738 331.017 171.738 331.06 171.73C332.396 172.031 333.782 172.048 335.126 171.78C336.469 171.511 337.742 170.962 338.86 170.17C340.089 169.352 341.155 168.311 342 167.1C342.14 165.81 342.35 164.54 342.56 163.38L331 170L330.6 170.23Z" fill="#CB7A63"/>
<path d="M346 180.48C346 180.48 344.39 175.83 342.07 174.4C339.75 172.97 329.74 174.71 328.18 175.4C326.62 176.09 325.11 179.71 325.11 179.71L346 180.48Z" fill="#B00000"/>
<path opacity="0.8" d="M346 180.48C346 180.48 344.39 175.83 342.07 174.4C339.75 172.97 329.74 174.71 328.18 175.4C326.62 176.09 325.11 179.71 325.11 179.71L346 180.48Z" fill="white"/>
<path d="M332.9 410.37C331.9 410.37 331.01 410.24 330.7 409.8C330.619 409.687 330.576 409.553 330.576 409.415C330.576 409.276 330.619 409.142 330.7 409.03C330.763 408.925 330.848 408.835 330.947 408.765C331.047 408.694 331.16 408.645 331.28 408.62C332.53 408.27 335.15 409.76 335.28 409.82C335.309 409.839 335.332 409.866 335.346 409.898C335.361 409.93 335.365 409.965 335.36 410C335.355 410.038 335.338 410.074 335.311 410.101C335.284 410.128 335.248 410.145 335.21 410.15C334.447 410.288 333.674 410.361 332.9 410.37V410.37ZM331.72 408.92C331.607 408.9 331.492 408.9 331.38 408.92C331.305 408.933 331.234 408.962 331.172 409.005C331.11 409.048 331.058 409.104 331.02 409.17C330.9 409.39 330.94 409.49 331.02 409.56C331.37 410.04 333.27 410.05 334.66 409.85C333.755 409.326 332.756 408.986 331.72 408.85V408.92Z" fill="#B00000"/>
<path d="M335.17 410.13H335.1C334.19 409.72 332.41 408.13 332.56 407.26C332.56 407.06 332.73 406.81 333.22 406.76C333.398 406.74 333.579 406.756 333.75 406.808C333.922 406.859 334.082 406.945 334.22 407.06C335.22 407.85 335.37 409.86 335.38 409.95C335.381 409.981 335.374 410.012 335.36 410.04C335.346 410.068 335.325 410.092 335.3 410.11C335.26 410.132 335.214 410.139 335.17 410.13V410.13ZM333.36 407.13H333.26C332.94 407.13 332.92 407.29 332.91 407.33C332.82 407.84 334.03 409.11 334.91 409.67C334.819 408.816 334.47 408.01 333.91 407.36C333.737 407.202 333.514 407.11 333.28 407.1L333.36 407.13Z" fill="#B00000"/>
<path d="M342.77 392.68L335.3 392.69L335.93 409.95L343.44 409.94L342.77 392.68Z" fill="#CB7A63"/>
<path d="M334.16 409.67C329.05 412.81 327.48 412.95 321.58 414.25C320.29 414.53 321.1 417.66 324.2 417.65C329.31 417.65 329.85 417.4 334.2 417.4C337.93 417.4 342.2 417.56 345.2 417.6C345.289 417.61 345.38 417.61 345.47 417.6C345.751 417.533 345.995 417.358 346.148 417.113C346.302 416.868 346.353 416.572 346.29 416.29L344.83 409.62C344.798 409.474 344.717 409.344 344.6 409.252C344.483 409.159 344.339 409.109 344.19 409.11H336C335.347 409.124 334.71 409.318 334.16 409.67Z" fill="#263238"/>
<path opacity="0.2" d="M342.78 392.69L343.12 402.32L335.62 402.33L335.3 392.7L342.78 392.69Z" fill="black"/>
<path d="M398.56 407.26C398.366 406.463 398.495 405.621 398.92 404.92C399.034 404.827 399.174 404.772 399.321 404.761C399.467 404.75 399.613 404.785 399.74 404.86C399.964 404.976 400.135 405.172 400.22 405.41C400.7 406.67 399.41 409.52 399.35 409.66C399.337 409.696 399.312 409.726 399.279 409.746C399.246 409.766 399.208 409.774 399.17 409.77C399.132 409.765 399.097 409.749 399.068 409.724C399.04 409.699 399.02 409.666 399.01 409.63C398.791 408.854 398.64 408.061 398.56 407.26V407.26ZM399.96 405.9C399.975 405.78 399.975 405.659 399.96 405.54C399.94 405.465 399.903 405.396 399.853 405.337C399.803 405.278 399.741 405.231 399.67 405.2C399.43 405.1 399.32 405.15 399.26 405.2C398.8 405.61 398.97 407.57 399.32 408.99C399.749 408.005 399.98 406.944 400 405.87L399.96 405.9Z" fill="#B00000"/>
<path d="M399 409.58C398.995 409.557 398.995 409.533 399 409.51C399.33 408.51 400.83 406.51 401.73 406.61C401.94 406.61 402.22 406.75 402.32 407.24C402.359 407.422 402.36 407.611 402.322 407.793C402.285 407.976 402.209 408.149 402.1 408.3C401.39 409.41 399.3 409.75 399.21 409.76C399.179 409.77 399.145 409.769 399.115 409.758C399.084 409.748 399.058 409.727 399.04 409.7C399.023 409.685 399.011 409.666 399.004 409.645C398.997 409.624 398.996 409.602 399 409.58V409.58ZM401.95 407.42V407.31C401.95 406.98 401.75 406.97 401.71 406.97C401.17 406.97 399.98 408.3 399.49 409.31C400.364 409.15 401.167 408.724 401.79 408.09C401.938 407.899 402.013 407.661 402 407.42H401.95Z" fill="#B00000"/>
<path d="M393.68 392.57L386.39 393.1L390.69 410.5L398.03 409.97L393.68 392.57Z" fill="#CB7A63"/>
<path d="M399.8 408.56C402.08 410.83 403.28 411.99 409.43 413.4C410.79 413.71 409.9 416.95 406.67 416.92C401.34 416.86 404.26 416.64 399.67 416.6C395.78 416.55 392.38 416.6 389.29 416.6C389.187 416.61 389.083 416.61 388.98 416.6C388.684 416.531 388.428 416.348 388.265 416.092C388.103 415.836 388.047 415.527 388.11 415.23L389.67 408.29C389.704 408.139 389.79 408.005 389.912 407.91C390.034 407.815 390.185 407.766 390.34 407.77L397.82 407.94C398.174 407.907 398.532 407.945 398.872 408.051C399.212 408.158 399.527 408.33 399.8 408.56Z" fill="#263238"/>
<path opacity="0.2" d="M393.69 392.58L395.91 401.52L388.61 402.05L386.39 393.1L393.69 392.58Z" fill="black"/>
<path d="M354.15 241C356.915 245.394 359.233 250.054 361.07 254.91C365.07 265.73 363.65 271.4 364.99 278.72C367.34 291.63 370.87 301.53 373.34 311.32C381.05 341.95 397.34 396.32 397.34 396.32L384.17 399.22C384.17 399.22 359.75 334.36 352.82 312.45C346.58 292.77 330.55 241 330.55 241H354.15Z" fill="#B00000"/>
<path opacity="0.4" d="M354.15 241C356.915 245.394 359.233 250.054 361.07 254.91C365.07 265.73 363.65 271.4 364.99 278.72C367.34 291.63 370.87 301.53 373.34 311.32C381.05 341.95 397.34 396.32 397.34 396.32L384.17 399.22C384.17 399.22 359.75 334.36 352.82 312.45C346.58 292.77 330.55 241 330.55 241H354.15Z" fill="black"/>
<path d="M398.9 393.91L399.04 398.6L383.17 400.31C383.17 400.31 381.77 395.2 381.83 395.2L398.9 393.91Z" fill="#B00000"/>
<path opacity="0.8" d="M398.9 393.91L399.04 398.6L383.17 400.31C383.17 400.31 381.77 395.2 381.83 395.2L398.9 393.91Z" fill="white"/>
<path opacity="0.3" d="M338 264.83C343.05 281.1 349.45 301.68 352.86 312.47C353.02 313 353.2 313.54 353.38 314.11C352.04 296.11 348.5 265.84 339.43 264.73C338.952 264.658 338.464 264.692 338 264.83V264.83Z" fill="black"/>
<path d="M342 240.94C342 240.94 345.85 290.64 346.29 314.13C346.69 336.03 345.08 399.83 345.08 399.83H332.38C332.38 399.83 326.32 334.7 324.07 312.46C321.93 291.41 316.38 241.37 316.38 241.37L342 240.94Z" fill="#B00000"/>
<path opacity="0.4" d="M342 240.94C342 240.94 345.85 290.64 346.29 314.13C346.69 336.03 345.08 399.83 345.08 399.83H332.38C332.38 399.83 326.32 334.7 324.07 312.46C321.93 291.41 316.38 241.37 316.38 241.37L342 240.94Z" fill="black"/>
<path d="M347 395.38L346.57 400.04H331.13C331.13 400.04 330.4 394.82 330.46 394.82L347 395.38Z" fill="#B00000"/>
<path opacity="0.8" d="M347 395.38L346.57 400.04H331.13C331.13 400.04 330.4 394.82 330.46 394.82L347 395.38Z" fill="white"/>
<path d="M366.62 256.81L363.07 255.81C357.381 254.16 351.367 253.981 345.59 255.29L341.44 245.81L342.71 255.81H340.89C335.646 255.685 330.441 256.742 325.66 258.9C324.114 259.683 322.513 260.351 320.87 260.9C320.87 260.6 316.4 241.49 316.4 241.49C311.85 210.49 312.59 194.8 313.96 187.16C314.315 185.16 315.271 183.316 316.7 181.872C318.129 180.429 319.963 179.455 321.96 179.08C323.51 178.79 325.24 178.52 327.02 178.34C332.346 177.978 337.688 177.925 343.02 178.18L346.56 178.44C352.15 178.73 357.88 183.44 356.87 188.99C353.52 207.31 352.96 220.7 353.19 229.53L366.62 256.81Z" fill="#B00000"/>
<path opacity="0.2" d="M313.11 212.13C313.11 212.13 313 196.86 313.11 194.03L324.48 186.21C319.575 194.317 315.753 203.031 313.11 212.13V212.13Z" fill="black"/>
<path opacity="0.2" d="M328.27 170.67C329.097 171.157 329.994 171.514 330.93 171.73L330.54 166.98C330.54 166.98 328.84 170.66 328.27 170.67Z" fill="black"/>
<path d="M355.59 156.13C354.73 157.25 353.59 158.43 352.19 158.55C351.364 158.621 350.534 158.49 349.77 158.17C347.27 162.51 341.97 167.1 341.97 167.1C340.641 167.604 339.231 167.861 337.81 167.86C336.324 167.858 334.851 167.577 333.47 167.03C333.202 166.912 332.928 166.808 332.65 166.72C332.26 166.63 330.25 158.17 327.45 156.88L326.82 156.58C327.01 155.69 326.73 153.22 327.6 152.38C328.07 151.92 326.78 150.75 326.88 149.86C326.874 149.787 326.874 149.713 326.88 149.64C325.99 149.08 325.88 147.87 326.26 146.64C327.11 143.42 328.81 144.3 328.81 144.3C328.516 143.882 328.314 143.407 328.216 142.905C328.118 142.404 328.126 141.888 328.24 141.39C328.59 139.55 332.03 138.63 332.03 138.63L333.26 138.87C334.043 138.237 335.035 137.923 336.04 137.99C336.773 138.055 337.483 138.28 338.12 138.647C338.757 139.015 339.307 139.518 339.73 140.12C340.275 139.688 340.92 139.4 341.605 139.28C342.29 139.161 342.995 139.214 343.654 139.435C344.313 139.657 344.907 140.039 345.381 140.548C345.856 141.057 346.195 141.676 346.37 142.35C347.004 142.157 347.681 142.149 348.32 142.326C348.959 142.503 349.535 142.858 349.98 143.35C350.466 143.822 350.816 144.417 350.992 145.072C351.168 145.727 351.164 146.417 350.98 147.07C351.446 147.201 351.861 147.469 352.172 147.841C352.482 148.212 352.673 148.668 352.72 149.15C352.761 150.193 352.677 151.237 352.47 152.26C352.275 153.277 352.416 154.329 352.87 155.26C353.128 155.723 353.553 156.07 354.058 156.232C354.563 156.393 355.111 156.357 355.59 156.13Z" fill="#263238"/>
<path d="M330.45 151.74C328.22 152.44 327.12 155.74 327.06 157.88C327 160.21 328.58 161.64 330.58 160.04C332.079 158.812 333.133 157.125 333.58 155.24C334.08 153 332.69 151 330.45 151.74Z" fill="#CB7A63"/>
<path d="M311.33 186.81L297.23 202.81C295.23 207.34 302.04 212.34 306.82 207.91L323.74 188.42C324.97 185.75 325.13 183.56 323.34 181.79C321 179.48 316.82 178 311.33 186.81Z" fill="#B00000"/>
<path d="M118.61 217.33C122.561 221.743 126.836 225.854 131.4 229.63C134.03 231.7 156.54 218.01 159.33 216.45C159.33 216.45 156.81 213.97 155.77 214.24C151.84 215.24 134.31 221.24 134.31 221.24C133.5 220.99 125.41 211.7 125.41 211.7L118.61 217.33Z" fill="#B97964"/>
<path d="M162.24 213L162.17 212.95L162.25 213.03C162.25 213.03 160.25 216.3 157.53 217.12L155.47 215.12L156.4 209.12L156.46 208.75L156.68 208.54L159.49 205.8C159.768 205.532 160.139 205.382 160.525 205.382C160.911 205.382 161.282 205.532 161.56 205.8L163.67 207.8C163.899 208.018 164.051 208.305 164.104 208.617C164.156 208.929 164.105 209.249 163.96 209.53L162.24 213Z" fill="#B97964"/>
<path d="M130.65 214.66C124.92 206.48 114.83 201.14 111.96 201.1C107.82 201.03 106.54 201.99 108.11 205.1C110.76 210.44 115.11 215.88 121.22 222.38L130.65 214.66Z" fill="#263238"/>
<path d="M114.33 201.51C112.041 200.665 109.703 199.957 107.33 199.39C102.945 198.339 98.4901 197.607 93.9997 197.2C91.3989 196.921 88.7855 196.774 86.1697 196.76C85.9038 196.76 85.6387 196.79 85.3797 196.85C84.3937 197.098 83.5414 197.716 83.0009 198.577C82.4605 199.438 82.2737 200.475 82.4797 201.47C86.8697 224.67 87.0797 234.97 86.4797 246.92L113.19 247.92C113.531 247.922 113.861 247.803 114.121 247.583C114.382 247.362 114.555 247.057 114.61 246.72C115.79 240.72 119.5 227.31 119.5 227.31C123.26 224.64 123.1 221.58 122.12 217.65C121.81 216.42 121.12 215.24 118.06 208.65C118 208.57 115.71 202 114.33 201.51Z" fill="#263238"/>
<path d="M97.4497 247.31L107.19 247.66C108.64 236.1 107.91 227.47 107.86 214.35C107.9 226.6 100.88 241.35 97.4497 247.31Z" fill="white"/>
<path d="M107.55 252C107.55 252 119.55 311.41 118.95 336C118.3 361.94 113.21 406.6 113.21 406.6L106.88 406.53C106.88 406.53 101.19 373.47 104.45 337.21C87.8498 300.85 83.5498 254.31 83.5498 254.31L107.55 252Z" fill="#B97964"/>
<path d="M107.55 252C107.55 252 119.55 311.41 118.95 336C118.3 361.94 113.21 406.6 113.21 406.6L106.88 406.53C106.88 406.53 101.19 373.47 104.45 337.21C87.8498 300.85 83.5498 254.31 83.5498 254.31L107.55 252Z" fill="#A86955"/>
<path d="M102.16 266.62C102.16 266.62 105.29 313.12 102.03 337.53C98.5898 363.25 88.7298 407.1 88.7298 407.1L82.4298 406.35C82.4298 406.35 80.3398 372.87 87.4298 337.17C74.8998 299.23 77.9998 266.36 77.9998 266.36L102.16 266.62Z" fill="#B97964"/>
<path d="M102.16 266.62C102.16 266.62 105.29 313.12 102.03 337.53C98.5898 363.25 88.7298 407.1 88.7298 407.1L82.4298 406.35C82.4298 406.35 80.3398 372.87 87.4298 337.17C74.8998 299.23 77.9998 266.36 77.9998 266.36L102.16 266.62Z" fill="#B97964"/>
<path d="M78.2598 320.08C84.7498 321.694 91.3465 322.843 97.9998 323.52L98.5998 323.57C99.0198 323.62 99.4498 323.65 99.9098 323.67C102.59 323.81 120.55 326.14 121.79 318.74C121.79 318.74 117.93 300.42 114.21 280.09C111.95 267.76 113.79 250.42 113.79 250.42C105.995 249.51 98.135 249.279 90.2998 249.73L85.7498 249.99C85.7498 249.99 70.2998 265.24 74.1298 280.33C79.8498 302.91 78.2598 320.08 78.2598 320.08Z" fill="#407BFF"/>
<g opacity="0.4">
<path opacity="0.4" d="M78.2598 320.08C84.7498 321.694 91.3465 322.843 97.9998 323.52L98.5998 323.57C99.0198 323.62 99.4498 323.65 99.9098 323.67C102.59 323.81 120.55 326.14 121.79 318.74C121.79 318.74 117.93 300.42 114.21 280.09C111.95 267.76 113.79 250.42 113.79 250.42C105.995 249.51 98.135 249.279 90.2998 249.73L85.7498 249.99C85.7498 249.99 70.2998 265.24 74.1298 280.33C79.8498 302.91 78.2598 320.08 78.2598 320.08Z" fill="black"/>
</g>
<path opacity="0.1" d="M90.1797 196.83C90.8042 199.178 91.855 201.392 93.2797 203.36C97.1497 208.69 102.86 214.48 105.38 215.11C106.1 213.44 107.22 210.17 107.22 210.17C108.87 210.98 109.33 213.31 109.88 215.09C112.53 210.79 114.55 203.39 113.88 200.7C113.88 200.7 110.67 199.75 109.09 199.36C104.718 198.342 100.281 197.63 95.8097 197.23C93.9432 196.98 92.0628 196.846 90.1797 196.83Z" fill="black"/>
<path d="M90.0996 196.34L90.9796 197.94C94.3896 204.13 102.29 212.09 105.38 212.88C105.956 211.387 106.444 209.861 106.84 208.31C108.49 209.12 109.71 211.45 110.26 213.23C112.91 208.93 114.48 202.91 113.81 200.23C112.25 199.76 110.59 199.28 109.01 198.88C104.64 197.866 100.207 197.155 95.7396 196.75C93.8694 196.502 91.9861 196.365 90.0996 196.34V196.34Z" fill="white"/>
<path d="M86.4799 250L100.01 250.37H101.14L104.07 250.44H105.19L113.13 250.65C113.38 250.65 113.6 250.53 113.61 250.37L113.92 247.83C113.92 247.65 113.73 247.5 113.45 247.49L105.6 247.18H104.66L100.78 247.03H99.8599L86.8599 246.52C86.771 246.51 86.681 246.523 86.5987 246.558C86.5163 246.593 86.4444 246.649 86.3899 246.72L85.9999 249.58C85.9299 249.77 86.1599 250 86.4799 250Z" fill="#407BFF"/>
<path opacity="0.2" d="M86.4799 250L100.01 250.37H101.14L104.07 250.44H105.19L113.13 250.65C113.38 250.65 113.6 250.53 113.61 250.37L113.92 247.83C113.92 247.65 113.73 247.5 113.45 247.49L105.6 247.18H104.66L100.78 247.03H99.8599L86.8599 246.52C86.771 246.51 86.681 246.523 86.5987 246.558C86.5163 246.593 86.4444 246.649 86.3899 246.72L85.9999 249.58C85.9299 249.77 86.1599 250 86.4799 250Z" fill="white"/>
<path d="M109.39 250.94H108.52C108.486 250.946 108.452 250.945 108.419 250.936C108.386 250.928 108.355 250.913 108.327 250.893C108.3 250.872 108.278 250.846 108.261 250.817C108.244 250.787 108.234 250.754 108.23 250.72L108.71 247.11C108.71 247 108.88 246.91 109.06 246.91H109.93C110.1 246.91 110.23 247.01 110.22 247.12L109.74 250.74C109.709 250.806 109.659 250.86 109.597 250.896C109.534 250.931 109.462 250.947 109.39 250.94V250.94Z" fill="#263238"/>
<path d="M94.31 250.72H93.49C93.4583 250.727 93.4254 250.728 93.3935 250.721C93.3616 250.715 93.3315 250.702 93.305 250.683C93.2785 250.664 93.2564 250.64 93.24 250.612C93.2236 250.584 93.2134 250.552 93.21 250.52L93.7 246.89C93.7 246.8 93.87 246.7 94.03 246.71H94.85C95.02 246.71 95.14 246.8 95.13 246.91L94.64 250.52C94.63 250.64 94.48 250.72 94.31 250.72Z" fill="#263238"/>
<path d="M123.02 240.16H102.62L105 212.88H125.41L123.02 240.16Z" fill="#407BFF"/>
<path d="M86.5899 235.07C86.9894 234.687 87.2961 234.217 87.4867 233.697C87.6773 233.177 87.7468 232.621 87.6899 232.07C87.6899 232.07 87.6899 230.41 87.7499 227.89C87.8299 220.5 87.8899 205.77 87.1199 203.82C85.4399 199.59 82.5599 197.3 81.0499 199.77C79.2799 202.66 79.1499 224.54 79.1499 224.54C79.5699 239 84.8699 237.09 86.5899 235.07Z" fill="#B97964"/>
<path d="M114.78 232.87V232.8V232.9C114.78 232.9 111.47 234.84 108.68 234.28L107.82 231.53L111.47 226.69L111.69 226.4L111.98 226.31L115.76 225.23C116.134 225.127 116.533 225.174 116.873 225.361C117.213 225.548 117.466 225.859 117.58 226.23L118.48 229.03C118.574 229.331 118.57 229.653 118.47 229.951C118.369 230.249 118.177 230.508 117.92 230.69L114.78 232.87Z" fill="#B97964"/>
<path d="M82.2197 235.87C84.6097 238.81 109.03 234.46 109.22 234.37C110.02 234.01 110.14 231.92 109.22 231.16C108.72 230.74 83.7497 228.48 82.0197 228.34C79.0697 232.88 80.9997 234.37 82.2197 235.87Z" fill="#B97964"/>
<path d="M116.83 168C120.14 172 121.83 175 119.83 188.47C119.45 191 120.55 196.96 121.03 197.02C108.03 195.5 104.26 193.36 98.0299 189.58C93.9999 187 90.5899 177.86 91.6699 173.13C92.8399 168.03 98.3999 162.13 103.77 161.57C109.79 161 113.06 163.4 116.83 168Z" fill="#263238"/>
<path d="M107.91 193.29C106.52 196.04 105.68 199.17 109.05 201.95C109.776 202.529 110.278 203.342 110.47 204.25C110.75 205.71 110.14 207.25 104.95 205.25C97.45 202.31 97.27 197.62 97.27 197.62C100.68 195.93 101.58 187.99 101.69 183.52L107.91 193.29Z" fill="#B97964"/>
<path opacity="0.2" d="M103.15 190C102.93 191.94 105.36 194.56 107.02 195.49C107.251 194.748 107.549 194.028 107.91 193.34L104.22 187.55C103.701 188.285 103.337 189.119 103.15 190V190Z" fill="black"/>
<path d="M98.2796 172.52C98.7356 171.338 99.42 170.258 100.294 169.341C101.167 168.425 102.213 167.689 103.371 167.176C104.529 166.663 105.777 166.384 107.043 166.354C108.309 166.324 109.568 166.543 110.75 167C117.75 169.66 119.05 180.17 117.75 186.61C116.3 193.79 107.69 196.1 102.14 190.7C98.4296 187.11 98.3296 184.08 97.7096 176.97C97.5522 175.462 97.7474 173.939 98.2796 172.52V172.52Z" fill="#B97964"/>
<path d="M99.1397 184.46C100.113 183.351 100.835 182.046 101.258 180.632C101.681 179.219 101.794 177.731 101.59 176.27C101.59 176.27 104.83 172.95 104.67 169.4C104.67 169.4 105.67 172.23 104.67 174.25C104.67 174.25 113.08 173.64 112.89 169.4C112.89 169.4 113.61 173.08 112.34 174.18C112.34 174.18 118.15 173.73 117.69 169.76C116.98 163.63 111.77 163.31 111.77 163.31C111.77 163.31 106.19 158.57 98.4697 166.95C98.4697 166.95 89.3897 172.62 95.8297 182.08L99.1397 184.46Z" fill="#263238"/>
<path d="M113.51 184.07C113.855 184.143 114.212 184.141 114.557 184.065C114.902 183.989 115.227 183.841 115.51 183.63C114.643 182.523 113.933 181.301 113.4 180L113.51 184.07Z" fill="#B74D3C"/>
<path d="M108.11 184.71C108.081 184.679 108.065 184.638 108.065 184.595C108.065 184.552 108.081 184.511 108.11 184.48C108.125 184.464 108.143 184.452 108.162 184.444C108.182 184.435 108.203 184.431 108.225 184.431C108.246 184.431 108.267 184.435 108.287 184.444C108.307 184.452 108.325 184.464 108.34 184.48C108.79 185.044 109.367 185.492 110.024 185.79C110.681 186.087 111.399 186.224 112.12 186.19C112.163 186.19 112.205 186.206 112.237 186.236C112.268 186.266 112.287 186.307 112.29 186.35V186.35C112.293 186.371 112.291 186.393 112.285 186.413C112.278 186.434 112.268 186.453 112.254 186.469C112.239 186.485 112.222 186.498 112.202 186.507C112.183 186.516 112.161 186.52 112.14 186.52C111.863 186.54 111.586 186.54 111.31 186.52C110.047 186.36 108.898 185.71 108.11 184.71V184.71Z" fill="#263238"/>
<path d="M94.9998 181.24C94.9782 180.543 95.2331 179.866 95.709 179.356C96.1849 178.847 96.843 178.546 97.5398 178.52C99.5398 178.52 100.87 181 101.16 182.73C101.45 184.65 100.29 186.3 98.3898 185.51C96.969 184.882 95.847 183.728 95.2598 182.29C95.1045 181.961 95.0161 181.604 94.9998 181.24V181.24Z" fill="#B97964"/>
<path d="M108.67 178C108.67 178.71 109.01 179.3 109.48 179.32C109.95 179.34 110.34 178.77 110.35 178.05C110.36 177.33 110.01 176.75 109.55 176.73C109.09 176.71 108.69 177.29 108.67 178Z" fill="#263238"/>
<path d="M115.29 178.76C115.29 179.47 115.63 180.06 116.1 180.08C116.57 180.1 116.95 179.53 116.97 178.81C116.99 178.09 116.63 177.51 116.17 177.49C115.71 177.47 115.3 178 115.29 178.76Z" fill="#263238"/>
<path d="M116 177.52L117.73 177.08C117.73 177.08 116.77 178.39 116 177.52Z" fill="#263238"/>
<path d="M106.67 175.65C106.61 175.64 106.554 175.613 106.51 175.57C106.477 175.538 106.45 175.499 106.432 175.456C106.414 175.413 106.405 175.367 106.405 175.32C106.405 175.274 106.414 175.228 106.432 175.185C106.45 175.142 106.477 175.103 106.51 175.07V175.07C106.948 174.586 107.497 174.216 108.111 173.993C108.724 173.77 109.383 173.7 110.03 173.79C110.12 173.809 110.198 173.863 110.249 173.94C110.299 174.017 110.318 174.11 110.3 174.2C110.291 174.244 110.274 174.286 110.25 174.324C110.225 174.361 110.193 174.393 110.156 174.419C110.119 174.444 110.077 174.461 110.033 174.47C109.989 174.479 109.944 174.479 109.9 174.47C109.365 174.411 108.823 174.479 108.319 174.668C107.815 174.857 107.363 175.163 107 175.56C106.959 175.605 106.906 175.637 106.848 175.653C106.789 175.669 106.728 175.668 106.67 175.65V175.65Z" fill="#263238"/>
<path d="M117.83 176.52C117.775 176.491 117.727 176.45 117.69 176.4C117.392 175.951 116.992 175.58 116.523 175.316C116.053 175.051 115.528 174.902 114.99 174.88C114.899 174.883 114.81 174.85 114.743 174.788C114.676 174.726 114.635 174.641 114.63 174.55C114.629 174.504 114.636 174.458 114.653 174.415C114.669 174.372 114.694 174.333 114.725 174.299C114.757 174.266 114.795 174.239 114.837 174.22C114.879 174.202 114.924 174.191 114.97 174.19C115.625 174.212 116.265 174.389 116.838 174.705C117.411 175.021 117.902 175.468 118.27 176.01C118.317 176.073 118.341 176.151 118.338 176.229C118.336 176.308 118.307 176.384 118.256 176.444C118.205 176.504 118.135 176.545 118.058 176.561C117.981 176.577 117.9 176.566 117.83 176.53V176.52Z" fill="#263238"/>
<path d="M109.34 176.77L111.06 176.33C111.06 176.33 110.15 177.64 109.34 176.77Z" fill="#263238"/>
<path d="M83.9999 197.13C84.8405 196.92 85.7213 196.933 86.5557 197.166C87.3902 197.399 88.1497 197.845 88.7599 198.46C90.096 199.941 90.9413 201.8 91.1799 203.78C91.5599 206.78 88.2999 217.71 88.3799 220.78C85.1599 219.02 80.3799 216.6 75.8999 216.16C76.5299 208.99 77.3499 204.21 78.7499 201.84C79.4636 200.427 80.4295 199.156 81.5999 198.09C82.329 197.616 83.1446 197.289 83.9999 197.13V197.13Z" fill="#263238"/>
<path d="M114.86 407.39C117.14 409.65 118.34 410.82 124.49 412.23C125.85 412.53 124.97 415.78 121.74 415.75C116.4 415.69 119.32 415.47 114.74 415.42C110.84 415.42 107.45 415.42 104.35 415.42C104.247 415.43 104.143 415.43 104.04 415.42C103.747 415.349 103.492 415.166 103.332 414.91C103.171 414.654 103.117 414.346 103.18 414.05L104.74 407.11C104.771 406.959 104.854 406.825 104.975 406.729C105.096 406.634 105.246 406.585 105.4 406.59L112.89 406.76C113.244 406.728 113.6 406.768 113.939 406.876C114.277 406.984 114.59 407.159 114.86 407.39V407.39Z" fill="#263238"/>
<path d="M90.9999 407.88C92.4599 410.74 93.2299 412.23 98.6399 415.49C99.8299 416.2 97.9799 419 94.9199 417.97C89.9199 416.24 92.7099 416.97 88.4099 415.49C84.7199 414.23 81.4799 413.22 78.5299 412.28C78.4304 412.251 78.336 412.208 78.2499 412.15C77.9896 411.994 77.8014 411.742 77.7265 411.447C77.6516 411.153 77.696 410.842 77.8499 410.58L81.4999 404.48C81.5776 404.345 81.7006 404.242 81.847 404.189C81.9934 404.136 82.1538 404.136 82.2999 404.19L89.2999 406.69C89.649 406.763 89.9796 406.906 90.2718 407.111C90.5639 407.316 90.8116 407.577 90.9999 407.88Z" fill="#263238"/>
</svg>
