<svg width="377" height="349" viewBox="0 0 377 349" fill="none" xmlns="http://www.w3.org/2000/svg">
<path d="M55.0795 319.585C128.523 357.95 247.59 357.95 321.034 319.585C394.478 281.219 394.469 219.021 321.034 180.656C247.599 142.291 128.523 142.291 55.0795 180.656C-18.3642 219.021 -18.3555 281.219 55.0795 319.585Z" fill="#EBEBEB"/>
<path d="M322.042 225.025C336.356 225.025 347.961 219.496 347.961 212.675C347.961 205.854 336.356 200.325 322.042 200.325C307.727 200.325 296.123 205.854 296.123 212.675C296.123 219.496 307.727 225.025 322.042 225.025Z" fill="#FAFAFA"/>
<path d="M54.6237 297.277C67.7474 297.277 78.3862 292.207 78.3862 285.952C78.3862 279.698 67.7474 274.628 54.6237 274.628C41.5 274.628 30.8612 279.698 30.8612 285.952C30.8612 292.207 41.5 297.277 54.6237 297.277Z" fill="#FAFAFA"/>
<path d="M231.05 319.05C244.706 319.05 255.777 313.772 255.777 307.261C255.777 300.75 244.706 295.472 231.05 295.472C217.394 295.472 206.323 300.75 206.323 307.261C206.323 313.772 217.394 319.05 231.05 319.05Z" fill="#FAFAFA"/>
<path d="M108.319 262.637C121.976 262.637 133.046 257.359 133.046 250.848C133.046 244.337 121.976 239.059 108.319 239.059C94.6633 239.059 83.5928 244.337 83.5928 250.848C83.5928 257.359 94.6633 262.637 108.319 262.637Z" fill="#FAFAFA"/>
<path d="M253.831 183.846C254.436 176.58 271.09 149.32 276.182 145.095C281.275 140.871 290.268 130.195 286.394 124.129C282.519 118.064 271.133 120.763 260.44 139.67C252.148 154.334 249.571 186.765 249.571 186.765L253.831 183.846Z" fill="#02897A"/>
<path d="M251.552 183.163H251.482C251.425 183.154 251.371 183.135 251.322 183.105C251.273 183.075 251.23 183.035 251.197 182.989C251.163 182.942 251.139 182.889 251.127 182.834C251.114 182.778 251.112 182.72 251.122 182.663C255.829 152.23 265.83 133.245 281.695 124.62C281.798 124.564 281.918 124.551 282.03 124.584C282.085 124.6 282.137 124.627 282.182 124.664C282.227 124.7 282.264 124.745 282.291 124.795C282.319 124.846 282.336 124.901 282.343 124.959C282.349 125.016 282.344 125.074 282.327 125.13C282.311 125.185 282.284 125.236 282.248 125.281C282.212 125.326 282.167 125.364 282.116 125.391C266.505 133.876 256.653 152.66 251.981 182.803C251.963 182.904 251.91 182.995 251.831 183.061C251.753 183.126 251.654 183.162 251.552 183.163Z" fill="white"/>
<path d="M255.505 148.593C255.505 148.593 268.872 125.488 279.942 114.908C286.078 109.044 289.847 105.266 289.514 100.831C289.269 97.4652 286.473 95.6684 280.46 97.1497C268.478 100.095 262.053 112.235 257.915 125.829C254.979 135.401 255.505 148.593 255.505 148.593Z" fill="#37474F"/>
<path opacity="0.2" d="M255.505 148.593C255.505 148.593 268.872 125.488 279.942 114.908C286.078 109.044 289.847 105.266 289.514 100.831C289.269 97.4652 286.473 95.6684 280.46 97.1497C268.478 100.095 262.053 112.235 257.915 125.829C254.979 135.401 255.505 148.593 255.505 148.593Z" fill="#00FFE3"/>
<path d="M257.056 144.797H256.995C256.879 144.778 256.776 144.714 256.707 144.619C256.638 144.524 256.609 144.405 256.627 144.289C261.386 114.259 279.478 102.952 284.912 100.2C285.016 100.148 285.136 100.139 285.246 100.175C285.356 100.211 285.447 100.29 285.5 100.393C285.526 100.444 285.543 100.5 285.548 100.557C285.553 100.615 285.546 100.673 285.528 100.727C285.51 100.782 285.481 100.833 285.443 100.876C285.405 100.92 285.359 100.955 285.307 100.98C279.969 103.689 262.193 114.803 257.495 144.429C257.478 144.533 257.424 144.627 257.344 144.695C257.263 144.762 257.161 144.799 257.056 144.797Z" fill="white"/>
<path d="M330.378 80.3905L327.485 74.956L329.808 68.2419V64.131L322.69 68.2419V72.3528L325.749 77.6645C325.797 77.7476 325.871 77.8124 325.96 77.8486L330.378 80.3905Z" fill="#4DADF7"/>
<path opacity="0.1" d="M330.378 80.3905L327.485 74.956L329.808 68.2419V64.131L322.69 68.2419V72.3528L325.749 77.6645C325.797 77.7476 325.871 77.8124 325.96 77.8486L330.378 80.3905Z" fill="black"/>
<path d="M313.864 54.875L333.463 43.4802C334.125 43.1472 334.856 42.9738 335.597 42.9738C336.338 42.9738 337.069 43.1472 337.731 43.4802L339.484 44.4882C340.108 44.8918 340.627 45.4375 340.999 46.0805C341.37 46.7234 341.584 47.4454 341.623 48.1871V64.0697C341.582 64.8109 341.367 65.5321 340.996 66.1747C340.624 66.8174 340.107 67.3634 339.484 67.7686L319.868 79.1634C319.206 79.4964 318.475 79.6698 317.734 79.6698C316.992 79.6698 316.261 79.4964 315.599 79.1634L313.846 78.1554C313.225 77.7503 312.708 77.204 312.338 76.5612C311.968 75.9184 311.755 75.1972 311.716 74.4565V58.5564C311.761 57.8176 311.979 57.0996 312.352 56.4603C312.725 55.8209 313.243 55.278 313.864 54.875Z" fill="#4DADF7"/>
<path opacity="0.3" d="M313.864 54.875L333.463 43.4802C334.125 43.1472 334.856 42.9738 335.597 42.9738C336.338 42.9738 337.069 43.1472 337.731 43.4802L339.484 44.4882C340.108 44.8918 340.627 45.4375 340.999 46.0805C341.37 46.7234 341.584 47.4454 341.623 48.1871V64.0697C341.582 64.8109 341.367 65.5321 340.996 66.1747C340.624 66.8174 340.107 67.3634 339.484 67.7686L319.868 79.1634C319.206 79.4964 318.475 79.6698 317.734 79.6698C316.992 79.6698 316.261 79.4964 315.599 79.1634L313.846 78.1554C313.225 77.7503 312.708 77.204 312.338 76.5612C311.968 75.9184 311.755 75.1972 311.716 74.4565V58.5564C311.761 57.8176 311.979 57.0996 312.352 56.4603C312.725 55.8209 313.243 55.278 313.864 54.875Z" fill="white"/>
<path d="M319.877 79.1458C318.693 79.8207 317.738 79.2773 317.738 77.9099V62.0273C317.779 61.2861 317.994 60.5649 318.365 59.9223C318.737 59.2796 319.255 58.7336 319.877 58.3284L339.493 46.9336C340.677 46.25 341.632 46.8022 341.632 48.1695V64.0521C341.591 64.7933 341.376 65.5145 341.005 66.1572C340.633 66.7998 340.115 67.3459 339.493 67.751" fill="#4DADF7"/>
<path d="M311.734 74.4389C311.772 75.1797 311.985 75.9009 312.356 76.5437C312.726 77.1865 313.243 77.7327 313.864 78.1378L315.617 79.1458C316.218 79.4477 316.877 79.6187 317.549 79.6474C318.222 79.6761 318.892 79.5619 319.517 79.3124C318.518 79.698 317.764 79.1283 317.764 77.9099V62.0273C317.793 61.2839 318.01 60.56 318.395 59.9237L312.383 56.4176C312 57.0547 311.786 57.7786 311.76 58.5213L311.734 74.4389Z" fill="#4DADF7"/>
<path opacity="0.1" d="M311.734 74.4389C311.772 75.1797 311.985 75.9009 312.356 76.5437C312.726 77.1865 313.243 77.7327 313.864 78.1378L315.617 79.1458C316.218 79.4477 316.877 79.6187 317.549 79.6474C318.222 79.6761 318.892 79.5619 319.517 79.3124C318.518 79.698 317.764 79.1283 317.764 77.9099V62.0273C317.793 61.2839 318.01 60.56 318.395 59.9237L312.383 56.4176C312 57.0547 311.786 57.7786 311.76 58.5213L311.734 74.4389Z" fill="black"/>
<path d="M327.152 74.9298L330.211 80.2327C330.256 80.3074 330.322 80.3678 330.4 80.407C330.478 80.4462 330.565 80.4627 330.652 80.4544C330.739 80.4462 330.822 80.4136 330.891 80.3605C330.96 80.3073 331.013 80.2357 331.044 80.1538L334.278 70.8189V66.708L327.152 70.8189V74.9298Z" fill="#4DADF7"/>
<path d="M329.694 69.504L327.503 68.9255C325.416 68.3733 322.927 67.1724 322.927 64.4815C323.032 63.3852 323.394 62.329 323.983 61.3985C324.573 60.4681 325.373 59.6895 326.319 59.126C326.629 58.9041 326.993 58.7696 327.373 58.7364C327.753 58.7033 328.135 58.7727 328.479 58.9375C328.823 59.1023 329.116 59.3563 329.328 59.6732C329.54 59.99 329.664 60.358 329.685 60.7388C329.904 58.9857 331.324 56.2335 333.051 55.2342C334.927 54.1561 336.443 54.796 336.443 56.6717C336.443 59.3539 333.962 63.4385 331.876 66.4011L329.694 69.504Z" fill="white"/>
<path d="M39.9157 122.104L59.5323 110.753C60.1933 110.416 60.9247 110.24 61.6666 110.24C62.4086 110.24 63.14 110.416 63.8009 110.753L65.554 111.752C66.1739 112.159 66.6896 112.706 67.0596 113.348C67.4295 113.991 67.6434 114.711 67.6839 115.451V131.334C67.6434 132.074 67.4295 132.795 67.0596 133.437C66.6896 134.08 66.1739 134.626 65.554 135.033L45.9637 146.384C45.3012 146.721 44.5684 146.897 43.825 146.897C43.0816 146.897 42.3488 146.721 41.6863 146.384L39.9333 145.385C39.3033 144.978 38.7792 144.427 38.4043 143.778C38.0294 143.129 37.8143 142.399 37.777 141.651V125.803C37.8157 125.061 38.0298 124.339 38.4015 123.696C38.7733 123.053 39.2922 122.508 39.9157 122.104Z" fill="#FF7800"/>
<path opacity="0.3" d="M39.9157 122.104L59.5323 110.753C60.1933 110.416 60.9247 110.24 61.6666 110.24C62.4086 110.24 63.14 110.416 63.8009 110.753L65.554 111.752C66.1739 112.159 66.6896 112.706 67.0596 113.348C67.4295 113.991 67.6434 114.711 67.6839 115.451V131.334C67.6434 132.074 67.4295 132.795 67.0596 133.437C66.6896 134.08 66.1739 134.626 65.554 135.033L45.9637 146.384C45.3012 146.721 44.5684 146.897 43.825 146.897C43.0816 146.897 42.3488 146.721 41.6863 146.384L39.9333 145.385C39.3033 144.978 38.7792 144.427 38.4043 143.778C38.0294 143.129 37.8143 142.399 37.777 141.651V125.803C37.8157 125.061 38.0298 124.339 38.4015 123.696C38.7733 123.053 39.2922 122.508 39.9157 122.104Z" fill="white"/>
<path d="M56.4206 147.637L53.528 142.194L55.8596 135.48V131.369L48.7335 135.515V139.626L51.8013 144.885C51.8477 144.966 51.9181 145.03 52.0029 145.069L56.4206 147.637Z" fill="#FF7800"/>
<path opacity="0.1" d="M56.4206 147.637L53.528 142.194L55.8596 135.48V131.369L48.7335 135.515V139.626L51.8013 144.885C51.8477 144.966 51.9181 145.03 52.0029 145.069L56.4206 147.637Z" fill="black"/>
<path d="M45.9637 146.384C44.7804 147.067 43.825 146.515 43.825 145.148V129.265C43.8657 128.525 44.0807 127.805 44.4524 127.164C44.824 126.523 45.3418 125.978 45.9637 125.575L65.589 114.18C66.7635 113.505 67.7189 114.058 67.7189 115.416V131.299C67.6784 132.039 67.4645 132.76 67.0946 133.402C66.7246 134.045 66.2089 134.591 65.589 134.998" fill="#FF7800"/>
<path d="M37.777 141.651C37.8178 142.392 38.0327 143.113 38.4043 143.756C38.7759 144.398 39.2937 144.944 39.9157 145.349L41.6688 146.349C42.2717 146.65 42.9313 146.821 43.6048 146.852C44.2782 146.882 44.9505 146.77 45.578 146.524C44.57 146.901 43.825 146.331 43.825 145.113V129.265C43.8508 128.523 44.0649 127.799 44.4473 127.162L38.4432 123.699C38.0577 124.336 37.8405 125.06 37.8121 125.803L37.777 141.651Z" fill="#FF7800"/>
<path opacity="0.1" d="M37.777 141.651C37.8178 142.392 38.0327 143.113 38.4043 143.756C38.7759 144.398 39.2937 144.944 39.9157 145.349L41.6688 146.349C42.2717 146.65 42.9313 146.821 43.6048 146.852C44.2782 146.882 44.9505 146.77 45.578 146.524C44.57 146.901 43.825 146.331 43.825 145.113V129.265C43.8508 128.523 44.0649 127.799 44.4473 127.162L38.4432 123.699C38.0577 124.336 37.8405 125.06 37.8121 125.803L37.777 141.651Z" fill="black"/>
<path d="M53.2038 142.168L56.2628 147.427C56.3067 147.502 56.3711 147.563 56.4486 147.603C56.5261 147.643 56.6133 147.659 56.7 147.651C56.7867 147.643 56.8692 147.61 56.9377 147.556C57.0062 147.502 57.058 147.43 57.0867 147.348L60.3211 138.013V133.902L53.2038 138.013V142.168Z" fill="#FF7800"/>
<path d="M48.3303 132.684C47.739 133.064 47.2479 133.582 46.8986 134.192C46.5492 134.802 46.3518 135.487 46.3231 136.19C46.3231 137.47 47.1996 137.943 48.3303 137.347C48.9176 136.962 49.4056 136.444 49.7544 135.835C50.1033 135.225 50.3031 134.542 50.3375 133.841C50.3463 132.561 49.4698 132.009 48.3303 132.684Z" fill="white"/>
<path d="M55.7369 128.398C55.147 128.78 54.6565 129.298 54.306 129.907C53.9555 130.517 53.7549 131.201 53.7209 131.904C53.7209 133.183 54.5974 133.701 55.7369 133.061C56.3242 132.676 56.8122 132.158 57.161 131.548C57.5099 130.939 57.7097 130.256 57.7441 129.555C57.7441 128.275 56.8413 127.758 55.7369 128.398Z" fill="white"/>
<path d="M63.1348 124.12C62.5475 124.505 62.0595 125.023 61.7107 125.632C61.3618 126.242 61.162 126.925 61.1276 127.626C61.1276 128.906 62.0041 129.379 63.1348 128.783C63.7261 128.403 64.2171 127.886 64.5665 127.275C64.9159 126.665 65.1133 125.98 65.142 125.277C65.142 123.989 64.248 123.472 63.1348 124.12Z" fill="white"/>
<path d="M247.923 7.04338L162.708 56.2163C161.603 56.937 160.684 57.9078 160.025 59.0499C159.365 60.192 158.984 61.4733 158.912 62.7902V251.409C158.912 253.828 160.613 254.81 162.708 253.6L247.923 204.427C249.027 203.707 249.947 202.736 250.606 201.594C251.265 200.452 251.646 199.17 251.718 197.853V9.23469C251.718 6.81549 250.018 5.83378 247.923 7.04338Z" fill="#37474F"/>
<path d="M162.708 56.2162L247.923 7.04338C249.799 5.96526 251.35 6.64018 251.657 8.5247C251.484 7.33903 251.062 6.20347 250.418 5.19276C249.775 4.18205 248.924 3.31911 247.923 2.66077L244.829 0.907725C243.653 0.31099 242.352 0 241.034 0C239.715 0 238.414 0.31099 237.238 0.907725L152.023 50.0543C150.902 50.7536 149.978 51.7283 149.341 52.8855L160.025 59.0211C160.667 57.8736 161.59 56.9082 162.708 56.2162Z" fill="#455A64"/>
<path d="M148.228 245.238C148.298 246.555 148.679 247.837 149.338 248.979C149.998 250.122 150.917 251.092 152.023 251.812L155.117 253.565C156.187 254.104 157.358 254.41 158.555 254.463C159.752 254.516 160.946 254.315 162.059 253.872C160.306 254.547 158.912 253.539 158.912 251.374V62.7638C158.956 61.4414 159.34 60.1525 160.025 59.021L149.341 52.8854C148.657 54.0176 148.273 55.306 148.228 56.6281V245.238Z" fill="#263238"/>
<path d="M164.75 79.707L245.881 32.892C247.134 32.1644 248.16 32.7517 248.16 34.2067V177.001C248.115 177.791 247.885 178.559 247.489 179.244C247.094 179.929 246.543 180.512 245.881 180.945L164.75 227.752C163.496 228.479 162.471 227.892 162.471 226.437V83.6513C162.513 82.8608 162.741 82.0914 163.138 81.4059C163.534 80.7205 164.086 80.1383 164.75 79.707Z" fill="#FAFAFA"/>
<path d="M204.456 38.9488C204.069 39.2033 203.746 39.5452 203.515 39.9472C203.283 40.3491 203.149 40.7997 203.124 41.2628C203.124 42.1393 203.72 42.4636 204.456 42.0341C204.845 41.7806 205.168 41.4389 205.4 41.0368C205.631 40.6346 205.765 40.1835 205.789 39.7201C205.789 38.8699 205.193 38.528 204.456 38.9488Z" fill="#263238"/>
<path d="M191.843 52.5174C191.073 53.0293 190.434 53.7147 189.978 54.5185C189.521 55.3223 189.259 56.2221 189.214 57.1455C189.214 58.8459 190.406 59.5384 191.843 58.6882C192.622 58.1817 193.27 57.4985 193.734 56.6943C194.199 55.8901 194.467 54.9875 194.517 54.0601C194.517 52.3597 193.316 51.6672 191.843 52.5174Z" fill="#263238"/>
<path d="M198.373 51.9388C198.373 53.0782 199.25 53.5077 200.275 52.9029L217.806 42.7616C218.347 42.4209 218.8 41.9578 219.129 41.4097C219.458 40.8615 219.653 40.2437 219.699 39.6061C219.699 38.4754 218.823 38.0459 217.806 38.6507L200.275 48.792C199.733 49.1303 199.279 49.5915 198.948 50.1382C198.618 50.6849 198.421 51.3017 198.373 51.9388Z" fill="#263238"/>
<path d="M154.135 85.3519C154.759 85.7555 155.278 86.3012 155.649 86.9441C156.021 87.5871 156.235 88.3091 156.274 89.0508C156.274 90.4094 155.319 90.9616 154.135 90.2867C153.515 89.8787 152.999 89.3306 152.629 88.6866C152.259 88.0426 152.045 87.3206 152.005 86.579C152.023 85.2204 152.961 84.677 154.135 85.3519Z" fill="#37474F"/>
<path d="M154.135 101.804C154.757 102.209 155.275 102.755 155.647 103.398C156.018 104.041 156.233 104.762 156.274 105.503C156.274 106.87 155.319 107.423 154.135 106.739C153.524 106.335 153.016 105.794 152.649 105.16C152.282 104.526 152.068 103.815 152.023 103.084C152.023 101.681 152.961 101.129 154.135 101.804Z" fill="#37474F"/>
<path d="M153.478 85.676C154.1 86.0812 154.618 86.6272 154.989 87.2699C155.361 87.9125 155.576 88.6337 155.617 89.3749C155.617 90.7423 154.661 91.2945 153.478 90.6108C152.857 90.2046 152.34 89.6584 151.968 89.0159C151.597 88.3735 151.381 87.6528 151.339 86.9119C151.339 85.5533 152.303 85.0011 153.478 85.676Z" fill="#455A64"/>
<path d="M153.478 102.137C154.1 102.542 154.618 103.088 154.989 103.731C155.361 104.374 155.576 105.095 155.617 105.836C155.617 107.203 154.661 107.756 153.478 107.072C152.857 106.666 152.34 106.119 151.968 105.477C151.597 104.835 151.381 104.114 151.339 103.373C151.339 102.006 152.303 101.453 153.478 102.137Z" fill="#455A64"/>
<path d="M205.315 210.651C203.783 211.651 202.509 212.999 201.595 214.584C200.681 216.169 200.154 217.948 200.056 219.775C200.056 223.141 202.414 224.5 205.315 222.825C206.848 221.823 208.122 220.474 209.036 218.887C209.95 217.3 210.477 215.521 210.574 213.692C210.583 210.326 208.225 208.968 205.315 210.651Z" fill="#263238"/>
<path d="M181.57 225.718C180.825 225.718 180.746 224.842 180.746 224.526V81.7407C180.792 81.0277 181.002 80.3349 181.359 79.7162C181.717 79.0975 182.212 78.5695 182.806 78.1733L263.937 31.3582C264.179 31.2134 264.453 31.1292 264.735 31.1128C265.48 31.1128 265.559 31.9367 265.559 32.2961V175.09C265.514 175.802 265.304 176.494 264.947 177.111C264.589 177.729 264.094 178.255 263.499 178.649L182.368 225.464C182.128 225.616 181.854 225.704 181.57 225.718Z" fill="white" stroke="#141414" stroke-miterlimit="10"/>
<path d="M264.735 31.551C265.068 31.551 265.12 32.0155 265.12 32.296V175.09C265.076 175.726 264.888 176.343 264.569 176.894C264.25 177.446 263.809 177.917 263.28 178.272L182.149 225.087C181.974 225.197 181.776 225.263 181.57 225.28C181.237 225.28 181.185 224.806 181.185 224.526V81.7406C181.229 81.1051 181.418 80.488 181.737 79.9366C182.056 79.3851 182.496 78.9139 183.025 78.5588L264.156 31.7438C264.329 31.6301 264.528 31.5636 264.735 31.551ZM264.735 30.6744C264.375 30.6865 264.024 30.7922 263.718 30.9812L182.587 77.7962C181.923 78.2276 181.371 78.8097 180.975 79.4952C180.579 80.1807 180.35 80.9501 180.308 81.7406V224.526C180.308 225.56 180.825 226.156 181.57 226.156C181.931 226.141 182.281 226.032 182.587 225.841L263.718 179.035C264.381 178.603 264.933 178.02 265.329 177.335C265.725 176.65 265.954 175.881 265.997 175.09V32.296C265.997 31.2705 265.48 30.6744 264.735 30.6744Z" fill="#37474F" stroke="#141414" stroke-miterlimit="10"/>
<path d="M265.971 32.2961C265.971 30.8411 264.954 30.2538 263.692 30.9813L182.561 77.7963C181.897 78.2277 181.345 78.8098 180.948 79.4953C180.552 80.1808 180.324 80.9501 180.282 81.7407V93.4423L265.971 43.9977V32.2961Z" fill="#37474F"/>
<path opacity="0.1" d="M265.971 32.2961C265.971 30.8411 264.954 30.2538 263.692 30.9813L182.561 77.7963C181.897 78.2277 181.345 78.8098 180.948 79.4953C180.552 80.1808 180.324 80.9501 180.282 81.7407V93.4423L265.971 43.9977V32.2961Z" fill="black"/>
<path d="M189.249 80.4959C189.105 80.4414 188.949 80.4233 188.796 80.4431C188.643 80.463 188.498 80.5203 188.372 80.6098C187.921 80.909 187.546 81.3083 187.275 81.7767C187.005 82.245 186.846 82.7697 186.812 83.3095C186.79 83.4649 186.81 83.6233 186.87 83.7682C186.93 83.9131 187.028 84.0393 187.154 84.1335C187.298 84.1926 187.455 84.2124 187.609 84.1908C187.763 84.1693 187.908 84.1071 188.03 84.0107C188.478 83.7115 188.851 83.3131 189.12 82.8465C189.389 82.3798 189.547 81.8574 189.582 81.3198C189.605 81.1653 189.586 81.0074 189.527 80.8625C189.469 80.7176 189.373 80.5911 189.249 80.4959Z" fill="white"/>
<path d="M191.098 77.5071L190.905 77.621V77.2266C190.905 76.6744 190.52 76.4465 190.029 76.7269L186.347 78.8481C186.094 79.012 185.883 79.233 185.731 79.4933C185.579 79.7536 185.49 80.046 185.471 80.347V80.7502L185.269 80.8641C184.933 81.0828 184.653 81.3777 184.452 81.7249C184.251 82.0722 184.134 82.462 184.112 82.8626V86.43C184.112 87.1663 184.629 87.4731 185.269 87.105L191.081 83.7479C191.418 83.5279 191.698 83.2314 191.899 82.8827C192.1 82.5339 192.216 82.1426 192.238 81.7406V78.1557C192.255 77.4369 191.738 77.1389 191.098 77.5071ZM188.363 84.5893C188.08 84.7623 187.757 84.859 187.426 84.8698C187.211 84.8719 186.999 84.8174 186.812 84.7121C186.585 84.5591 186.403 84.3486 186.285 84.1022C186.166 83.8558 186.115 83.5822 186.137 83.3096C186.168 82.6528 186.355 82.013 186.685 81.444C187.014 80.875 187.476 80.3935 188.03 80.0402C188.253 79.8797 188.515 79.7833 188.789 79.7617C189.062 79.7401 189.337 79.794 189.582 79.9175C189.809 80.0695 189.991 80.2801 190.108 80.527C190.225 80.7738 190.274 81.0478 190.248 81.3199C190.217 81.9756 190.03 82.6144 189.702 83.1831C189.374 83.7518 188.915 84.2339 188.363 84.5893ZM190.993 79.8298C190.695 79.9964 190.458 79.8298 190.458 79.5143C190.467 79.3281 190.521 79.1467 190.613 78.9852C190.706 78.8236 190.837 78.6865 190.993 78.5852C191.291 78.4099 191.536 78.5852 191.536 78.8919C191.53 79.0769 191.48 79.2578 191.392 79.4204C191.304 79.5831 191.179 79.7232 191.028 79.8298H190.993Z" fill="white"/>
<path d="M261.308 35.8985L255.636 39.1679C255.308 39.382 255.034 39.6706 254.838 40.0102C254.641 40.3498 254.528 40.7308 254.506 41.1225V44.6286C254.506 45.3386 255.014 45.6366 255.636 45.2773L259.011 43.3314L260.335 44.6549C260.366 44.6838 260.405 44.703 260.446 44.7102C260.488 44.7174 260.531 44.7124 260.57 44.6957C260.609 44.679 260.642 44.6513 260.666 44.6161C260.689 44.5809 260.702 44.5395 260.703 44.4972V42.3497L261.308 41.9991C261.641 41.7879 261.92 41.5006 262.121 41.1608C262.322 40.8211 262.44 40.4385 262.465 40.0444V36.5383C262.465 35.8283 261.93 35.5391 261.308 35.8985Z" fill="white"/>
<path d="M191.23 91.356C194.192 89.6731 196.594 91.0405 196.594 94.4238C196.488 96.2743 195.946 98.0737 195.014 99.6758C194.082 101.278 192.786 102.638 191.23 103.645C188.258 105.398 185.857 103.987 185.857 100.577C185.956 98.7239 186.495 96.9212 187.43 95.3178C188.364 93.7143 189.667 92.3563 191.23 91.356Z" fill="#37474F"/>
<path d="M201.906 87.2276L219.708 76.9548C220.76 76.35 221.61 76.7795 221.61 77.9102C221.564 78.5487 221.367 79.1673 221.037 79.7156C220.706 80.264 220.251 80.7265 219.708 81.0656L201.906 91.3385C200.863 91.9433 200.012 91.5138 200.012 90.3831C200.058 89.7455 200.254 89.1277 200.583 88.5795C200.912 88.0314 201.365 87.5682 201.906 87.2276Z" fill="#37474F"/>
<g opacity="0.7">
<path opacity="0.7" d="M201.906 87.2276L219.708 76.9548C220.76 76.35 221.61 76.7795 221.61 77.9102C221.564 78.5487 221.367 79.1673 221.037 79.7156C220.706 80.264 220.251 80.7265 219.708 81.0656L201.906 91.3385C200.863 91.9433 200.012 91.5138 200.012 90.3831C200.058 89.7455 200.254 89.1277 200.583 88.5795C200.912 88.0314 201.365 87.5682 201.906 87.2276Z" fill="white"/>
</g>
<path d="M201.31 94.5115L213.52 87.4994C214.238 87.0874 214.817 87.3767 214.817 88.1568C214.786 88.5941 214.652 89.0179 214.426 89.394C214.201 89.77 213.89 90.0879 213.52 90.3218L201.31 97.334C200.591 97.7459 200.012 97.4479 200.012 96.6678C200.044 96.2318 200.179 95.8095 200.404 95.4349C200.629 95.0604 200.94 94.7441 201.31 94.5115Z" fill="#37474F"/>
<g opacity="0.7">
<path opacity="0.7" d="M201.31 94.5115L213.52 87.4994C214.238 87.0874 214.817 87.3767 214.817 88.1568C214.786 88.5941 214.652 89.0179 214.426 89.394C214.201 89.77 213.89 90.0879 213.52 90.3218L201.31 97.334C200.591 97.7459 200.012 97.4479 200.012 96.6678C200.044 96.2318 200.179 95.8095 200.404 95.4349C200.629 95.0604 200.94 94.7441 201.31 94.5115Z" fill="white"/>
</g>
<path d="M191.23 183.513C194.192 181.831 196.594 183.207 196.594 186.581C196.488 188.432 195.946 190.231 195.014 191.833C194.082 193.435 192.786 194.795 191.23 195.802C188.258 197.555 185.857 196.144 185.857 192.735C185.958 190.882 186.498 189.08 187.433 187.477C188.367 185.874 189.668 184.515 191.23 183.513Z" fill="#37474F"/>
<path d="M201.906 179.394L219.708 169.112C220.76 168.507 221.61 168.937 221.61 170.068C221.564 170.706 221.367 171.325 221.037 171.873C220.706 172.421 220.251 172.884 219.708 173.223L201.906 183.505C200.863 184.11 200.012 183.68 200.012 182.541C200.06 181.904 200.256 181.288 200.585 180.742C200.913 180.195 201.366 179.734 201.906 179.394Z" fill="#37474F"/>
<g opacity="0.7">
<path opacity="0.7" d="M201.906 179.394L219.708 169.112C220.76 168.507 221.61 168.937 221.61 170.068C221.564 170.706 221.367 171.325 221.037 171.873C220.706 172.421 220.251 172.884 219.708 173.223L201.906 183.505C200.863 184.11 200.012 183.68 200.012 182.541C200.06 181.904 200.256 181.288 200.585 180.742C200.913 180.195 201.366 179.734 201.906 179.394Z" fill="white"/>
</g>
<path d="M201.31 186.669L213.52 179.657C214.238 179.245 214.817 179.534 214.817 180.314C214.786 180.752 214.652 181.175 214.426 181.551C214.201 181.928 213.89 182.245 213.52 182.479L201.31 189.491C200.591 189.903 200.012 189.605 200.012 188.834C200.043 188.397 200.177 187.972 200.402 187.596C200.627 187.22 200.938 186.902 201.31 186.669Z" fill="#37474F"/>
<g opacity="0.7">
<path opacity="0.7" d="M201.31 186.669L213.52 179.657C214.238 179.245 214.817 179.534 214.817 180.314C214.786 180.752 214.652 181.175 214.426 181.551C214.201 181.928 213.89 182.245 213.52 182.479L201.31 189.491C200.591 189.903 200.012 189.605 200.012 188.834C200.043 188.397 200.177 187.972 200.402 187.596C200.627 187.22 200.938 186.902 201.31 186.669Z" fill="white"/>
</g>
<path d="M189.564 108.746L256.978 69.8286C258.029 69.2238 258.88 69.7147 258.88 70.9243V138.25C258.844 138.91 258.653 139.552 258.322 140.125C257.992 140.698 257.531 141.184 256.978 141.546L189.564 180.691C188.512 181.296 187.671 180.805 187.671 179.595V112.033C187.705 111.375 187.894 110.734 188.223 110.163C188.552 109.591 189.012 109.106 189.564 108.746Z" fill="#F5F5F5"/>
<path d="M214.308 124.164C214.136 123.912 213.899 123.712 213.621 123.585C213.343 123.458 213.036 123.41 212.733 123.445C212.429 123.48 212.141 123.598 211.9 123.785C211.659 123.972 211.473 124.221 211.363 124.506L187.697 169.454V179.595C187.697 180.805 188.574 181.296 189.59 180.691L257.004 141.747C257.557 141.386 258.018 140.899 258.349 140.327C258.679 139.754 258.87 139.112 258.906 138.451V116.013L246.1 93.2668C245.39 91.9958 244.399 92.0747 243.882 93.4333L226.834 138.618L214.308 124.164Z" fill="#37474F"/>
<g opacity="0.3">
<path opacity="0.3" d="M214.308 124.164C214.136 123.912 213.899 123.712 213.621 123.585C213.343 123.458 213.036 123.41 212.733 123.445C212.429 123.48 212.141 123.598 211.9 123.785C211.659 123.972 211.473 124.221 211.363 124.506L187.697 169.454V179.595C187.697 180.805 188.574 181.296 189.59 180.691L257.004 141.747C257.557 141.386 258.018 140.899 258.349 140.327C258.679 139.754 258.87 139.112 258.906 138.451V116.013L246.1 93.2668C245.39 91.9958 244.399 92.0747 243.882 93.4333L226.834 138.618L214.308 124.164Z" fill="#308BD2"/>
</g>
<path d="M194.78 126.96C200.722 123.551 205.552 115.241 205.552 108.404C205.552 104.898 204.29 102.497 202.283 101.392L189.564 108.729C189.012 109.089 188.552 109.574 188.223 110.145C187.894 110.716 187.705 111.357 187.671 112.016V127.916C189.564 128.766 192.045 128.503 194.78 126.96Z" fill="#37474F"/>
<g opacity="0.6">
<path opacity="0.6" d="M194.78 126.96C200.722 123.551 205.552 115.241 205.552 108.404C205.552 104.898 204.29 102.497 202.283 101.392L189.564 108.729C189.012 109.089 188.552 109.574 188.223 110.145C187.894 110.716 187.705 111.357 187.671 112.016V127.916C189.564 128.766 192.045 128.503 194.78 126.96Z" fill="white"/>
</g>
<path d="M189.564 201.254L256.978 162.328C258.029 161.723 258.88 162.153 258.88 163.292C258.832 163.929 258.635 164.546 258.304 165.093C257.974 165.639 257.519 166.101 256.978 166.439L189.564 205.365C188.512 205.97 187.671 205.541 187.671 204.401C187.716 203.764 187.91 203.147 188.239 202.6C188.569 202.053 189.023 201.592 189.564 201.254Z" fill="#37474F"/>
<g opacity="0.6">
<path opacity="0.6" d="M189.564 201.254L256.978 162.328C258.029 161.723 258.88 162.153 258.88 163.292C258.832 163.929 258.635 164.546 258.304 165.093C257.974 165.639 257.519 166.101 256.978 166.439L189.564 205.365C188.512 205.97 187.671 205.541 187.671 204.401C187.716 203.764 187.91 203.147 188.239 202.6C188.569 202.053 189.023 201.592 189.564 201.254Z" fill="white"/>
</g>
<path d="M189.564 209.476L256.978 170.576C258.029 169.971 258.88 170.401 258.88 171.54C258.832 172.177 258.635 172.794 258.304 173.341C257.974 173.887 257.519 174.349 256.978 174.687L189.564 213.613C188.512 214.218 187.671 213.788 187.671 212.649C187.712 212.008 187.905 211.386 188.235 210.834C188.564 210.282 189.02 209.817 189.564 209.476Z" fill="#37474F"/>
<g opacity="0.6">
<path opacity="0.6" d="M189.564 209.476L256.978 170.576C258.029 169.971 258.88 170.401 258.88 171.54C258.832 172.177 258.635 172.794 258.304 173.341C257.974 173.887 257.519 174.349 256.978 174.687L189.564 213.613C188.512 214.218 187.671 213.788 187.671 212.649C187.712 212.008 187.905 211.386 188.235 210.834C188.564 210.282 189.02 209.817 189.564 209.476Z" fill="white"/>
</g>
<path d="M199.96 72.0989L248.055 44.357C249.527 43.4804 250.684 44.1992 250.684 45.8909C250.639 46.8095 250.377 47.7043 249.92 48.5025C249.463 49.3006 248.824 49.9795 248.055 50.4838L199.969 78.1469C198.496 79.0234 197.339 78.3222 197.339 76.6568C197.389 75.745 197.652 74.8577 198.107 74.0661C198.562 73.2745 199.197 72.6007 199.96 72.0989Z" fill="#FAFAFA"/>
<path d="M341.264 124.716L344.674 130.966L339.371 135.515L334.506 127.81L341.264 124.716Z" fill="#F28F8F"/>
<path d="M328.467 110.788C331.85 110.788 335.575 112.051 336.855 114.706L342.114 125.61C342.114 125.61 339.125 129.993 334.383 129.677L328.467 110.788Z" fill="#E0E0E0"/>
<path d="M341.001 131.939C341.991 130.098 342.237 130.011 342.824 129.607C343.411 129.204 347.023 128.67 348.521 128.538C350.275 128.389 350.914 128.713 350.424 130.23C349.073 134.054 347.42 137.765 345.48 141.326C345.007 141.949 344.919 142.527 342.929 142.729C341.08 142.904 338.757 143.009 338.073 143.044C337.39 143.08 336.443 143.264 337.048 141.248C337.83 138.97 338.738 136.738 339.765 134.56C340.528 132.886 341.001 131.939 341.001 131.939Z" fill="#37474F"/>
<path d="M301.505 193.953C300.628 193.514 300.129 194.584 299.366 195.443C298.711 196.074 298.2 196.84 297.867 197.687C297.683 198.695 298.604 200.316 299.62 201.193C300.637 202.069 301.812 202.709 302.18 204.637C302.275 205.522 302.618 206.362 303.17 207.06C303.722 207.758 304.461 208.286 305.3 208.582C307.492 209.528 310.428 209.222 311.436 208.582C312.61 207.819 311.532 206.978 309.884 204.611C307.728 201.526 306.045 199.352 306.045 196.433L301.505 193.953Z" fill="#263238"/>
<path d="M303.232 191.42L301.479 194.049C301.1 194.586 300.951 195.252 301.062 195.899C301.174 196.547 301.538 197.123 302.075 197.503L302.127 197.546C302.666 197.866 303.3 197.988 303.92 197.891C304.539 197.793 305.105 197.482 305.519 197.012L308.289 193.997L303.232 191.42Z" fill="#FFA8A7"/>
<path d="M335.786 140.722C335.9 144.035 334.962 157.419 332.674 163.336C330.386 169.252 329.063 172.934 328.344 174.17C327.625 175.406 306.887 195.583 306.887 195.583C306.887 195.583 303.381 195.329 302.811 191.919C302.811 191.919 311.304 177.474 313.145 174.511C314.986 171.549 321.507 167.008 321.507 167.008L320.911 141.098L335.786 140.722Z" fill="#37474F"/>
<path d="M305.064 137.496C305.064 136.926 306.817 130.379 307.693 127.355L314.118 129.564L312.61 134.332L306.957 140.178C306.358 140.059 305.827 139.714 305.475 139.215C305.123 138.716 304.975 138.101 305.064 137.496Z" fill="#FFA8A7"/>
<path d="M331.217 211.235L335.602 210.238L334.15 203.853L329.765 204.85L331.217 211.235Z" fill="#FFA8A7"/>
<path d="M335.786 140.722H314.749C314.29 143.793 314.026 146.89 313.96 149.995C313.794 159.111 322.278 175.669 322.278 175.669C321.871 179.353 322.055 183.078 322.822 186.704C324.68 193.962 329.746 206.259 329.746 206.259C329.746 206.259 332.928 206.706 334.497 204.874C334.497 204.874 331.692 179.92 330.938 173.53C330.123 166.605 328.02 153.975 328.02 153.975C329.408 152.591 330.667 151.083 331.78 149.469C333.731 146.871 335.095 143.881 335.777 140.704" fill="#37474F"/>
<path d="M321.525 110.972C317.493 111.945 311.997 113.207 310.41 117.573C308.824 121.938 306.536 129.677 306.536 129.677C307.413 131.211 312.277 132.482 313.969 131.597L314.758 128.967V140.695C317.913 144.131 328.905 145.726 335.794 140.695V118.782C335.794 115.276 333.849 111.069 328.475 110.762L321.525 110.972Z" fill="#4DADF7"/>
<path d="M314.758 128.994L316.783 122.621L314.758 131.842V128.994Z" fill="#E0E0E0"/>
<path d="M320.008 93.065C319.647 93.0247 319.28 93.0669 318.937 93.1883C318.594 93.3098 318.283 93.5073 318.027 93.7662C317.151 94.6427 317.352 96.2467 318.027 99.9544L320.657 100.252L320.008 93.065Z" fill="#263238"/>
<path d="M335.356 91.9957C335.909 92.0015 336.457 91.8972 336.969 91.6889C337.775 91.2244 337.986 92.1447 337.539 92.9423C337.247 93.5139 336.813 94.001 336.279 94.3571C335.745 94.7131 335.128 94.9262 334.488 94.9759C334.488 94.8619 333.735 92.916 333.735 92.916L335.356 91.9957Z" fill="#263238"/>
<path d="M321.244 100.253C320.858 100.489 320.297 99.7354 319.815 99.2358C319.627 99.018 319.386 98.852 319.115 98.7535C318.844 98.655 318.553 98.6273 318.269 98.6729C317.984 98.7186 317.716 98.8361 317.49 99.0144C317.263 99.1926 317.086 99.4257 316.975 99.6916C316.178 101.375 317.992 103.618 319.062 104.355C319.358 104.614 319.729 104.772 320.121 104.807C320.514 104.842 320.907 104.751 321.244 104.548L321.525 110.99C321.997 112.022 322.717 112.921 323.621 113.608C324.525 114.294 325.584 114.747 326.705 114.926C330.491 115.434 329.711 112.296 328.458 110.788V108.448C329.406 108.648 330.379 108.695 331.342 108.588C331.832 108.457 333.007 107.037 333.77 105.442C335.387 102.247 335.746 98.5627 334.778 95.1161C333.419 89.3486 327.222 89.1733 323.532 91.4961C319.842 93.8189 321.244 100.253 321.244 100.253Z" fill="#FFA8A7"/>
<path d="M321.244 100.91C321.051 100.91 320.306 99.6741 319.815 99.2358C319.14 98.6222 320.008 93.1002 320.008 93.1002C319.822 92.5066 319.785 91.8764 319.899 91.2651C320.014 90.6537 320.277 90.0799 320.666 89.5941C321.998 88.1916 324.575 88.4283 326.459 88.3669C328.778 88.376 331.074 87.9138 333.209 87.0083C335.891 85.8426 336.092 85.7111 336.417 86.8856C336.676 87.8563 336.708 88.8736 336.51 89.8586C336.313 90.8436 335.891 91.7699 335.277 92.5655L334.401 93.9854C334.401 93.9854 333.586 94.6691 331.087 94.9759C328.589 95.2827 324.329 93.9328 323.795 93.8627C323.067 93.7663 322.918 94.4675 322.524 96.3871C322.191 98.0437 321.91 100.901 321.244 100.91Z" fill="#263238"/>
<path d="M320.017 93.5033L317.65 92.2324C317.726 92.0778 317.831 91.9398 317.961 91.8261C318.09 91.7124 318.24 91.6254 318.403 91.57C318.566 91.5146 318.738 91.492 318.91 91.5034C319.082 91.5147 319.249 91.5599 319.403 91.6363C319.728 91.8067 319.974 92.097 320.089 92.4455C320.203 92.794 320.178 93.1734 320.017 93.5033Z" fill="#263238"/>
<path d="M328.458 108.448C326.845 108.139 325.264 107.684 323.733 107.089C323.016 106.711 322.428 106.128 322.042 105.415C322.227 106.131 322.555 106.802 323.006 107.387C323.882 108.536 328.458 109.377 328.458 109.377V108.448Z" fill="#F28F8F"/>
<path d="M328.572 100.13C328.574 100.319 328.502 100.502 328.371 100.638C328.239 100.774 328.06 100.853 327.871 100.857C327.776 100.855 327.683 100.834 327.597 100.796C327.511 100.758 327.433 100.703 327.368 100.635C327.302 100.566 327.251 100.486 327.217 100.398C327.183 100.31 327.167 100.216 327.169 100.121C327.167 99.9321 327.239 99.7496 327.371 99.6134C327.502 99.4772 327.682 99.3983 327.871 99.3937C327.965 99.396 328.058 99.4168 328.144 99.455C328.231 99.4933 328.309 99.5482 328.374 99.6165C328.439 99.6849 328.49 99.7654 328.524 99.8535C328.558 99.9416 328.574 100.036 328.572 100.13Z" fill="#263238"/>
<path d="M327.827 97.4739L326.328 98.3504C326.271 98.2488 326.235 98.1369 326.222 98.0212C326.209 97.9054 326.219 97.7882 326.251 97.6764C326.284 97.5646 326.339 97.4605 326.412 97.37C326.485 97.2796 326.576 97.2046 326.679 97.1496C326.876 97.0487 327.103 97.0261 327.316 97.0862C327.529 97.1464 327.712 97.2849 327.827 97.4739Z" fill="#263238"/>
<path d="M328.142 104.837L329.746 105.442C329.667 105.652 329.51 105.824 329.308 105.922C329.106 106.019 328.874 106.036 328.66 105.967C328.551 105.928 328.452 105.866 328.367 105.788C328.282 105.709 328.214 105.615 328.166 105.51C328.118 105.405 328.091 105.291 328.087 105.176C328.083 105.06 328.102 104.945 328.142 104.837Z" fill="#F28F8F"/>
<path d="M334.83 98.0612L333.463 97.0094C333.6 96.832 333.8 96.7139 334.022 96.6797C334.244 96.6455 334.47 96.6976 334.655 96.8253C334.748 96.8944 334.827 96.9814 334.886 97.0812C334.946 97.181 334.985 97.2916 335.001 97.4066C335.017 97.5216 335.011 97.6387 334.981 97.7511C334.952 97.8634 334.901 97.9689 334.83 98.0612Z" fill="#263238"/>
<path d="M334.409 99.9282C334.412 100.117 334.34 100.3 334.208 100.436C334.077 100.572 333.897 100.651 333.708 100.656C333.614 100.653 333.521 100.633 333.435 100.594C333.348 100.556 333.27 100.501 333.205 100.433C333.14 100.364 333.089 100.284 333.055 100.196C333.021 100.108 333.005 100.014 333.007 99.9194C333.005 99.7303 333.077 99.5478 333.208 99.4116C333.34 99.2755 333.519 99.1965 333.708 99.1919C333.898 99.1987 334.078 99.2796 334.209 99.4172C334.34 99.5548 334.412 99.7382 334.409 99.9282Z" fill="#263238"/>
<path d="M331.105 99.8406L330.448 104.013L332.753 103.741L331.105 99.8406Z" fill="#F28F8F"/>
<path d="M335.102 208.109L334.962 207.477C335.417 207.565 337.39 210.834 339.344 212.254C341.483 213.806 343.332 214.726 344.288 215.427C345.568 216.365 343.718 218.285 340.571 218.46C339.011 218.539 336.189 218.066 335.312 217.233C334.436 216.4 333.805 215.024 333.103 214.428C332.402 213.832 331.009 213.306 330.526 212.544C330.269 211.786 330.176 210.982 330.255 210.186C330.255 209.362 330.316 208.433 330.597 208.477L330.702 208.95C331.515 209.365 332.419 209.567 333.331 209.537C334.094 209.502 335.47 209.336 335.102 208.109Z" fill="#263238"/>
<path d="M330.395 169.287C330.395 169.287 328.528 156.026 328.028 153.975C329.528 153.156 330.923 152.158 332.183 151.003C331.314 152.246 330.365 153.432 329.343 154.553L330.395 169.287Z" fill="#263238"/>
<path d="M319.132 168.823C319.132 168.823 321.376 174.406 322.287 175.642C322.287 175.642 322.059 179.902 322.086 180.761L320.911 181.787C320.88 179.859 321.057 177.935 321.437 176.045C320.407 173.729 319.633 171.307 319.132 168.823Z" fill="#263238"/>
<path d="M312.637 134.332C312.637 134.332 330.316 136.225 332.394 135.585C334.471 134.945 337.258 132.886 338.722 132.009C340.186 131.133 341.299 131.08 341.299 131.439C341.299 131.799 340.019 133.753 339.73 134.568C339.441 135.384 341.106 135.384 343.306 134.875C345.506 134.367 346.383 133.122 346.953 133.841C347.522 134.56 345.734 138.224 342.088 139.6C338.442 140.976 335.733 140.056 332.718 140.187C329.703 140.318 311.129 141.502 306.948 140.187C306.838 139.517 306.914 138.829 307.169 138.2C307.424 137.57 307.848 137.023 308.394 136.62C309.658 135.606 311.095 134.83 312.637 134.332Z" fill="#FFA8A7"/>
<path d="M214.624 218.785C214.668 218.215 215.746 212.079 216.482 208.643L223.696 210.852L222.539 215.664L216.544 221.467C215.94 221.353 215.403 221.011 215.045 220.511C214.687 220.011 214.537 219.393 214.624 218.785Z" fill="#FFA8A7"/>
<path d="M230.436 166.842H233.943C236.53 166.842 239.011 167.87 240.841 169.699C242.67 171.529 243.698 174.01 243.698 176.598V201.456H220.681V176.598C220.681 174.01 221.709 171.529 223.538 169.699C225.368 167.87 227.849 166.842 230.436 166.842Z" fill="#263238"/>
<path d="M249.518 205.891L252.928 212.141L247.616 216.681L242.76 208.976L249.518 205.891Z" fill="#F28F8F"/>
<path d="M236.721 191.954C240.105 191.954 243.83 193.216 245.109 195.872L250.369 206.776C250.369 206.776 247.38 211.159 242.638 210.852L236.721 191.954Z" fill="#455A64"/>
<path d="M239.456 300.091C240.62 301.648 241.929 303.092 243.365 304.403C243.596 304.588 243.779 304.826 243.9 305.096C244.049 305.551 244.242 306.647 242.217 307.094C241.191 307.319 240.128 307.321 239.101 307.098C238.074 306.876 237.107 306.435 236.265 305.806C234.784 304.614 234.959 302.519 233.592 301.142C232.575 300.134 231.199 299.74 230.436 298.513C229.902 297.636 230.191 296.593 230.673 295.305C231.155 294.016 231.497 292.842 231.962 293.008L231.804 293.657C232.286 294.683 235.31 295.331 236.791 294.84C237.588 296.635 238.478 298.388 239.456 300.091Z" fill="#263238"/>
<path d="M240.648 301.598C240.236 301.116 239.833 300.625 239.456 300.091C238.681 298.8 237.987 297.462 237.379 296.085C236.983 295.265 236.914 294.325 237.186 293.455L238.185 290.081L232.926 288.871L231.786 293.596C231.541 294.674 232.321 295.743 233.75 297.303C235.178 298.864 236.826 302.3 238.132 303.272C239.438 304.245 240.508 304.342 241.174 304.009C241.84 303.676 242.007 303.369 240.648 301.598Z" fill="#FFA8A7"/>
<path d="M225.309 303.062V302.317C225.607 303.193 226.957 306.927 229.008 308.803C230.647 310.285 232.873 312.011 233.434 313.668C233.995 315.325 230.34 315.973 228.815 315.701C226.78 315.36 224.913 314.359 223.503 312.853C222.627 311.775 222.066 310.495 221.435 309.645C220.804 308.794 219.366 307.892 219.033 306.875C218.927 305.959 219.026 305.031 219.322 304.158C219.568 303.281 219.822 302.238 220.137 302.317V302.931C220.888 303.515 221.816 303.825 222.767 303.807C223.486 303.807 225.318 303.641 225.309 303.062Z" fill="#263238"/>
<path d="M230.489 310.109L229.008 308.795C227.634 307.339 226.562 305.626 225.852 303.755C225.493 302.891 225.309 301.964 225.309 301.029V298.075H220.137V302.878V303.01C220.383 304.088 222.767 306.945 224.108 308.812C225.208 310.417 226.885 311.534 228.789 311.933C230.761 312.195 231.786 311.582 230.489 310.109Z" fill="#FFA8A7"/>
<path d="M221.163 222.632C217.157 231.398 221.312 262.26 221.312 262.26C221.189 263.689 219.559 266.485 218.963 272.778C218.244 280.176 220.085 298.741 220.085 298.741C220.876 299.206 221.771 299.468 222.688 299.505C223.605 299.541 224.518 299.351 225.344 298.951C225.344 298.951 230.279 270.981 231.208 263.627L234.17 240.031L238.553 263.058C237.38 264.862 236.41 266.79 235.661 268.808C234.617 272.06 232.505 290.589 232.505 290.589C233.218 291.241 234.07 291.721 234.997 291.993C235.923 292.265 236.9 292.321 237.852 292.158C237.852 292.158 247.976 266.739 248.431 261.55C248.703 258.438 244.163 221.388 244.163 221.388L221.163 222.632Z" fill="#37474F"/>
<path d="M234.135 239.996L234.837 234.93C234.837 234.93 240.35 233.791 242.848 231.424C241.123 233.446 238.867 234.946 236.335 235.754L235.599 240.645L236.476 251.978L234.135 239.996Z" fill="#263238"/>
<path d="M228.28 192.191C226.804 192.55 225.428 193.235 224.252 194.197C223.076 195.159 222.132 196.372 221.487 197.748C220.541 199.839 220.453 202.219 221.242 204.374L224.774 214.744C224.774 214.744 223.1 218.802 221.145 222.632C230.147 227.655 241.375 225.016 244.084 221.353C244.198 220.573 244.04 217.066 244.259 213.087C244.487 208.836 245.074 204.033 244.408 201.412C243.164 196.53 240.841 191.954 236.222 191.954L228.28 192.191Z" fill="#F03E3D"/>
<path d="M226.904 192.191C223.836 192.62 219.331 193.243 217.771 200.535C216.211 207.828 215.746 210.501 215.746 210.501C216.746 211.483 217.938 212.248 219.247 212.749C220.556 213.249 221.954 213.475 223.354 213.412L224.941 207.802L226.904 192.191Z" fill="#455A64"/>
<path d="M228.648 198.344C228.119 198.344 227.595 198.24 227.105 198.037C226.616 197.835 226.172 197.538 225.797 197.163C225.423 196.789 225.126 196.344 224.923 195.855C224.721 195.366 224.616 194.842 224.616 194.312V182.576H228.648V198.344Z" fill="#263238"/>
<path d="M239.92 171.496C241.139 172.215 242.638 175.274 242.489 181.681C242.366 187.116 240.604 188.466 239.719 188.851C238.834 189.237 237.133 189 235.476 188.72V191.98C235.476 191.98 237.764 194.61 237.624 196.144C237.484 197.678 234.311 197.993 232.163 196.53C230.78 195.526 229.592 194.279 228.657 192.848V184.959C228.483 185.173 228.267 185.35 228.024 185.48C227.78 185.61 227.514 185.69 227.239 185.716C226.964 185.743 226.687 185.714 226.423 185.632C226.16 185.55 225.915 185.417 225.703 185.24C223.871 184.022 223.801 181.015 224.871 179.981C225.94 178.947 228.228 179.245 228.657 180.735C230.823 180.64 232.932 180.007 234.793 178.894C236.172 178.155 237.357 177.099 238.248 175.813C239.14 174.527 239.713 173.047 239.92 171.496Z" fill="#FFA8A7"/>
<path d="M236.423 180.323C236.425 180.457 236.387 180.588 236.314 180.701C236.241 180.814 236.137 180.903 236.015 180.957C235.892 181.011 235.756 181.027 235.624 181.005C235.492 180.982 235.369 180.921 235.271 180.829C235.174 180.737 235.105 180.619 235.074 180.488C235.043 180.358 235.051 180.221 235.097 180.095C235.144 179.97 235.226 179.86 235.334 179.781C235.442 179.701 235.57 179.655 235.704 179.648C235.796 179.644 235.887 179.659 235.973 179.691C236.059 179.723 236.138 179.772 236.205 179.835C236.272 179.898 236.325 179.973 236.363 180.057C236.4 180.141 236.421 180.231 236.423 180.323Z" fill="#263238"/>
<path d="M236.607 184.924L238.194 185.433C238.166 185.54 238.116 185.64 238.048 185.727C237.98 185.814 237.895 185.886 237.799 185.939C237.702 185.993 237.595 186.026 237.486 186.037C237.376 186.047 237.265 186.036 237.159 186.003C236.946 185.928 236.77 185.775 236.667 185.574C236.564 185.373 236.543 185.141 236.607 184.924Z" fill="#F28F8F"/>
<path d="M242.024 178.219L240.648 177.264C240.706 177.17 240.782 177.09 240.872 177.027C240.962 176.964 241.064 176.92 241.171 176.898C241.279 176.876 241.389 176.876 241.497 176.898C241.604 176.92 241.706 176.964 241.796 177.027C241.981 177.158 242.107 177.355 242.15 177.577C242.192 177.799 242.147 178.029 242.024 178.219Z" fill="#263238"/>
<path d="M241.709 179.823C241.721 180.008 241.659 180.19 241.538 180.329C241.416 180.469 241.244 180.555 241.06 180.568C240.876 180.571 240.698 180.502 240.564 180.376C240.43 180.25 240.35 180.077 240.341 179.893C240.337 179.804 240.35 179.714 240.38 179.629C240.41 179.544 240.456 179.466 240.517 179.4C240.577 179.333 240.65 179.279 240.731 179.24C240.812 179.201 240.9 179.179 240.99 179.175C241.08 179.17 241.169 179.183 241.254 179.213C241.339 179.243 241.417 179.29 241.483 179.35C241.55 179.41 241.604 179.483 241.643 179.564C241.682 179.645 241.704 179.733 241.709 179.823Z" fill="#263238"/>
<path d="M238.483 179.438L238.597 183.548L240.762 182.873L238.483 179.438Z" fill="#F28F8F"/>
<path d="M235.476 188.72C233.723 188.492 230.13 187.458 229.569 186.038C229.792 186.758 230.233 187.392 230.831 187.852C231.9 188.772 235.476 189.816 235.476 189.816V188.72Z" fill="#F28F8F"/>
<path d="M249.247 213.105C250.237 211.264 250.483 211.185 251.079 210.782C251.675 210.379 255.277 209.835 256.776 209.704C258.529 209.555 259.169 209.879 258.678 211.404C257.311 215.225 255.647 218.932 253.699 222.492C253.226 223.123 253.13 223.702 251.149 223.895C249.168 224.087 246.968 224.175 246.284 224.219C245.6 224.263 244.654 224.429 245.267 222.413C246.049 220.137 246.953 217.904 247.976 215.725C248.773 214.069 249.247 213.105 249.247 213.105Z" fill="#37474F"/>
<path d="M222.539 215.699C222.539 215.699 238.571 217.391 240.648 216.751C242.725 216.111 245.513 214.034 247.011 213.175C248.51 212.316 249.588 212.246 249.588 212.596C249.588 212.947 248.309 214.919 248.011 215.726C247.713 216.532 249.396 216.541 251.587 216.032C253.778 215.524 254.664 214.279 255.242 214.998C255.821 215.717 254.024 219.381 250.377 220.757C246.731 222.133 244.023 221.221 241.007 221.344C237.992 221.467 220.725 222.817 216.544 221.502C216.433 220.832 216.509 220.144 216.765 219.515C217.02 218.885 217.444 218.338 217.99 217.934C219.342 216.893 220.889 216.133 222.539 215.699Z" fill="#FFA8A7"/>
<path d="M223.696 211.58C224.384 209.717 224.969 207.818 225.449 205.891C225.449 205.891 225.16 210.125 223.968 212.395L223.696 211.58Z" fill="#37474F"/>
<path d="M93.9796 159.453L91.1309 165.606L96.4338 170.146L101.018 162.407L93.9796 159.453Z" fill="#F28F8F"/>
<path d="M107.057 145.376C103.674 145.376 99.9487 146.647 98.669 149.294C97.3892 151.941 93.4098 160.207 93.4098 160.207C93.4098 160.207 96.3988 164.589 101.141 164.274L107.057 145.376Z" fill="#37474F"/>
<path d="M121.73 243.012H117.05V249.822H121.73V243.012Z" fill="#FFA8A7"/>
<path d="M105.274 234.585L100.596 234.746L100.83 241.553L105.508 241.392L105.274 234.585Z" fill="#FFA8A7"/>
<path d="M121.415 176.519C121.415 180.989 121.993 209.879 121.993 209.879C122.107 211.159 123.308 213.534 123.045 218.469C122.694 225.175 122.116 243.801 122.116 243.801C122.116 243.801 119.925 245.974 116.857 243.801C116.857 243.801 112.614 218.487 111.782 211.843C111.045 206.049 109.81 190.298 109.81 190.298L105.471 208.836C105.471 208.836 106.233 213.219 106.409 216.269C106.584 219.319 105.611 237.122 105.611 237.122C104.853 237.595 103.984 237.862 103.09 237.895C102.197 237.929 101.31 237.729 100.518 237.314C100.518 237.314 96.7669 211.352 96.2848 208.573C95.8027 205.795 99.5718 176.519 99.5718 176.519H121.415Z" fill="#37474F"/>
<path d="M114.376 145.586H114.446C116.454 146.091 118.235 147.254 119.506 148.888C120.777 150.523 121.464 152.535 121.459 154.606V176.519C118.18 180.086 106.75 181.778 99.5455 176.519V153.729C99.5455 150.092 101.57 145.709 107.154 145.385L114.376 145.586Z" fill="#02897A"/>
<path d="M115.954 126.943C116.33 126.901 116.711 126.944 117.067 127.07C117.424 127.196 117.748 127.401 118.014 127.67C118.89 128.547 118.715 130.256 118.014 134.104L115.279 134.419L115.954 126.943Z" fill="#263238"/>
<path d="M99.9925 125.873C99.4056 125.875 98.8244 125.759 98.2833 125.532C97.4067 125.05 97.2227 126.005 97.6785 126.829C97.9839 127.424 98.4368 127.93 98.9938 128.3C99.5509 128.67 100.194 128.891 100.86 128.941C100.86 128.827 101.64 126.811 101.64 126.811L99.9925 125.873Z" fill="#263238"/>
<path d="M114.665 134.42C115.077 134.665 115.656 133.885 116.156 133.359C116.351 133.131 116.602 132.957 116.885 132.854C117.167 132.751 117.471 132.723 117.768 132.771C118.064 132.819 118.344 132.943 118.578 133.131C118.813 133.318 118.996 133.563 119.109 133.841C119.986 135.594 118.049 137.926 116.944 138.688C116.635 138.958 116.247 139.123 115.838 139.159C115.428 139.196 115.018 139.101 114.665 138.89L114.376 145.586C113.886 146.661 113.136 147.597 112.196 148.311C111.255 149.025 110.152 149.496 108.986 149.68C105.05 150.215 105.865 146.971 107.154 145.376V142.939C106.172 143.152 105.163 143.206 104.165 143.097C103.648 142.957 102.412 141.476 101.632 139.819C100.755 137.961 99.2738 134.665 100.589 129.082C102 123.077 108.477 122.893 112.281 125.313C116.085 127.732 114.665 134.42 114.665 134.42Z" fill="#FFA8A7"/>
<path d="M114.665 135.103C114.876 135.103 115.647 133.823 116.156 133.35C116.857 132.71 115.954 126.934 115.954 126.934C115.954 126.934 116.664 124.751 115.279 123.296C113.894 121.841 111.203 122.087 109.24 122.017C106.83 122.032 104.444 121.551 102.228 120.606C99.4403 119.396 99.2299 119.256 98.8881 120.474C98.6176 121.483 98.5837 122.542 98.7889 123.566C98.9942 124.591 99.433 125.554 100.071 126.382L101.456 126.89C101.456 126.89 102.201 127.556 104.805 127.872C107.205 128.05 109.617 128.006 112.01 127.74C112.763 127.635 112.886 128.363 113.333 130.37C113.684 132.123 113.982 135.094 114.665 135.103Z" fill="#263238"/>
<path d="M115.945 127.399L118.408 126.075C118.33 125.909 118.219 125.762 118.082 125.64C117.945 125.519 117.785 125.427 117.611 125.369C117.437 125.312 117.253 125.291 117.071 125.306C116.889 125.322 116.711 125.375 116.55 125.461C116.22 125.645 115.973 125.949 115.861 126.309C115.748 126.67 115.778 127.06 115.945 127.399Z" fill="#263238"/>
<path d="M107.162 142.939C108.842 142.624 110.488 142.151 112.08 141.528C112.829 141.135 113.44 140.524 113.833 139.775C113.641 140.519 113.301 141.217 112.834 141.826C111.904 143.018 107.154 143.895 107.154 143.895L107.162 142.939Z" fill="#F28F8F"/>
<path d="M108.039 133.508C108.042 133.653 108.089 133.794 108.172 133.913C108.256 134.032 108.372 134.123 108.507 134.176C108.643 134.229 108.791 134.241 108.933 134.21C109.074 134.178 109.204 134.106 109.305 134.002C109.406 133.897 109.473 133.765 109.499 133.622C109.525 133.479 109.509 133.332 109.451 133.199C109.394 133.065 109.298 132.952 109.176 132.873C109.054 132.794 108.912 132.752 108.766 132.754C108.57 132.759 108.384 132.84 108.248 132.982C108.112 133.123 108.037 133.312 108.039 133.508Z" fill="#263238"/>
<path d="M108.81 130.756L110.379 131.632C110.488 131.417 110.511 131.168 110.442 130.937C110.374 130.705 110.22 130.509 110.011 130.387C109.908 130.331 109.796 130.296 109.679 130.284C109.563 130.272 109.445 130.284 109.333 130.318C109.221 130.352 109.117 130.409 109.027 130.484C108.938 130.559 108.864 130.652 108.81 130.756Z" fill="#263238"/>
<path d="M108.092 138.46L106.426 139.091C106.463 139.203 106.521 139.306 106.598 139.394C106.675 139.483 106.769 139.555 106.875 139.607C106.98 139.658 107.095 139.688 107.212 139.694C107.329 139.701 107.446 139.683 107.557 139.644C107.783 139.555 107.965 139.382 108.065 139.161C108.165 138.94 108.175 138.688 108.092 138.46Z" fill="#F28F8F"/>
<path d="M101.526 131.36L102.938 130.256C102.87 130.16 102.783 130.079 102.683 130.017C102.584 129.955 102.472 129.914 102.356 129.896C102.24 129.878 102.121 129.884 102.008 129.912C101.894 129.941 101.787 129.992 101.693 130.063C101.504 130.217 101.381 130.437 101.35 130.678C101.319 130.92 101.382 131.164 101.526 131.36Z" fill="#263238"/>
<path d="M101.965 133.306C101.962 133.502 102.037 133.692 102.174 133.833C102.31 133.974 102.496 134.056 102.692 134.06C102.891 134.056 103.079 133.973 103.217 133.83C103.355 133.687 103.431 133.496 103.428 133.298C103.44 133.195 103.429 133.091 103.398 132.992C103.366 132.894 103.314 132.803 103.245 132.726C103.176 132.649 103.091 132.587 102.997 132.545C102.902 132.503 102.8 132.481 102.697 132.481C102.593 132.481 102.491 132.503 102.396 132.545C102.302 132.587 102.217 132.649 102.148 132.726C102.079 132.803 102.027 132.894 101.996 132.992C101.964 133.091 101.953 133.195 101.965 133.298V133.306Z" fill="#263238"/>
<path d="M105.69 132.614L105.444 137.005L103.157 136.225L105.69 132.614Z" fill="#F28F8F"/>
<path d="M117.05 247.508V246.833C116.603 247.026 115.56 250.997 113.71 252.688C112.229 254.03 110.204 255.59 109.704 257.071C109.205 258.552 112.509 259.49 113.885 259.245C115.489 258.964 118.268 257.834 118.96 256.791C119.653 255.747 119.986 254.205 120.547 253.433C121.108 252.662 122.423 251.812 122.729 250.927C122.82 250.099 122.727 249.261 122.458 248.472C122.239 247.648 122.011 246.719 121.73 246.816C121.73 246.912 121.73 247.324 121.73 247.324C121.065 247.849 120.238 248.128 119.39 248.113C118.715 248.166 117.041 248.034 117.05 247.508Z" fill="#263238"/>
<path d="M100.79 240.102C100.545 240.102 100.343 240.452 99.8084 241.031C99.0103 241.843 98.0795 242.513 97.0561 243.012C95.3031 243.888 91.9022 245.238 90.3595 245.931C89.4041 246.369 89.483 247.526 90.4384 248.192C91.3938 248.858 93.8393 249.332 96.7231 248.683C98.292 248.332 100.343 246.886 101.632 246.93C102.92 246.974 105.348 246.991 106.303 246.334C107.259 245.677 106.882 244.265 106.61 243.056C106.339 241.846 105.891 239.725 105.453 239.813V240.225C104.892 241.101 102.026 241.425 100.79 240.803V240.102Z" fill="#263238"/>
<path d="M94.5318 166.535C93.5413 164.686 93.2959 164.607 92.6998 164.204C92.1038 163.801 88.5013 163.257 87.0025 163.134C85.2494 162.985 84.6095 163.31 85.1004 164.826C86.4577 168.648 88.1106 172.358 90.044 175.923C90.5173 176.545 90.6137 177.124 92.5947 177.316C94.5756 177.509 96.7757 177.597 97.4594 177.641C98.143 177.685 99.0897 177.851 98.4761 175.835C97.6931 173.559 96.789 171.327 95.7677 169.147C95.0489 167.491 94.5318 166.535 94.5318 166.535Z" fill="#37474F"/>
<path d="M130.46 172.092C130.417 171.514 128.707 164.975 127.831 161.951L121.415 164.16L122.922 168.919L128.567 174.766C129.166 174.648 129.696 174.305 130.048 173.808C130.401 173.31 130.548 172.696 130.46 172.092Z" fill="#FFA8A7"/>
<path d="M122.896 168.919C122.896 168.919 105.208 170.813 103.13 170.173C101.053 169.533 98.2657 167.456 96.7669 166.597C95.268 165.738 94.1899 165.668 94.1899 166.027C94.1899 166.386 95.4696 168.341 95.7677 169.147C96.0657 169.954 94.3828 169.962 92.1914 169.454C90.0001 168.946 89.1149 167.701 88.5364 168.42C87.9579 169.139 89.7547 172.802 93.401 174.179C97.0474 175.555 99.7558 174.643 102.771 174.766C105.786 174.889 124.36 176.081 128.541 174.766C128.652 174.097 128.575 173.41 128.32 172.782C128.065 172.154 127.641 171.609 127.095 171.207C125.843 170.2 124.421 169.426 122.896 168.919Z" fill="#FFA8A7"/>
<path d="M115.858 146.086C118.636 147.006 124.149 147.471 125.929 153.484C127.708 159.497 128.602 163.397 128.602 163.397C127.55 164.8 123.343 166.421 121.415 165.816L115.858 146.086Z" fill="#455A64"/>
<path d="M121.415 165.816L119.513 159.067L121.415 168.569V165.816Z" fill="#37474F"/>
<path d="M81.5155 179.999C81.4278 180.113 80.6828 181.348 80.6828 181.348L77.2556 186.257L73.916 191.262C73.8108 191.414 73.66 191.53 73.4852 191.591C73.3104 191.652 73.1206 191.657 72.9431 191.604L72.7152 191.525C71.5582 191.095 69.8227 190.368 67.5174 189.307C65.668 188.431 65.7644 188.177 65.7644 187.861C65.7403 187.61 65.7403 187.358 65.7644 187.107C66.1413 186.388 67.3071 184.592 68.876 182.321C71.6634 178.272 73.0045 176.475 73.8372 175.309C73.956 175.139 74.1313 175.017 74.332 174.964C74.5326 174.911 74.7455 174.931 74.9328 175.02C76.4317 175.52 79.4732 176.826 81.0685 177.474H81.1386C81.9976 177.939 81.5243 179.964 81.5155 179.999Z" fill="#37474F"/>
<path d="M81.6031 179.841L80.7266 181.348L77.3783 186.353L73.8722 191.236C73.7669 191.388 73.6161 191.503 73.4413 191.565C73.2665 191.626 73.0767 191.631 72.8992 191.577L72.6713 191.498C71.5143 191.069 69.7788 190.341 67.4736 189.281C65.6241 188.404 65.7205 188.15 65.7205 187.835C65.6965 187.584 65.6965 187.332 65.7205 187.081C67.4736 187.852 73.0219 190.482 73.206 190.385C73.6443 190.175 77.4045 184.144 79.403 181.068C80.4023 179.534 80.8493 178.885 81.1561 178.359C81.2124 178.297 81.2544 178.222 81.279 178.142C81.3036 178.061 81.3103 177.976 81.2986 177.893C81.2869 177.809 81.2571 177.729 81.2113 177.658C81.1655 177.588 81.1047 177.528 81.0333 177.483H80.9632C81.1601 177.587 81.3299 177.735 81.4593 177.916C81.5886 178.097 81.6739 178.306 81.7083 178.526C81.8038 178.736 81.8443 178.967 81.8259 179.197C81.8075 179.427 81.7308 179.649 81.6031 179.841Z" fill="#37474F"/>
<path opacity="0.1" d="M81.6031 179.841L80.7266 181.348L77.3783 186.353L73.8722 191.236C73.7669 191.388 73.6161 191.503 73.4413 191.565C73.2665 191.626 73.0767 191.631 72.8992 191.577L72.6713 191.498C71.5143 191.069 69.7788 190.341 67.4736 189.281C65.6241 188.404 65.7205 188.15 65.7205 187.835C65.6965 187.584 65.6965 187.332 65.7205 187.081C67.4736 187.852 73.0219 190.482 73.206 190.385C73.6443 190.175 77.4045 184.144 79.403 181.068C80.4023 179.534 80.8493 178.885 81.1561 178.359C81.2124 178.297 81.2544 178.222 81.279 178.142C81.3036 178.061 81.3103 177.976 81.2986 177.893C81.2869 177.809 81.2571 177.729 81.2113 177.658C81.1655 177.588 81.1047 177.528 81.0333 177.483H80.9632C81.1601 177.587 81.3299 177.735 81.4593 177.916C81.5886 178.097 81.6739 178.306 81.7083 178.526C81.8038 178.736 81.8443 178.967 81.8259 179.197C81.8075 179.427 81.7308 179.649 81.6031 179.841Z" fill="black"/>
<path d="M73.881 176.457L80.0342 179.034L73.4778 188.781L67.3597 185.968L73.881 176.457Z" fill="#FAFAFA"/>
<path d="M72.1542 210.423C73.8371 209.941 76.379 203.682 78.2898 196.582C80.2007 189.483 81.2087 187.914 81.27 185.678C81.3314 183.443 81.1736 180.507 81.1736 180.507L77.8428 185.372C77.6983 184.433 77.4023 183.524 76.9663 182.681C76.5368 181.804 75.7304 181.112 75.073 181.638C74.7224 181.918 75.6515 183.119 75.4499 185.801C75.4335 186.87 75.5393 187.938 75.7655 188.983L69.5772 203.971L72.1542 210.423Z" fill="#FFA8A7"/>
<path d="M47.2522 179.341C45.2975 178.789 43.6409 179.832 42.7206 182.944C41.1072 188.802 39.9353 194.773 39.2145 200.807C38.9515 202.972 38.6535 205.602 40.7221 205.803C42.2998 205.961 46.8577 205.085 47.6554 204.296C48.7247 203.261 48.5319 199.089 48.5319 199.089H46.1653C46.1653 199.089 46.6737 195.802 46.8227 194.803C47.3486 191.446 48.1287 187.212 48.1287 187.212L47.2522 179.341Z" fill="#F28F8F"/>
<path d="M58.7259 176.265L57.9282 183.286L51.0037 184.092L52.003 174.775L58.7259 176.265Z" fill="#FFA8A7"/>
<path d="M43.9039 166.018C44.4736 159.532 47.9885 156.867 50.7057 156.219C56.1927 154.93 61.6096 156.771 63.8535 160.601C64.3671 161.801 64.632 163.092 64.632 164.396C64.632 165.701 64.3671 166.992 63.8535 168.192C62.6615 170.909 43.9302 166.001 43.9302 166.001" fill="#263238"/>
<path d="M64.1953 169.507C64.1953 169.507 65.1858 172.18 64.9228 172.382C64.5095 172.531 64.0737 172.608 63.6343 172.61L64.1953 169.507Z" fill="#FFA8A7"/>
<path d="M61.2415 161.057C62.5475 162.179 64.7475 164.212 64.1603 169.822C63.5117 175.625 62.1092 177.194 61.1626 177.755C60.5315 178.132 57.7354 177.474 56.4381 176.712C54.8253 175.756 51.2491 173.293 50.1622 169.971C48.8737 166.062 49.5224 161.399 52.3448 160.18C53.7809 159.563 55.3502 159.319 56.9061 159.472C58.4619 159.625 59.9535 160.171 61.2415 161.057Z" fill="#FFA8A7"/>
<path d="M62.8542 161.206C62.8822 162.757 62.5603 164.295 61.9123 165.705C61.2644 167.114 60.307 168.36 59.1115 169.349C59.1115 169.349 58.2963 167.236 56.4819 167.719C54.6675 168.201 54.7289 170.594 56.0261 171.891C56.3625 172.262 56.7976 172.529 57.2805 172.661C57.7634 172.793 58.2739 172.784 58.7521 172.636C58.4935 174.294 57.7173 175.828 56.5345 177.018C54.647 177.453 52.6754 177.346 50.8459 176.71C49.0164 176.074 47.4032 174.936 46.1916 173.425C42.1859 168.613 43.3692 160.969 49.6275 158.717C51.8403 157.829 54.2607 157.591 56.6039 158.032C58.9471 158.473 61.1156 159.574 62.8542 161.206Z" fill="#263238"/>
<path d="M50.171 281.894L53.16 286.049C51.7984 286.665 50.3151 286.965 48.8212 286.925C46.1478 287.031 45.4115 286.154 45.3151 285.944C44.8593 284.971 45.5693 283.227 45.7621 281.728L50.171 281.894Z" fill="#263238"/>
<path d="M52.9759 284.042C52.9759 284.042 56.5959 283.805 59.1115 283.49C61.6272 283.174 63.5993 284.366 63.0121 285.427C62.4248 286.487 61.0399 287.32 58.8924 288.056C57.0605 288.679 54.8516 289.126 52.9321 289.695C51.0125 290.265 49.7065 290.966 48.5933 290.572C47.3486 290.142 46.8402 289.643 46.9191 288.74C47.1906 287.453 47.5271 286.18 47.9271 284.927L52.9759 284.042Z" fill="#263238"/>
<path d="M45.3151 277.704C45.3151 277.704 45.7621 281.474 45.7972 282.289C45.8322 283.104 49.4786 283.358 50.1798 281.877L50.2937 277.266L45.3151 277.704Z" fill="#F28F8F"/>
<path d="M48.9877 280.027L47.7168 285.751C47.7168 285.751 47.5853 286.443 50.5742 286.89C53.5632 287.337 58.2263 285.33 59.0239 284.927C59.8215 284.524 59.9004 283.709 56.9816 283.866C54.0628 284.024 53.0197 284.042 53.0197 284.042L53.9751 281.5L48.9877 280.027Z" fill="#FFA8A7"/>
<path d="M45.3151 203.402C42.817 207.285 40.4504 210.703 39.942 215.068C38.8726 224.289 42.3787 234.825 43.1238 241.644C41.7065 243.585 40.8869 245.897 40.7659 248.297C40.7659 251.12 45.3151 277.705 45.3151 277.705C45.3151 277.705 48.6196 278.713 50.285 277.266L53.4141 228.356L51.7663 222.405L45.3151 203.402Z" fill="#455A64"/>
<path d="M53.4141 228.356L51.7663 222.405C48.6648 221.598 45.6718 220.421 42.852 218.899C42.852 218.899 44.5437 221.966 49.3733 223.649L51.889 231.301L52.1081 248.832L53.4141 228.356Z" fill="#37474F"/>
<path d="M45.3151 203.402C43.9828 205.576 40.7835 209.31 41.4672 212.886C42.2911 217.268 44.6227 220.275 51.7663 222.405L58.4629 246.658C58.4629 246.658 54.9569 249.928 53.9138 253.031C52.8707 256.133 48.9877 280.027 48.9877 280.027C48.9877 280.027 50.1798 281.973 53.9489 281.5C53.9489 281.5 67.0967 251.532 67.9732 249.603C69.0947 247.63 69.4886 245.325 69.0864 243.091C68.6657 239.953 64.1954 205.576 64.1954 205.576L45.3151 203.402Z" fill="#455A64"/>
<path d="M44.0967 181.515C44.3654 180.8 44.8717 180.199 45.5308 179.813C46.1898 179.427 46.9616 179.279 47.7168 179.394C52.3886 180.665 59.655 182.339 61.0311 182.742C61.0311 182.742 60.4088 191.744 65.7906 194.917C65.5365 196.924 64.1691 205.575 64.1691 205.575C64.1691 205.575 57.7003 208.713 52.3799 207.171C47.0594 205.628 45.2713 203.402 45.2713 203.402L47.9008 199.063C47.3311 197.652 45.131 192.857 43.7111 188.404C43.2184 186.115 43.3516 183.735 44.0967 181.515Z" fill="#FFB900"/>
<path d="M47.2522 197.354C49.4651 198.685 51.7841 199.831 54.1855 200.781C52.0029 200.724 49.8692 200.122 47.9797 199.028L47.2522 197.354Z" fill="#E0E0E0"/>
<path d="M65.6767 194.242C63.7647 193.366 62.1918 191.888 61.1976 190.035C61.3589 191.459 61.847 192.826 62.624 194.03C63.4009 195.235 64.4457 196.243 65.6767 196.977V194.242Z" fill="#E0E0E0"/>
<path d="M61.0749 182.742C64.0113 183.619 65.8345 183.899 67.421 185.319C69.5071 187.195 71.6633 197.801 72.1016 199.992C72.8642 203.787 73.7056 207.732 72.8817 209.502C72.2857 210.782 69.0425 211.737 67.6226 207.6C67.3245 206.724 67.2632 206.321 67.0002 205.532C65.6592 201.57 63.6432 193.997 63.6432 193.997C63.6432 193.997 59.6725 191.805 61.0749 182.742Z" fill="#FFA8A7"/>
<path d="M46.8403 158.717C45.7972 159.321 43.9127 159.909 42.7381 165.387C41.7819 169.983 41.2131 174.65 41.0377 179.341C41.0815 181.042 44.6051 185.766 52.038 185.319C59.4709 184.872 62.1706 180.516 62.1706 180.516C62.1706 180.516 58.5155 179.026 58.8048 172.627C58.8048 172.627 57.5163 175.16 53.9839 173.889C50.4515 172.618 46.8403 158.717 46.8403 158.717Z" fill="#263238"/>
</svg>
