<svg width="64" height="64" viewBox="0 0 64 64" fill="none" xmlns="http://www.w3.org/2000/svg">
<g clip-path="url(#clip0_33_262)">
<path d="M32 40.0001H28V54.0001H32V40.0001Z" fill="#FFC107"/>
<path d="M39.9978 39.0045H43.9978L47.7491 57.0047H43.7491L39.9978 39.0045Z" fill="#FFC107"/>
<path d="M19.7512 39H15.7512L11.9999 57.0003H15.9999L19.7512 39Z" fill="#FFC107"/>
<path d="M50 9H10V39.0001H50V9Z" fill="#E9EDED"/>
<path d="M52 7H8V9H52V7Z" fill="#455A64"/>
<path d="M52 39.0001H8V41.0001H52V39.0001Z" fill="#455A64"/>
<path d="M38 35.0001C44.0751 35.0001 49 30.0751 49 24C49 17.9249 44.0751 13 38 13C31.9249 13 27 17.9249 27 24C27 30.0751 31.9249 35.0001 38 35.0001Z" fill="#F44336"/>
<path d="M38 33C42.9706 33 47 28.9706 47 24C47 19.0294 42.9706 15 38 15C33.0294 15 29 19.0294 29 24C29 28.9706 33.0294 33 38 33Z" fill="#455A64"/>
<path d="M38 31C41.866 31 45 27.866 45 24C45 20.134 41.866 17 38 17C34.134 17 31 20.134 31 24C31 27.866 34.134 31 38 31Z" fill="#F44336"/>
<path d="M38 29C40.7614 29 43 26.7614 43 24C43 21.2386 40.7614 19 38 19C35.2386 19 33 21.2386 33 24C33 26.7614 35.2386 29 38 29Z" fill="#455A64"/>
<path d="M38 27C39.6569 27 41 25.6569 41 24C41 22.3431 39.6569 21 38 21C36.3431 21 35 22.3431 35 24C35 25.6569 36.3431 27 38 27Z" fill="#F44336"/>
<path d="M38 25C38.5523 25 39 24.5523 39 24C39 23.4477 38.5523 23 38 23C37.4477 23 37 23.4477 37 24C37 24.5523 37.4477 25 38 25Z" fill="#455A64"/>
<path d="M38 24.0002H55" stroke="#546E7A" stroke-linecap="round" stroke-linejoin="round"/>
<path d="M52.4636 23.9598L53.5382 25.5348M54.4626 24.0409L55.5372 22.4659L54.4626 24.0409ZM52.4636 24.0409L53.5382 22.4659L52.4636 24.0409ZM54.4626 23.9598L55.5372 25.5348L54.4626 23.9598Z" stroke="#546E7A" stroke-width="0.92" stroke-linecap="round" stroke-linejoin="round"/>
<path d="M23 13H16V15H23V13Z" fill="#607D8B"/>
<path d="M26 17H13V18H26V17Z" fill="#B0BEC5"/>
<path d="M26 19H13V20H26V19Z" fill="#B0BEC5"/>
<path d="M26 21H13V22H26V21Z" fill="#B0BEC5"/>
<path d="M26 23H13V24H26V23Z" fill="#B0BEC5"/>
<path d="M26 25H13V26H26V25Z" fill="#B0BEC5"/>
<path d="M26 27H13V28H26V27Z" fill="#B0BEC5"/>
<path d="M26 29H13V30H26V29Z" fill="#B0BEC5"/>
<path d="M26 31H13V32H26V31Z" fill="#B0BEC5"/>
<path d="M50 9H10V11H50V9Z" fill="#B0BEC5"/>
<path fill-rule="evenodd" clip-rule="evenodd" d="M37.9491 24.5C37.8165 24.5067 37.692 24.5658 37.603 24.6644C37.514 24.7629 37.4678 24.8928 37.4745 25.0254C37.4813 25.158 37.5404 25.2825 37.6389 25.3715C37.7375 25.4605 37.8673 25.5067 37.9999 25.5H49.9999V24.5H37.9999C37.983 24.4991 37.966 24.4991 37.9491 24.5Z" fill="#B0BEC5"/>
<path fill-rule="evenodd" clip-rule="evenodd" d="M37.9491 24.5C37.8165 24.5067 37.692 24.5658 37.603 24.6644C37.514 24.7629 37.4678 24.8928 37.4745 25.0254C37.4813 25.158 37.5404 25.2825 37.6389 25.3715C37.7375 25.4605 37.8673 25.5067 37.9999 25.5H48.8847C48.9298 25.1682 48.9598 24.8345 48.9745 24.5H37.9999C37.983 24.4991 37.966 24.4991 37.9491 24.5Z" fill="#D22E2E"/>
<path fill-rule="evenodd" clip-rule="evenodd" d="M37.9491 24.5C37.8165 24.5067 37.692 24.5658 37.603 24.6644C37.514 24.7629 37.4678 24.8928 37.4745 25.0254C37.4813 25.158 37.5404 25.2825 37.6389 25.3715C37.7375 25.4605 37.8673 25.5067 37.9999 25.5H46.8632C46.9189 25.169 46.9561 24.8351 46.9745 24.5H37.9999C37.983 24.4991 37.966 24.4991 37.9491 24.5Z" fill="#263238"/>
<path fill-rule="evenodd" clip-rule="evenodd" d="M37.9491 24.5C37.8165 24.5067 37.692 24.5658 37.603 24.6644C37.514 24.7629 37.4678 24.8928 37.4745 25.0254C37.4813 25.158 37.5404 25.2825 37.6389 25.3715C37.7375 25.4605 37.8673 25.5067 37.9999 25.5H44.8339C44.9048 25.1705 44.9518 24.8363 44.9745 24.5H37.9999C37.983 24.4991 37.966 24.4991 37.9491 24.5Z" fill="#D22E2E"/>
<path fill-rule="evenodd" clip-rule="evenodd" d="M37.9491 24.5C37.8165 24.5067 37.692 24.5658 37.603 24.6644C37.514 24.7629 37.4678 24.8928 37.4745 25.0254C37.4813 25.158 37.5404 25.2825 37.6389 25.3715C37.7375 25.4605 37.8673 25.5067 37.9999 25.5H42.7694C42.8717 25.1745 42.9405 24.8394 42.9745 24.5H37.9999C37.983 24.4991 37.966 24.4991 37.9491 24.5Z" fill="#263238"/>
<path fill-rule="evenodd" clip-rule="evenodd" d="M37.9491 24.5C37.8165 24.5067 37.692 24.5658 37.603 24.6644C37.514 24.7629 37.4678 24.8928 37.4745 25.0254C37.4813 25.158 37.5404 25.2825 37.6389 25.3715C37.7375 25.4605 37.8673 25.5067 37.9999 25.5H40.5937C40.772 25.1907 40.8937 24.852 40.953 24.5H37.9999C37.983 24.4991 37.966 24.4991 37.9491 24.5Z" fill="#D22E2E"/>
<path d="M40.416 41.0001L40.625 42.0001H44.625L44.416 41.0001H40.416ZM28 41.0001V42.0001H32V41.0001H28ZM15.584 41.0001L15.375 42.0001H19.375L19.584 41.0001H15.584Z" fill="#FF9800"/>
<path d="M40.416 41.0001L40.625 42.0001H44.625L44.416 41.0001H40.416ZM28 41.0001V42.0001H32V41.0001H28ZM15.584 41.0001L15.375 42.0001H19.375L19.584 41.0001H15.584Z" fill="#FF9800"/>
</g>
<defs>
<clipPath id="clip0_33_262">
<rect width="64" height="64" fill="white"/>
</clipPath>
</defs>
</svg>
