<svg width="512" height="512" viewBox="0 0 512 512" fill="none" xmlns="http://www.w3.org/2000/svg">
<path d="M333.898 38.7702L256 69.5382V7.90918L333.898 38.7702Z" fill="#B00000"/>
<path d="M263.998 102.42V74.9761L336.837 46.2031C343.567 43.5521 343.571 33.9981 336.845 31.3321L259.122 0.544101C259.116 0.542101 259.11 0.540101 259.104 0.537101C251.602 -0.865899 248.002 2.7101 248.002 7.9091C248.002 40.6521 248.002 69.8171 248.002 102.423C138.78 106.67 51.228 196.76 51.228 306.943C51.228 419.888 143.109 511.769 256.054 511.769C368.937 511.769 460.771 419.888 460.771 306.943C460.772 196.724 373.208 106.614 263.998 102.42ZM263.998 57.7781V19.6791L312.157 38.7601L263.998 57.7781ZM256 314.996C260.421 314.996 263.998 311.419 263.998 306.998V287.762C271.516 290.89 276.823 298.302 276.823 306.944C276.823 318.456 267.505 327.821 256.055 327.821C244.543 327.821 235.178 318.456 235.178 306.944C235.178 298.326 240.478 290.925 248.003 287.783V306.999C248.002 311.419 251.579 314.996 256 314.996ZM248.002 271.116C231.542 274.798 219.182 289.433 219.182 306.943C219.182 327.273 235.724 343.816 256.055 343.816C276.323 343.816 292.818 327.274 292.818 306.943C292.818 289.402 280.451 274.739 263.998 271.09V230.596C302.603 234.585 332.807 267.301 332.807 306.943C332.807 349.322 298.379 383.805 256.055 383.805C213.676 383.805 179.193 349.322 179.193 306.943C179.193 267.335 209.395 234.645 248.002 230.611V271.116ZM248.002 214.595C200.561 218.693 163.197 258.515 163.197 306.943C163.197 358.148 204.85 399.8 256.054 399.8C307.196 399.8 348.802 358.147 348.802 306.943C348.802 258.482 311.427 218.641 263.997 214.59V174.601C333.484 178.744 388.791 236.426 388.791 306.943C388.791 380.196 329.245 439.789 256.054 439.789C182.801 439.789 123.208 380.196 123.208 306.943C123.208 236.461 178.503 178.8 248.002 174.606V214.595V214.595ZM256.055 495.774C151.935 495.774 67.224 411.063 67.224 306.943C67.224 205.577 147.606 122.653 248.002 118.418V158.611C169.683 162.83 107.213 227.643 107.213 306.944C107.213 389.015 173.984 455.786 256.055 455.786C338.064 455.786 404.787 389.015 404.787 306.944C404.787 227.609 342.305 162.773 263.998 158.606V118.416C364.389 122.598 444.776 205.542 444.776 306.943C444.776 411.063 360.12 495.774 256.055 495.774Z" fill="#B00000"/>
</svg>
