<svg width="64" height="64" viewBox="0 0 64 64" fill="none" xmlns="http://www.w3.org/2000/svg">
<g clip-path="url(#clip0_32_225)">
<path d="M51.51 44.7C51.25 44.31 50.83 44.08 50.35 44.08C50.34 44.08 50.34 44.08 50.34 44.08C49.86 44.08 49.44 44.31 49.17 44.71L46.05 49.51L54.63 63.37H64L51.51 44.7ZM40.93 58.13C40.72 58.36 40.43 58.48 40.12 58.48C39.81 58.47 39.51 58.33 39.32 58.09L35.04 52.97L30.32 58.12C30.12 58.34 29.84 58.47 29.56 58.48H29.52C29.25 58.48 28.98 58.37 28.78 58.19L24.14 53.9L17.84 63.48H52.07L45.66 53.14L40.93 58.13ZM23.08 51.56L24.23 49.8L20.79 44.69C20.53 44.3 20.11 44.07 19.64 44.07C19.2 44.09 18.74 44.29 18.48 44.68L5.53003 63.47H15.24L23.01 51.64C23.04 51.63 23.06 51.59 23.08 51.56Z" fill="#FFA8A7"/>
<path d="M34.2601 38.49L25.3501 52.05L29.4601 55.85L34.2801 50.59C34.4901 50.36 34.7801 50.22 35.1001 50.23C35.4101 50.24 35.7101 50.38 35.9001 50.62L40.1901 55.75L44.4801 51.22L43.8001 50.1L36.6101 38.51C36.5601 38.43 36.5001 38.36 36.4401 38.29V28.72V26.48C40.2301 27.69 42.1001 26.74 45.1901 25.73C48.0701 24.8 49.9601 23.83 53.6201 24.56C52.7001 22.77 51.9601 21.51 50.8001 19.61C50.5801 19.26 50.5801 18.82 50.8001 18.47C52.0801 16.41 52.8601 15.21 53.9101 13.82C50.4401 12.92 47.6801 13.82 44.7701 14.76C41.6401 15.78 40.5601 16.84 36.4301 15.69V13.44V12.5C36.4201 11.9 35.9501 11.43 35.3501 11.43C34.7501 11.43 34.2801 11.91 34.2701 12.5V14.04C34.2501 14.09 34.2501 14.15 34.2501 14.21V27.24C34.2501 27.31 34.2601 27.38 34.2701 27.45V38.47C34.2701 38.47 34.2601 38.48 34.2601 38.49Z" fill="#FFA8A7"/>
<path d="M19.49 14.67C19.49 11.71 17.09 9.31 14.14 9.31C11.18 9.31 8.78 11.71 8.78 14.67C8.78 17.62 11.18 20.02 14.14 20.02C17.09 20.02 19.49 17.62 19.49 14.67ZM14.14 7.13C14.63 7.13 15.02 6.74 15.02 6.25V1.41C15.02 0.919999 14.63 0.529999 14.14 0.529999C13.65 0.529999 13.26 0.919999 13.26 1.41V6.25C13.26 6.74 13.65 7.13 14.14 7.13ZM7.56 9.34C7.74 9.51 7.96 9.6 8.19 9.6C8.42 9.6 8.64 9.51 8.81 9.34C9.15 9 9.15 8.44 8.81 8.09L5.39 4.67C5.05 4.33 4.49 4.33 4.15 4.67C3.81 5.01 3.81 5.57 4.15 5.91L7.56 9.34ZM6.6 14.66C6.6 14.17 6.21 13.78 5.72 13.78H0.88C0.39 13.78 0 14.18 0 14.66C0 15.15 0.39 15.54 0.88 15.54H5.72C6.21 15.54 6.6 15.15 6.6 14.66ZM8.81 19.99C8.47 19.65 7.91 19.65 7.57 19.99L4.15 23.41C3.81 23.75 3.81 24.31 4.15 24.66C4.32 24.83 4.55 24.92 4.77 24.92C5 24.92 5.22 24.83 5.39 24.66L8.81 21.24C9.15 20.89 9.15 20.33 8.81 19.99ZM13.26 23.08V27.92C13.26 28.41 13.65 28.8 14.14 28.8C14.63 28.8 15.02 28.41 15.02 27.92V23.08C15.02 22.59 14.63 22.2 14.14 22.2C13.65 22.2 13.26 22.59 13.26 23.08ZM22.89 24.66C23.06 24.83 23.29 24.92 23.51 24.92C23.74 24.92 23.96 24.83 24.13 24.66C24.47 24.32 24.47 23.76 24.13 23.41L20.71 19.99C20.37 19.65 19.81 19.65 19.47 19.99C19.13 20.33 19.13 20.89 19.47 21.23L22.89 24.66ZM21.67 14.66C21.67 15.15 22.06 15.54 22.55 15.54H27.39C27.88 15.54 28.27 15.15 28.27 14.66C28.27 14.17 27.88 13.78 27.39 13.78H22.55C22.06 13.78 21.67 14.18 21.67 14.66ZM19.46 9.34C19.63 9.51 19.86 9.6 20.08 9.6C20.31 9.6 20.53 9.51 20.7 9.34L24.12 5.92C24.46 5.58 24.46 5.02 24.12 4.68C23.78 4.34 23.22 4.34 22.87 4.68L19.45 8.1C19.12 8.44 19.12 8.99 19.46 9.34ZM10.15 7.31C10.28 7.66 10.62 7.87 10.97 7.87C11.08 7.87 11.18 7.85 11.29 7.81C11.74 7.64 11.97 7.13 11.79 6.67L10.63 3.67C10.46 3.22 9.95 3 9.5 3.17C9.05 3.34 8.82 3.85 9 4.31L10.15 7.31ZM3.18 10.98L6.12 12.28C6.24 12.33 6.36 12.36 6.48 12.36C6.82 12.36 7.14 12.16 7.29 11.84C7.49 11.4 7.29 10.88 6.84 10.68L3.9 9.38C3.46 9.18 2.94 9.38 2.74 9.83C2.53 10.26 2.73 10.79 3.18 10.98ZM7.29 17.51C7.11 17.06 6.61 16.83 6.15 17.01L3.15 18.17C2.7 18.35 2.47 18.85 2.65 19.31C2.78 19.66 3.12 19.87 3.47 19.87C3.58 19.87 3.68 19.85 3.79 19.81L6.79 18.65C7.24 18.48 7.47 17.97 7.29 17.51ZM10.15 21.97L8.85 24.91C8.65 25.35 8.85 25.87 9.3 26.07C9.42 26.12 9.54 26.15 9.66 26.15C10 26.15 10.32 25.95 10.47 25.63L11.77 22.69C11.97 22.25 11.77 21.73 11.32 21.53C10.87 21.32 10.35 21.52 10.15 21.97ZM17.64 25.65C17.77 26 18.11 26.21 18.46 26.21C18.57 26.21 18.67 26.19 18.78 26.15C19.23 25.98 19.46 25.47 19.28 25.01L18.12 22.01C17.94 21.56 17.44 21.33 16.98 21.51C16.53 21.68 16.3 22.19 16.48 22.65L17.64 25.65ZM25.54 19.51C25.74 19.07 25.54 18.55 25.09 18.35L22.15 17.05C21.71 16.85 21.19 17.05 20.99 17.5C20.79 17.94 20.99 18.46 21.44 18.66L24.38 19.96C24.5 20.01 24.62 20.04 24.74 20.04C25.07 20.03 25.4 19.83 25.54 19.51ZM20.98 11.81C21.12 12.16 21.45 12.37 21.8 12.37C21.91 12.37 22.01 12.35 22.12 12.31L25.12 11.15C25.57 10.97 25.8 10.47 25.62 10.01C25.45 9.56 24.93 9.33 24.48 9.51L21.48 10.67C21.03 10.85 20.81 11.36 20.98 11.81ZM16.96 7.81C17.08 7.86 17.2 7.89 17.32 7.89C17.66 7.89 17.98 7.69 18.13 7.37L19.43 4.43C19.63 3.99 19.43 3.47 18.98 3.27C18.54 3.07 18.01 3.27 17.82 3.72L16.52 6.66C16.32 7.09 16.52 7.61 16.96 7.81Z" fill="#F7D8A5"/>
</g>
<defs>
<clipPath id="clip0_32_225">
<rect width="64" height="64" fill="white"/>
</clipPath>
</defs>
</svg>
