<svg width="36" height="31" viewBox="0 0 36 31" fill="none" xmlns="http://www.w3.org/2000/svg">
<g clip-path="url(#clip0_344_8)">
<path d="M8.96826 -0.000788828C8.86408 0.0333446 8.77399 0.100823 8.71188 0.191167C8.64977 0.28151 8.61907 0.389711 8.62451 0.499211V1.99921H8.12451C8.09333 1.99628 8.06194 1.99628 8.03076 1.99921C7.91498 2.0213 7.81072 2.08363 7.73639 2.17511C7.66206 2.2666 7.62243 2.38136 7.62451 2.49921V3.99927H6.09326C6.06208 3.99634 6.03069 3.99634 5.99951 3.99927C5.88373 4.02136 5.77947 4.08357 5.70514 4.17505C5.63081 4.26654 5.59118 4.38142 5.59326 4.49927V5.53052L1.46826 1.62421L0.624512 0.843022V1.99921V4.99927V5.99927V6.99927V7.99927V8.99927V9.99927V10.9993V11.9993V12.9993V13.9993V14.9993V15.9993V16.9993V17.9993V18.9993V19.9993V20.9993V21.9993V22.9993V23.9993V24.9993V25.9993V26.9993V27.9993V29.4993V29.9993H1.12451H10.1558V30.4993V30.9993H11.1558V30.4993V29.9993H18.3433L18.687 30.718C18.7303 30.7962 18.7936 30.8613 18.8706 30.9066C18.9475 30.952 19.0352 30.976 19.1245 30.976C19.2138 30.976 19.3015 30.952 19.3784 30.9066C19.4554 30.8613 19.5188 30.7962 19.562 30.718L19.937 29.9993H30.1245H31.3745L30.4683 29.1243L23.2183 22.2493L21.687 20.8118L21.6245 20.7498V4.53101C21.6248 4.52068 21.6248 4.51034 21.6245 4.5C21.6275 4.46874 21.6275 4.43727 21.6245 4.40601V2.99976C21.6245 1.90036 20.7239 0.999761 19.6245 0.999761H18.6245C17.5252 0.999761 16.6245 1.90036 16.6245 2.99976V4.40601C16.6216 4.43727 16.6216 4.46874 16.6245 4.5C16.6216 4.53127 16.6216 4.56274 16.6245 4.594V16.0002L15.9683 15.3752L13.3745 12.9377C13.4512 12.8935 13.5147 12.8297 13.5586 12.7528C13.6026 12.6759 13.6253 12.5888 13.6245 12.5002V2.50025C13.6245 2.36764 13.5718 2.24044 13.4781 2.14667C13.3843 2.05291 13.2571 2.00026 13.1245 2.00025H12.6245V0.500249C12.6245 0.367645 12.5718 0.240437 12.4781 0.146672C12.3843 0.0529068 12.2571 0.000262004 12.1245 0.000248769H9.12451C9.09333 -0.00268709 9.06194 -0.00268709 9.03076 0.000248769C9.00995 -0.00105446 8.98907 -0.00105446 8.96826 0.000248769V-0.000788828ZM9.62451 0.999211H11.6245V1.99921H9.62451V0.999211ZM18.6245 1.99921H19.6245C20.1872 1.99921 20.6245 2.43651 20.6245 2.99921V3.99927H17.6245V2.99921C17.6245 2.43651 18.0619 1.99921 18.6245 1.99921V1.99921ZM8.62451 2.99921H12.6245V3.99927H8.71826H8.62451V2.99921V2.99921ZM1.62451 3.15552L5.59326 6.90552V10.4993C5.59232 10.5655 5.60456 10.6313 5.62927 10.6928C5.65398 10.7542 5.69066 10.8102 5.73718 10.8574C5.7837 10.9046 5.83914 10.9421 5.90027 10.9677C5.9614 10.9932 6.027 11.0064 6.09326 11.0064C6.15952 11.0064 6.22513 10.9932 6.28626 10.9677C6.34739 10.9421 6.40282 10.9046 6.44935 10.8574C6.49587 10.8102 6.53255 10.7542 6.55725 10.6928C6.58196 10.6313 6.5942 10.5655 6.59326 10.4993V7.87427L7.62451 8.84302V12.4993C7.62452 12.6319 7.67721 12.759 7.77097 12.8528C7.86474 12.9466 7.99191 12.9993 8.12451 12.9993H8.62451V15.218L6.46826 13.218L5.62451 12.4368V13.593V23.5305V24.0305H6.12451H8.62451V25.4993C8.62452 25.6319 8.67721 25.759 8.77097 25.8528C8.86474 25.9466 8.99191 25.9993 9.12451 25.9993H9.28076V27.4993C9.28077 27.6319 9.33346 27.759 9.42722 27.8528C9.52099 27.9466 9.64816 27.9993 9.78076 27.9993H10.1558V28.4993V28.9993H1.62451V27.9993H3.12451H3.62451V26.9993H3.12451H1.62451V25.9993H2.12451H2.62451V24.9993H2.12451H1.62451V23.9993H3.12451H3.62451V22.9993H3.12451H1.62451V21.9993H2.12451H2.62451V20.9993H2.12451H1.62451V19.9993H3.12451H3.62451V18.9993H3.12451H1.62451V17.9993H2.12451H2.62451V16.9993H2.12451H1.62451V15.9993H3.12451H3.62451V14.9993H3.12451H1.62451V13.9993H2.12451H2.62451V12.9993H2.12451H1.62451V11.9993H3.12451H3.62451V10.9993H3.12451H1.62451V9.99927H2.12451H2.62451V8.99927H2.12451H1.62451V7.99927H3.12451H3.62451V6.99927H3.12451H1.62451V5.99927H2.12451H2.62451V4.99927H2.12451H1.62451V3.15552V3.15552ZM6.59326 4.99927H7.62451V7.43677L6.59326 6.46802V4.99927ZM8.62451 4.99927H8.71826H12.6245V11.9993H9.24951C9.17749 11.9831 9.10278 11.9831 9.03076 11.9993H8.62451V4.99927ZM17.6245 4.99927H18.6245V25.9993H17.6245V4.99927ZM19.6245 4.99927H20.6245V25.9993H19.6245V4.99927ZM9.62451 12.9993H11.6245V24.9993H9.62451V12.9993ZM12.6245 13.593L15.2808 16.093L16.6245 17.3743V22.593L12.6558 18.9368L12.6245 18.9058V13.5933V13.593ZM6.62451 14.7493L8.46826 16.4368L8.62451 16.593V23.0305H6.62451V14.7493V14.7493ZM12.6245 20.2805L15.5933 23.0305H12.6245V20.2805ZM21.6245 22.1243L22.5308 22.968L28.9058 28.9993H20.437L21.562 26.718C21.5729 26.7082 21.5833 26.6978 21.5933 26.687C21.5945 26.6664 21.5945 26.6457 21.5933 26.625C21.5936 26.6147 21.5936 26.6043 21.5933 26.594C21.6068 26.5638 21.6172 26.5323 21.6245 26.5C21.6248 26.4897 21.6248 26.4793 21.6245 26.469V22.1252V22.1243ZM12.6245 24.0305H16.6245V26.4055C16.6232 26.4262 16.6232 26.4469 16.6245 26.4675V26.4985C16.6216 26.5298 16.6216 26.5613 16.6245 26.5925C16.6345 26.6033 16.6449 26.6137 16.6558 26.6235C16.6545 26.6442 16.6545 26.6649 16.6558 26.6856C16.6657 26.6963 16.6761 26.7067 16.687 26.7166C16.7084 26.7739 16.7402 26.8268 16.7808 26.8727L17.8433 28.9977H11.1558V28.4977V27.9977H11.5308C11.6634 27.9977 11.7905 27.9451 11.8843 27.8513C11.9781 27.7576 12.0307 27.6303 12.0308 27.4977V25.9977H12.1245C12.2571 25.9977 12.3843 25.9451 12.4781 25.8513C12.5718 25.7576 12.6245 25.6303 12.6245 25.4977V24.0291V24.0305ZM10.2808 25.9993H11.0308V26.9993H10.2808V25.9993ZM17.9058 26.9993H20.3433L19.1245 29.4055L17.9058 26.9993Z" fill="#B00000"/>
</g>
<defs>
<clipPath id="clip0_344_8">
<rect width="36" height="31" fill="white"/>
</clipPath>
</defs>
</svg>
