<svg xmlns="http://www.w3.org/2000/svg" width="64" height="64"><path style="text-indent:0;text-align:start;line-height:normal;text-transform:none;block-progression:tb;marker:none;-inkscape-font-specification:Sans" d="m 8.7503162,1020.3392 a 0.50004991,0.50004991 0 0 0 -0.34375,0.5 l 0,1.5 -0.5,0 a 0.50004991,0.50004991 0 0 0 -0.09375,0 0.50004991,0.50004991 0 0 0 -0.40625,0.5 l 0,1.5 -1.5312497,0 a 0.50005,0.50005 0 0 0 -0.09375,0 0.50005,0.50005 0 0 0 -0.40625,0.5 l 0,1.0313 -4.125,-3.9063 -0.84375002,-0.7812 0,1.1562 0,3 0,1 0,1 0,1 0,1 0,1 0,1 0,1 0,1 0,1 0,1 0,1 0,1 0,1 0,1 0,1 0,1 0,1 0,1 0,1 0,1 0,1 0,1 0,1 0,1.5 0,0.5 0.5,0 9.03124972,0 0,0.5 0,0.5 0.9999998,0 0,-0.5 0,-0.5 7.1875,0 0.34375,0.7188 a 0.50005,0.50005 0 0 0 0.875,0 l 0.375,-0.7188 10.1875,0 1.25,0 -0.90625,-0.875 -7.25,-6.875 -1.53125,-1.4375 -0.0625,-0.062 0,-16.2187 a 0.50004994,0.50004994 0 0 0 0,-0.031 0.50004994,0.50004994 0 0 0 0,-0.094 l 0,-1.4063 c 0,-1.0994 -0.900643,-2 -2,-2 l -1,0 c -1.099357,0 -2,0.9006 -2,2 l 0,1.4063 a 0.50004994,0.50004994 0 0 0 0,0.094 0.50004994,0.50004994 0 0 0 0,0.094 l 0,11.4062 -0.65625,-0.625 -2.59375,-2.4375 a 0.50004991,0.50004991 0 0 0 0.25,-0.4375 l 0,-10 a 0.50004991,0.50004991 0 0 0 -0.5,-0.5 l -0.5,0 0,-1.5 a 0.50004991,0.50004991 0 0 0 -0.5,-0.5 l -2.9999998,0 a 0.50004991,0.50004991 0 0 0 -0.09375,0 0.50004991,0.50004991 0 0 0 -0.0625,0 z m 0.65625,1 1.9999998,0 0,1 -1.9999998,0 0,-1 z m 8.9999998,1 1,0 c 0.562661,0 1,0.4373 1,1 l 0,1 -3,0 0,-1 c 0,-0.5627 0.437339,-1 1,-1 z m -9.9999998,1 3.9999998,0 0,1 -3.9062498,0 -0.09375,0 0,-1 z m -6.9999997,0.1563 3.96875,3.75 0,3.5937 a 0.50005,0.50005 0 1 0 0.9999997,0 l 0,-2.625 1.03125,0.9688 0,3.6562 a 0.50004991,0.50004991 0 0 0 0.5,0.5 l 0.5,0 0,2.2188 -2.15625,-2 -0.8437497,-0.7813 0,1.1563 0,9.9375 0,0.5 0.5,0 2.4999997,0 0,1.4687 a 0.50004991,0.50004991 0 0 0 0.5,0.5 l 0.15625,0 0,1.5 a 0.50004994,0.50004994 0 0 0 0.5,0.5 l 0.375,0 0,0.5 0,0.5 -8.5312497,0 0,-1 1.5,0 0.5,0 0,-1 -0.5,0 -1.5,0 0,-1 0.5,0 0.5,0 0,-1 -0.5,0 -0.5,0 0,-1 1.5,0 0.5,0 0,-1 -0.5,0 -1.5,0 0,-1 0.5,0 0.5,0 0,-1 -0.5,0 -0.5,0 0,-1 1.5,0 0.5,0 0,-1 -0.5,0 -1.5,0 0,-1 0.5,0 0.5,0 0,-1 -0.5,0 -0.5,0 0,-1 1.5,0 0.5,0 0,-1 -0.5,0 -1.5,0 0,-1 0.5,0 0.5,0 0,-1 -0.5,0 -0.5,0 0,-1 1.5,0 0.5,0 0,-1 -0.5,0 -1.5,0 0,-1 0.5,0 0.5,0 0,-1 -0.5,0 -0.5,0 0,-1 1.5,0 0.5,0 0,-1 -0.5,0 -1.5,0 0,-1 0.5,0 0.5,0 0,-1 -0.5,0 -0.5,0 0,-1.8437 z m 4.9687497,1.8437 1.03125,0 0,2.4375 -1.03125,-0.9687 0,-1.4688 z m 2.03125,0 0.09375,0 3.9062498,0 0,7 -3.3749998,0 a 0.50004991,0.50004991 0 0 0 -0.21875,0 l -0.40625,0 0,-7 z m 8.9999998,0 1,0 0,21 -1,0 0,-21 z m 2,0 1,0 0,21 -1,0 0,-21 z m -9.9999998,8 1.9999998,0 0,12 -1.9999998,0 0,-12 z m 2.9999998,0.5938 2.65625,2.5 1.34375,1.2812 0,5.2188 -3.96875,-3.6563 -0.03125,-0.031 0,-5.3125 z m -5.9999998,1.1562 1.84375,1.6875 0.15625,0.1563 0,6.4375 -2,0 0,-8.2813 z m 5.9999998,5.5313 2.96875,2.75 -2.96875,0 0,-2.75 z m 9,1.8437 0.90625,0.8438 6.375,6.0312 -8.46875,0 1.125,-2.2812 a 0.50005,0.50005 0 0 0 0.03125,-0.031 0.50004994,0.50004994 0 0 0 0,-0.062 0.50005,0.50005 0 0 0 0,-0.031 0.50004994,0.50004994 0 0 0 0.03125,-0.094 0.50005,0.50005 0 0 0 0,-0.031 l 0,-4.3438 z m -9,1.9063 4,0 0,2.375 a 0.50005,0.50005 0 0 0 0,0.062 l 0,0.031 a 0.50004994,0.50004994 0 0 0 0,0.094 0.50005,0.50005 0 0 0 0.03125,0.031 0.50004994,0.50004994 0 0 0 0,0.062 0.50005,0.50005 0 0 0 0.03125,0.031 0.50004994,0.50004994 0 0 0 0.09375,0.1562 l 1.0625,2.125 -6.6875,0 0,-0.5 0,-0.5 0.375,0 a 0.50004994,0.50004994 0 0 0 0.5,-0.5 l 0,-1.5 0.09375,0 a 0.50004991,0.50004991 0 0 0 0.5,-0.5 l 0,-1.4687 z m -2.34375,1.9687 0.75,0 0,1 -0.75,0 0,-1 z m 7.625,1 2.4375,0 -1.21875,2.4063 -1.21875,-2.4063 z" color="#000" enable-background="accumulate" font-family="Sans" font-weight="400" overflow="visible" transform="translate(.218 -1020.34)"/></svg>