<svg width="64" height="64" viewBox="0 0 64 64" fill="none" xmlns="http://www.w3.org/2000/svg">
<path d="M32 34C34.2091 34 36 32.2091 36 30C36 27.7909 34.2091 26 32 26C29.7909 26 28 27.7909 28 30C28 32.2091 29.7909 34 32 34Z" fill="#B00000"/>
<path d="M24 50H40V38.571C39.9997 37.3588 39.5181 36.1963 38.6609 35.3391C37.8037 34.4819 36.6412 34.0003 35.429 34H32L34.286 40.857L32 44L29.714 40.857L32 34H28.571C27.3588 34.0003 26.1963 34.4819 25.3391 35.3391C24.4819 36.1963 24.0003 37.3588 24 38.571V50Z" fill="#B00000"/>
<path d="M34.163 13.726L32 9.34299L29.837 13.726L25 14.428L28.5 17.84L27.674 22.657L32 20.383L36.326 22.657L35.5 17.84L39 14.428L34.163 13.726Z" fill="#B00000"/>
<path d="M45.106 24.111L47.154 26.604L47.887 23.462L50.891 22.285L48.129 20.617L47.937 17.396L45.497 19.507L42.375 18.694L43.629 21.667L41.891 24.385L45.106 24.111Z" fill="#B00000"/>
<path d="M18.503 19.507L16.063 17.396L15.871 20.617L13.109 22.285L16.113 23.462L16.846 26.604L18.894 24.111L22.109 24.385L20.371 21.667L21.625 18.694L18.503 19.507Z" fill="#B00000"/>
<path d="M32 1C27.2455 1.00085 22.5549 2.09532 18.291 4.19874C14.027 6.30217 10.3041 9.35819 7.41004 13.1304C4.51599 16.9027 2.5284 21.2901 1.601 25.9532C0.673604 30.6164 0.831249 35.4305 2.06174 40.023C3.29224 44.6155 5.5626 48.8634 8.69725 52.4383C11.8319 56.0131 15.7468 58.819 20.1392 60.639C24.5316 62.4589 29.2838 63.2442 34.0281 62.9339C38.7725 62.6237 43.382 61.2264 47.5 58.85L46.5 57.118C40.2801 60.7216 32.9458 61.8935 25.9127 60.4076C18.8795 58.9218 12.646 54.8835 8.41514 49.0721C4.18427 43.2606 2.25594 36.088 3.00229 28.9385C3.74865 21.789 7.11678 15.1693 12.4567 10.357C17.7966 5.54465 24.7298 2.88084 31.9181 2.87961C39.1065 2.87838 46.0406 5.53981 51.3822 10.3503C56.7237 15.1608 60.0941 21.7793 60.8429 28.9286C61.5917 36.0779 59.6659 43.2511 55.437 49.064L51.878 46.1L50.455 56.534L60.455 53.242L56.979 50.349C60.3732 45.7313 62.4206 40.2629 62.8937 34.5515C63.3669 28.8401 62.2471 23.1094 59.6589 17.9962C57.0708 12.8829 53.1155 8.58744 48.2328 5.58703C43.35 2.58661 37.7309 0.99879 32 1Z" fill="#B00000"/>
</svg>
