<svg width="250" height="254" viewBox="0 0 250 254" fill="none" xmlns="http://www.w3.org/2000/svg">
<g clip-path="url(#clip0_68_193)">
<path d="M220.514 96.7012C206.516 41.4968 158.146 1.64699 101.37 0.0486456C71.3541 -0.79635 39.7692 9.18714 16.7731 44.123C-24.335 106.575 19.2993 149.731 49.7199 170.238C64.4168 180.165 77.6595 192.102 89.0645 205.702C109.613 230.156 149.143 260.543 196.221 212.931C230.344 178.421 229.839 133.473 220.514 96.7012Z" fill="#F2F2F2"/>
<g opacity="0.7">
<path opacity="0.7" d="M240.681 59.3009C236.547 67.3474 223.446 76.8288 215.422 72.6833C207.399 68.5377 207.492 52.3349 211.626 44.2885C213.611 40.4253 217.046 37.5111 221.173 36.1871C225.301 34.863 229.784 35.2374 233.637 37.2279C237.489 39.2185 240.396 42.6622 241.717 46.8015C243.038 50.9409 242.665 55.437 240.681 59.3009Z" fill="#B00000"/>
<path opacity="0.7" d="M216.101 74.811C215.843 74.307 215.434 73.8964 214.932 73.6369C214.43 73.3775 213.859 73.282 213.3 73.364L214.743 70.5555L217.544 72.0025L216.101 74.811Z" fill="#B00000"/>
<path opacity="0.7" d="M214.06 71.9041C214.381 72.3498 214.804 72.7127 215.293 72.9627C215.781 73.2127 216.322 73.3427 216.871 73.3421" stroke="#2F2E41" stroke-width="2" stroke-miterlimit="10"/>
<path opacity="0.4" d="M238.411 50.3537C239.457 48.3178 238.933 45.9589 237.242 45.0848C235.55 44.2108 233.331 45.1526 232.285 47.1884C231.239 49.2242 231.762 51.5832 233.454 52.4573C235.146 53.3313 237.365 52.3895 238.411 50.3537Z" fill="white"/>
<path opacity="0.7" d="M215.347 72.784L203.155 103.553" stroke="#2F2E41" stroke-width="2" stroke-miterlimit="10"/>
</g>
<path d="M243.255 108.659C234.204 117.816 212.359 125.072 203.229 115.996C194.098 106.92 201.141 84.9482 210.191 75.7917C214.538 71.3971 220.447 68.9137 226.619 68.8875C232.791 68.8613 238.72 71.2945 243.104 75.6521C247.487 80.0096 249.966 85.9347 249.994 92.1244C250.022 98.3142 247.598 104.262 243.255 108.659Z" fill="#11B5E4"/>
<path d="M203.243 119.178C203.107 118.382 202.727 117.649 202.156 117.081C201.584 116.513 200.85 116.138 200.056 116.01L203.215 112.814L206.401 115.982L203.243 119.178Z" fill="#11B5E4"/>
<path d="M201.71 114.352C201.957 115.096 202.376 115.77 202.934 116.32C203.491 116.869 204.17 117.278 204.916 117.513" stroke="#2F2E41" stroke-width="2" stroke-miterlimit="10"/>
<path d="M202.62 116.768L172.611 147.13" stroke="#2F2E41" stroke-width="2" stroke-miterlimit="10"/>
<path opacity="0.4" d="M243.99 95.5302C246.28 93.2135 246.576 89.7841 244.651 87.8704C242.726 85.9568 239.309 86.2835 237.019 88.6002C234.729 90.9169 234.434 94.3463 236.359 96.26C238.284 98.1736 241.701 97.8469 243.99 95.5302Z" fill="white"/>
<path d="M214.968 78.9958C211.985 91.5366 197.089 109.127 184.584 106.137C172.079 103.146 166.701 80.7061 169.683 68.1653C171.119 62.1465 174.879 56.9457 180.136 53.706C185.394 50.4663 191.719 49.4529 197.722 50.8885C203.724 52.324 208.913 56.0912 212.146 61.3618C215.38 66.6324 216.395 72.9751 214.968 78.9958Z" fill="#B00000"/>
<path d="M186.246 108.847C185.718 108.238 185.013 107.81 184.231 107.623C183.448 107.436 182.627 107.499 181.881 107.803L182.922 103.426L187.287 104.47L186.246 108.847Z" fill="#B00000"/>
<path d="M182.435 105.525C183.031 106.031 183.739 106.389 184.5 106.567C185.261 106.746 186.053 106.741 186.812 106.553" stroke="#2F2E41" stroke-width="2" stroke-miterlimit="10"/>
<path opacity="0.4" d="M208.788 67.3979C209.543 64.2249 208.017 61.1415 205.38 60.5109C202.744 59.8803 199.995 61.9414 199.24 65.1144C198.486 68.2874 200.011 71.3707 202.648 72.0013C205.285 72.6319 208.034 70.5709 208.788 67.3979Z" fill="white"/>
<path d="M184.515 107.108L174.626 148.692" stroke="#2F2E41" stroke-width="2" stroke-miterlimit="10"/>
<g opacity="0.8">
<path opacity="0.8" d="M76.3596 188.958C69.859 195.302 54.3561 200.142 48.0305 193.623C41.7049 187.103 46.9518 171.694 53.4524 165.35C54.9981 163.841 56.8249 162.653 58.8286 161.853C60.8322 161.052 62.9734 160.655 65.1299 160.685C67.2865 160.714 69.4161 161.17 71.3972 162.024C73.3784 162.879 75.1722 164.117 76.6763 165.667C78.1804 167.217 79.3653 169.05 80.1634 171.059C80.9615 173.068 81.3572 175.216 81.3278 177.378C81.2984 179.541 80.8445 181.677 79.992 183.664C79.1396 185.651 77.9053 187.45 76.3596 188.958Z" fill="#B00000"/>
<path opacity="0.8" d="M47.9999 195.867C47.9146 195.304 47.6559 194.782 47.26 194.374C46.864 193.966 46.3507 193.693 45.792 193.592L48.061 191.378L50.2689 193.653L47.9999 195.867Z" fill="#B00000"/>
<path opacity="0.8" d="M46.9805 192.444C47.145 192.972 47.4322 193.453 47.8184 193.847C48.2045 194.242 48.6786 194.539 49.2016 194.714" stroke="#2F2E41" stroke-width="2" stroke-miterlimit="10"/>
<path opacity="0.4" d="M77.0452 179.705C78.6899 178.1 78.942 175.685 77.6083 174.31C76.2745 172.936 73.8601 173.123 72.2153 174.728C70.5706 176.333 70.3185 178.748 71.6522 180.123C72.9859 181.497 75.4004 181.311 77.0452 179.705Z" fill="white"/>
</g>
<path d="M146.912 55.2717H151.478C154.475 55.2717 157.348 56.4653 159.466 58.59C161.585 60.7146 162.775 63.5963 162.775 66.601V82.5103H135.615V66.601C135.615 65.1132 135.907 63.64 136.475 62.2655C137.042 60.8909 137.874 59.642 138.923 58.59C139.972 57.538 141.218 56.7035 142.588 56.1341C143.959 55.5648 145.428 55.2717 146.912 55.2717Z" fill="#2F2E41"/>
<path d="M133.948 126.196L130.521 133.423C130.521 133.423 127.727 143.132 130.893 144.17C134.058 145.208 134.676 134.207 134.676 134.207L137.298 126.922L133.948 126.196Z" fill="#FFC6B1"/>
<path opacity="0.1" d="M133.948 126.196L130.521 133.423C130.521 133.423 127.727 143.132 130.893 144.17C134.058 145.208 134.676 134.207 134.676 134.207L137.298 126.922L133.948 126.196Z" fill="black"/>
<path d="M134.598 114.884L130.263 130.1L137.127 133.723V115.609L134.598 114.884Z" fill="#FAB005"/>
<path d="M146.338 74.4892C146.338 74.4892 145.977 80.2858 145.254 80.2858C144.532 80.2858 143.087 87.1693 143.087 87.1693L149.228 91.1545L156.814 84.271L154.647 78.8366C154.647 78.8366 153.563 76.6629 153.924 74.4892C154.286 72.3154 146.338 74.4892 146.338 74.4892Z" fill="#FFC6B1"/>
<path opacity="0.1" d="M146.338 74.4892C146.338 74.4892 145.977 80.2858 145.254 80.2858C144.532 80.2858 143.087 87.1693 143.087 87.1693L149.228 91.1545L156.814 84.271L154.647 78.8366C154.647 78.8366 153.563 76.6629 153.924 74.4892C154.286 72.3154 146.338 74.4892 146.338 74.4892Z" fill="black"/>
<path d="M169.097 132.093L169.82 140.063C169.82 140.063 172.348 149.845 175.6 149.121C178.851 148.396 173.793 138.614 173.793 138.614L172.348 131.006L169.097 132.093Z" fill="#FFC6B1"/>
<path d="M153.563 210.71C153.563 210.71 155.731 224.114 154.286 226.65C152.841 229.186 155.731 229.549 155.731 229.549L164.401 227.375V223.39C164.401 223.39 161.511 210.347 161.511 209.623C161.511 208.898 153.563 210.71 153.563 210.71Z" fill="#FFC6B1"/>
<path d="M135.862 150.57C135.862 150.57 138.391 176.655 142.364 184.987C146.338 193.32 149.951 216.144 151.757 216.506C153.563 216.869 167.291 214.333 169.097 212.883C170.903 211.434 156.814 176.292 156.814 175.93C156.814 175.568 153.563 143.324 153.563 143.324L149.228 136.078L135.862 150.57Z" fill="#2F2E41"/>
<path opacity="0.1" d="M135.862 150.57C135.862 150.57 138.391 176.655 142.364 184.987C146.338 193.32 149.951 216.144 151.757 216.506C153.563 216.869 167.291 214.333 169.097 212.883C170.903 211.434 156.814 176.292 156.814 175.93C156.814 175.568 153.563 143.324 153.563 143.324L149.228 136.078L135.862 150.57Z" fill="black"/>
<path d="M156.814 225.926C156.814 225.926 153.202 224.114 152.479 225.201L149.589 229.549C149.589 229.549 137.307 235.345 141.642 236.07C145.977 236.794 154.286 236.794 155.369 236.07C156.453 235.345 168.374 228.824 168.013 228.462C167.652 228.099 164.762 220.491 164.401 221.216C164.039 221.941 158.982 227.375 156.814 225.926Z" fill="#2F2E41"/>
<path d="M96.1248 195.131C96.1248 195.131 87.8161 200.928 83.8423 199.841C79.8685 198.754 83.8423 207.811 83.8423 207.811L91.0673 211.797L93.2348 209.985C93.2348 209.985 100.821 199.841 104.072 199.479C107.324 199.116 96.1248 195.131 96.1248 195.131Z" fill="#FFC6B1"/>
<path d="M133.694 128.832L135.139 136.441L108.046 177.741C108.046 177.741 91.7895 194.044 93.2345 195.856C94.6795 197.667 103.711 208.174 105.878 206.724C108.046 205.275 158.259 150.932 157.898 143.686C157.537 136.441 145.616 122.674 145.616 122.674L133.694 128.108V128.832Z" fill="#2F2E41"/>
<path d="M85.6484 202.377C85.6484 202.377 88.8997 198.754 87.0934 198.392C85.0618 198.033 83.0114 197.791 80.9522 197.667C80.2297 197.667 70.4759 192.595 69.7534 194.407C69.0309 196.218 74.0884 205.638 76.9784 206.724C79.8684 207.811 90.3446 215.419 90.3446 215.419C90.3446 215.419 95.7634 210.71 95.0409 209.623C94.3184 208.536 84.2034 206.362 85.6484 202.377Z" fill="#2F2E41"/>
<path d="M149.228 78.1121C154.016 78.1121 157.898 74.2192 157.898 69.4171C157.898 64.6151 154.016 60.7222 149.228 60.7222C144.44 60.7222 140.558 64.6151 140.558 69.4171C140.558 74.2192 144.44 78.1121 149.228 78.1121Z" fill="#FFC6B1"/>
<path d="M151.034 82.4595C151.034 82.4595 144.893 82.8218 143.087 81.7349C141.281 80.6481 137.307 96.5888 137.307 96.5888L134.778 117.601C134.778 117.601 134.417 120.138 134.778 121.587C135.139 123.036 131.166 120.862 132.611 124.847C134.056 128.832 131.527 130.644 134.056 131.006C136.584 131.368 149.951 125.934 149.951 125.934L156.092 93.6905L157.898 80.6481L151.034 82.4595Z" fill="#D0CDE1"/>
<path d="M145.692 79.5164C145.692 79.5164 142.364 78.8366 141.281 79.5612C140.197 80.2858 136.223 85.7201 136.223 87.1693C136.223 88.6184 134.778 104.559 134.778 106.008C134.778 107.457 133.694 115.065 133.694 115.79C133.694 116.515 134.621 119.629 134.621 119.629L136.946 115.428C136.946 115.428 136.223 109.993 138.752 101.299C141.281 92.6036 145.692 79.5164 145.692 79.5164Z" fill="#FAB005"/>
<path d="M149.228 84.9955C149.228 84.9955 154.054 77.3875 154.35 78.1121C154.647 78.8366 160.066 79.9235 160.066 79.9235C160.066 79.9235 169.819 86.807 169.097 89.7053C168.374 92.6036 163.317 114.341 163.317 114.341C163.317 114.341 158.621 125.572 162.233 133.542C165.846 141.513 161.511 144.411 161.511 144.411C161.511 144.411 158.621 145.86 159.343 147.309C160.066 148.758 151.034 154.193 149.951 150.207C148.867 146.222 135.501 122.311 138.391 113.616C141.281 104.921 149.228 84.9955 149.228 84.9955Z" fill="#FAB005"/>
<path d="M167.291 88.6184C167.291 88.6184 171.264 96.2265 170.542 97.3133C169.819 98.4002 173.071 104.921 173.071 104.921C172.846 105.504 172.846 106.15 173.071 106.733C173.432 107.82 175.599 112.529 175.599 114.341C175.599 116.152 175.238 121.949 175.599 124.485C175.961 127.021 180.657 133.18 176.683 133.542C172.709 133.904 166.207 137.165 166.568 133.542C166.929 129.919 168.013 121.224 166.568 119.775C165.123 118.326 164.039 118.326 164.762 116.515C165.484 114.703 161.511 109.993 161.511 109.993L167.291 88.6184Z" fill="#FAB005"/>
<path d="M156.473 67.2751H142.76L139.655 60.1192H158.802L156.473 67.2751Z" fill="#2F2E41"/>
<path d="M140.961 72.5114C141.327 72.4049 141.395 71.5245 141.111 70.5449C140.828 69.5653 140.302 68.8575 139.936 68.9639C139.569 69.0704 139.502 69.9508 139.785 70.9304C140.068 71.91 140.594 72.6178 140.961 72.5114Z" fill="#FFC6B1"/>
<path d="M158.375 70.9304C158.658 69.9508 158.59 69.0704 158.224 68.964C157.858 68.8575 157.331 69.5654 157.048 70.545C156.765 71.5245 156.833 72.405 157.199 72.5114C157.565 72.6179 158.092 71.91 158.375 70.9304Z" fill="#FFC6B1"/>
<path d="M239.409 208.755C239.409 217.171 234.421 220.109 228.268 220.109C228.125 220.109 227.982 220.107 227.841 220.105C227.555 220.097 227.273 220.084 226.994 220.064C221.44 219.671 217.126 216.581 217.126 208.755C217.126 200.658 227.443 190.44 228.221 189.68C228.222 189.68 228.222 189.68 228.222 189.68C228.222 189.68 228.223 189.68 228.223 189.68C228.223 189.679 228.223 189.679 228.223 189.679C228.223 189.679 228.223 189.679 228.223 189.678C228.252 189.651 228.268 189.636 228.268 189.636C228.268 189.636 239.409 200.34 239.409 208.755Z" fill="#F2F2F2"/>
<path d="M227.862 218.822L231.935 213.112L227.852 219.448L227.84 220.105C227.554 220.097 227.272 220.084 226.994 220.064L227.433 211.647L227.429 211.581L227.436 211.569L227.479 210.773L223.384 204.422L227.491 210.176L227.5 210.346L227.833 203.986L224.327 197.421L227.875 202.867L228.221 189.68L228.223 189.636V189.678L228.165 200.078L231.655 195.956L228.15 200.974L228.059 206.67L231.317 201.204L228.045 207.507L227.993 210.674L232.724 203.067L227.976 211.779L227.862 218.822Z" fill="#02897A"/>
</g>
<defs>
<clipPath id="clip0_68_193">
<rect width="250" height="254" fill="white"/>
</clipPath>
</defs>
</svg>
