<svg width="60" height="50" viewBox="0 0 60 50" fill="none" xmlns="http://www.w3.org/2000/svg">
<path d="M6.4905 20.8496H3.7123C3.2366 20.8496 2.7804 21.0533 2.444 21.416C2.1077 21.7787 1.9187 22.2706 1.9187 22.7834V30.54C1.9187 31.0528 2.1077 31.5447 2.444 31.9074C2.7804 32.27 3.2366 32.4738 3.7123 32.4738H6.4905" stroke="#B00000" stroke-width="3.11405" stroke-linecap="round"/>
<path d="M53.9596 20.8496H55.9173C56.393 20.8496 56.8492 21.0533 57.1856 21.416C57.5219 21.7787 57.7109 22.2706 57.7109 22.7834V30.54C57.7109 31.0528 57.5219 31.5447 57.1856 31.9074C56.8492 32.27 56.393 32.4738 55.9173 32.4738H53.1392" stroke="#B00000" stroke-width="3.11405" stroke-linecap="round"/>
<path d="M40.2121 45.5232H43.8576C47.9735 42.5176 51.0296 38.2702 52.582 33.3979C54.1343 28.5255 54.102 23.2822 52.4897 18.4296C50.8775 13.577 47.7692 9.368 43.6166 6.4141C39.464 3.4601 34.4833 1.9151 29.3982 2.0036C24.3132 2.092 19.3885 3.8093 15.3399 6.9059C11.2913 10.0025 8.3295 14.3171 6.885 19.2229C5.4404 24.1286 5.5883 29.3699 7.3071 34.1853C9.026 39.0008 12.2262 43.1394 16.4429 46" stroke="#B00000" stroke-width="3" stroke-linecap="round"/>
<path d="M37.3704 47.8249H27.7347C27.2303 47.8227 26.7472 47.6166 26.3905 47.2516C26.0339 46.8866 25.8325 46.3922 25.8303 45.876V45.6218C25.8328 45.1057 26.0342 44.6114 26.3908 44.2465C26.7474 43.8815 27.2304 43.6754 27.7347 43.6729H37.3704C37.8748 43.6751 38.3579 43.8811 38.7146 44.2462C39.0713 44.6112 39.2726 45.1056 39.2748 45.6218V45.876C39.2728 46.3923 39.0716 46.8869 38.7149 47.2519C38.3582 47.617 37.8749 47.823 37.3704 47.8249Z" stroke="#B00000" stroke-width="3" stroke-linecap="round"/>
<path d="M15.0567 30.8622H21.2782V29.3537H17.6135V29.294L18.8876 28.0454C20.6817 26.4091 21.1632 25.5909 21.1632 24.598C21.1632 23.0852 19.9274 22.0156 18.0567 22.0156C16.2243 22.0156 14.9672 23.1108 14.9714 24.8239H16.7228C16.7186 23.9886 17.247 23.4773 18.0439 23.4773C18.8109 23.4773 19.3819 23.9545 19.3819 24.7216C19.3819 25.4162 18.9558 25.8935 18.1632 26.6562L15.0567 29.5327V30.8622ZM22.2956 29.3281H26.4846V30.8622H28.2488V29.3281H29.3312V27.8494H28.2488V22.1349H25.9391L22.2956 27.875V29.3281ZM26.5187 27.8494H24.1536V27.7812L26.4505 24.1463H26.5187V27.8494ZM35.9171 29.652L37.0378 28.5312L35.052 26.5497L37.0378 24.5682L35.9171 23.4389L33.9313 25.4247L31.9412 23.4389L30.8248 24.5682L32.8063 26.5497L30.8248 28.5312L31.9412 29.652L33.9313 27.6662L35.9171 29.652ZM39.062 30.8622H40.9668L44.589 23.6648V22.1349H38.4654V23.6435H42.6799V23.7031L39.062 30.8622Z" fill="#B00000"/>
</svg>
