<svg xmlns="http://www.w3.org/2000/svg" width="32" height="32" viewBox="0 0 32 32"><g transform="translate(-38.067 -1282.363)"><path style="text-indent:0;text-align:start;line-height:normal;text-transform:none;block-progression:tb;marker:none;-inkscape-font-specification:Sans" d="M 10.3125 0 C 6.7679744 0.086708396 3.3634356 1.9540501 1.46875 5.25 C -0.35332194 8.4195999 -0.40971095 12.32325 1.34375 15.53125 L 1.4375 15.71875 C 1.4356446 15.813537 1.4375 15.904794 1.4375 16 C 1.4375 16.093231 1.4357207 16.188421 1.4375 16.28125 L 1.34375 16.46875 C -0.40971095 19.67675 -0.35332194 23.5804 1.46875 26.75 C 3.6341049 30.5168 7.7821401 32.4322 11.84375 31.9375 C 13.19762 31.7726 14.556911 31.3468 15.8125 30.625 L 16 30.5 L 16.21875 30.625 C 17.474339 31.3468 18.80238 31.7726 20.15625 31.9375 C 24.21786 32.4322 28.365895 30.5168 30.53125 26.75 C 32.353323 23.5804 32.409711 19.67675 30.65625 16.46875 L 30.4375 16.0625 C 30.437588 16.041846 30.4375 16.020673 30.4375 16 C 30.4375 15.978899 30.437594 15.958581 30.4375 15.9375 L 30.65625 15.53125 C 32.409711 12.32325 32.353322 8.4195999 30.53125 5.25 C 28.365895 1.4832001 24.21786 -0.43219998 20.15625 0.0625 C 18.80238 0.22739999 17.474339 0.65320002 16.21875 1.375 L 16 1.5 L 15.8125 1.375 C 14.556911 0.65320002 13.19762 0.22739999 11.84375 0.0625 C 11.336049 0.00066250193 10.818861 -0.012386914 10.3125 0 z M 10.8125 1 C 11.886038 1.0264235 12.959674 1.2514383 14 1.65625 C 12.689794 1.8344639 11.427235 2.1803135 10.25 2.6875 A 0.50004998 0.50004998 0 0 0 10.21875 2.71875 C 6.4906272 4.3376214 3.5812502 7.4755559 2.25 11.34375 C 2.2456806 11.356301 2.2230357 11.362434 2.21875 11.375 A 0.50004998 0.50004998 0 0 0 2.15625 11.5 C 2.1327214 11.571217 2.1161934 11.64706 2.09375 11.71875 C 1.9894364 12.053455 1.8926272 12.405174 1.8125 12.75 C 1.742826 13.049564 1.6756133 13.350074 1.625 13.65625 C 0.70975646 11.070566 0.95097045 8.1727423 2.34375 5.75 C 4.1434854 2.6192626 7.4444437 0.91710039 10.8125 1 z M 21.1875 1 C 24.564788 0.91710039 27.887765 2.6192626 29.6875 5.75 C 31.137656 8.2725487 31.301978 11.303045 30.25 13.96875 C 30.207487 13.677145 30.18488 13.379649 30.125 13.09375 C 29.927945 12.138323 29.626429 11.221959 29.25 10.34375 C 29.236857 10.313087 29.232099 10.280556 29.21875 10.25 C 27.60001 6.5446365 24.470507 3.6446432 20.625 2.3125 A 0.50004998 0.50004998 0 0 0 20.59375 2.28125 C 20.5846 2.2781086 20.571658 2.2843735 20.5625 2.28125 A 0.50004998 0.50004998 0 0 0 20.4375 2.21875 C 19.652914 1.9606501 18.837595 1.7768289 18 1.65625 C 19.041497 1.2514289 20.111006 1.0264238 21.1875 1 z M 15.75 2.5 C 15.812778 2.4991283 15.874525 2.5 15.9375 2.5 C 16.401465 2.5 16.860212 2.5474313 17.3125 2.59375 C 17.476488 2.6157518 17.650375 2.627871 17.8125 2.65625 C 17.844539 2.660757 17.874281 2.6827662 17.90625 2.6875 C 18.481331 2.7925371 19.039575 2.9349891 19.59375 3.09375 L 17.875 7.75 C 17.25127 7.6058708 16.607141 7.5 15.9375 7.5 C 15.473837 7.5 15.030231 7.541525 14.59375 7.625 C 14.152718 7.6942115 13.727646 7.803919 13.3125 7.9375 L 11.1875 3.40625 C 11.927659 3.12515 12.706534 2.9063 13.5 2.75 C 14.230874 2.6153138 14.984176 2.5106341 15.75 2.5 z M 20.5625 3.34375 C 23.910344 4.5760062 26.64612 7.1069186 28.15625 10.3125 L 23.65625 12.40625 C 22.712045 10.369304 20.973513 8.8003777 18.84375 8.03125 L 20.5625 3.34375 z M 10.28125 3.78125 L 12.375 8.3125 C 10.340014 9.2490152 8.7456528 10.94276 7.96875 13.0625 L 3.28125 11.34375 C 4.5268605 7.9981231 7.0645609 5.2789268 10.28125 3.78125 z M 15.9375 8.5 C 16.309829 8.5 16.677749 8.5403125 17.03125 8.59375 C 17.063415 8.598292 17.092976 8.6200616 17.125 8.625 C 17.444168 8.6775987 17.755377 8.7229482 18.0625 8.8125 C 18.08185 8.8180671 18.105718 8.806784 18.125 8.8125 A 0.50004998 0.50004998 0 0 0 18.15625 8.84375 C 20.337399 9.5024075 22.07599 11.091762 22.90625 13.1875 A 0.50004998 0.50004998 0 0 0 22.90625 13.21875 C 22.974856 13.393942 23.0381 13.568359 23.09375 13.75 C 23.166016 13.985875 23.231884 14.254303 23.28125 14.5 C 23.287523 14.531999 23.306622 14.561602 23.3125 14.59375 C 23.345063 14.767228 23.35432 14.947247 23.375 15.125 C 23.407244 15.414717 23.4375 15.702992 23.4375 16 C 23.4375 16.37235 23.397194 16.740238 23.34375 17.09375 C 23.290306 17.447262 23.223724 17.7864 23.125 18.125 A 0.50004998 0.50004998 0 0 0 23.125 18.1875 C 23.118538 18.209297 23.100401 18.228291 23.09375 18.25 A 0.50004998 0.50004998 0 0 0 23.09375 18.28125 C 22.438246 20.390901 20.88975 22.095484 18.875 22.9375 A 0.50004998 0.50004998 0 0 0 18.71875 22.96875 A 0.50004998 0.50004998 0 0 0 18.65625 23 C 18.021269 23.2445 17.358294 23.404531 16.65625 23.46875 C 16.421646 23.490191 16.178367 23.5 15.9375 23.5 C 15.193661 23.5 14.490635 23.3852 13.8125 23.1875 A 0.50004998 0.50004998 0 0 0 13.65625 23.15625 C 11.506747 22.484962 9.7904241 20.886566 8.96875 18.8125 C 8.9566038 18.781841 8.9492556 18.749615 8.9375 18.71875 C 8.8766865 18.560819 8.8313401 18.412073 8.78125 18.25 C 8.7089844 18.014125 8.6431159 17.776947 8.59375 17.53125 C 8.5854112 17.489747 8.5701656 17.448013 8.5625 17.40625 C 8.5413104 17.292279 8.5159896 17.178356 8.5 17.0625 C 8.484483 16.949057 8.4792708 16.833867 8.46875 16.71875 C 8.4473463 16.484734 8.4375 16.241475 8.4375 16 C 8.4375 15.704619 8.467913 15.442056 8.5 15.15625 C 8.5236329 14.945747 8.5535153 14.735754 8.59375 14.53125 C 8.6037814 14.480262 8.6139631 14.425588 8.625 14.375 C 8.6635632 14.199184 8.7005795 14.01325 8.75 13.84375 A 0.50004998 0.50004998 0 0 0 8.75 13.8125 C 9.4116706 11.583587 11.067198 9.819452 13.21875 9 C 13.601378 8.8526559 13.999005 8.7394892 14.40625 8.65625 C 14.897645 8.557518 15.413949 8.5 15.9375 8.5 z M 28.53125 11.25 C 28.671795 11.620075 28.794937 12.022173 28.90625 12.40625 C 29.017563 12.790327 29.109355 13.165769 29.1875 13.5625 C 29.265645 13.959231 29.333959 14.373211 29.375 14.78125 C 29.416041 15.189289 29.4375 15.582 29.4375 16 C 29.4375 17.2717 29.178367 18.4557 28.84375 19.625 L 24.21875 17.9375 C 24.290707 17.623903 24.307192 17.294931 24.34375 16.96875 C 24.379452 16.650207 24.4375 16.328602 24.4375 16 C 24.4375 15.701719 24.411907 15.411591 24.375 15.125 C 24.35901 14.96594 24.337022 14.812513 24.3125 14.65625 C 24.308702 14.636388 24.316436 14.613563 24.3125 14.59375 C 24.241903 14.164225 24.163028 13.748427 24.03125 13.34375 L 28.53125 11.25 z M 3.03125 12.34375 L 7.65625 14.03125 C 7.5076645 14.663962 7.4375 15.319784 7.4375 16 C 7.4375 16.231625 7.4429217 16.465706 7.46875 16.6875 C 7.5211057 17.350948 7.649645 18.014428 7.84375 18.625 L 3.34375 20.71875 C 3.062469 19.97835 2.8437422 19.223187 2.6875 18.4375 C 2.6093789 18.044656 2.5410108 17.65508 2.5 17.25 C 2.4764265 17.017155 2.4790471 16.768296 2.46875 16.53125 C 2.4617215 16.35352 2.4375 16.179369 2.4375 16 C 2.4375 15.819548 2.45889 15.646848 2.46875 15.46875 C 2.4741121 15.333161 2.4593656 15.197067 2.46875 15.0625 C 2.4738676 15.008433 2.4940927 14.960109 2.5 14.90625 C 2.5280698 14.650331 2.5497705 14.407659 2.59375 14.15625 C 2.7002202 13.547613 2.863381 12.92905 3.03125 12.34375 z M 30.28125 18.0625 C 31.315885 20.718561 31.130558 23.7398 29.6875 26.25 C 27.309065 30.387417 22.283883 32.036429 17.96875 30.34375 C 23.435855 29.562261 27.932585 25.707753 29.65625 20.59375 A 0.50004998 0.50004998 0 0 0 29.71875 20.46875 C 29.736368 20.415184 29.764243 20.366261 29.78125 20.3125 C 29.819942 20.188906 29.839573 20.06246 29.875 19.9375 C 29.970641 19.604699 30.05335 19.278029 30.125 18.9375 C 30.186266 18.646325 30.238203 18.3596 30.28125 18.0625 z M 1.625 18.34375 C 1.7349892 19.01812 1.893229 19.671978 2.09375 20.3125 C 2.2366568 20.765442 2.4097053 21.19185 2.59375 21.625 A 0.50004998 0.50004998 0 0 0 2.65625 21.75 C 4.2957428 25.504922 7.4596231 28.442092 11.375 29.75 A 0.50004998 0.50004998 0 0 0 11.40625 29.78125 C 11.415754 29.784395 11.427987 29.778124 11.4375 29.78125 C 11.459482 29.78848 11.47797 29.805372 11.5 29.8125 C 11.630826 29.854772 11.773864 29.867648 11.90625 29.90625 C 12.177388 29.985235 12.441192 30.061742 12.71875 30.125 C 13.13848 30.221471 13.567622 30.316188 14 30.375 C 9.6982982 32.042795 4.7151341 30.375151 2.34375 26.25 C 0.95097045 23.827258 0.70975646 20.929434 1.625 18.34375 z M 23.9375 18.90625 L 28.59375 20.625 C 27.354545 23.991751 24.825122 26.745299 21.59375 28.25 L 19.53125 23.71875 C 21.574753 22.769958 23.172807 21.047112 23.9375 18.90625 z M 8.21875 19.5625 C 9.1531004 21.607551 10.872952 23.189167 13 23.96875 L 11.28125 28.65625 C 7.9261414 27.411551 5.1865176 24.881482 3.6875 21.65625 L 8.21875 19.5625 z M 18.59375 24.09375 L 20.6875 28.59375 C 19.206956 29.15625 17.609151 29.5 15.9375 29.5 C 15.873938 29.5 15.813266 29.501265 15.75 29.5 C 15.466326 29.496051 15.185581 29.490173 14.90625 29.46875 C 14.00586 29.375834 13.130503 29.149779 12.28125 28.90625 L 13.96875 24.28125 C 14.601463 24.429836 15.257282 24.5 15.9375 24.5 C 16.867891 24.5 17.758089 24.365873 18.59375 24.09375 z " color="#B00000" enable-background="accumulate" font-family="Sans" font-weight="400" overflow="visible" transform="translate(38.067 1282.363)"/></g></svg>