<svg width="32" height="32" viewBox="0 0 32 32" fill="none" xmlns="http://www.w3.org/2000/svg">
<g clip-path="url(#clip0_345_14)">
<path d="M10.3125 0.000111874C6.76799 0.0868203 3.36345 1.95416 1.46876 5.25011C-0.353309 8.41971 -0.409698 12.3234 1.34376 15.5314L1.43751 15.7189C1.43566 15.8136 1.43751 15.9049 1.43751 16.0001C1.43751 16.0933 1.43573 16.1885 1.43751 16.2814L1.34376 16.4689C-0.409698 19.6769 -0.353309 23.5805 1.46876 26.7501C3.63412 30.5169 7.78215 32.4323 11.8438 31.9376C13.1976 31.7727 14.5569 31.3469 15.8125 30.6251L16 30.5001L16.2188 30.6251C17.4744 31.3469 18.8024 31.7727 20.1563 31.9376C24.2179 32.4323 28.3659 30.5169 30.5313 26.7501C32.3533 23.5805 32.4097 19.6769 30.6563 16.4689L30.4375 16.0626C30.4376 16.042 30.4375 16.0208 30.4375 16.0001C30.4375 15.979 30.4376 15.9587 30.4375 15.9376L30.6563 15.5314C32.4097 12.3234 32.3533 8.41971 30.5313 5.25011C28.3659 1.48331 24.2179 -0.432088 20.1563 0.0626119C18.8024 0.227512 17.4744 0.653312 16.2188 1.37511L16 1.50011L15.8125 1.37511C14.5569 0.653312 13.1976 0.227512 11.8438 0.0626119C11.3361 0.000774372 10.8189 -0.012275 10.3125 0.000111874ZM10.8125 1.00011C11.8861 1.02654 12.9597 1.25155 14 1.65636C12.6898 1.83458 11.4272 2.18043 10.25 2.68761C10.2391 2.69756 10.2287 2.70799 10.2188 2.71886C6.49064 4.33773 3.58126 7.47567 2.25001 11.3439C2.24569 11.3564 2.22305 11.3625 2.21876 11.3751C2.19218 11.4136 2.17114 11.4557 2.15626 11.5001C2.13273 11.5713 2.11621 11.6472 2.09376 11.7189C1.98945 12.0536 1.89264 12.4053 1.81251 12.7501C1.74284 13.0497 1.67563 13.3502 1.62501 13.6564C0.709769 11.0707 0.950983 8.17285 2.34376 5.75011C4.1435 2.61937 7.44446 0.917212 10.8125 1.00011ZM21.1875 1.00011C24.5648 0.917212 27.8878 2.61937 29.6875 5.75011C31.1377 8.27266 31.302 11.3032 30.25 13.9689C30.2075 13.6773 30.1849 13.3798 30.125 13.0939C29.928 12.1384 29.6264 11.2221 29.25 10.3439C29.2369 10.3132 29.2321 10.2807 29.2188 10.2501C27.6 6.54475 24.4705 3.64476 20.625 2.31261C20.6151 2.30174 20.6046 2.29131 20.5938 2.28136C20.5846 2.27822 20.5717 2.28449 20.5625 2.28136C20.524 2.25478 20.4819 2.23374 20.4375 2.21886C19.6529 1.96076 18.8376 1.77694 18 1.65636C19.0415 1.25154 20.111 1.02654 21.1875 1.00011ZM15.75 2.50011C15.8128 2.49924 15.8745 2.50011 15.9375 2.50011C16.4015 2.50011 16.8602 2.54754 17.3125 2.59386C17.4765 2.61586 17.6504 2.62798 17.8125 2.65636C17.8446 2.66087 17.8743 2.68288 17.9063 2.68761C18.4813 2.79265 19.0396 2.9351 19.5938 3.09386L17.875 7.75011C17.2513 7.60598 16.6072 7.50011 15.9375 7.50011C15.4738 7.50011 15.0302 7.54164 14.5938 7.62511C14.1527 7.69432 13.7277 7.80403 13.3125 7.93761L11.1875 3.40636C11.9277 3.12526 12.7065 2.90641 13.5 2.75011C14.2309 2.61543 14.9842 2.51075 15.75 2.50011ZM20.5625 3.34386C23.9104 4.57612 26.6461 7.10703 28.1563 10.3126L23.6563 12.4064C22.7121 10.3694 20.9735 8.80049 18.8438 8.03136L20.5625 3.34386ZM10.2813 3.78136L12.375 8.31261C10.34 9.24913 8.74567 10.9429 7.96876 13.0626L3.28126 11.3439C4.52687 7.99823 7.06457 5.27904 10.2813 3.78136ZM15.9375 8.50011C16.3098 8.50011 16.6778 8.54042 17.0313 8.59386C17.0634 8.5984 17.093 8.62017 17.125 8.62511C17.4442 8.67771 17.7554 8.72306 18.0625 8.81261C18.0819 8.81818 18.1057 8.8069 18.125 8.81261C18.135 8.82348 18.1454 8.83391 18.1563 8.84386C20.3374 9.50252 22.076 11.0919 22.9063 13.1876C22.9059 13.198 22.9059 13.2084 22.9063 13.2189C22.9749 13.3941 23.0381 13.5685 23.0938 13.7501C23.166 13.986 23.2319 14.2544 23.2813 14.5001C23.2875 14.5321 23.3066 14.5617 23.3125 14.5939C23.3451 14.7673 23.3543 14.9474 23.375 15.1251C23.4073 15.4148 23.4375 15.7031 23.4375 16.0001C23.4375 16.3725 23.3972 16.7404 23.3438 17.0939C23.2903 17.4474 23.2237 17.7865 23.125 18.1251C23.1237 18.1459 23.1237 18.1668 23.125 18.1876C23.1186 18.2094 23.1004 18.2284 23.0938 18.2501C23.0934 18.2605 23.0934 18.2709 23.0938 18.2814C22.4383 20.391 20.8898 22.0956 18.875 22.9376C18.8216 22.9396 18.7688 22.9502 18.7188 22.9689C18.6972 22.9778 18.6763 22.9883 18.6563 23.0001C18.0213 23.2446 17.3583 23.4046 16.6563 23.4689C16.4217 23.4903 16.1784 23.5001 15.9375 23.5001C15.1937 23.5001 14.4906 23.3853 13.8125 23.1876C13.7624 23.1689 13.7097 23.1584 13.6563 23.1564C11.5068 22.4851 9.79044 20.8867 8.96876 18.8126C8.95662 18.782 8.94927 18.7497 8.93751 18.7189C8.8767 18.5609 8.83135 18.4122 8.78126 18.2501C8.709 18.0142 8.64313 17.7771 8.59376 17.5314C8.58542 17.4899 8.57018 17.4481 8.56251 17.4064C8.54132 17.2924 8.516 17.1785 8.50001 17.0626C8.4845 16.9492 8.47928 16.834 8.46876 16.7189C8.44736 16.4848 8.43751 16.2416 8.43751 16.0001C8.43751 15.7047 8.46793 15.4422 8.50001 15.1564C8.52365 14.9459 8.55353 14.7359 8.59376 14.5314C8.60379 14.4804 8.61398 14.4257 8.62501 14.3751C8.66358 14.1993 8.70059 14.0134 8.75001 13.8439C8.75034 13.8334 8.75034 13.823 8.75001 13.8126C9.41168 11.5837 11.0672 9.81956 13.2188 9.00011C13.6014 8.85277 13.999 8.7396 14.4063 8.65636C14.8977 8.55763 15.414 8.50011 15.9375 8.50011ZM28.5313 11.2501C28.6718 11.6202 28.795 12.0223 28.9063 12.4064C29.0176 12.7904 29.1094 13.1659 29.1875 13.5626C29.2657 13.9593 29.334 14.3733 29.375 14.7814C29.4161 15.1894 29.4375 15.5821 29.4375 16.0001C29.4375 17.2718 29.1784 18.4558 28.8438 19.6251L24.2188 17.9376C24.2907 17.624 24.3072 17.295 24.3438 16.9689C24.3795 16.6503 24.4375 16.3287 24.4375 16.0001C24.4375 15.7018 24.4119 15.4117 24.375 15.1251C24.359 14.9661 24.337 14.8126 24.3125 14.6564C24.3087 14.6365 24.3164 14.6137 24.3125 14.5939C24.2419 14.1643 24.163 13.7485 24.0313 13.3439L28.5313 11.2501ZM3.03126 12.3439L7.65626 14.0314C7.50768 14.6641 7.43751 15.3199 7.43751 16.0001C7.43751 16.2317 7.44293 16.4658 7.46876 16.6876C7.52112 17.3511 7.64966 18.0145 7.84376 18.6251L3.34376 20.7189C3.06248 19.9785 2.84375 19.2233 2.68751 18.4376C2.60939 18.0448 2.54102 17.6552 2.50001 17.2501C2.47644 17.0173 2.47906 16.7684 2.46876 16.5314C2.46173 16.3536 2.43751 16.1795 2.43751 16.0001C2.43751 15.8197 2.4589 15.647 2.46876 15.4689C2.47412 15.3333 2.45938 15.1972 2.46876 15.0626C2.47388 15.0085 2.49411 14.9602 2.50001 14.9064C2.52808 14.6504 2.54978 14.4078 2.59376 14.1564C2.70023 13.5477 2.86339 12.9292 3.03126 12.3439ZM30.2813 18.0626C31.3159 20.7187 31.1306 23.7399 29.6875 26.2501C27.3091 30.3875 22.2839 32.0365 17.9688 30.3439C23.4359 29.5624 27.9326 25.7079 29.6563 20.5939C29.6828 20.5553 29.7039 20.5132 29.7188 20.4689C29.7364 20.4153 29.7643 20.3664 29.7813 20.3126C29.82 20.189 29.8396 20.0626 29.875 19.9376C29.9707 19.6048 30.0534 19.2781 30.125 18.9376C30.1863 18.6464 30.2382 18.3597 30.2813 18.0626ZM1.62501 18.3439C1.735 19.0182 1.89324 19.6721 2.09376 20.3126C2.23667 20.7656 2.40972 21.192 2.59376 21.6251C2.60864 21.6695 2.62968 21.7116 2.65626 21.7501C4.29576 25.505 7.45964 28.4422 11.375 29.7501C11.385 29.761 11.3954 29.7714 11.4063 29.7814C11.4158 29.7845 11.428 29.7782 11.4375 29.7814C11.4595 29.7886 11.478 29.8055 11.5 29.8126C11.6308 29.8549 11.7739 29.8678 11.9063 29.9064C12.1774 29.9853 12.4412 30.0619 12.7188 30.1251C13.1385 30.2216 13.5676 30.3163 14 30.3751C9.69831 32.0429 4.71515 30.3753 2.34376 26.2501C0.950983 23.8274 0.709769 20.9295 1.62501 18.3439ZM23.9375 18.9064L28.5938 20.6251C27.3546 23.9919 24.8251 26.7454 21.5938 28.2501L19.5313 23.7189C21.5748 22.7701 23.1728 21.0472 23.9375 18.9064ZM8.21876 19.5626C9.15311 21.6077 10.873 23.1893 13 23.9689L11.2813 28.6564C7.92615 27.4117 5.18653 24.8816 3.68751 21.6564L8.21876 19.5626ZM18.5938 24.0939L20.6875 28.5939C19.207 29.1564 17.6092 29.5001 15.9375 29.5001C15.874 29.5001 15.8133 29.5014 15.75 29.5001C15.4663 29.4962 15.1856 29.4903 14.9063 29.4689C14.0059 29.3759 13.1305 29.1499 12.2813 28.9064L13.9688 24.2814C14.6015 24.4299 15.2573 24.5001 15.9375 24.5001C16.8679 24.5001 17.7581 24.366 18.5938 24.0939Z" fill="#B00000"/>
</g>
<defs>
<clipPath id="clip0_345_14">
<rect width="32" height="32" fill="white"/>
</clipPath>
</defs>
</svg>
