<svg width="142" height="146" viewBox="0 0 142 146" fill="none" xmlns="http://www.w3.org/2000/svg">
<path d="M8.225 145.9L18.35 139.15L9.575 133.75L8.225 145.9ZM74.375 44.6496L63.575 38.5746H62.9H62.225L12.275 126.325V127.675L23.75 133.75H24.425L74.375 45.9996V44.6496ZM36.575 69.6246H0.8L0.125 89.1996C0.125 89.8746 0.8 91.2246 0.8 91.8996H23.75L36.575 69.6246ZM129.725 128.35L127.025 130.375C125.675 131.725 125.675 133.075 127.7 136.45C129.725 139.15 133.1 140.5 136.475 141.85C137.15 141.85 137.825 142.525 138.5 142.525C138.5 137.125 137.15 131.725 135.125 129.025C133.775 128.35 131.75 127.675 129.725 128.35V128.35ZM68.975 69.6246L56.15 91.8996H93.95C91.25 86.4996 87.875 79.0746 83.825 69.6246H68.975ZM110.15 69.6246C110.825 71.6496 112.175 72.9996 112.85 75.0246L116.225 81.7746L116.9 82.4496L121.625 90.5496C121.625 91.2246 122.3 91.2246 122.3 91.8996H140.525C141.2 91.2246 141.2 89.8746 141.2 89.1996V69.6246H110.15V69.6246ZM127.7 122.275C128.375 121.6 128.375 120.925 128.375 120.25L122.975 110.125C122.975 109.45 122.3 109.45 121.625 109.45L119.6 110.8C118.925 111.475 118.25 111.475 116.9 112.15L116.225 112.825H115.55L114.875 113.5C114.2 114.175 114.2 114.175 114.875 114.85L121.625 124.975C121.625 125.65 122.3 125.65 122.975 125.65L123.65 124.975C124.325 124.3 125 124.3 125.675 124.3L127.7 122.275V122.275ZM118.925 102.025V99.9996V99.3246C118.25 98.6496 117.575 96.6246 116.225 93.9246L112.175 85.8246V85.1496L111.5 84.4746C111.5 83.7996 110.825 83.7996 110.825 83.1246L108.8 79.0746C108.8 79.0746 108.8 78.3996 108.125 78.3996C97.325 58.1496 89.9 44.6496 85.175 37.2246C81.8 32.4996 79.1 26.4246 75.725 21.0246C71.675 14.2746 66.95 5.49961 62.9 0.0996094C64.925 8.87461 73.025 26.4246 76.4 34.5246L77.75 37.8996V39.2496C80.45 41.2746 81.8 44.6496 81.125 47.3496C94.625 79.0746 106.775 103.375 109.475 106.075C111.5 106.75 112.175 106.75 113.525 106.075L117.575 104.05C117.575 103.375 118.925 102.7 118.925 102.025V102.025Z" fill="white"/>
</svg>
