<svg width="500" height="500" viewBox="0 0 500 500" fill="none" xmlns="http://www.w3.org/2000/svg">
<path d="M449.9 398.49H416.78V398.74H449.9V398.49Z" fill="#EBEBEB"/>
<path d="M331.22 401.21H322.53V401.46H331.22V401.21Z" fill="#EBEBEB"/>
<path d="M415.78 389.21H396.59V389.46H415.78V389.21Z" fill="#EBEBEB"/>
<path d="M95.65 390.89H52.46V391.14H95.65V390.89Z" fill="#EBEBEB"/>
<path d="M110.89 390.89H104.56V391.14H110.89V390.89Z" fill="#EBEBEB"/>
<path d="M225.15 395.11H131.47V395.36H225.15V395.11Z" fill="#EBEBEB"/>
<path d="M237 337.8H43.92C42.4056 337.8 40.9532 337.198 39.8824 336.128C38.8115 335.057 38.21 333.604 38.21 332.09V60.66C38.2231 59.1543 38.8305 57.7147 39.9 56.6547C40.9694 55.5947 42.4142 54.9999 43.92 55H237C238.514 55 239.967 55.6016 241.038 56.6724C242.108 57.7433 242.71 59.1956 242.71 60.71V332.09C242.71 333.604 242.108 335.057 241.038 336.128C239.967 337.198 238.514 337.8 237 337.8V337.8ZM43.92 55.2C42.4727 55.2026 41.0855 55.7787 40.0621 56.8021C39.0387 57.8255 38.4626 59.2127 38.46 60.66V332.09C38.4626 333.537 39.0387 334.924 40.0621 335.948C41.0855 336.971 42.4727 337.547 43.92 337.55H237C238.447 337.547 239.834 336.971 240.858 335.948C241.881 334.924 242.457 333.537 242.46 332.09V60.66C242.457 59.2127 241.881 57.8255 240.858 56.8021C239.834 55.7787 238.447 55.2026 237 55.2H43.92Z" fill="#EBEBEB"/>
<path d="M453.31 337.8H260.21C258.696 337.797 257.246 337.195 256.175 336.125C255.105 335.054 254.503 333.604 254.5 332.09V60.66C254.516 59.1551 255.124 57.7171 256.193 56.6576C257.262 55.5981 258.705 55.0025 260.21 55H453.31C454.812 55.0052 456.252 55.6022 457.317 56.6617C458.382 57.7212 458.987 59.1578 459 60.66V332.09C459 333.601 458.401 335.05 457.335 336.121C456.268 337.191 454.821 337.795 453.31 337.8V337.8ZM260.21 55.2C258.763 55.2026 257.375 55.7787 256.352 56.8021C255.329 57.8255 254.753 59.2127 254.75 60.66V332.09C254.753 333.537 255.329 334.924 256.352 335.948C257.375 336.971 258.763 337.547 260.21 337.55H453.31C454.757 337.547 456.145 336.971 457.168 335.948C458.191 334.924 458.767 333.537 458.77 332.09V60.66C458.767 59.2127 458.191 57.8255 457.168 56.8021C456.145 55.7787 454.757 55.2026 453.31 55.2H260.21Z" fill="#EBEBEB"/>
<path d="M500 382.4H0V382.65H500V382.4Z" fill="#EBEBEB"/>
<path d="M255.2 280.83C254.049 280.834 252.922 280.496 251.962 279.86C251.003 279.223 250.254 278.316 249.81 277.253C249.366 276.191 249.247 275.02 249.469 273.89C249.69 272.76 250.242 271.722 251.054 270.905C251.866 270.089 252.902 269.532 254.031 269.304C255.16 269.077 256.331 269.19 257.396 269.628C258.461 270.067 259.371 270.811 260.013 271.767C260.655 272.723 260.998 273.848 261 275C261 276.541 260.39 278.019 259.303 279.112C258.216 280.204 256.741 280.822 255.2 280.83ZM255.2 272.19C254.641 272.186 254.094 272.348 253.627 272.656C253.16 272.964 252.796 273.404 252.58 273.919C252.363 274.435 252.305 275.003 252.413 275.551C252.52 276.1 252.788 276.604 253.183 277C253.577 277.396 254.08 277.666 254.629 277.775C255.177 277.885 255.745 277.829 256.262 277.614C256.778 277.4 257.219 277.037 257.528 276.571C257.838 276.106 258.002 275.559 258 275C257.995 274.258 257.699 273.548 257.175 273.022C256.651 272.497 255.942 272.198 255.2 272.19V272.19Z" fill="#263238"/>
<path d="M259.234 277.089L257.111 279.209L264 286.108L266.123 283.988L259.234 277.089Z" fill="#263238"/>
<path d="M445.625 108.895C448.278 92.5513 437.18 77.1515 420.836 74.4986C404.492 71.8457 389.093 82.9441 386.44 99.2877C383.787 115.631 394.885 131.031 411.229 133.684C427.572 136.337 442.972 125.238 445.625 108.895Z" fill="#E0E0E0"/>
<path d="M416.1 134.73C408.066 134.585 400.409 131.291 394.779 125.558C389.148 119.825 385.994 112.111 385.994 104.075C385.994 96.0393 389.148 88.3248 394.779 82.5917C400.409 76.8585 408.066 73.565 416.1 73.4199V74.7699C408.422 74.9118 401.106 78.0616 395.725 83.5419C390.345 89.0222 387.331 96.3952 387.331 104.075C387.331 111.755 390.345 119.128 395.725 124.608C401.106 130.088 408.422 133.238 416.1 133.38V134.73Z" fill="white"/>
<path d="M416.1 134.73V133.38C419.994 133.452 423.863 132.747 427.482 131.307C431.1 129.866 434.395 127.719 437.174 124.991C439.954 122.263 442.161 119.008 443.668 115.416C445.175 111.825 445.951 107.97 445.951 104.075C445.951 100.18 445.175 96.3249 443.668 92.7337C442.161 89.1424 439.954 85.8876 437.174 83.1592C434.395 80.4309 431.1 78.2838 427.482 76.8433C423.863 75.4029 419.994 74.6981 416.1 74.77V73.42C420.172 73.3465 424.218 74.085 428.002 75.5926C431.786 77.1001 435.231 79.3464 438.137 82.2003C441.043 85.0541 443.351 88.4584 444.927 92.2142C446.502 95.97 447.314 100.002 447.314 104.075C447.314 108.148 446.502 112.18 444.927 115.936C443.351 119.692 441.043 123.096 438.137 125.95C435.231 128.804 431.786 131.05 428.002 132.558C424.218 134.065 420.172 134.804 416.1 134.73V134.73Z" fill="white"/>
<path d="M431.77 104.08H430.42C430.42 94.1498 425.42 80.8498 415.74 74.6698L416.47 73.5298C426.51 79.9998 431.77 93.7798 431.77 104.08Z" fill="white"/>
<path d="M416.47 133.72L415.74 132.58C425.38 126.4 430.42 113.1 430.42 103.17H431.77C431.77 113.47 426.51 127.27 416.47 133.72Z" fill="white"/>
<path d="M401.79 104.08H400.44C400.44 93.7698 405.69 79.9698 415.74 73.5298L416.47 74.6598C406.83 80.8498 401.79 94.1398 401.79 104.08Z" fill="white"/>
<path d="M415.74 133.71C405.69 127.26 400.44 113.46 400.44 103.16H401.79C401.79 113.1 406.79 126.39 416.47 132.57L415.74 133.71Z" fill="white"/>
<path d="M416.78 74.0898H415.43V134.05H416.78V74.0898Z" fill="white"/>
<path d="M441.49 87.4302H390.73V88.7802H441.49V87.4302Z" fill="white"/>
<path d="M446.08 103.91H386.14V105.26H446.08V103.91Z" fill="white"/>
<path d="M440.81 120.38H391.4V121.73H440.81V120.38Z" fill="white"/>
<path d="M95.5898 92.9999C95.6006 90.967 95.3039 88.9441 94.7098 86.9999L99.9398 82.4099L96.6498 76.7099L90.0598 78.9999C87.2919 76.0245 83.7041 73.9366 79.7498 72.9999L78.3798 66.1899H71.8098L70.4498 72.9999C66.4925 73.9364 62.9014 76.0243 60.1298 78.9999L53.5398 76.7699L50.2598 82.4699L55.4798 87.0599C54.3065 90.9433 54.3065 95.0866 55.4798 98.9699L50.2598 103.55L53.5398 109.25L60.1298 107C62.9014 109.976 66.4925 112.063 70.4498 113L71.8098 119.82H78.3798L79.7498 113C83.7041 112.063 87.2919 109.975 90.0598 107L96.6498 109.23L99.9398 103.53L94.7098 98.9999C95.3023 97.0554 95.599 95.0328 95.5898 92.9999V92.9999ZM75.0998 104.08C72.991 104.082 70.929 103.458 69.1747 102.288C67.4203 101.118 66.0524 99.454 65.2441 97.5063C64.4357 95.5586 64.2232 93.4149 64.6334 91.3464C65.0436 89.2779 66.058 87.3776 67.5485 85.8857C69.0389 84.3939 70.9383 83.3776 73.0064 82.9655C75.0745 82.5534 77.2184 82.7639 79.1669 83.5704C81.1153 84.377 82.7808 85.7433 83.9525 87.4965C85.1243 89.2498 85.7498 91.3112 85.7498 93.4199C85.7511 94.8194 85.4766 96.2053 84.942 97.4986C84.4073 98.7919 83.6231 99.9671 82.634 100.957C81.6449 101.947 80.4704 102.732 79.1777 103.268C77.8849 103.804 76.4992 104.08 75.0998 104.08V104.08Z" fill="#E0E0E0"/>
<path d="M123.79 121.34C123.788 119.806 123.563 118.28 123.12 116.81L127.12 113.31L124.62 108.98L119.62 110.68C117.511 108.422 114.779 106.842 111.77 106.14L110.77 100.95H105.77L104.77 106.14C101.758 106.842 99.0224 108.422 96.9099 110.68L91.9099 108.98L89.3999 113.31L93.3999 116.81C92.5064 119.768 92.5064 122.923 93.3999 125.88L89.3999 129.37L91.9099 133.71L96.9099 132.01C99.0224 134.269 101.758 135.849 104.77 136.55L105.77 141.74H110.77L111.77 136.55C114.779 135.849 117.511 134.268 119.62 132.01L124.62 133.71L127.12 129.37L123.12 125.88C123.563 124.407 123.788 122.878 123.79 121.34V121.34ZM108.18 129.77C106.573 129.772 105.002 129.297 103.665 128.406C102.328 127.514 101.286 126.246 100.67 124.762C100.054 123.278 99.8925 121.645 100.205 120.069C100.518 118.492 101.292 117.045 102.428 115.909C103.564 114.772 105.012 113.999 106.588 113.686C108.164 113.373 109.798 113.534 111.282 114.15C112.766 114.766 114.034 115.808 114.926 117.145C115.817 118.482 116.292 120.053 116.29 121.66C116.29 123.811 115.435 125.874 113.915 127.395C112.394 128.916 110.331 129.77 108.18 129.77Z" fill="#E0E0E0"/>
<path d="M198.61 95.5599L201.26 90.1699L203.92 95.5499L209.86 96.4099L205.56 100.6L206.58 106.51L201.27 103.72L195.97 106.52L196.98 100.61L192.68 96.4199L198.61 95.5599Z" fill="#EBEBEB"/>
<path d="M222.78 95.5599L225.43 90.1699L228.09 95.5499L234.02 96.4099L229.73 100.6L230.75 106.51L225.44 103.72L220.13 106.52L221.14 100.61L216.84 96.4199L222.78 95.5599Z" fill="#EBEBEB"/>
<path d="M246.94 95.5599L249.59 90.1699L252.25 95.5499L258.19 96.4099L253.9 100.6L254.92 106.51L249.61 103.72L244.3 106.52L245.31 100.61L241.01 96.4199L246.94 95.5599Z" fill="#EBEBEB"/>
<path d="M271.11 95.5599L273.76 90.1699L276.42 95.5499L282.36 96.4099L278.06 100.6L279.08 106.51L273.77 103.72L268.47 106.52L269.48 100.61L265.18 96.4199L271.11 95.5599Z" fill="#EBEBEB"/>
<path d="M295.28 95.5599L297.93 90.1699L300.59 95.5499L306.52 96.4099L302.23 100.6L303.25 106.51L297.94 103.72L292.63 106.52L293.64 100.61L289.34 96.4199L295.28 95.5599Z" fill="#EBEBEB"/>
<path d="M245.18 423.71C352.263 423.71 439.07 418.642 439.07 412.39C439.07 406.138 352.263 401.07 245.18 401.07C138.098 401.07 51.29 406.138 51.29 412.39C51.29 418.642 138.098 423.71 245.18 423.71Z" fill="#F5F5F5"/>
<path d="M179.66 402.43L179.46 404.73C179.439 405.013 179.469 405.298 179.55 405.57V405.57C179.587 405.697 179.641 405.818 179.71 405.93C179.783 406.042 179.864 406.149 179.95 406.25C180.038 406.353 180.139 406.443 180.25 406.52C180.589 406.761 180.994 406.891 181.41 406.89H263.81C264.007 406.891 264.202 406.86 264.39 406.8C264.52 406.761 264.648 406.711 264.77 406.65C265.205 406.437 265.557 406.086 265.77 405.65C265.897 405.408 265.975 405.143 266 404.87L266.19 402.66C266.221 402.397 266.19 402.13 266.1 401.88C266.062 401.765 266.012 401.655 265.95 401.55C265.795 401.289 265.574 401.071 265.31 400.92C265.197 400.859 265.08 400.805 264.96 400.76C264.776 400.701 264.583 400.67 264.39 400.67H243.87C243.612 400.673 243.354 400.65 243.1 400.6V400.6L242.81 400.52C242.7 400.489 242.593 400.449 242.49 400.4C242.39 400.369 242.295 400.321 242.21 400.26C242.066 400.185 241.929 400.099 241.8 400C241.645 399.877 241.501 399.74 241.37 399.59C241.3 399.5 241.23 399.42 241.16 399.32L241.02 399.12L240.97 399.04C240.91 398.949 240.86 398.852 240.82 398.75L240.7 398.48C240.704 398.461 240.704 398.44 240.7 398.42C240.706 398.397 240.706 398.373 240.7 398.35C240.7 398.35 240.7 398.35 240.7 398.35C240.671 398.273 240.65 398.192 240.64 398.11C240.63 397.997 240.63 397.883 240.64 397.77C240.64 397.67 240.64 397.56 240.64 397.45C240.64 397.34 240.64 397.24 240.64 397.13V397C240.634 396.894 240.634 396.787 240.64 396.68C240.64 396.56 240.69 396.46 240.71 396.35L248.77 365.43L250.32 359.49L251.53 354.84H204.73L202.22 359.49L199.02 365.43L180.82 399.17C180.76 399.29 180.7 399.41 180.63 399.53L180.45 399.94C180.4 400.08 180.34 400.21 180.29 400.36L180.2 400.64C179.954 401.215 179.773 401.816 179.66 402.43V402.43Z" fill="#263238"/>
<path opacity="0.2" d="M266.16 402.68L265.97 404.91C265.918 405.451 265.67 405.953 265.271 406.322C264.873 406.691 264.353 406.9 263.81 406.91H181.43C181.153 406.911 180.879 406.855 180.626 406.744C180.372 406.634 180.144 406.472 179.956 406.269C179.768 406.066 179.624 405.826 179.534 405.565C179.443 405.303 179.408 405.026 179.43 404.75L179.63 402.45C179.682 401.835 179.803 401.228 179.99 400.64C180.16 400.126 180.374 399.627 180.63 399.15L204.55 354.82H251.35L240.53 396.33C240.459 396.568 240.415 396.813 240.4 397.06C240.331 397.88 240.565 398.697 241.057 399.356C241.549 400.016 242.265 400.472 243.07 400.64C243.322 400.699 243.581 400.726 243.84 400.72H264.33C264.583 400.713 264.835 400.761 265.069 400.858C265.303 400.956 265.514 401.103 265.687 401.288C265.86 401.473 265.991 401.693 266.073 401.933C266.154 402.173 266.184 402.428 266.16 402.68Z" fill="white"/>
<path d="M178 399.13L201.91 354.79H204.56L180.64 399.13C180.086 400.15 179.745 401.273 179.64 402.43L179.44 404.73C179.41 405.007 179.439 405.287 179.527 405.552C179.615 405.816 179.758 406.059 179.948 406.263C180.138 406.467 180.369 406.627 180.627 406.734C180.884 406.84 181.162 406.89 181.44 406.88H178.79C178.512 406.89 178.234 406.84 177.977 406.734C177.719 406.627 177.488 406.467 177.298 406.263C177.108 406.059 176.965 405.816 176.877 405.552C176.789 405.287 176.76 405.007 176.79 404.73L176.99 402.43C177.094 401.272 177.438 400.148 178 399.13V399.13Z" fill="#263238"/>
<path opacity="0.3" d="M204.58 354.79H251.37L248.61 365.39H198.86L204.58 354.79Z" fill="black"/>
<path d="M125.18 207.88V352.15C125.179 353.108 125.366 354.057 125.732 354.943C126.098 355.829 126.635 356.633 127.312 357.311C127.989 357.989 128.793 358.527 129.678 358.894C130.563 359.261 131.512 359.45 132.47 359.45H332.14C333.098 359.45 334.047 359.261 334.932 358.894C335.817 358.527 336.621 357.989 337.298 357.311C337.975 356.633 338.512 355.829 338.878 354.943C339.244 354.057 339.431 353.108 339.43 352.15V207.88C339.431 206.921 339.243 205.971 338.877 205.085C338.511 204.199 337.973 203.393 337.295 202.715C336.617 202.037 335.811 201.499 334.925 201.133C334.039 200.767 333.089 200.579 332.13 200.58H132.49C130.884 200.581 129.324 201.112 128.05 202.09C127.871 202.222 127.701 202.366 127.54 202.52C127.048 202.966 126.624 203.482 126.28 204.05C126.039 204.424 125.837 204.823 125.68 205.24C125.355 206.083 125.185 206.977 125.18 207.88V207.88Z" fill="#263238"/>
<path d="M339.43 336.55V352.15C339.43 354.086 338.661 355.943 337.292 357.312C335.923 358.681 334.066 359.45 332.13 359.45H132.49C130.554 359.45 128.697 358.681 127.328 357.312C125.959 355.943 125.19 354.086 125.19 352.15V336.55H339.43Z" fill="#33CCFF"/>
<path opacity="0.6" d="M339.43 336.55V352.15C339.43 354.086 338.661 355.943 337.292 357.312C335.923 358.681 334.066 359.45 332.13 359.45H132.49C130.554 359.45 128.697 358.681 127.328 357.312C125.959 355.943 125.19 354.086 125.19 352.15V336.55H339.43Z" fill="white"/>
<path d="M132.62 332.14H332C333.061 332.14 334.078 331.719 334.829 330.968C335.579 330.218 336 329.201 336 328.14V209C336 207.939 335.579 206.922 334.829 206.172C334.078 205.421 333.061 205 332 205H132.62C131.559 205 130.542 205.421 129.792 206.172C129.042 206.922 128.62 207.939 128.62 209V328.18C128.631 329.234 129.057 330.241 129.806 330.983C130.555 331.724 131.566 332.14 132.62 332.14Z" fill="#33CCFF"/>
<path d="M128.07 200.58H132.49C130.554 200.58 128.697 201.349 127.328 202.718C125.959 204.087 125.19 205.944 125.19 207.88V352.15C125.19 354.086 125.959 355.943 127.328 357.312C128.697 358.681 130.554 359.45 132.49 359.45H128.07C126.134 359.45 124.277 358.681 122.908 357.312C121.539 355.943 120.77 354.086 120.77 352.15V207.88C120.77 205.944 121.539 204.087 122.908 202.718C124.277 201.349 126.134 200.58 128.07 200.58V200.58Z" fill="#263238"/>
<g opacity="0.2">
<path opacity="0.2" d="M128.07 200.58H132.49C130.554 200.58 128.697 201.349 127.328 202.718C125.959 204.087 125.19 205.944 125.19 207.88V352.15C125.19 354.086 125.959 355.943 127.328 357.312C128.697 358.681 130.554 359.45 132.49 359.45H128.07C126.134 359.45 124.277 358.681 122.908 357.312C121.539 355.943 120.77 354.086 120.77 352.15V207.88C120.77 205.944 121.539 204.087 122.908 202.718C124.277 201.349 126.134 200.58 128.07 200.58V200.58Z" fill="white"/>
</g>
<path opacity="0.5" d="M337.18 280.92C332.04 279.92 323.9 283.25 322.38 288.25C322.551 286.724 322.279 285.18 321.596 283.804C320.913 282.428 319.849 281.278 318.53 280.49C315.88 278.96 312.41 277.88 309.97 279.72C311.127 274.806 310.892 269.666 309.291 264.878C307.691 260.09 304.789 255.842 300.91 252.61C293.09 246.28 281.68 245.61 272.65 250.02C273.955 247.513 274.695 244.75 274.819 241.926C274.943 239.102 274.447 236.285 273.366 233.673C272.286 231.061 270.646 228.717 268.564 226.806C266.481 224.895 264.005 223.463 261.31 222.61C248.75 218.236 235.318 216.963 222.16 218.9C214.55 220.02 206.79 222.4 201.26 227.74C195.73 233.08 194.26 242.74 197.98 249.47C193.687 248.084 189.097 247.9 184.707 248.938C180.318 249.976 176.296 252.198 173.08 255.36C169.979 258.599 167.831 262.631 166.873 267.012C165.915 271.392 166.184 275.952 167.65 280.19C166.47 279.49 165.134 279.096 163.763 279.043C162.392 278.991 161.03 279.282 159.8 279.89C158.589 280.505 157.554 281.417 156.793 282.542C156.032 283.667 155.57 284.967 155.45 286.32C153.851 284.21 151.768 282.514 149.378 281.377C146.987 280.239 144.358 279.692 141.712 279.782C139.065 279.872 136.479 280.597 134.172 281.895C131.864 283.193 129.902 285.026 128.45 287.24V332.14H336L337.18 280.92Z" fill="white"/>
<path d="M290.93 261.21H184.01C178.57 261.21 174.16 265.62 174.16 271.06C174.16 276.5 178.57 280.91 184.01 280.91H290.93C296.37 280.91 300.78 276.5 300.78 271.06C300.78 265.62 296.37 261.21 290.93 261.21Z" fill="white"/>
<path d="M183.4 274.83C182.249 274.83 181.124 274.489 180.167 273.85C179.21 273.21 178.464 272.301 178.023 271.238C177.583 270.174 177.467 269.004 177.692 267.875C177.916 266.746 178.471 265.709 179.285 264.895C180.099 264.081 181.136 263.527 182.265 263.302C183.394 263.078 184.564 263.193 185.627 263.633C186.691 264.074 187.6 264.82 188.239 265.777C188.879 266.734 189.22 267.859 189.22 269.01C189.217 270.553 188.603 272.032 187.513 273.123C186.422 274.214 184.943 274.828 183.4 274.83V274.83ZM183.4 266.19C182.842 266.19 182.297 266.356 181.833 266.666C181.37 266.976 181.008 267.416 180.795 267.931C180.581 268.447 180.525 269.014 180.634 269.561C180.743 270.108 181.012 270.61 181.406 271.004C181.8 271.399 182.303 271.667 182.85 271.776C183.397 271.885 183.964 271.829 184.479 271.616C184.995 271.402 185.435 271.041 185.745 270.577C186.055 270.113 186.22 269.568 186.22 269.01C186.217 268.263 185.919 267.548 185.391 267.019C184.863 266.491 184.147 266.193 183.4 266.19Z" fill="#263238"/>
<path d="M187.428 271.078L185.305 273.198L192.195 280.097L194.318 277.978L187.428 271.078Z" fill="#263238"/>
<g opacity="0.1">
<path opacity="0.1" d="M268.47 204.99H276.13L292.04 332.14H284.37L268.47 204.99Z" fill="white"/>
<path opacity="0.1" d="M299.79 332.14L283.89 204.99H312.7L328.6 332.14H299.79Z" fill="white"/>
</g>
<path opacity="0.2" d="M193.87 402.7L193.69 404.81C193.66 405.075 193.687 405.342 193.769 405.595C193.851 405.849 193.985 406.081 194.164 406.278C194.343 406.475 194.562 406.631 194.806 406.737C195.05 406.843 195.314 406.895 195.58 406.89H263.81C264.353 406.881 264.873 406.671 265.272 406.302C265.67 405.933 265.919 405.431 265.97 404.89L266.16 402.68C266.192 402.426 266.168 402.168 266.091 401.924C266.014 401.68 265.885 401.455 265.714 401.265C265.542 401.076 265.331 400.925 265.096 400.824C264.86 400.723 264.606 400.674 264.35 400.68H243.86C243.604 400.681 243.349 400.651 243.1 400.59H196.1C195.535 400.61 194.997 400.835 194.586 401.224C194.176 401.612 193.921 402.137 193.87 402.7V402.7Z" fill="white"/>
<path opacity="0.2" d="M180 400.62H243.1C242.293 400.456 241.576 400 241.085 399.339C240.594 398.678 240.364 397.86 240.44 397.04H182L180 400.62Z" fill="black"/>
<path opacity="0.8" d="M232.22 293.84H190.02C187.894 293.84 186.17 295.564 186.17 297.69V306.61C186.17 308.737 187.894 310.46 190.02 310.46H232.22C234.346 310.46 236.07 308.737 236.07 306.61V297.69C236.07 295.564 234.346 293.84 232.22 293.84Z" fill="white"/>
<path opacity="0.8" d="M293.42 293.84H251.22C249.094 293.84 247.37 295.564 247.37 297.69V306.61C247.37 308.737 249.094 310.46 251.22 310.46H293.42C295.546 310.46 297.27 308.737 297.27 306.61V297.69C297.27 295.564 295.546 293.84 293.42 293.84Z" fill="white"/>
<path d="M209.92 210.66L234.71 166.66C234.797 166.506 234.924 166.378 235.077 166.289C235.229 166.2 235.403 166.153 235.58 166.153C235.757 166.153 235.931 166.2 236.084 166.289C236.236 166.378 236.363 166.506 236.45 166.66L261.24 210.66C261.323 210.812 261.365 210.983 261.363 211.156C261.36 211.329 261.313 211.498 261.225 211.647C261.137 211.796 261.012 211.92 260.863 212.006C260.713 212.093 260.543 212.139 260.37 212.14H210.8C210.626 212.141 210.455 212.096 210.304 212.01C210.153 211.924 210.027 211.801 209.938 211.651C209.849 211.502 209.801 211.332 209.798 211.158C209.794 210.984 209.837 210.813 209.92 210.66Z" fill="#33CCFF"/>
<path opacity="0.3" d="M209.92 210.66L234.71 166.66C234.797 166.506 234.924 166.378 235.077 166.289C235.229 166.2 235.403 166.153 235.58 166.153C235.757 166.153 235.931 166.2 236.084 166.289C236.236 166.378 236.363 166.506 236.45 166.66L261.24 210.66C261.323 210.812 261.365 210.983 261.363 211.156C261.36 211.329 261.313 211.498 261.225 211.647C261.137 211.796 261.012 211.92 260.863 212.006C260.713 212.093 260.543 212.139 260.37 212.14H210.8C210.626 212.141 210.455 212.096 210.304 212.01C210.153 211.924 210.027 211.801 209.938 211.651C209.849 211.502 209.801 211.332 209.798 211.158C209.794 210.984 209.837 210.813 209.92 210.66Z" fill="black"/>
<path d="M223.8 218.73L222.59 213.79H218.25L217.05 218.73C219.211 219.625 221.639 219.625 223.8 218.73V218.73Z" fill="#263238"/>
<path opacity="0.2" d="M218.25 213.79L217.97 214.94C219.569 215.41 221.27 215.41 222.87 214.94L222.59 213.79H218.25Z" fill="white"/>
<path opacity="0.4" d="M217.67 216.18C217.59 216.5 217.51 216.81 217.44 217.11C219.393 217.724 221.487 217.724 223.44 217.11L223.22 216.18C221.388 216.551 219.501 216.551 217.67 216.18V216.18Z" fill="white"/>
<path d="M225 213.44C222.067 214.651 218.773 214.651 215.84 213.44V176.74C215.837 174.686 216.24 172.651 217.026 170.753C217.812 168.855 218.966 167.131 220.42 165.68C221.875 167.131 223.028 168.855 223.814 170.753C224.6 172.651 225.003 174.686 225 176.74V213.44Z" fill="#33CCFF"/>
<path d="M215.84 176.74V211.33C218.806 212.365 222.034 212.365 225 211.33V176.74C225.003 174.686 224.6 172.651 223.814 170.753C223.028 168.855 221.875 167.131 220.42 165.68C218.966 167.131 217.812 168.855 217.026 170.753C216.24 172.651 215.837 174.686 215.84 176.74V176.74Z" fill="#33CCFF"/>
<path opacity="0.4" d="M215.84 176.74V211.33C218.806 212.365 222.034 212.365 225 211.33V176.74C225.003 174.686 224.6 172.651 223.814 170.753C223.028 168.855 221.875 167.131 220.42 165.68C218.966 167.131 217.812 168.855 217.026 170.753C216.24 172.651 215.837 174.686 215.84 176.74V176.74Z" fill="white"/>
<path d="M215.84 176.74V202.74C218.834 203.596 222.007 203.596 225 202.74V176.74C225.003 174.686 224.6 172.651 223.814 170.753C223.028 168.855 221.875 167.131 220.42 165.68C218.966 167.131 217.812 168.855 217.026 170.753C216.24 172.651 215.837 174.686 215.84 176.74V176.74Z" fill="#33CCFF"/>
<path opacity="0.6" d="M215.84 176.74V202.74C218.834 203.596 222.007 203.596 225 202.74V176.74C225.003 174.686 224.6 172.651 223.814 170.753C223.028 168.855 221.875 167.131 220.42 165.68C218.966 167.131 217.812 168.855 217.026 170.753C216.24 172.651 215.837 174.686 215.84 176.74V176.74Z" fill="white"/>
<path d="M215.84 176.74V190.34C218.833 191.2 222.007 191.2 225 190.34V176.74C225.003 174.686 224.6 172.651 223.814 170.753C223.028 168.855 221.875 167.131 220.42 165.68C218.966 167.131 217.812 168.855 217.026 170.753C216.24 172.651 215.837 174.686 215.84 176.74V176.74Z" fill="#33CCFF"/>
<path opacity="0.8" d="M215.84 176.74V190.34C218.833 191.2 222.007 191.2 225 190.34V176.74C225.003 174.686 224.6 172.651 223.814 170.753C223.028 168.855 221.875 167.131 220.42 165.68C218.966 167.131 217.812 168.855 217.026 170.753C216.24 172.651 215.837 174.686 215.84 176.74V176.74Z" fill="white"/>
<path d="M215.84 176.74V178.33C218.834 179.186 222.007 179.186 225 178.33V176.74C225.003 174.686 224.6 172.651 223.814 170.753C223.028 168.855 221.875 167.131 220.42 165.68C218.966 167.131 217.812 168.855 217.026 170.753C216.24 172.651 215.837 174.686 215.84 176.74V176.74Z" fill="#33CCFF"/>
<path opacity="0.4" d="M215.84 176.74V178.33C218.834 179.186 222.007 179.186 225 178.33V176.74C225.003 174.686 224.6 172.651 223.814 170.753C223.028 168.855 221.875 167.131 220.42 165.68C218.966 167.131 217.812 168.855 217.026 170.753C216.24 172.651 215.837 174.686 215.84 176.74V176.74Z" fill="white"/>
<path d="M253.27 218.73L252.07 213.79H247.73L246.52 218.73C248.681 219.625 251.109 219.625 253.27 218.73V218.73Z" fill="#263238"/>
<path opacity="0.2" d="M247.73 213.79L247.45 214.94C249.049 215.41 250.75 215.41 252.35 214.94L252.07 213.79H247.73Z" fill="white"/>
<path opacity="0.4" d="M247.14 216.18C247.07 216.5 246.99 216.81 246.92 217.11C248.873 217.724 250.967 217.724 252.92 217.11L252.69 216.18C250.858 216.551 248.971 216.551 247.14 216.18Z" fill="white"/>
<path d="M254.48 213.44C251.547 214.651 248.253 214.651 245.32 213.44V176.74C245.317 174.686 245.72 172.651 246.506 170.753C247.292 168.855 248.446 167.131 249.9 165.68C251.355 167.131 252.508 168.855 253.294 170.753C254.08 172.651 254.483 174.686 254.48 176.74V213.44Z" fill="#33CCFF"/>
<path d="M245.32 176.74V211.33C248.286 212.365 251.514 212.365 254.48 211.33V176.74C254.483 174.686 254.08 172.651 253.294 170.753C252.508 168.855 251.355 167.131 249.9 165.68C248.446 167.131 247.292 168.855 246.506 170.753C245.72 172.651 245.317 174.686 245.32 176.74V176.74Z" fill="#33CCFF"/>
<path opacity="0.4" d="M245.32 176.74V211.33C248.286 212.365 251.514 212.365 254.48 211.33V176.74C254.483 174.686 254.08 172.651 253.294 170.753C252.508 168.855 251.355 167.131 249.9 165.68C248.446 167.131 247.292 168.855 246.506 170.753C245.72 172.651 245.317 174.686 245.32 176.74V176.74Z" fill="white"/>
<path d="M245.32 176.74V202.74C248.314 203.596 251.487 203.596 254.48 202.74V176.74C254.483 174.686 254.08 172.651 253.294 170.753C252.508 168.855 251.355 167.131 249.9 165.68C248.446 167.131 247.292 168.855 246.506 170.753C245.72 172.651 245.317 174.686 245.32 176.74V176.74Z" fill="#33CCFF"/>
<path opacity="0.6" d="M245.32 176.74V202.74C248.314 203.596 251.487 203.596 254.48 202.74V176.74C254.483 174.686 254.08 172.651 253.294 170.753C252.508 168.855 251.355 167.131 249.9 165.68C248.446 167.131 247.292 168.855 246.506 170.753C245.72 172.651 245.317 174.686 245.32 176.74V176.74Z" fill="white"/>
<path d="M245.32 176.74V190.34C248.313 191.2 251.487 191.2 254.48 190.34V176.74C254.483 174.686 254.08 172.651 253.294 170.753C252.508 168.855 251.355 167.131 249.9 165.68C248.446 167.131 247.292 168.855 246.506 170.753C245.72 172.651 245.317 174.686 245.32 176.74V176.74Z" fill="#33CCFF"/>
<path opacity="0.8" d="M245.32 176.74V190.34C248.313 191.2 251.487 191.2 254.48 190.34V176.74C254.483 174.686 254.08 172.651 253.294 170.753C252.508 168.855 251.355 167.131 249.9 165.68C248.446 167.131 247.292 168.855 246.506 170.753C245.72 172.651 245.317 174.686 245.32 176.74V176.74Z" fill="white"/>
<path d="M245.32 176.74V178.33C248.314 179.186 251.487 179.186 254.48 178.33V176.74C254.483 174.686 254.08 172.651 253.294 170.753C252.508 168.855 251.355 167.131 249.9 165.68C248.446 167.131 247.292 168.855 246.506 170.753C245.72 172.651 245.317 174.686 245.32 176.74V176.74Z" fill="#33CCFF"/>
<path opacity="0.4" d="M245.32 176.74V178.33C248.314 179.186 251.487 179.186 254.48 178.33V176.74C254.483 174.686 254.08 172.651 253.294 170.753C252.508 168.855 251.355 167.131 249.9 165.68C248.446 167.131 247.292 168.855 246.506 170.753C245.72 172.651 245.317 174.686 245.32 176.74V176.74Z" fill="white"/>
<path d="M240.61 221.56L238.61 213.56H231.61L229.66 221.56C231.394 222.288 233.255 222.662 235.135 222.662C237.015 222.662 238.876 222.288 240.61 221.56V221.56Z" fill="#263238"/>
<path opacity="0.2" d="M231.66 213.59C231.66 213.59 231.37 214.79 231.2 215.45C233.786 216.205 236.534 216.205 239.12 215.45L238.66 213.58L231.66 213.59Z" fill="white"/>
<path opacity="0.4" d="M230.71 217.46L230.35 218.96C233.483 219.93 236.837 219.93 239.97 218.96L239.61 217.46C236.672 218.039 233.648 218.039 230.71 217.46V217.46Z" fill="white"/>
<path d="M242.56 213C240.216 213.978 237.7 214.482 235.16 214.482C232.62 214.482 230.105 213.978 227.76 213V153.78C227.757 150.464 228.409 147.18 229.679 144.117C230.949 141.053 232.812 138.271 235.16 135.93C237.509 138.271 239.371 141.053 240.641 144.117C241.911 147.18 242.563 150.464 242.56 153.78V213Z" fill="#33CCFF"/>
<path d="M227.76 153.78V209.63C232.554 211.291 237.766 211.291 242.56 209.63V153.78C242.563 150.464 241.911 147.18 240.641 144.117C239.371 141.053 237.509 138.271 235.16 135.93C232.812 138.271 230.949 141.053 229.679 144.117C228.409 147.18 227.757 150.464 227.76 153.78V153.78Z" fill="#33CCFF"/>
<path opacity="0.4" d="M227.76 153.78V209.63C232.554 211.291 237.766 211.291 242.56 209.63V153.78C242.563 150.464 241.911 147.18 240.641 144.117C239.371 141.053 237.509 138.271 235.16 135.93C232.812 138.271 230.949 141.053 229.679 144.117C228.409 147.18 227.757 150.464 227.76 153.78V153.78Z" fill="white"/>
<path d="M227.76 153.78V195.72C232.597 197.099 237.723 197.099 242.56 195.72V153.78C242.563 150.464 241.911 147.18 240.641 144.117C239.371 141.053 237.509 138.271 235.16 135.93C232.812 138.271 230.949 141.053 229.679 144.117C228.409 147.18 227.757 150.464 227.76 153.78V153.78Z" fill="#33CCFF"/>
<path opacity="0.6" d="M227.76 153.78V195.72C232.597 197.099 237.723 197.099 242.56 195.72V153.78C242.563 150.464 241.911 147.18 240.641 144.117C239.371 141.053 237.509 138.271 235.16 135.93C232.812 138.271 230.949 141.053 229.679 144.117C228.409 147.18 227.757 150.464 227.76 153.78V153.78Z" fill="white"/>
<path d="M227.76 153.78V175.78C232.597 177.159 237.723 177.159 242.56 175.78V153.78C242.563 150.464 241.911 147.18 240.641 144.117C239.371 141.053 237.509 138.271 235.16 135.93C232.812 138.271 230.949 141.053 229.679 144.117C228.409 147.18 227.757 150.464 227.76 153.78V153.78Z" fill="#33CCFF"/>
<path opacity="0.8" d="M227.76 153.78V175.78C232.597 177.159 237.723 177.159 242.56 175.78V153.78C242.563 150.464 241.911 147.18 240.641 144.117C239.371 141.053 237.509 138.271 235.16 135.93C232.812 138.271 230.949 141.053 229.679 144.117C228.409 147.18 227.757 150.464 227.76 153.78V153.78Z" fill="white"/>
<path d="M227.76 153.78V156.35C232.597 157.729 237.723 157.729 242.56 156.35V153.78C242.563 150.464 241.911 147.18 240.641 144.117C239.371 141.053 237.509 138.271 235.16 135.93C232.812 138.271 230.949 141.053 229.679 144.117C228.409 147.18 227.757 150.464 227.76 153.78V153.78Z" fill="#33CCFF"/>
<path opacity="0.1" d="M227.76 153.78V156.35C232.597 157.729 237.723 157.729 242.56 156.35V153.78C242.563 150.464 241.911 147.18 240.641 144.117C239.371 141.053 237.509 138.271 235.16 135.93C232.812 138.271 230.949 141.053 229.679 144.117C228.409 147.18 227.757 150.464 227.76 153.78V153.78Z" fill="white"/>
<path d="M239.47 165.63C239.472 166.483 239.221 167.317 238.749 168.027C238.276 168.737 237.604 169.291 236.816 169.619C236.029 169.947 235.162 170.034 234.325 169.868C233.489 169.703 232.72 169.294 232.116 168.691C231.512 168.089 231.101 167.321 230.934 166.485C230.767 165.648 230.851 164.781 231.177 163.993C231.503 163.205 232.056 162.531 232.765 162.057C233.474 161.583 234.307 161.33 235.16 161.33C236.301 161.33 237.396 161.783 238.204 162.589C239.012 163.395 239.467 164.489 239.47 165.63V165.63Z" fill="#33CCFF"/>
<path d="M235.16 169.94C234.071 169.943 233.021 169.531 232.225 168.788C231.428 168.045 230.944 167.027 230.87 165.94C230.87 166.05 230.87 166.16 230.87 166.26C230.87 167.404 231.324 168.5 232.132 169.308C232.941 170.116 234.037 170.57 235.18 170.57C236.323 170.57 237.419 170.116 238.228 169.308C239.036 168.5 239.49 167.404 239.49 166.26C239.49 166.16 239.49 166.05 239.49 165.94C239.414 167.033 238.923 168.056 238.118 168.799C237.314 169.543 236.256 169.951 235.16 169.94V169.94Z" fill="#33CCFF"/>
<path opacity="0.3" d="M235.16 169.94C234.071 169.943 233.021 169.531 232.225 168.788C231.428 168.045 230.944 167.027 230.87 165.94C230.87 166.05 230.87 166.16 230.87 166.26C230.87 167.404 231.324 168.5 232.132 169.308C232.941 170.116 234.037 170.57 235.18 170.57C236.323 170.57 237.419 170.116 238.228 169.308C239.036 168.5 239.49 167.404 239.49 166.26C239.49 166.16 239.49 166.05 239.49 165.94C239.414 167.033 238.923 168.056 238.118 168.799C237.314 169.543 236.256 169.951 235.16 169.94V169.94Z" fill="black"/>
<path d="M235.16 168.68C236.845 168.68 238.21 167.315 238.21 165.63C238.21 163.946 236.845 162.58 235.16 162.58C233.476 162.58 232.11 163.946 232.11 165.63C232.11 167.315 233.476 168.68 235.16 168.68Z" fill="white"/>
<path d="M235 168.66L236.25 162.8C235.931 162.674 235.593 162.607 235.25 162.6L234 168.45C234.318 168.58 234.657 168.651 235 168.66V168.66Z" fill="#33CCFF"/>
<path d="M236.14 168.51L237.22 163.4C237.081 163.273 236.93 163.159 236.77 163.06L235.58 168.64C235.77 168.612 235.957 168.569 236.14 168.51V168.51Z" fill="#33CCFF"/>
<g opacity="0.7">
<path opacity="0.7" d="M235 168.66L236.25 162.8C235.931 162.674 235.593 162.607 235.25 162.6L234 168.45C234.318 168.58 234.657 168.651 235 168.66V168.66Z" fill="white"/>
<path opacity="0.7" d="M236.14 168.51L237.22 163.4C237.081 163.273 236.93 163.159 236.77 163.06L235.58 168.64C235.77 168.612 235.957 168.569 236.14 168.51V168.51Z" fill="white"/>
</g>
<path d="M345.57 281.26L344.42 281.51C343.905 281.613 343.436 281.875 343.077 282.259C342.719 282.643 342.489 283.129 342.42 283.65L342.32 284.46C342.268 284.864 342.315 285.275 342.458 285.656C342.601 286.038 342.835 286.379 343.14 286.65C345.03 288.3 349.49 291.36 354.89 289.39L359.2 286.14L358.49 280.32L349.49 279.02C348.946 279.04 348.423 279.236 348 279.58L345.57 281.26Z" fill="#FAB27B"/>
<path d="M359.23 286.14L371.2 285.54L369.35 279.03L358.52 280.32L359.23 286.14Z" fill="#FAB27B"/>
<path d="M366.36 279.08C365.869 279.998 365.7 281.054 365.88 282.08C366.098 283.741 366.765 285.311 367.81 286.62V286.62C365.793 286.65 363.81 287.139 362.01 288.05L361.91 288.1C355.67 283.84 359.27 278.79 359.27 278.79L359.68 278.85C361.893 279.156 364.131 279.233 366.36 279.08V279.08Z" fill="#F03E3D"/>
<path d="M390.87 284.45C379.75 287.01 365.92 286.76 365.92 286.76C365.465 285.991 365.258 285.1 365.33 284.21C365.43 282.35 365.68 280.02 366.33 279.08C366.98 278.14 371.79 277.64 371.79 277.64C371.79 277.64 381.08 273.33 382.84 271.92C384.6 270.51 384.53 263.92 384.2 259.59C382.43 236.32 386.52 234.59 390.2 233.52C398 231.35 400.71 282.18 390.87 284.45Z" fill="#F03E3D"/>
<path d="M314.68 289.44H345.76C346.76 289.44 347.23 288.62 346.76 287.61L339 270.08C338.758 269.569 338.386 269.131 337.92 268.81C337.455 268.489 336.914 268.296 336.35 268.25H305.26C304.26 268.25 303.79 269.07 304.26 270.08L312.06 287.61C312.299 288.117 312.667 288.553 313.126 288.874C313.586 289.195 314.122 289.39 314.68 289.44Z" fill="#F03E3D"/>
<path opacity="0.2" d="M314.68 289.44H345.76C346.76 289.44 347.23 288.62 346.76 287.61L339 270.08C338.758 269.569 338.386 269.131 337.92 268.81C337.455 268.489 336.914 268.296 336.35 268.25H305.26C304.26 268.25 303.79 269.07 304.26 270.08L312.06 287.61C312.299 288.117 312.667 288.553 313.126 288.874C313.586 289.195 314.122 289.39 314.68 289.44Z" fill="black"/>
<path d="M303.91 268.25H305.26C304.26 268.25 303.79 269.07 304.26 270.08L312.06 287.61C312.3 288.12 312.671 288.558 313.135 288.879C313.598 289.2 314.138 289.394 314.7 289.44H313.36C312.796 289.394 312.255 289.201 311.79 288.88C311.325 288.559 310.952 288.121 310.71 287.61L302.92 270.08C302.45 269.07 302.9 268.25 303.91 268.25Z" fill="#F03E3D"/>
<path opacity="0.4" d="M303.91 268.25H305.26C304.26 268.25 303.79 269.07 304.26 270.08L312.06 287.61C312.3 288.12 312.671 288.558 313.135 288.879C313.598 289.2 314.138 289.394 314.7 289.44H313.36C312.796 289.394 312.255 289.201 311.79 288.88C311.325 288.559 310.952 288.121 310.71 287.61L302.92 270.08C302.45 269.07 302.9 268.25 303.91 268.25Z" fill="black"/>
<path d="M315.26 287.43H343.39L335.76 270.26H307.63L315.26 287.43Z" fill="#263238"/>
<path opacity="0.8" d="M315.26 287.43H343.39L335.76 270.26H307.63L315.26 287.43Z" fill="white"/>
<path d="M407.82 288.07C407.82 288.07 408.59 298.33 408.7 301.93C409.45 325.98 389.82 327.81 375.38 325.16L323.08 310.54C321.01 317.49 296.83 355.76 296.83 355.76L284.12 348.46C284.12 348.46 297.3 316.87 305.81 294.88C310.66 282.33 350.19 291.01 364.75 293.6C369.17 294.79 368.32 287.88 368.32 287.88L407.82 288.07Z" fill="#263238"/>
<path d="M293.59 355.04L288.73 363.13L279.68 358.63L284.39 349.42L293.59 355.04Z" fill="#FAB27B"/>
<path d="M274.86 357C273.67 356.45 272.53 355.67 272.37 355C272.341 354.805 272.371 354.607 272.454 354.429C272.538 354.251 272.672 354.102 272.84 354C272.985 353.901 273.148 353.833 273.32 353.798C273.492 353.764 273.668 353.764 273.84 353.8C275.65 354.09 278.13 357.54 278.23 357.69C278.262 357.731 278.279 357.782 278.279 357.835C278.279 357.887 278.262 357.938 278.23 357.98C278.198 358.019 278.156 358.049 278.109 358.067C278.061 358.085 278.01 358.089 277.96 358.08C276.897 357.812 275.86 357.45 274.86 357ZM274.19 354.43C274.045 354.359 273.89 354.312 273.73 354.29C273.63 354.262 273.525 354.258 273.422 354.277C273.32 354.296 273.224 354.338 273.14 354.4C272.84 354.61 272.83 354.77 272.86 354.88C273.02 355.71 275.44 356.83 277.33 357.43C276.486 356.229 275.42 355.2 274.19 354.4V354.43Z" fill="#F03E3D"/>
<path d="M277.89 358C277.861 358.012 277.829 358.012 277.8 358C276.89 357 275.53 353.83 276.23 352.84C276.37 352.59 276.71 352.36 277.37 352.59C277.61 352.674 277.83 352.806 278.017 352.978C278.205 353.15 278.355 353.358 278.46 353.59C279.22 355.16 278.29 357.87 278.25 357.99C278.235 358.033 278.209 358.07 278.173 358.099C278.138 358.127 278.095 358.145 278.05 358.15C278.014 358.139 277.98 358.119 277.953 358.093C277.925 358.067 277.904 358.035 277.89 358ZM277.32 353L277.2 352.93C276.77 352.77 276.67 352.93 276.63 352.98C276.27 353.6 277.04 355.92 277.91 357.17C278.293 356.028 278.318 354.796 277.98 353.64C277.846 353.353 277.611 353.125 277.32 353V353Z" fill="#F03E3D"/>
<path d="M279.52 357.15L290 361.94C290.186 362.025 290.339 362.169 290.435 362.35C290.53 362.531 290.564 362.738 290.53 362.94L288.53 372.34C288.49 372.539 288.41 372.729 288.296 372.897C288.182 373.066 288.035 373.21 287.865 373.322C287.695 373.433 287.505 373.51 287.305 373.547C287.105 373.585 286.899 373.582 286.7 373.54C286.593 373.52 286.489 373.487 286.39 373.44C282.64 371.65 279.39 369.9 274.66 367.76C269.11 365.22 270.21 366.53 263.66 363.63C259.66 361.88 261.03 357.08 262.79 357.63C270.87 360.17 272.72 358.22 276.92 356.84C277.795 356.614 278.723 356.725 279.52 357.15Z" fill="#263238"/>
<path opacity="0.2" d="M291.12 359.15L293.59 355.04L284.39 349.42L282.11 353.87L291.12 359.15Z" fill="black"/>
<path d="M298.85 355L283.09 345.17C282.373 345.57 281.797 346.181 281.439 346.92C281.081 347.658 280.959 348.489 281.09 349.3L296.25 359C296.25 359 298.28 358.87 298.85 355Z" fill="#F03E3D"/>
<path d="M320.41 395.29L318.5 404.26L308.76 402.98L310.18 393.02L320.41 395.29Z" fill="#FAB27B"/>
<path d="M303.81 403C302.54 402.87 301.25 402.51 300.88 401.92C300.8 401.76 300.768 401.58 300.789 401.402C300.811 401.224 300.884 401.056 301 400.92C301.2 400.657 301.494 400.481 301.82 400.43C303.57 400.13 306.94 402.51 307.09 402.62C307.13 402.649 307.16 402.689 307.176 402.736C307.192 402.782 307.194 402.833 307.18 402.88C307.165 402.928 307.136 402.971 307.097 403.003C307.058 403.035 307.01 403.055 306.96 403.06C305.91 403.13 304.857 403.11 303.81 403V403ZM302.38 400.85C302.225 400.825 302.066 400.825 301.91 400.85C301.809 400.858 301.711 400.888 301.623 400.938C301.535 400.988 301.459 401.057 301.4 401.14C301.19 401.43 301.24 401.58 301.3 401.67C301.71 402.38 304.3 402.67 306.21 402.6C305.057 401.773 303.757 401.173 302.38 400.83V400.85Z" fill="#F03E3D"/>
<path d="M306.93 403C306.898 403.011 306.863 403.011 306.83 403C305.66 402.33 303.42 399.88 303.75 398.75C303.8 398.47 304.04 398.16 304.75 398.16C304.992 398.156 305.232 398.202 305.456 398.295C305.68 398.388 305.882 398.526 306.05 398.7C307.25 399.9 307.25 402.7 307.25 402.81C307.251 402.854 307.239 402.897 307.216 402.934C307.193 402.971 307.159 403.001 307.12 403.02C307.09 403.035 307.056 403.041 307.022 403.037C306.989 403.034 306.957 403.021 306.93 403V403ZM304.83 398.62H304.7C304.26 398.62 304.21 398.79 304.19 398.85C304.06 399.54 305.5 401.43 306.69 402.3C306.684 401.131 306.317 399.993 305.64 399.04C305.425 398.818 305.138 398.679 304.83 398.65V398.62Z" fill="#F03E3D"/>
<path d="M308.15 401.66L319.3 402.76C319.505 402.779 319.697 402.868 319.845 403.012C319.992 403.155 320.086 403.345 320.11 403.55L321.24 412.82C321.288 413.215 321.179 413.612 320.935 413.927C320.692 414.242 320.334 414.447 319.94 414.5C319.834 414.51 319.727 414.51 319.62 414.5C315.62 414.03 312.05 413.5 307.05 412.98C301.14 412.4 302.57 413.25 295.61 412.67C291.42 412.31 291.12 407.48 292.92 407.42C301.14 407.2 302.23 404.83 305.64 402.23C306.38 401.741 307.272 401.539 308.15 401.66Z" fill="#263238"/>
<path opacity="0.2" d="M309.43 398.26L319.61 399.05L320.41 395.29L310.18 393.02L309.43 398.26Z" fill="black"/>
<path d="M323.3 391.74L323.01 392.87L308.08 391.69L308.24 390.56L323.3 391.74Z" fill="#263238"/>
<path d="M323.91 396.42L320.23 396.09L309.87 395.16L306.53 394.86C306.055 394.221 305.787 393.453 305.76 392.658C305.733 391.863 305.949 391.079 306.38 390.41L308.24 390.56L323.3 391.74L324.38 391.83C325.63 395.42 323.91 396.42 323.91 396.42Z" fill="#F03E3D"/>
<path d="M384.53 334.08C371.02 335.27 339.86 335.77 335.64 335.15L323.3 391.74L308.24 390.56C308.24 390.56 309.83 341.63 316.47 321.4C321.81 305.14 407.23 308.51 407.23 308.51L407.53 313.09C408.12 328.87 400 332.71 384.53 334.08Z" fill="#263238"/>
<path opacity="0.1" d="M384.53 334.08C371.02 335.27 339.86 335.77 335.64 335.15L323.3 391.74L308.24 390.56C308.24 390.56 309.83 341.63 316.47 321.4C321.81 305.14 407.23 308.51 407.23 308.51L407.53 313.09C408.12 328.87 400 332.71 384.53 334.08Z" fill="black"/>
<path d="M316.23 327.31C316.225 327.22 316.225 327.13 316.23 327.04V327.31Z" fill="#263238"/>
<path d="M317.24 320L317.09 321.11C317.119 320.737 317.169 320.367 317.24 320Z" fill="#263238"/>
<path d="M365.06 231.59L369.21 237.65L378.54 229.67L372.71 222.51L365.06 231.59Z" fill="#FAB27B"/>
<path opacity="0.2" d="M367.14 234.46C368.94 231.81 368.14 227.7 368.14 227.7L366.5 229.79L365.08 231.59L367.14 234.46Z" fill="black"/>
<path d="M349.1 218.24C349.3 218.83 349.78 219.24 350.17 219.06C350.56 218.88 350.73 218.29 350.52 217.72C350.31 217.15 349.85 216.72 349.45 216.91C349.05 217.1 348.91 217.65 349.1 218.24Z" fill="#263238"/>
<path d="M351.26 218.42L349.94 224.08C350.608 224.219 351.298 224.201 351.958 224.028C352.617 223.854 353.227 223.53 353.74 223.08L351.26 218.42Z" fill="#ED893E"/>
<path d="M348.51 214.11C348.558 214.085 348.611 214.073 348.665 214.073C348.719 214.073 348.772 214.085 348.82 214.11C349.198 214.269 349.608 214.335 350.017 214.304C350.425 214.273 350.821 214.144 351.17 213.93C351.204 213.903 351.242 213.884 351.284 213.873C351.325 213.862 351.368 213.86 351.41 213.866C351.453 213.873 351.493 213.888 351.529 213.911C351.565 213.934 351.596 213.964 351.62 214C351.668 214.072 351.686 214.16 351.671 214.246C351.657 214.331 351.61 214.408 351.54 214.46C351.102 214.752 350.598 214.93 350.074 214.977C349.55 215.024 349.023 214.939 348.54 214.73C348.499 214.714 348.462 214.691 348.43 214.661C348.398 214.631 348.373 214.595 348.355 214.555C348.337 214.515 348.328 214.472 348.327 214.428C348.326 214.384 348.334 214.341 348.35 214.3V214.3C348.384 214.223 348.44 214.157 348.51 214.11V214.11Z" fill="#263238"/>
<path d="M371.27 208C374.27 215.73 375.76 218.94 373.7 224.65C369.65 231.4 360.32 235.5 355 228.88C350.22 222.88 346.07 211.31 352.13 204.68C354.154 202.408 356.993 201.029 360.029 200.841C363.065 200.654 366.053 201.674 368.34 203.68C369.649 204.864 370.654 206.345 371.27 208V208Z" fill="#FAB27B"/>
<path d="M378.59 210.3C378.168 212.894 377.911 215.513 377.82 218.14C377.748 220.564 376.956 222.912 375.543 224.884C374.131 226.856 372.162 228.362 369.89 229.21V229.21C369.89 229.21 358.99 229.08 354.36 215.37C353.079 215.491 351.788 215.295 350.601 214.799C349.414 214.303 348.367 213.523 347.553 212.526C346.738 211.53 346.182 210.349 345.932 209.087C345.682 207.825 345.747 206.521 346.12 205.29C347.01 202.37 350.7 200.55 353.75 200.44C354.75 199.141 356.053 198.108 357.546 197.432C359.038 196.755 360.674 196.456 362.31 196.56C365.609 196.827 368.795 197.884 371.6 199.64C374.132 200.907 376.274 202.835 377.8 205.22C378.615 206.78 378.893 208.566 378.59 210.3Z" fill="#263238"/>
<path d="M356.63 217C356.285 217.773 356.096 218.607 356.075 219.453C356.055 220.299 356.203 221.141 356.51 221.93C357.35 224.02 359.59 223.67 360.88 221.93C362.05 220.34 363 217.36 361.42 215.82C359.84 214.28 357.5 215.1 356.63 217Z" fill="#FAB27B"/>
<path d="M378.62 225.16C375.62 225.29 371.19 227.32 365.27 231.4C364.961 231.668 364.725 232.011 364.585 232.396C364.445 232.781 364.406 233.195 364.47 233.6C364.54 234.4 365.34 235.15 366.1 234.9C366.49 235.9 366.75 237 367.1 237.96C368.95 237.017 370.869 236.214 372.84 235.56C375.825 234.37 378.88 233.368 381.99 232.56C381.16 231.29 380.05 230.05 379.72 228.56C380.07 228.404 380.355 228.131 380.525 227.788C380.695 227.444 380.739 227.052 380.65 226.68C380.48 226.267 380.201 225.908 379.844 225.641C379.487 225.373 379.064 225.207 378.62 225.16Z" fill="#F03E3D"/>
<path d="M378.62 225.16C375.62 225.29 371.19 227.32 365.27 231.4C364.961 231.668 364.725 232.011 364.585 232.396C364.445 232.781 364.406 233.195 364.47 233.6C364.54 234.4 365.34 235.15 366.1 234.9C366.49 235.9 366.75 237 367.1 237.96C368.95 237.017 370.869 236.214 372.84 235.56C375.825 234.37 378.88 233.368 381.99 232.56C381.16 231.29 380.05 230.05 379.72 228.56C380.07 228.404 380.355 228.131 380.525 227.788C380.695 227.444 380.739 227.052 380.65 226.68C380.48 226.267 380.201 225.908 379.844 225.641C379.487 225.373 379.064 225.207 378.62 225.16Z" fill="#F03E3D"/>
<path d="M369.84 301.76C363.494 286.571 358.094 271.005 353.67 255.15C349.03 237.83 362.28 237.53 378.27 233.23C390.95 229.82 396.37 232.87 399.99 239.3C403.61 245.73 409.45 300.15 409.45 300.15L369.84 301.76Z" fill="#F03E3D"/>
<path d="M369.84 301.76C363.494 286.571 358.094 271.005 353.67 255.15C349.03 237.83 362.28 237.53 378.27 233.23C390.95 229.82 396.37 232.87 399.99 239.3C403.61 245.73 409.45 300.15 409.45 300.15L369.84 301.76Z" fill="#F03E3D"/>
<path opacity="0.3" d="M369.84 301.76C363.494 286.571 358.094 271.005 353.67 255.15C349.03 237.83 362.28 237.53 378.27 233.23C390.95 229.82 396.37 232.87 399.99 239.3C403.61 245.73 409.45 300.15 409.45 300.15L369.84 301.76Z" fill="black"/>
<path d="M312 276.8H310.88C310.381 276.819 309.9 276.993 309.504 277.298C309.108 277.602 308.817 278.022 308.67 278.5L308.44 279.24C308.321 279.611 308.296 280.006 308.366 280.39C308.435 280.773 308.598 281.134 308.84 281.44C310.35 283.31 314.03 286.93 319.44 285.97L324.05 283.63L324.35 278.03L316.13 275.32C315.613 275.25 315.087 275.348 314.63 275.6L312 276.8Z" fill="#FAB27B"/>
<path d="M324.07 283.67L335.43 285.1L334.77 278.66L324.37 278.07L324.07 283.67Z" fill="#FAB27B"/>
<path d="M332 278.21C331.365 278.998 331.013 279.977 331 280.99C330.931 282.591 331.297 284.18 332.06 285.59V285.59C330.156 285.28 328.206 285.41 326.36 285.97H326.26C321.1 280.92 325.33 276.77 325.33 276.77L325.71 276.89C327.755 277.546 329.863 277.989 332 278.21V278.21Z" fill="#F03E3D"/>
<path d="M354.12 287.34C343.23 287.9 330.26 285.34 330.26 285.34C329.957 284.541 329.908 283.668 330.12 282.84C330.53 281.1 331.12 278.95 331.95 278.18C332.78 277.41 337.33 277.74 337.33 277.74C337.33 277.74 346.79 275.22 348.68 274.19C350.57 273.16 351.6 267 352 262.84C354.21 240.64 358.35 239.68 362 239.31C369.65 238.55 363.76 286.85 354.12 287.34Z" fill="#F03E3D"/>
<path d="M390 413.8L382.45 350.7C382.081 347.615 380.593 344.773 378.27 342.711C375.946 340.649 372.947 339.51 369.84 339.51H344.93C341.91 339.499 338.986 340.569 336.686 342.525C334.387 344.482 332.863 347.197 332.39 350.18L322.23 413L320.23 412.68L330.4 349.88C330.947 346.428 332.71 343.286 335.371 341.021C338.032 338.756 341.415 337.518 344.91 337.53H369.86C373.455 337.533 376.925 338.852 379.615 341.238C382.304 343.623 384.028 346.911 384.46 350.48L392.01 413.58L390 413.8Z" fill="#263238"/>
<path d="M424.94 413.8L417.39 350.7C417.021 347.615 415.533 344.773 413.21 342.711C410.886 340.649 407.887 339.51 404.78 339.51H379.83C376.81 339.497 373.885 340.566 371.585 342.523C369.284 344.48 367.761 347.197 367.29 350.18L357.12 413L355.12 412.68L365.29 349.88C365.835 346.428 367.597 343.284 370.259 341.019C372.92 338.754 376.305 337.516 379.8 337.53H404.75C408.345 337.533 411.815 338.852 414.505 341.238C417.194 343.623 418.918 346.911 419.35 350.48L426.9 413.58L424.94 413.8Z" fill="#263238"/>
<path d="M358.26 395.42H323.91V397.42H358.26V395.42Z" fill="#263238"/>
<path d="M419 349.58H383.49V351.58H419V349.58Z" fill="#263238"/>
<path d="M390 339.94H416.13C420.988 339.94 425.668 338.109 429.236 334.811C432.804 331.514 434.998 326.993 435.38 322.15L439.1 275.21C439.242 273.414 439.011 271.608 438.423 269.905C437.835 268.202 436.901 266.639 435.681 265.314C434.461 263.988 432.98 262.929 431.331 262.202C429.683 261.475 427.902 261.097 426.1 261.09H411.6C403.396 261.09 395.411 263.738 388.833 268.641C382.255 273.543 377.435 280.438 375.09 288.3L365.09 321.81C364.275 324.547 362.598 326.948 360.307 328.655C358.017 330.361 355.236 331.282 352.38 331.28H334.1C331.805 331.282 329.605 332.196 327.983 333.82C326.361 335.444 325.45 337.645 325.45 339.94H390Z" fill="#F03E3D"/>
<path opacity="0.7" d="M390 339.94H416.13C420.988 339.94 425.668 338.109 429.236 334.811C432.804 331.514 434.998 326.993 435.38 322.15L439.1 275.21C439.242 273.414 439.011 271.608 438.423 269.905C437.835 268.202 436.901 266.639 435.681 265.314C434.461 263.988 432.98 262.929 431.331 262.202C429.683 261.475 427.902 261.097 426.1 261.09H411.6C403.396 261.09 395.411 263.738 388.833 268.641C382.255 273.543 377.435 280.438 375.09 288.3L365.09 321.81C364.275 324.547 362.598 326.948 360.307 328.655C358.017 330.361 355.236 331.282 352.38 331.28H334.1C331.805 331.282 329.605 332.196 327.983 333.82C326.361 335.444 325.45 337.645 325.45 339.94H390Z" fill="white"/>
<path d="M364.09 177.94V177.83C364.095 177.866 364.095 177.903 364.09 177.94Z" fill="#407BFF"/>
<path d="M317 165.28C313.577 168.434 311.071 172.457 309.75 176.92H307.92C308.553 171.896 310.433 167.111 313.39 163L317 165.28Z" fill="#407BFF"/>
<path opacity="0.6" d="M317 165.28C313.577 168.434 311.071 172.457 309.75 176.92H307.92C308.553 171.896 310.433 167.111 313.39 163L317 165.28Z" fill="white"/>
<path d="M327.6 159.29C323.639 160.417 320.005 162.474 317 165.29L313.39 163C316.336 158.877 320.215 155.509 324.71 153.17L327.6 159.29Z" fill="#407BFF"/>
<path opacity="0.5" d="M327.6 159.29C323.639 160.417 320.005 162.474 317 165.29L313.39 163C316.336 158.877 320.215 155.509 324.71 153.17L327.6 159.29Z" fill="white"/>
<path d="M338.83 149.8L337.94 158.73C336.662 158.507 335.367 158.397 334.07 158.4C331.883 158.402 329.706 158.701 327.6 159.29L324.71 153.19C328.938 150.975 333.637 149.812 338.41 149.8H338.83Z" fill="#407BFF"/>
<path opacity="0.4" d="M338.83 149.8L337.94 158.73C336.662 158.507 335.367 158.397 334.07 158.4C331.883 158.402 329.706 158.701 327.6 159.29L324.71 153.19C328.938 150.975 333.637 149.812 338.41 149.8H338.83Z" fill="white"/>
<path d="M352.21 153.59L346.38 162.14C343.85 160.4 340.969 159.236 337.94 158.73L338.83 149.8C343.55 149.833 348.173 151.143 352.21 153.59Z" fill="#407BFF"/>
<path opacity="0.3" d="M352.21 153.59L346.38 162.14C343.85 160.4 340.969 159.236 337.94 158.73L338.83 149.8C343.55 149.833 348.173 151.143 352.21 153.59Z" fill="white"/>
<path d="M361.46 163.67L352.36 168.54C350.847 165.997 348.8 163.814 346.36 162.14L352.19 153.59C356.158 156.022 359.368 159.513 361.46 163.67V163.67Z" fill="#407BFF"/>
<path opacity="0.2" d="M361.46 163.67L352.36 168.54C350.847 165.997 348.8 163.814 346.36 162.14L352.19 153.59C356.158 156.022 359.368 159.513 361.46 163.67V163.67Z" fill="white"/>
<path d="M364.12 177.57L355.22 177.47C354.941 174.318 353.964 171.267 352.36 168.54L361.46 163.67C363.594 167.975 364.513 172.781 364.12 177.57V177.57Z" fill="#407BFF"/>
<path opacity="0.1" d="M364.12 177.57L355.22 177.47C354.941 174.318 353.964 171.267 352.36 168.54L361.46 163.67C363.594 167.975 364.513 172.781 364.12 177.57V177.57Z" fill="white"/>
<path d="M364.1 177.83C364.105 177.866 364.105 177.903 364.1 177.94C363.741 181.069 362.943 184.132 361.73 187.04L354.52 185.41L355.1 182.66C355.15 182.3 355.2 181.94 355.23 181.58V181.36C355.345 180.066 355.345 178.764 355.23 177.47L364.13 177.57C364.13 177.63 364.13 177.67 364.13 177.72C364.126 177.758 364.116 177.795 364.1 177.83V177.83Z" fill="#407BFF"/>
<path d="M309 186.47L308.47 186.59C308.3 185.9 308.16 185.2 308.04 184.49C307.703 182.324 307.622 180.125 307.8 177.94V177.94V177.83C307.795 177.793 307.795 177.756 307.8 177.72C307.8 177.45 307.85 177.17 307.89 176.9H309.72C309.295 178.35 309.007 179.836 308.86 181.34C308.86 181.34 308.86 181.41 308.86 181.45C308.86 181.49 308.86 181.52 308.86 181.56C308.793 182.448 308.777 183.34 308.81 184.23C308.85 185 308.91 185.74 309 186.47Z" fill="#407BFF"/>
<path opacity="0.7" d="M309 186.47L308.47 186.59C308.3 185.9 308.16 185.2 308.04 184.49C307.703 182.324 307.622 180.125 307.8 177.94V177.94V177.83C307.795 177.793 307.795 177.756 307.8 177.72C307.8 177.45 307.85 177.17 307.89 176.9H309.72C309.295 178.35 309.007 179.836 308.86 181.34C308.86 181.34 308.86 181.41 308.86 181.45C308.86 181.49 308.86 181.52 308.86 181.56C308.793 182.448 308.777 183.34 308.81 184.23C308.85 185 308.91 185.74 309 186.47Z" fill="white"/>
<path d="M363.52 185L362.76 186.88L361.22 186.54L346.87 183.29L340.69 181.89C341.119 181.334 341.475 180.726 341.75 180.08C342.064 179.326 342.253 178.525 342.31 177.71L356.01 182.42L363.52 185Z" fill="#263238"/>
<path d="M342.31 177.73C342.195 179.253 341.631 180.707 340.69 181.91L335.14 180.65L336.89 175.87L342.31 177.73Z" fill="#263238"/>
<path d="M342.31 177.73C342.195 179.253 341.632 180.707 340.69 181.91C340.001 182.789 339.136 183.515 338.15 184.04C334.58 185.95 330.37 184.75 328.76 181.34C328.021 179.585 327.976 177.615 328.633 175.827C329.29 174.04 330.6 172.568 332.3 171.71C335.87 169.8 340.08 171.01 341.7 174.41C342.186 175.445 342.396 176.589 342.31 177.73V177.73Z" fill="#407BFF"/>
<path d="M114.48 173.5H120.21V178.3H113.91L113.03 185.3H108.03L108.91 178.3H102.44L101.56 185.3H96.66L97.54 178.3H91.77V173.5H98.11L99.03 166.37H93.27V161.57H99.61L100.49 154.57H105.42L104.54 161.57H111L111.88 154.57H116.81L115.93 161.57H121.65V166.37H115.31L114.48 173.5ZM109.48 173.5L110.4 166.37H104L103 173.5H109.48Z" fill="#407BFF"/>
<path d="M136.18 154.52V185.34H129.05V160.25H122.89V154.52H136.18Z" fill="#407BFF"/>
<path d="M109.46 282.69H60.1499V316.64H109.46V282.69Z" fill="#263238"/>
<path d="M109.46 282.69H60.1499V285.8H109.46V282.69Z" fill="#407BFF"/>
<path d="M69.1799 301.47L77.2499 305.94C77.5521 306.088 77.8236 306.291 78.0499 306.54C78.1912 306.738 78.2617 306.977 78.2499 307.22C78.2524 307.389 78.2208 307.556 78.1573 307.712C78.0937 307.869 77.9994 308.011 77.8799 308.13C77.7672 308.25 77.6309 308.346 77.4795 308.412C77.3281 308.477 77.1649 308.51 76.9999 308.51C76.6436 308.468 76.3016 308.344 75.9999 308.15L65.5999 302.36C65.4361 302.276 65.2987 302.149 65.2027 301.991C65.1067 301.834 65.0559 301.654 65.0559 301.47C65.0559 301.286 65.1067 301.105 65.2027 300.948C65.2987 300.791 65.4361 300.664 65.5999 300.58L75.9999 294.79C76.304 294.602 76.6452 294.483 76.9999 294.44C77.3342 294.445 77.6532 294.581 77.8886 294.818C78.1241 295.056 78.2574 295.376 78.2599 295.71C78.2785 295.953 78.2074 296.195 78.0599 296.39C77.8374 296.645 77.5652 296.853 77.2599 297L69.1799 301.47Z" fill="white"/>
<path d="M89.9299 293.14L81.9299 310.33C81.8092 310.646 81.6216 310.933 81.3799 311.17C81.1652 311.344 80.896 311.436 80.6199 311.43C80.4559 311.43 80.2936 311.397 80.1425 311.334C79.9914 311.27 79.8545 311.177 79.7399 311.06C79.6244 310.957 79.5318 310.83 79.4681 310.689C79.4044 310.548 79.3709 310.395 79.3699 310.24C79.3992 309.891 79.4978 309.551 79.6599 309.24L87.6599 292.06C87.7816 291.747 87.9652 291.461 88.1999 291.22C88.4376 291.036 88.7339 290.945 89.0337 290.964C89.3334 290.982 89.6164 291.109 89.8299 291.32C89.9458 291.423 90.0388 291.549 90.1025 291.69C90.1663 291.832 90.1995 291.985 90.1999 292.14C90.1768 292.488 90.085 292.828 89.9299 293.14V293.14Z" fill="white"/>
<path d="M99.9999 301.47L91.8999 297C91.5903 296.855 91.3144 296.648 91.0899 296.39C90.95 296.192 90.8797 295.952 90.8899 295.71C90.8874 295.543 90.9199 295.378 90.9853 295.225C91.0508 295.071 91.1477 294.933 91.2699 294.82C91.3826 294.7 91.5189 294.604 91.6703 294.538C91.8217 294.473 91.985 294.439 92.1499 294.44C92.505 294.481 92.8465 294.601 93.1499 294.79L103.55 300.58C103.714 300.664 103.851 300.791 103.947 300.948C104.043 301.105 104.094 301.286 104.094 301.47C104.094 301.654 104.043 301.834 103.947 301.991C103.851 302.149 103.714 302.276 103.55 302.36L93.1499 308.15C92.8487 308.345 92.5065 308.469 92.1499 308.51C91.9836 308.51 91.8189 308.476 91.6659 308.411C91.513 308.346 91.3748 308.25 91.2599 308.13C91.0223 307.887 90.8895 307.56 90.8899 307.22C90.8826 306.978 90.9527 306.74 91.0899 306.54C91.3183 306.289 91.5935 306.085 91.8999 305.94L99.9999 301.47Z" fill="white"/>
</svg>
