<svg width="32" height="32" viewBox="0 0 32 32" fill="none" xmlns="http://www.w3.org/2000/svg">
<path d="M2.34376 2.00004C2.23957 2.03417 2.14949 2.1016 2.08738 2.19194C2.02527 2.28228 1.99457 2.39054 2.00001 2.50004V29.5C2.00002 29.6326 2.0527 29.7598 2.14647 29.8536C2.24023 29.9473 2.3674 30 2.50001 30H29.5C29.6326 30 29.7598 29.9473 29.8535 29.8536C29.9473 29.7598 30 29.6326 30 29.5V8.96879V2.50004C30 2.36743 29.9473 2.24026 29.8535 2.1465C29.7598 2.05273 29.6326 2.00005 29.5 2.00004H2.50001C2.44824 1.99185 2.39552 1.99185 2.34376 2.00004V2.00004ZM3.00001 3.00004H29V6.00004H3.00001V3.00004ZM4.50001 4.00004C4.22386 4.00004 4.00001 4.22394 4.00001 4.50004C4.00001 4.77614 4.22386 5.00004 4.50001 5.00004C4.77615 5.00004 5.00001 4.77614 5.00001 4.50004C5.00001 4.22394 4.77615 4.00004 4.50001 4.00004ZM6.50001 4.00004C6.22386 4.00004 6.00001 4.22384 6.00001 4.50004C6.00001 4.77614 6.22386 5.00004 6.50001 5.00004C6.77615 5.00004 7.00001 4.77614 7.00001 4.50004C7.00001 4.22384 6.77615 4.00004 6.50001 4.00004ZM8.50001 4.00004C8.22385 4.00004 8.00001 4.22384 8.00001 4.50004C8.00001 4.77614 8.22385 5.00004 8.50001 5.00004C8.77616 5.00004 9.00001 4.77614 9.00001 4.50004C9.00001 4.22384 8.77616 4.00004 8.50001 4.00004ZM3.00001 7.00004H29V8.96879V29H3.00001V7.00004ZM4.50001 8.00004C4.22386 8.00004 4.00001 8.22384 4.00001 8.50004C4.00001 8.77614 4.22386 9.00004 4.50001 9.00004C4.77615 9.00004 5.00001 8.77614 5.00001 8.50004C5.00001 8.22384 4.77615 8.00004 4.50001 8.00004ZM7.00001 8.00004V9.00004H12V8.00004H7.00001ZM13 8.00004V9.00004H15V8.00004H13ZM16 8.00004V9.00004H26V8.00004H16ZM4.50001 10C4.22386 10 4.00001 10.2238 4.00001 10.5C4.00001 10.7761 4.22386 11 4.50001 11C4.77615 11 5.00001 10.7761 5.00001 10.5C5.00001 10.2238 4.77615 10 4.50001 10ZM7.00001 10V11H8.00001V10H7.00001ZM9.00001 10V11H17V10H9.00001ZM18 10V11H19V10H18ZM20 10V11H24V10H20ZM4.50001 12C4.22386 12 4.00001 12.2238 4.00001 12.5C4.00001 12.7761 4.22386 13 4.50001 13C4.77615 13 5.00001 12.7761 5.00001 12.5C5.00001 12.2238 4.77615 12 4.50001 12ZM7.00001 12V13H15V12H7.00001ZM4.50001 14C4.22386 14 4.00001 14.2238 4.00001 14.5C4.00001 14.7761 4.22386 15 4.50001 15C4.77615 15 5.00001 14.7761 5.00001 14.5C5.00001 14.2238 4.77615 14 4.50001 14ZM7.00001 14V15H9.00001V14H7.00001ZM10 14V15H17V14H10ZM4.50001 16C4.22386 16 4.00001 16.2238 4.00001 16.5C4.00001 16.7761 4.22386 17 4.50001 17C4.77615 17 5.00001 16.7761 5.00001 16.5C5.00001 16.2238 4.77615 16 4.50001 16ZM11 16V17H15V16H11ZM4.50001 18C4.22386 18 4.00001 18.2238 4.00001 18.5C4.00001 18.7761 4.22386 19 4.50001 19C4.77615 19 5.00001 18.7761 5.00001 18.5C5.00001 18.2238 4.77615 18 4.50001 18ZM11 18V19H17V18H11ZM18 18V19H19V18H18ZM4.50001 20C4.22386 20 4.00001 20.2238 4.00001 20.5C4.00001 20.7761 4.22386 21 4.50001 21C4.77615 21 5.00001 20.7761 5.00001 20.5C5.00001 20.2238 4.77615 20 4.50001 20ZM11 20V21H17V20H11ZM18 20V21H19V20H18ZM4.50001 22C4.22386 22 4.00001 22.2238 4.00001 22.5C4.00001 22.7761 4.22386 23 4.50001 23C4.77615 23 5.00001 22.7761 5.00001 22.5C5.00001 22.2238 4.77615 22 4.50001 22ZM11 22V23H13V22H11ZM4.50001 24C4.22386 24 4.00001 24.2238 4.00001 24.5C4.00001 24.7761 4.22386 25 4.50001 25C4.77615 25 5.00001 24.7761 5.00001 24.5C5.00001 24.2238 4.77615 24 4.50001 24ZM7.00001 24V25H15V24H7.00001ZM16 24V25H18V24H16ZM4.50001 26C4.22386 26 4.00001 26.2238 4.00001 26.5C4.00001 26.7761 4.22386 27 4.50001 27C4.77615 27 5.00001 26.7761 5.00001 26.5C5.00001 26.2238 4.77615 26 4.50001 26ZM7.00001 26V27H12V26H7.00001ZM13 26V27H21V26H13Z" fill="#B00000"/>
</svg>
