<svg width="217" height="217" viewBox="0 0 217 217" fill="none" xmlns="http://www.w3.org/2000/svg">
<path d="M179.703 149.188H37.2969C33.2281 149.188 30.5156 146.475 30.5156 142.406V47.4688C30.5156 43.4 33.2281 40.6875 37.2969 40.6875H179.703C183.772 40.6875 186.484 43.4 186.484 47.4688V142.406C186.484 145.797 183.772 149.188 179.703 149.188Z" fill="white"/>
<path d="M166.141 115.281H118.672C114.603 115.281 111.891 112.569 111.891 108.5V101.719C111.891 97.65 114.603 94.9375 118.672 94.9375H166.141C170.209 94.9375 172.922 97.65 172.922 101.719V108.5C172.922 111.891 170.209 115.281 166.141 115.281Z" fill="#A3D86B"/>
<path d="M94.9375 85.4438V71.2031H47.4688V91.5469C47.4688 104.431 58.3188 115.281 71.2031 115.281C83.4094 115.281 92.9031 106.466 94.9375 94.2594V85.4438Z" fill="#FED8AA"/>
<path d="M94.9375 86.1219L98.3281 74.5938C99.6844 69.1688 95.6156 64.4219 90.1906 64.4219C90.1906 58.3188 84.7656 52.8938 77.9844 54.25L52.8937 58.3188C46.7906 58.9969 43.4 65.1 44.0781 70.525L47.4687 86.1219L56.2844 79.3407C57.6406 78.6625 58.9969 77.9844 60.3531 77.9844H82.0531C83.4094 77.9844 84.7656 78.6625 86.1219 79.3407L94.9375 86.1219V86.1219Z" fill="#A17852"/>
<path d="M91.5469 149.188H125.453V176.312H91.5469V149.188Z" fill="#F87171"/>
<path d="M30.5156 142.406C30.5156 146.475 33.2281 149.188 37.2969 149.188H179.703C183.772 149.188 186.484 146.475 186.484 142.406V128.844H30.5156V142.406Z" fill="#F43F5E"/>
<path d="M179.703 152.578H37.2969C31.8719 152.578 27.125 147.831 27.125 142.406V47.4688C27.125 42.0437 31.8719 37.2969 37.2969 37.2969H179.703C185.128 37.2969 189.875 42.0437 189.875 47.4688V142.406C189.875 147.831 185.128 152.578 179.703 152.578ZM37.2969 44.0781C35.2625 44.0781 33.9062 45.4344 33.9062 47.4688V142.406C33.9062 144.441 35.2625 145.797 37.2969 145.797H179.703C181.738 145.797 183.094 144.441 183.094 142.406V47.4688C183.094 45.4344 181.738 44.0781 179.703 44.0781H37.2969ZM152.578 179.703H64.4219C62.3875 179.703 61.0312 178.347 61.0312 176.312C61.0312 174.278 62.3875 172.922 64.4219 172.922H152.578C154.613 172.922 155.969 174.278 155.969 176.312C155.969 178.347 154.613 179.703 152.578 179.703Z" fill="white"/>
<path d="M186.484 132.234H30.5156C28.4812 132.234 27.125 130.878 27.125 128.844C27.125 126.809 28.4812 125.453 30.5156 125.453H186.484C188.519 125.453 189.875 126.809 189.875 128.844C189.875 130.878 188.519 132.234 186.484 132.234ZM172.922 57.6406H125.453C123.419 57.6406 122.062 56.2844 122.062 54.25C122.062 52.2156 123.419 50.8594 125.453 50.8594H172.922C174.956 50.8594 176.312 52.2156 176.312 54.25C176.312 56.2844 174.956 57.6406 172.922 57.6406ZM172.922 71.2031H125.453C123.419 71.2031 122.062 69.8469 122.062 67.8125C122.062 65.7781 123.419 64.4219 125.453 64.4219H172.922C174.956 64.4219 176.312 65.7781 176.312 67.8125C176.312 69.8469 174.956 71.2031 172.922 71.2031ZM125.453 179.703H91.5469C89.5125 179.703 88.1562 178.347 88.1562 176.312V149.188C88.1562 147.153 89.5125 145.797 91.5469 145.797H125.453C127.488 145.797 128.844 147.153 128.844 149.188V176.312C128.844 178.347 127.488 179.703 125.453 179.703ZM94.9375 172.922H122.062V152.578H94.9375V172.922ZM71.2031 118.672C56.2844 118.672 44.0781 106.466 44.0781 91.5469V84.7656C44.0781 82.7312 45.4344 81.375 47.4688 81.375C49.5031 81.375 50.8594 82.7312 50.8594 84.7656V91.5469C50.8594 103.075 59.675 111.891 71.2031 111.891C82.7313 111.891 91.5469 103.075 91.5469 91.5469V84.7656C91.5469 82.7312 92.9031 81.375 94.9375 81.375C96.9719 81.375 98.3281 82.7312 98.3281 84.7656V91.5469C98.3281 106.466 86.1219 118.672 71.2031 118.672Z" fill="white"/>
<path d="M47.4688 89.5129H46.1125C44.7563 88.8348 44.0781 88.1567 44.0781 86.8004L40.6875 71.2036C40.0094 67.1348 40.6875 63.7442 42.7219 60.3536C44.7563 56.9629 48.1469 54.9286 51.5375 54.9286L76.6282 50.8598C81.375 50.1817 85.4438 50.8598 88.1563 53.5723C90.8688 55.6067 92.225 58.3192 92.9031 61.0317C95.6156 61.7098 97.65 63.0661 99.0063 65.1004C101.041 67.8129 102.397 71.8817 101.719 75.2723L98.3282 86.8004C98.3282 88.1567 96.9719 88.8348 96.2938 88.8348C94.9375 88.8348 94.2594 88.8348 92.9031 88.1567L84.0875 81.3754C83.4094 80.6973 82.7313 80.6973 82.0532 80.6973H60.3531C59.675 80.6973 58.9969 80.6973 58.3188 81.3754L49.5032 88.1567C48.825 89.5129 48.1469 89.5129 47.4688 89.5129ZM60.3531 74.5942H82.0532C84.0875 74.5942 86.8 75.2723 88.1563 76.6286L92.9031 80.6973L94.9375 73.9161C94.9375 72.5598 94.9375 71.2036 93.5813 69.8473C92.225 68.4911 91.5469 67.8129 89.5125 67.8129C87.4781 67.8129 86.1219 66.4567 86.1219 64.4223C86.1219 62.3879 85.4438 60.3536 83.4094 58.9973C82.0532 57.6411 80.0188 56.9629 77.9844 57.6411L53.5719 61.7098C51.5375 61.7098 50.1813 63.0661 48.825 64.4223C47.4688 65.7786 47.4688 67.8129 47.4688 69.8473L49.5032 80.6973L54.25 76.6286C56.2844 75.2723 58.3188 74.5942 60.3531 74.5942V74.5942Z" fill="white"/>
<path d="M84.7656 105.787H74.5938C72.5594 105.787 71.2031 104.431 71.2031 102.396C71.2031 100.362 72.5594 99.0059 74.5938 99.0059H84.7656C88.8344 99.0059 91.5469 96.2934 91.5469 92.2246V85.4434C91.5469 83.409 92.9031 82.0527 94.9375 82.0527C96.9719 82.0527 98.3281 83.409 98.3281 85.4434V92.2246C98.3281 99.684 92.225 105.787 84.7656 105.787Z" fill="white"/>
<path d="M111.891 57.6406C113.763 57.6406 115.281 56.1226 115.281 54.25C115.281 52.3774 113.763 50.8594 111.891 50.8594C110.018 50.8594 108.5 52.3774 108.5 54.25C108.5 56.1226 110.018 57.6406 111.891 57.6406Z" fill="white"/>
<path d="M111.891 71.2031C113.763 71.2031 115.281 69.6851 115.281 67.8125C115.281 65.9399 113.763 64.4219 111.891 64.4219C110.018 64.4219 108.5 65.9399 108.5 67.8125C108.5 69.6851 110.018 71.2031 111.891 71.2031Z" fill="white"/>
<path d="M172.922 84.7656H125.453C123.419 84.7656 122.062 83.4094 122.062 81.375C122.062 79.3406 123.419 77.9844 125.453 77.9844H172.922C174.956 77.9844 176.312 79.3406 176.312 81.375C176.312 83.4094 174.956 84.7656 172.922 84.7656Z" fill="white"/>
<path d="M111.891 84.7656C113.763 84.7656 115.281 83.2476 115.281 81.375C115.281 79.5024 113.763 77.9844 111.891 77.9844C110.018 77.9844 108.5 79.5024 108.5 81.375C108.5 83.2476 110.018 84.7656 111.891 84.7656Z" fill="white"/>
<path d="M166.141 118.672H118.672C113.247 118.672 108.5 113.925 108.5 108.5V101.719C108.5 96.2937 113.247 91.5469 118.672 91.5469H166.141C171.566 91.5469 176.312 96.2937 176.312 101.719V108.5C176.312 113.925 171.566 118.672 166.141 118.672ZM118.672 98.3281C116.637 98.3281 115.281 99.6844 115.281 101.719V108.5C115.281 110.534 116.637 111.891 118.672 111.891H166.141C168.175 111.891 169.531 110.534 169.531 108.5V101.719C169.531 99.6844 168.175 98.3281 166.141 98.3281H118.672Z" fill="white"/>
</svg>
